%
M48
M72
T01C0.01378
T02C0.02559
T03C0.03504
T04C0.03937
T05C0.05512
T06C0.07913
T07C0.09843
T08C0.14173
%
T01
X114402Y79628
X97866Y91439
X105346Y97344
X86449Y106006
X138417Y96951
X190780Y76478
X215583Y76085
X215189Y118998
X257709Y174904
X238811Y187502
X233693Y194195
X236449Y202069
X233299Y215848
X237033Y218184
X231331Y220573
X223457Y223302
X206921Y227659
X206134Y223329
X201409Y236321
X185661Y231596
X181724Y239864
X177787Y236321
X167945Y219392
X152591Y231203
X141173Y229628
X141173Y236321
X130937Y233565
X110071Y213880
X136449Y197738
X77000Y225691
X77394Y259549
X79362Y266242
X199047Y251281
X227000Y254037
X236843Y254037
X247079Y254037
X272276Y223329
X277787Y220573
X293929Y248919
X301803Y252069
X328969Y252069
X328969Y260337
X308890Y192620
X319520Y180415
X328969Y180415
X328969Y188289
X320701Y161911
X307315Y128841
X328575Y115848
X328575Y108762
X320701Y108762
X293929Y86715
X328575Y45770
X328575Y37108
X319913Y37108
X215189Y197344
X204559Y206400
T02
X84480Y142226
X84480Y122541
X130543Y84746
T03
X365681Y106774
X365681Y116774
X365681Y126774
X365681Y179352
X365681Y189352
X365681Y199352
X365287Y251341
X365287Y261341
X365287Y271341
X365091Y56163
X365091Y46163
X365091Y36163
T04
X352394Y36104
X352394Y46104
X277000Y56557
X267000Y56557
X257000Y56557
X247000Y56557
X237000Y56557
X227000Y56557
X207000Y56557
X197000Y56557
X187000Y56557
X177000Y56557
X167000Y56557
X157000Y56557
X147000Y56557
X137000Y56557
X91173Y172266
X91173Y182266
X101000Y246557
X111000Y246557
X121000Y246557
X131000Y246557
X141000Y246557
X151000Y246557
X161000Y246557
X171000Y246557
X181000Y246557
X191000Y246557
X207000Y246557
X217000Y246557
X227000Y246557
X237000Y246557
X247000Y246557
X257000Y246557
X267000Y246557
X277000Y246557
X225819Y277778
X225819Y287778
X208102Y287778
X208102Y277778
X190386Y277778
X190386Y287778
X172669Y287778
X172669Y277778
X352079Y261301
X352079Y251301
X352079Y189411
X352079Y179411
X352394Y116813
X352394Y106813
T05
X67059Y102384
X67059Y122384
X67059Y142384
X67059Y162384
X67059Y182384
X67059Y202384
X67059Y222384
X67059Y242069
X67059Y82384
X67059Y62699
T06
X385091Y66163
X385681Y96774
X385681Y136774
X385681Y169352
X385681Y209352
X385287Y241341
X385287Y281341
X385091Y26163
T07
X57217Y42384
X57217Y262384
T08
X87000Y246557
X287000Y186557
X287000Y76557
X82000Y56557
M30
