G75*
%MOIN*%
%OFA0B0*%
%FSLAX25Y25*%
%IPPOS*%
%LPD*%
%AMOC8*
5,1,8,0,0,1.08239X$1,22.5*
%
%ADD10C,0.00600*%
%ADD11C,0.00000*%
D10*
X0027000Y0003250D02*
X0027000Y0303250D01*
X0448260Y0303250D01*
X0448260Y0003250D01*
X0027000Y0003250D01*
D11*
X0074913Y0056557D02*
X0074915Y0056731D01*
X0074922Y0056905D01*
X0074932Y0057078D01*
X0074947Y0057252D01*
X0074966Y0057425D01*
X0074990Y0057597D01*
X0075017Y0057769D01*
X0075049Y0057940D01*
X0075085Y0058110D01*
X0075125Y0058279D01*
X0075170Y0058447D01*
X0075218Y0058614D01*
X0075271Y0058780D01*
X0075327Y0058945D01*
X0075388Y0059108D01*
X0075452Y0059269D01*
X0075521Y0059429D01*
X0075593Y0059587D01*
X0075670Y0059743D01*
X0075750Y0059898D01*
X0075834Y0060050D01*
X0075921Y0060200D01*
X0076013Y0060349D01*
X0076107Y0060494D01*
X0076206Y0060638D01*
X0076308Y0060779D01*
X0076413Y0060917D01*
X0076522Y0061053D01*
X0076634Y0061186D01*
X0076749Y0061316D01*
X0076867Y0061444D01*
X0076989Y0061568D01*
X0077113Y0061690D01*
X0077241Y0061808D01*
X0077371Y0061923D01*
X0077504Y0062035D01*
X0077640Y0062144D01*
X0077778Y0062249D01*
X0077919Y0062351D01*
X0078063Y0062450D01*
X0078208Y0062544D01*
X0078357Y0062636D01*
X0078507Y0062723D01*
X0078659Y0062807D01*
X0078814Y0062887D01*
X0078970Y0062964D01*
X0079128Y0063036D01*
X0079288Y0063105D01*
X0079449Y0063169D01*
X0079612Y0063230D01*
X0079777Y0063286D01*
X0079943Y0063339D01*
X0080110Y0063387D01*
X0080278Y0063432D01*
X0080447Y0063472D01*
X0080617Y0063508D01*
X0080788Y0063540D01*
X0080960Y0063567D01*
X0081132Y0063591D01*
X0081305Y0063610D01*
X0081479Y0063625D01*
X0081652Y0063635D01*
X0081826Y0063642D01*
X0082000Y0063644D01*
X0082174Y0063642D01*
X0082348Y0063635D01*
X0082521Y0063625D01*
X0082695Y0063610D01*
X0082868Y0063591D01*
X0083040Y0063567D01*
X0083212Y0063540D01*
X0083383Y0063508D01*
X0083553Y0063472D01*
X0083722Y0063432D01*
X0083890Y0063387D01*
X0084057Y0063339D01*
X0084223Y0063286D01*
X0084388Y0063230D01*
X0084551Y0063169D01*
X0084712Y0063105D01*
X0084872Y0063036D01*
X0085030Y0062964D01*
X0085186Y0062887D01*
X0085341Y0062807D01*
X0085493Y0062723D01*
X0085643Y0062636D01*
X0085792Y0062544D01*
X0085937Y0062450D01*
X0086081Y0062351D01*
X0086222Y0062249D01*
X0086360Y0062144D01*
X0086496Y0062035D01*
X0086629Y0061923D01*
X0086759Y0061808D01*
X0086887Y0061690D01*
X0087011Y0061568D01*
X0087133Y0061444D01*
X0087251Y0061316D01*
X0087366Y0061186D01*
X0087478Y0061053D01*
X0087587Y0060917D01*
X0087692Y0060779D01*
X0087794Y0060638D01*
X0087893Y0060494D01*
X0087987Y0060349D01*
X0088079Y0060200D01*
X0088166Y0060050D01*
X0088250Y0059898D01*
X0088330Y0059743D01*
X0088407Y0059587D01*
X0088479Y0059429D01*
X0088548Y0059269D01*
X0088612Y0059108D01*
X0088673Y0058945D01*
X0088729Y0058780D01*
X0088782Y0058614D01*
X0088830Y0058447D01*
X0088875Y0058279D01*
X0088915Y0058110D01*
X0088951Y0057940D01*
X0088983Y0057769D01*
X0089010Y0057597D01*
X0089034Y0057425D01*
X0089053Y0057252D01*
X0089068Y0057078D01*
X0089078Y0056905D01*
X0089085Y0056731D01*
X0089087Y0056557D01*
X0089085Y0056383D01*
X0089078Y0056209D01*
X0089068Y0056036D01*
X0089053Y0055862D01*
X0089034Y0055689D01*
X0089010Y0055517D01*
X0088983Y0055345D01*
X0088951Y0055174D01*
X0088915Y0055004D01*
X0088875Y0054835D01*
X0088830Y0054667D01*
X0088782Y0054500D01*
X0088729Y0054334D01*
X0088673Y0054169D01*
X0088612Y0054006D01*
X0088548Y0053845D01*
X0088479Y0053685D01*
X0088407Y0053527D01*
X0088330Y0053371D01*
X0088250Y0053216D01*
X0088166Y0053064D01*
X0088079Y0052914D01*
X0087987Y0052765D01*
X0087893Y0052620D01*
X0087794Y0052476D01*
X0087692Y0052335D01*
X0087587Y0052197D01*
X0087478Y0052061D01*
X0087366Y0051928D01*
X0087251Y0051798D01*
X0087133Y0051670D01*
X0087011Y0051546D01*
X0086887Y0051424D01*
X0086759Y0051306D01*
X0086629Y0051191D01*
X0086496Y0051079D01*
X0086360Y0050970D01*
X0086222Y0050865D01*
X0086081Y0050763D01*
X0085937Y0050664D01*
X0085792Y0050570D01*
X0085643Y0050478D01*
X0085493Y0050391D01*
X0085341Y0050307D01*
X0085186Y0050227D01*
X0085030Y0050150D01*
X0084872Y0050078D01*
X0084712Y0050009D01*
X0084551Y0049945D01*
X0084388Y0049884D01*
X0084223Y0049828D01*
X0084057Y0049775D01*
X0083890Y0049727D01*
X0083722Y0049682D01*
X0083553Y0049642D01*
X0083383Y0049606D01*
X0083212Y0049574D01*
X0083040Y0049547D01*
X0082868Y0049523D01*
X0082695Y0049504D01*
X0082521Y0049489D01*
X0082348Y0049479D01*
X0082174Y0049472D01*
X0082000Y0049470D01*
X0081826Y0049472D01*
X0081652Y0049479D01*
X0081479Y0049489D01*
X0081305Y0049504D01*
X0081132Y0049523D01*
X0080960Y0049547D01*
X0080788Y0049574D01*
X0080617Y0049606D01*
X0080447Y0049642D01*
X0080278Y0049682D01*
X0080110Y0049727D01*
X0079943Y0049775D01*
X0079777Y0049828D01*
X0079612Y0049884D01*
X0079449Y0049945D01*
X0079288Y0050009D01*
X0079128Y0050078D01*
X0078970Y0050150D01*
X0078814Y0050227D01*
X0078659Y0050307D01*
X0078507Y0050391D01*
X0078357Y0050478D01*
X0078208Y0050570D01*
X0078063Y0050664D01*
X0077919Y0050763D01*
X0077778Y0050865D01*
X0077640Y0050970D01*
X0077504Y0051079D01*
X0077371Y0051191D01*
X0077241Y0051306D01*
X0077113Y0051424D01*
X0076989Y0051546D01*
X0076867Y0051670D01*
X0076749Y0051798D01*
X0076634Y0051928D01*
X0076522Y0052061D01*
X0076413Y0052197D01*
X0076308Y0052335D01*
X0076206Y0052476D01*
X0076107Y0052620D01*
X0076013Y0052765D01*
X0075921Y0052914D01*
X0075834Y0053064D01*
X0075750Y0053216D01*
X0075670Y0053371D01*
X0075593Y0053527D01*
X0075521Y0053685D01*
X0075452Y0053845D01*
X0075388Y0054006D01*
X0075327Y0054169D01*
X0075271Y0054334D01*
X0075218Y0054500D01*
X0075170Y0054667D01*
X0075125Y0054835D01*
X0075085Y0055004D01*
X0075049Y0055174D01*
X0075017Y0055345D01*
X0074990Y0055517D01*
X0074966Y0055689D01*
X0074947Y0055862D01*
X0074932Y0056036D01*
X0074922Y0056209D01*
X0074915Y0056383D01*
X0074913Y0056557D01*
X0279913Y0076557D02*
X0279915Y0076731D01*
X0279922Y0076905D01*
X0279932Y0077078D01*
X0279947Y0077252D01*
X0279966Y0077425D01*
X0279990Y0077597D01*
X0280017Y0077769D01*
X0280049Y0077940D01*
X0280085Y0078110D01*
X0280125Y0078279D01*
X0280170Y0078447D01*
X0280218Y0078614D01*
X0280271Y0078780D01*
X0280327Y0078945D01*
X0280388Y0079108D01*
X0280452Y0079269D01*
X0280521Y0079429D01*
X0280593Y0079587D01*
X0280670Y0079743D01*
X0280750Y0079898D01*
X0280834Y0080050D01*
X0280921Y0080200D01*
X0281013Y0080349D01*
X0281107Y0080494D01*
X0281206Y0080638D01*
X0281308Y0080779D01*
X0281413Y0080917D01*
X0281522Y0081053D01*
X0281634Y0081186D01*
X0281749Y0081316D01*
X0281867Y0081444D01*
X0281989Y0081568D01*
X0282113Y0081690D01*
X0282241Y0081808D01*
X0282371Y0081923D01*
X0282504Y0082035D01*
X0282640Y0082144D01*
X0282778Y0082249D01*
X0282919Y0082351D01*
X0283063Y0082450D01*
X0283208Y0082544D01*
X0283357Y0082636D01*
X0283507Y0082723D01*
X0283659Y0082807D01*
X0283814Y0082887D01*
X0283970Y0082964D01*
X0284128Y0083036D01*
X0284288Y0083105D01*
X0284449Y0083169D01*
X0284612Y0083230D01*
X0284777Y0083286D01*
X0284943Y0083339D01*
X0285110Y0083387D01*
X0285278Y0083432D01*
X0285447Y0083472D01*
X0285617Y0083508D01*
X0285788Y0083540D01*
X0285960Y0083567D01*
X0286132Y0083591D01*
X0286305Y0083610D01*
X0286479Y0083625D01*
X0286652Y0083635D01*
X0286826Y0083642D01*
X0287000Y0083644D01*
X0287174Y0083642D01*
X0287348Y0083635D01*
X0287521Y0083625D01*
X0287695Y0083610D01*
X0287868Y0083591D01*
X0288040Y0083567D01*
X0288212Y0083540D01*
X0288383Y0083508D01*
X0288553Y0083472D01*
X0288722Y0083432D01*
X0288890Y0083387D01*
X0289057Y0083339D01*
X0289223Y0083286D01*
X0289388Y0083230D01*
X0289551Y0083169D01*
X0289712Y0083105D01*
X0289872Y0083036D01*
X0290030Y0082964D01*
X0290186Y0082887D01*
X0290341Y0082807D01*
X0290493Y0082723D01*
X0290643Y0082636D01*
X0290792Y0082544D01*
X0290937Y0082450D01*
X0291081Y0082351D01*
X0291222Y0082249D01*
X0291360Y0082144D01*
X0291496Y0082035D01*
X0291629Y0081923D01*
X0291759Y0081808D01*
X0291887Y0081690D01*
X0292011Y0081568D01*
X0292133Y0081444D01*
X0292251Y0081316D01*
X0292366Y0081186D01*
X0292478Y0081053D01*
X0292587Y0080917D01*
X0292692Y0080779D01*
X0292794Y0080638D01*
X0292893Y0080494D01*
X0292987Y0080349D01*
X0293079Y0080200D01*
X0293166Y0080050D01*
X0293250Y0079898D01*
X0293330Y0079743D01*
X0293407Y0079587D01*
X0293479Y0079429D01*
X0293548Y0079269D01*
X0293612Y0079108D01*
X0293673Y0078945D01*
X0293729Y0078780D01*
X0293782Y0078614D01*
X0293830Y0078447D01*
X0293875Y0078279D01*
X0293915Y0078110D01*
X0293951Y0077940D01*
X0293983Y0077769D01*
X0294010Y0077597D01*
X0294034Y0077425D01*
X0294053Y0077252D01*
X0294068Y0077078D01*
X0294078Y0076905D01*
X0294085Y0076731D01*
X0294087Y0076557D01*
X0294085Y0076383D01*
X0294078Y0076209D01*
X0294068Y0076036D01*
X0294053Y0075862D01*
X0294034Y0075689D01*
X0294010Y0075517D01*
X0293983Y0075345D01*
X0293951Y0075174D01*
X0293915Y0075004D01*
X0293875Y0074835D01*
X0293830Y0074667D01*
X0293782Y0074500D01*
X0293729Y0074334D01*
X0293673Y0074169D01*
X0293612Y0074006D01*
X0293548Y0073845D01*
X0293479Y0073685D01*
X0293407Y0073527D01*
X0293330Y0073371D01*
X0293250Y0073216D01*
X0293166Y0073064D01*
X0293079Y0072914D01*
X0292987Y0072765D01*
X0292893Y0072620D01*
X0292794Y0072476D01*
X0292692Y0072335D01*
X0292587Y0072197D01*
X0292478Y0072061D01*
X0292366Y0071928D01*
X0292251Y0071798D01*
X0292133Y0071670D01*
X0292011Y0071546D01*
X0291887Y0071424D01*
X0291759Y0071306D01*
X0291629Y0071191D01*
X0291496Y0071079D01*
X0291360Y0070970D01*
X0291222Y0070865D01*
X0291081Y0070763D01*
X0290937Y0070664D01*
X0290792Y0070570D01*
X0290643Y0070478D01*
X0290493Y0070391D01*
X0290341Y0070307D01*
X0290186Y0070227D01*
X0290030Y0070150D01*
X0289872Y0070078D01*
X0289712Y0070009D01*
X0289551Y0069945D01*
X0289388Y0069884D01*
X0289223Y0069828D01*
X0289057Y0069775D01*
X0288890Y0069727D01*
X0288722Y0069682D01*
X0288553Y0069642D01*
X0288383Y0069606D01*
X0288212Y0069574D01*
X0288040Y0069547D01*
X0287868Y0069523D01*
X0287695Y0069504D01*
X0287521Y0069489D01*
X0287348Y0069479D01*
X0287174Y0069472D01*
X0287000Y0069470D01*
X0286826Y0069472D01*
X0286652Y0069479D01*
X0286479Y0069489D01*
X0286305Y0069504D01*
X0286132Y0069523D01*
X0285960Y0069547D01*
X0285788Y0069574D01*
X0285617Y0069606D01*
X0285447Y0069642D01*
X0285278Y0069682D01*
X0285110Y0069727D01*
X0284943Y0069775D01*
X0284777Y0069828D01*
X0284612Y0069884D01*
X0284449Y0069945D01*
X0284288Y0070009D01*
X0284128Y0070078D01*
X0283970Y0070150D01*
X0283814Y0070227D01*
X0283659Y0070307D01*
X0283507Y0070391D01*
X0283357Y0070478D01*
X0283208Y0070570D01*
X0283063Y0070664D01*
X0282919Y0070763D01*
X0282778Y0070865D01*
X0282640Y0070970D01*
X0282504Y0071079D01*
X0282371Y0071191D01*
X0282241Y0071306D01*
X0282113Y0071424D01*
X0281989Y0071546D01*
X0281867Y0071670D01*
X0281749Y0071798D01*
X0281634Y0071928D01*
X0281522Y0072061D01*
X0281413Y0072197D01*
X0281308Y0072335D01*
X0281206Y0072476D01*
X0281107Y0072620D01*
X0281013Y0072765D01*
X0280921Y0072914D01*
X0280834Y0073064D01*
X0280750Y0073216D01*
X0280670Y0073371D01*
X0280593Y0073527D01*
X0280521Y0073685D01*
X0280452Y0073845D01*
X0280388Y0074006D01*
X0280327Y0074169D01*
X0280271Y0074334D01*
X0280218Y0074500D01*
X0280170Y0074667D01*
X0280125Y0074835D01*
X0280085Y0075004D01*
X0280049Y0075174D01*
X0280017Y0075345D01*
X0279990Y0075517D01*
X0279966Y0075689D01*
X0279947Y0075862D01*
X0279932Y0076036D01*
X0279922Y0076209D01*
X0279915Y0076383D01*
X0279913Y0076557D01*
X0413614Y0080927D02*
X0413616Y0081053D01*
X0413622Y0081178D01*
X0413632Y0081303D01*
X0413646Y0081428D01*
X0413664Y0081552D01*
X0413686Y0081676D01*
X0413711Y0081799D01*
X0413741Y0081921D01*
X0413774Y0082042D01*
X0413812Y0082162D01*
X0413853Y0082280D01*
X0413897Y0082398D01*
X0413946Y0082513D01*
X0413998Y0082628D01*
X0414054Y0082740D01*
X0414113Y0082851D01*
X0414176Y0082960D01*
X0414242Y0083066D01*
X0414312Y0083171D01*
X0414385Y0083273D01*
X0414461Y0083373D01*
X0414540Y0083471D01*
X0414622Y0083565D01*
X0414707Y0083658D01*
X0414795Y0083747D01*
X0414886Y0083834D01*
X0414980Y0083918D01*
X0415076Y0083998D01*
X0415175Y0084076D01*
X0415276Y0084150D01*
X0415379Y0084221D01*
X0415485Y0084289D01*
X0415593Y0084354D01*
X0415702Y0084415D01*
X0415814Y0084472D01*
X0415927Y0084526D01*
X0416042Y0084577D01*
X0416159Y0084623D01*
X0416277Y0084666D01*
X0416396Y0084706D01*
X0416517Y0084741D01*
X0416638Y0084772D01*
X0416761Y0084800D01*
X0416884Y0084824D01*
X0417008Y0084844D01*
X0417132Y0084860D01*
X0417257Y0084872D01*
X0417383Y0084880D01*
X0417508Y0084884D01*
X0417634Y0084884D01*
X0417759Y0084880D01*
X0417885Y0084872D01*
X0418010Y0084860D01*
X0418134Y0084844D01*
X0418258Y0084824D01*
X0418381Y0084800D01*
X0418504Y0084772D01*
X0418625Y0084741D01*
X0418746Y0084706D01*
X0418865Y0084666D01*
X0418983Y0084623D01*
X0419100Y0084577D01*
X0419215Y0084526D01*
X0419328Y0084472D01*
X0419440Y0084415D01*
X0419550Y0084354D01*
X0419657Y0084289D01*
X0419763Y0084221D01*
X0419866Y0084150D01*
X0419967Y0084076D01*
X0420066Y0083998D01*
X0420162Y0083918D01*
X0420256Y0083834D01*
X0420347Y0083747D01*
X0420435Y0083658D01*
X0420520Y0083565D01*
X0420602Y0083471D01*
X0420681Y0083373D01*
X0420757Y0083273D01*
X0420830Y0083171D01*
X0420900Y0083066D01*
X0420966Y0082960D01*
X0421029Y0082851D01*
X0421088Y0082740D01*
X0421144Y0082628D01*
X0421196Y0082513D01*
X0421245Y0082398D01*
X0421289Y0082280D01*
X0421330Y0082162D01*
X0421368Y0082042D01*
X0421401Y0081921D01*
X0421431Y0081799D01*
X0421456Y0081676D01*
X0421478Y0081552D01*
X0421496Y0081428D01*
X0421510Y0081303D01*
X0421520Y0081178D01*
X0421526Y0081053D01*
X0421528Y0080927D01*
X0421526Y0080801D01*
X0421520Y0080676D01*
X0421510Y0080551D01*
X0421496Y0080426D01*
X0421478Y0080302D01*
X0421456Y0080178D01*
X0421431Y0080055D01*
X0421401Y0079933D01*
X0421368Y0079812D01*
X0421330Y0079692D01*
X0421289Y0079574D01*
X0421245Y0079456D01*
X0421196Y0079341D01*
X0421144Y0079226D01*
X0421088Y0079114D01*
X0421029Y0079003D01*
X0420966Y0078894D01*
X0420900Y0078788D01*
X0420830Y0078683D01*
X0420757Y0078581D01*
X0420681Y0078481D01*
X0420602Y0078383D01*
X0420520Y0078289D01*
X0420435Y0078196D01*
X0420347Y0078107D01*
X0420256Y0078020D01*
X0420162Y0077936D01*
X0420066Y0077856D01*
X0419967Y0077778D01*
X0419866Y0077704D01*
X0419763Y0077633D01*
X0419657Y0077565D01*
X0419549Y0077500D01*
X0419440Y0077439D01*
X0419328Y0077382D01*
X0419215Y0077328D01*
X0419100Y0077277D01*
X0418983Y0077231D01*
X0418865Y0077188D01*
X0418746Y0077148D01*
X0418625Y0077113D01*
X0418504Y0077082D01*
X0418381Y0077054D01*
X0418258Y0077030D01*
X0418134Y0077010D01*
X0418010Y0076994D01*
X0417885Y0076982D01*
X0417759Y0076974D01*
X0417634Y0076970D01*
X0417508Y0076970D01*
X0417383Y0076974D01*
X0417257Y0076982D01*
X0417132Y0076994D01*
X0417008Y0077010D01*
X0416884Y0077030D01*
X0416761Y0077054D01*
X0416638Y0077082D01*
X0416517Y0077113D01*
X0416396Y0077148D01*
X0416277Y0077188D01*
X0416159Y0077231D01*
X0416042Y0077277D01*
X0415927Y0077328D01*
X0415814Y0077382D01*
X0415702Y0077439D01*
X0415592Y0077500D01*
X0415485Y0077565D01*
X0415379Y0077633D01*
X0415276Y0077704D01*
X0415175Y0077778D01*
X0415076Y0077856D01*
X0414980Y0077936D01*
X0414886Y0078020D01*
X0414795Y0078107D01*
X0414707Y0078196D01*
X0414622Y0078289D01*
X0414540Y0078383D01*
X0414461Y0078481D01*
X0414385Y0078581D01*
X0414312Y0078683D01*
X0414242Y0078788D01*
X0414176Y0078894D01*
X0414113Y0079003D01*
X0414054Y0079114D01*
X0413998Y0079226D01*
X0413946Y0079341D01*
X0413897Y0079456D01*
X0413853Y0079574D01*
X0413812Y0079692D01*
X0413774Y0079812D01*
X0413741Y0079933D01*
X0413711Y0080055D01*
X0413686Y0080178D01*
X0413664Y0080302D01*
X0413646Y0080426D01*
X0413632Y0080551D01*
X0413622Y0080676D01*
X0413616Y0080801D01*
X0413614Y0080927D01*
X0413220Y0100711D02*
X0413222Y0100837D01*
X0413228Y0100962D01*
X0413238Y0101087D01*
X0413252Y0101212D01*
X0413270Y0101336D01*
X0413292Y0101460D01*
X0413317Y0101583D01*
X0413347Y0101705D01*
X0413380Y0101826D01*
X0413418Y0101946D01*
X0413459Y0102064D01*
X0413503Y0102182D01*
X0413552Y0102297D01*
X0413604Y0102412D01*
X0413660Y0102524D01*
X0413719Y0102635D01*
X0413782Y0102744D01*
X0413848Y0102850D01*
X0413918Y0102955D01*
X0413991Y0103057D01*
X0414067Y0103157D01*
X0414146Y0103255D01*
X0414228Y0103349D01*
X0414313Y0103442D01*
X0414401Y0103531D01*
X0414492Y0103618D01*
X0414586Y0103702D01*
X0414682Y0103782D01*
X0414781Y0103860D01*
X0414882Y0103934D01*
X0414985Y0104005D01*
X0415091Y0104073D01*
X0415199Y0104138D01*
X0415308Y0104199D01*
X0415420Y0104256D01*
X0415533Y0104310D01*
X0415648Y0104361D01*
X0415765Y0104407D01*
X0415883Y0104450D01*
X0416002Y0104490D01*
X0416123Y0104525D01*
X0416244Y0104556D01*
X0416367Y0104584D01*
X0416490Y0104608D01*
X0416614Y0104628D01*
X0416738Y0104644D01*
X0416863Y0104656D01*
X0416989Y0104664D01*
X0417114Y0104668D01*
X0417240Y0104668D01*
X0417365Y0104664D01*
X0417491Y0104656D01*
X0417616Y0104644D01*
X0417740Y0104628D01*
X0417864Y0104608D01*
X0417987Y0104584D01*
X0418110Y0104556D01*
X0418231Y0104525D01*
X0418352Y0104490D01*
X0418471Y0104450D01*
X0418589Y0104407D01*
X0418706Y0104361D01*
X0418821Y0104310D01*
X0418934Y0104256D01*
X0419046Y0104199D01*
X0419156Y0104138D01*
X0419263Y0104073D01*
X0419369Y0104005D01*
X0419472Y0103934D01*
X0419573Y0103860D01*
X0419672Y0103782D01*
X0419768Y0103702D01*
X0419862Y0103618D01*
X0419953Y0103531D01*
X0420041Y0103442D01*
X0420126Y0103349D01*
X0420208Y0103255D01*
X0420287Y0103157D01*
X0420363Y0103057D01*
X0420436Y0102955D01*
X0420506Y0102850D01*
X0420572Y0102744D01*
X0420635Y0102635D01*
X0420694Y0102524D01*
X0420750Y0102412D01*
X0420802Y0102297D01*
X0420851Y0102182D01*
X0420895Y0102064D01*
X0420936Y0101946D01*
X0420974Y0101826D01*
X0421007Y0101705D01*
X0421037Y0101583D01*
X0421062Y0101460D01*
X0421084Y0101336D01*
X0421102Y0101212D01*
X0421116Y0101087D01*
X0421126Y0100962D01*
X0421132Y0100837D01*
X0421134Y0100711D01*
X0421132Y0100585D01*
X0421126Y0100460D01*
X0421116Y0100335D01*
X0421102Y0100210D01*
X0421084Y0100086D01*
X0421062Y0099962D01*
X0421037Y0099839D01*
X0421007Y0099717D01*
X0420974Y0099596D01*
X0420936Y0099476D01*
X0420895Y0099358D01*
X0420851Y0099240D01*
X0420802Y0099125D01*
X0420750Y0099010D01*
X0420694Y0098898D01*
X0420635Y0098787D01*
X0420572Y0098678D01*
X0420506Y0098572D01*
X0420436Y0098467D01*
X0420363Y0098365D01*
X0420287Y0098265D01*
X0420208Y0098167D01*
X0420126Y0098073D01*
X0420041Y0097980D01*
X0419953Y0097891D01*
X0419862Y0097804D01*
X0419768Y0097720D01*
X0419672Y0097640D01*
X0419573Y0097562D01*
X0419472Y0097488D01*
X0419369Y0097417D01*
X0419263Y0097349D01*
X0419155Y0097284D01*
X0419046Y0097223D01*
X0418934Y0097166D01*
X0418821Y0097112D01*
X0418706Y0097061D01*
X0418589Y0097015D01*
X0418471Y0096972D01*
X0418352Y0096932D01*
X0418231Y0096897D01*
X0418110Y0096866D01*
X0417987Y0096838D01*
X0417864Y0096814D01*
X0417740Y0096794D01*
X0417616Y0096778D01*
X0417491Y0096766D01*
X0417365Y0096758D01*
X0417240Y0096754D01*
X0417114Y0096754D01*
X0416989Y0096758D01*
X0416863Y0096766D01*
X0416738Y0096778D01*
X0416614Y0096794D01*
X0416490Y0096814D01*
X0416367Y0096838D01*
X0416244Y0096866D01*
X0416123Y0096897D01*
X0416002Y0096932D01*
X0415883Y0096972D01*
X0415765Y0097015D01*
X0415648Y0097061D01*
X0415533Y0097112D01*
X0415420Y0097166D01*
X0415308Y0097223D01*
X0415198Y0097284D01*
X0415091Y0097349D01*
X0414985Y0097417D01*
X0414882Y0097488D01*
X0414781Y0097562D01*
X0414682Y0097640D01*
X0414586Y0097720D01*
X0414492Y0097804D01*
X0414401Y0097891D01*
X0414313Y0097980D01*
X0414228Y0098073D01*
X0414146Y0098167D01*
X0414067Y0098265D01*
X0413991Y0098365D01*
X0413918Y0098467D01*
X0413848Y0098572D01*
X0413782Y0098678D01*
X0413719Y0098787D01*
X0413660Y0098898D01*
X0413604Y0099010D01*
X0413552Y0099125D01*
X0413503Y0099240D01*
X0413459Y0099358D01*
X0413418Y0099476D01*
X0413380Y0099596D01*
X0413347Y0099717D01*
X0413317Y0099839D01*
X0413292Y0099962D01*
X0413270Y0100086D01*
X0413252Y0100210D01*
X0413238Y0100335D01*
X0413228Y0100460D01*
X0413222Y0100585D01*
X0413220Y0100711D01*
X0413220Y0140711D02*
X0413222Y0140837D01*
X0413228Y0140962D01*
X0413238Y0141087D01*
X0413252Y0141212D01*
X0413270Y0141336D01*
X0413292Y0141460D01*
X0413317Y0141583D01*
X0413347Y0141705D01*
X0413380Y0141826D01*
X0413418Y0141946D01*
X0413459Y0142064D01*
X0413503Y0142182D01*
X0413552Y0142297D01*
X0413604Y0142412D01*
X0413660Y0142524D01*
X0413719Y0142635D01*
X0413782Y0142744D01*
X0413848Y0142850D01*
X0413918Y0142955D01*
X0413991Y0143057D01*
X0414067Y0143157D01*
X0414146Y0143255D01*
X0414228Y0143349D01*
X0414313Y0143442D01*
X0414401Y0143531D01*
X0414492Y0143618D01*
X0414586Y0143702D01*
X0414682Y0143782D01*
X0414781Y0143860D01*
X0414882Y0143934D01*
X0414985Y0144005D01*
X0415091Y0144073D01*
X0415199Y0144138D01*
X0415308Y0144199D01*
X0415420Y0144256D01*
X0415533Y0144310D01*
X0415648Y0144361D01*
X0415765Y0144407D01*
X0415883Y0144450D01*
X0416002Y0144490D01*
X0416123Y0144525D01*
X0416244Y0144556D01*
X0416367Y0144584D01*
X0416490Y0144608D01*
X0416614Y0144628D01*
X0416738Y0144644D01*
X0416863Y0144656D01*
X0416989Y0144664D01*
X0417114Y0144668D01*
X0417240Y0144668D01*
X0417365Y0144664D01*
X0417491Y0144656D01*
X0417616Y0144644D01*
X0417740Y0144628D01*
X0417864Y0144608D01*
X0417987Y0144584D01*
X0418110Y0144556D01*
X0418231Y0144525D01*
X0418352Y0144490D01*
X0418471Y0144450D01*
X0418589Y0144407D01*
X0418706Y0144361D01*
X0418821Y0144310D01*
X0418934Y0144256D01*
X0419046Y0144199D01*
X0419156Y0144138D01*
X0419263Y0144073D01*
X0419369Y0144005D01*
X0419472Y0143934D01*
X0419573Y0143860D01*
X0419672Y0143782D01*
X0419768Y0143702D01*
X0419862Y0143618D01*
X0419953Y0143531D01*
X0420041Y0143442D01*
X0420126Y0143349D01*
X0420208Y0143255D01*
X0420287Y0143157D01*
X0420363Y0143057D01*
X0420436Y0142955D01*
X0420506Y0142850D01*
X0420572Y0142744D01*
X0420635Y0142635D01*
X0420694Y0142524D01*
X0420750Y0142412D01*
X0420802Y0142297D01*
X0420851Y0142182D01*
X0420895Y0142064D01*
X0420936Y0141946D01*
X0420974Y0141826D01*
X0421007Y0141705D01*
X0421037Y0141583D01*
X0421062Y0141460D01*
X0421084Y0141336D01*
X0421102Y0141212D01*
X0421116Y0141087D01*
X0421126Y0140962D01*
X0421132Y0140837D01*
X0421134Y0140711D01*
X0421132Y0140585D01*
X0421126Y0140460D01*
X0421116Y0140335D01*
X0421102Y0140210D01*
X0421084Y0140086D01*
X0421062Y0139962D01*
X0421037Y0139839D01*
X0421007Y0139717D01*
X0420974Y0139596D01*
X0420936Y0139476D01*
X0420895Y0139358D01*
X0420851Y0139240D01*
X0420802Y0139125D01*
X0420750Y0139010D01*
X0420694Y0138898D01*
X0420635Y0138787D01*
X0420572Y0138678D01*
X0420506Y0138572D01*
X0420436Y0138467D01*
X0420363Y0138365D01*
X0420287Y0138265D01*
X0420208Y0138167D01*
X0420126Y0138073D01*
X0420041Y0137980D01*
X0419953Y0137891D01*
X0419862Y0137804D01*
X0419768Y0137720D01*
X0419672Y0137640D01*
X0419573Y0137562D01*
X0419472Y0137488D01*
X0419369Y0137417D01*
X0419263Y0137349D01*
X0419155Y0137284D01*
X0419046Y0137223D01*
X0418934Y0137166D01*
X0418821Y0137112D01*
X0418706Y0137061D01*
X0418589Y0137015D01*
X0418471Y0136972D01*
X0418352Y0136932D01*
X0418231Y0136897D01*
X0418110Y0136866D01*
X0417987Y0136838D01*
X0417864Y0136814D01*
X0417740Y0136794D01*
X0417616Y0136778D01*
X0417491Y0136766D01*
X0417365Y0136758D01*
X0417240Y0136754D01*
X0417114Y0136754D01*
X0416989Y0136758D01*
X0416863Y0136766D01*
X0416738Y0136778D01*
X0416614Y0136794D01*
X0416490Y0136814D01*
X0416367Y0136838D01*
X0416244Y0136866D01*
X0416123Y0136897D01*
X0416002Y0136932D01*
X0415883Y0136972D01*
X0415765Y0137015D01*
X0415648Y0137061D01*
X0415533Y0137112D01*
X0415420Y0137166D01*
X0415308Y0137223D01*
X0415198Y0137284D01*
X0415091Y0137349D01*
X0414985Y0137417D01*
X0414882Y0137488D01*
X0414781Y0137562D01*
X0414682Y0137640D01*
X0414586Y0137720D01*
X0414492Y0137804D01*
X0414401Y0137891D01*
X0414313Y0137980D01*
X0414228Y0138073D01*
X0414146Y0138167D01*
X0414067Y0138265D01*
X0413991Y0138365D01*
X0413918Y0138467D01*
X0413848Y0138572D01*
X0413782Y0138678D01*
X0413719Y0138787D01*
X0413660Y0138898D01*
X0413604Y0139010D01*
X0413552Y0139125D01*
X0413503Y0139240D01*
X0413459Y0139358D01*
X0413418Y0139476D01*
X0413380Y0139596D01*
X0413347Y0139717D01*
X0413317Y0139839D01*
X0413292Y0139962D01*
X0413270Y0140086D01*
X0413252Y0140210D01*
X0413238Y0140335D01*
X0413228Y0140460D01*
X0413222Y0140585D01*
X0413220Y0140711D01*
X0413220Y0160494D02*
X0413222Y0160620D01*
X0413228Y0160745D01*
X0413238Y0160870D01*
X0413252Y0160995D01*
X0413270Y0161119D01*
X0413292Y0161243D01*
X0413317Y0161366D01*
X0413347Y0161488D01*
X0413380Y0161609D01*
X0413418Y0161729D01*
X0413459Y0161847D01*
X0413503Y0161965D01*
X0413552Y0162080D01*
X0413604Y0162195D01*
X0413660Y0162307D01*
X0413719Y0162418D01*
X0413782Y0162527D01*
X0413848Y0162633D01*
X0413918Y0162738D01*
X0413991Y0162840D01*
X0414067Y0162940D01*
X0414146Y0163038D01*
X0414228Y0163132D01*
X0414313Y0163225D01*
X0414401Y0163314D01*
X0414492Y0163401D01*
X0414586Y0163485D01*
X0414682Y0163565D01*
X0414781Y0163643D01*
X0414882Y0163717D01*
X0414985Y0163788D01*
X0415091Y0163856D01*
X0415199Y0163921D01*
X0415308Y0163982D01*
X0415420Y0164039D01*
X0415533Y0164093D01*
X0415648Y0164144D01*
X0415765Y0164190D01*
X0415883Y0164233D01*
X0416002Y0164273D01*
X0416123Y0164308D01*
X0416244Y0164339D01*
X0416367Y0164367D01*
X0416490Y0164391D01*
X0416614Y0164411D01*
X0416738Y0164427D01*
X0416863Y0164439D01*
X0416989Y0164447D01*
X0417114Y0164451D01*
X0417240Y0164451D01*
X0417365Y0164447D01*
X0417491Y0164439D01*
X0417616Y0164427D01*
X0417740Y0164411D01*
X0417864Y0164391D01*
X0417987Y0164367D01*
X0418110Y0164339D01*
X0418231Y0164308D01*
X0418352Y0164273D01*
X0418471Y0164233D01*
X0418589Y0164190D01*
X0418706Y0164144D01*
X0418821Y0164093D01*
X0418934Y0164039D01*
X0419046Y0163982D01*
X0419156Y0163921D01*
X0419263Y0163856D01*
X0419369Y0163788D01*
X0419472Y0163717D01*
X0419573Y0163643D01*
X0419672Y0163565D01*
X0419768Y0163485D01*
X0419862Y0163401D01*
X0419953Y0163314D01*
X0420041Y0163225D01*
X0420126Y0163132D01*
X0420208Y0163038D01*
X0420287Y0162940D01*
X0420363Y0162840D01*
X0420436Y0162738D01*
X0420506Y0162633D01*
X0420572Y0162527D01*
X0420635Y0162418D01*
X0420694Y0162307D01*
X0420750Y0162195D01*
X0420802Y0162080D01*
X0420851Y0161965D01*
X0420895Y0161847D01*
X0420936Y0161729D01*
X0420974Y0161609D01*
X0421007Y0161488D01*
X0421037Y0161366D01*
X0421062Y0161243D01*
X0421084Y0161119D01*
X0421102Y0160995D01*
X0421116Y0160870D01*
X0421126Y0160745D01*
X0421132Y0160620D01*
X0421134Y0160494D01*
X0421132Y0160368D01*
X0421126Y0160243D01*
X0421116Y0160118D01*
X0421102Y0159993D01*
X0421084Y0159869D01*
X0421062Y0159745D01*
X0421037Y0159622D01*
X0421007Y0159500D01*
X0420974Y0159379D01*
X0420936Y0159259D01*
X0420895Y0159141D01*
X0420851Y0159023D01*
X0420802Y0158908D01*
X0420750Y0158793D01*
X0420694Y0158681D01*
X0420635Y0158570D01*
X0420572Y0158461D01*
X0420506Y0158355D01*
X0420436Y0158250D01*
X0420363Y0158148D01*
X0420287Y0158048D01*
X0420208Y0157950D01*
X0420126Y0157856D01*
X0420041Y0157763D01*
X0419953Y0157674D01*
X0419862Y0157587D01*
X0419768Y0157503D01*
X0419672Y0157423D01*
X0419573Y0157345D01*
X0419472Y0157271D01*
X0419369Y0157200D01*
X0419263Y0157132D01*
X0419155Y0157067D01*
X0419046Y0157006D01*
X0418934Y0156949D01*
X0418821Y0156895D01*
X0418706Y0156844D01*
X0418589Y0156798D01*
X0418471Y0156755D01*
X0418352Y0156715D01*
X0418231Y0156680D01*
X0418110Y0156649D01*
X0417987Y0156621D01*
X0417864Y0156597D01*
X0417740Y0156577D01*
X0417616Y0156561D01*
X0417491Y0156549D01*
X0417365Y0156541D01*
X0417240Y0156537D01*
X0417114Y0156537D01*
X0416989Y0156541D01*
X0416863Y0156549D01*
X0416738Y0156561D01*
X0416614Y0156577D01*
X0416490Y0156597D01*
X0416367Y0156621D01*
X0416244Y0156649D01*
X0416123Y0156680D01*
X0416002Y0156715D01*
X0415883Y0156755D01*
X0415765Y0156798D01*
X0415648Y0156844D01*
X0415533Y0156895D01*
X0415420Y0156949D01*
X0415308Y0157006D01*
X0415198Y0157067D01*
X0415091Y0157132D01*
X0414985Y0157200D01*
X0414882Y0157271D01*
X0414781Y0157345D01*
X0414682Y0157423D01*
X0414586Y0157503D01*
X0414492Y0157587D01*
X0414401Y0157674D01*
X0414313Y0157763D01*
X0414228Y0157856D01*
X0414146Y0157950D01*
X0414067Y0158048D01*
X0413991Y0158148D01*
X0413918Y0158250D01*
X0413848Y0158355D01*
X0413782Y0158461D01*
X0413719Y0158570D01*
X0413660Y0158681D01*
X0413604Y0158793D01*
X0413552Y0158908D01*
X0413503Y0159023D01*
X0413459Y0159141D01*
X0413418Y0159259D01*
X0413380Y0159379D01*
X0413347Y0159500D01*
X0413317Y0159622D01*
X0413292Y0159745D01*
X0413270Y0159869D01*
X0413252Y0159993D01*
X0413238Y0160118D01*
X0413228Y0160243D01*
X0413222Y0160368D01*
X0413220Y0160494D01*
X0413220Y0200494D02*
X0413222Y0200620D01*
X0413228Y0200745D01*
X0413238Y0200870D01*
X0413252Y0200995D01*
X0413270Y0201119D01*
X0413292Y0201243D01*
X0413317Y0201366D01*
X0413347Y0201488D01*
X0413380Y0201609D01*
X0413418Y0201729D01*
X0413459Y0201847D01*
X0413503Y0201965D01*
X0413552Y0202080D01*
X0413604Y0202195D01*
X0413660Y0202307D01*
X0413719Y0202418D01*
X0413782Y0202527D01*
X0413848Y0202633D01*
X0413918Y0202738D01*
X0413991Y0202840D01*
X0414067Y0202940D01*
X0414146Y0203038D01*
X0414228Y0203132D01*
X0414313Y0203225D01*
X0414401Y0203314D01*
X0414492Y0203401D01*
X0414586Y0203485D01*
X0414682Y0203565D01*
X0414781Y0203643D01*
X0414882Y0203717D01*
X0414985Y0203788D01*
X0415091Y0203856D01*
X0415199Y0203921D01*
X0415308Y0203982D01*
X0415420Y0204039D01*
X0415533Y0204093D01*
X0415648Y0204144D01*
X0415765Y0204190D01*
X0415883Y0204233D01*
X0416002Y0204273D01*
X0416123Y0204308D01*
X0416244Y0204339D01*
X0416367Y0204367D01*
X0416490Y0204391D01*
X0416614Y0204411D01*
X0416738Y0204427D01*
X0416863Y0204439D01*
X0416989Y0204447D01*
X0417114Y0204451D01*
X0417240Y0204451D01*
X0417365Y0204447D01*
X0417491Y0204439D01*
X0417616Y0204427D01*
X0417740Y0204411D01*
X0417864Y0204391D01*
X0417987Y0204367D01*
X0418110Y0204339D01*
X0418231Y0204308D01*
X0418352Y0204273D01*
X0418471Y0204233D01*
X0418589Y0204190D01*
X0418706Y0204144D01*
X0418821Y0204093D01*
X0418934Y0204039D01*
X0419046Y0203982D01*
X0419156Y0203921D01*
X0419263Y0203856D01*
X0419369Y0203788D01*
X0419472Y0203717D01*
X0419573Y0203643D01*
X0419672Y0203565D01*
X0419768Y0203485D01*
X0419862Y0203401D01*
X0419953Y0203314D01*
X0420041Y0203225D01*
X0420126Y0203132D01*
X0420208Y0203038D01*
X0420287Y0202940D01*
X0420363Y0202840D01*
X0420436Y0202738D01*
X0420506Y0202633D01*
X0420572Y0202527D01*
X0420635Y0202418D01*
X0420694Y0202307D01*
X0420750Y0202195D01*
X0420802Y0202080D01*
X0420851Y0201965D01*
X0420895Y0201847D01*
X0420936Y0201729D01*
X0420974Y0201609D01*
X0421007Y0201488D01*
X0421037Y0201366D01*
X0421062Y0201243D01*
X0421084Y0201119D01*
X0421102Y0200995D01*
X0421116Y0200870D01*
X0421126Y0200745D01*
X0421132Y0200620D01*
X0421134Y0200494D01*
X0421132Y0200368D01*
X0421126Y0200243D01*
X0421116Y0200118D01*
X0421102Y0199993D01*
X0421084Y0199869D01*
X0421062Y0199745D01*
X0421037Y0199622D01*
X0421007Y0199500D01*
X0420974Y0199379D01*
X0420936Y0199259D01*
X0420895Y0199141D01*
X0420851Y0199023D01*
X0420802Y0198908D01*
X0420750Y0198793D01*
X0420694Y0198681D01*
X0420635Y0198570D01*
X0420572Y0198461D01*
X0420506Y0198355D01*
X0420436Y0198250D01*
X0420363Y0198148D01*
X0420287Y0198048D01*
X0420208Y0197950D01*
X0420126Y0197856D01*
X0420041Y0197763D01*
X0419953Y0197674D01*
X0419862Y0197587D01*
X0419768Y0197503D01*
X0419672Y0197423D01*
X0419573Y0197345D01*
X0419472Y0197271D01*
X0419369Y0197200D01*
X0419263Y0197132D01*
X0419155Y0197067D01*
X0419046Y0197006D01*
X0418934Y0196949D01*
X0418821Y0196895D01*
X0418706Y0196844D01*
X0418589Y0196798D01*
X0418471Y0196755D01*
X0418352Y0196715D01*
X0418231Y0196680D01*
X0418110Y0196649D01*
X0417987Y0196621D01*
X0417864Y0196597D01*
X0417740Y0196577D01*
X0417616Y0196561D01*
X0417491Y0196549D01*
X0417365Y0196541D01*
X0417240Y0196537D01*
X0417114Y0196537D01*
X0416989Y0196541D01*
X0416863Y0196549D01*
X0416738Y0196561D01*
X0416614Y0196577D01*
X0416490Y0196597D01*
X0416367Y0196621D01*
X0416244Y0196649D01*
X0416123Y0196680D01*
X0416002Y0196715D01*
X0415883Y0196755D01*
X0415765Y0196798D01*
X0415648Y0196844D01*
X0415533Y0196895D01*
X0415420Y0196949D01*
X0415308Y0197006D01*
X0415198Y0197067D01*
X0415091Y0197132D01*
X0414985Y0197200D01*
X0414882Y0197271D01*
X0414781Y0197345D01*
X0414682Y0197423D01*
X0414586Y0197503D01*
X0414492Y0197587D01*
X0414401Y0197674D01*
X0414313Y0197763D01*
X0414228Y0197856D01*
X0414146Y0197950D01*
X0414067Y0198048D01*
X0413991Y0198148D01*
X0413918Y0198250D01*
X0413848Y0198355D01*
X0413782Y0198461D01*
X0413719Y0198570D01*
X0413660Y0198681D01*
X0413604Y0198793D01*
X0413552Y0198908D01*
X0413503Y0199023D01*
X0413459Y0199141D01*
X0413418Y0199259D01*
X0413380Y0199379D01*
X0413347Y0199500D01*
X0413317Y0199622D01*
X0413292Y0199745D01*
X0413270Y0199869D01*
X0413252Y0199993D01*
X0413238Y0200118D01*
X0413228Y0200243D01*
X0413222Y0200368D01*
X0413220Y0200494D01*
X0413220Y0220671D02*
X0413222Y0220797D01*
X0413228Y0220922D01*
X0413238Y0221047D01*
X0413252Y0221172D01*
X0413270Y0221296D01*
X0413292Y0221420D01*
X0413317Y0221543D01*
X0413347Y0221665D01*
X0413380Y0221786D01*
X0413418Y0221906D01*
X0413459Y0222024D01*
X0413503Y0222142D01*
X0413552Y0222257D01*
X0413604Y0222372D01*
X0413660Y0222484D01*
X0413719Y0222595D01*
X0413782Y0222704D01*
X0413848Y0222810D01*
X0413918Y0222915D01*
X0413991Y0223017D01*
X0414067Y0223117D01*
X0414146Y0223215D01*
X0414228Y0223309D01*
X0414313Y0223402D01*
X0414401Y0223491D01*
X0414492Y0223578D01*
X0414586Y0223662D01*
X0414682Y0223742D01*
X0414781Y0223820D01*
X0414882Y0223894D01*
X0414985Y0223965D01*
X0415091Y0224033D01*
X0415199Y0224098D01*
X0415308Y0224159D01*
X0415420Y0224216D01*
X0415533Y0224270D01*
X0415648Y0224321D01*
X0415765Y0224367D01*
X0415883Y0224410D01*
X0416002Y0224450D01*
X0416123Y0224485D01*
X0416244Y0224516D01*
X0416367Y0224544D01*
X0416490Y0224568D01*
X0416614Y0224588D01*
X0416738Y0224604D01*
X0416863Y0224616D01*
X0416989Y0224624D01*
X0417114Y0224628D01*
X0417240Y0224628D01*
X0417365Y0224624D01*
X0417491Y0224616D01*
X0417616Y0224604D01*
X0417740Y0224588D01*
X0417864Y0224568D01*
X0417987Y0224544D01*
X0418110Y0224516D01*
X0418231Y0224485D01*
X0418352Y0224450D01*
X0418471Y0224410D01*
X0418589Y0224367D01*
X0418706Y0224321D01*
X0418821Y0224270D01*
X0418934Y0224216D01*
X0419046Y0224159D01*
X0419156Y0224098D01*
X0419263Y0224033D01*
X0419369Y0223965D01*
X0419472Y0223894D01*
X0419573Y0223820D01*
X0419672Y0223742D01*
X0419768Y0223662D01*
X0419862Y0223578D01*
X0419953Y0223491D01*
X0420041Y0223402D01*
X0420126Y0223309D01*
X0420208Y0223215D01*
X0420287Y0223117D01*
X0420363Y0223017D01*
X0420436Y0222915D01*
X0420506Y0222810D01*
X0420572Y0222704D01*
X0420635Y0222595D01*
X0420694Y0222484D01*
X0420750Y0222372D01*
X0420802Y0222257D01*
X0420851Y0222142D01*
X0420895Y0222024D01*
X0420936Y0221906D01*
X0420974Y0221786D01*
X0421007Y0221665D01*
X0421037Y0221543D01*
X0421062Y0221420D01*
X0421084Y0221296D01*
X0421102Y0221172D01*
X0421116Y0221047D01*
X0421126Y0220922D01*
X0421132Y0220797D01*
X0421134Y0220671D01*
X0421132Y0220545D01*
X0421126Y0220420D01*
X0421116Y0220295D01*
X0421102Y0220170D01*
X0421084Y0220046D01*
X0421062Y0219922D01*
X0421037Y0219799D01*
X0421007Y0219677D01*
X0420974Y0219556D01*
X0420936Y0219436D01*
X0420895Y0219318D01*
X0420851Y0219200D01*
X0420802Y0219085D01*
X0420750Y0218970D01*
X0420694Y0218858D01*
X0420635Y0218747D01*
X0420572Y0218638D01*
X0420506Y0218532D01*
X0420436Y0218427D01*
X0420363Y0218325D01*
X0420287Y0218225D01*
X0420208Y0218127D01*
X0420126Y0218033D01*
X0420041Y0217940D01*
X0419953Y0217851D01*
X0419862Y0217764D01*
X0419768Y0217680D01*
X0419672Y0217600D01*
X0419573Y0217522D01*
X0419472Y0217448D01*
X0419369Y0217377D01*
X0419263Y0217309D01*
X0419155Y0217244D01*
X0419046Y0217183D01*
X0418934Y0217126D01*
X0418821Y0217072D01*
X0418706Y0217021D01*
X0418589Y0216975D01*
X0418471Y0216932D01*
X0418352Y0216892D01*
X0418231Y0216857D01*
X0418110Y0216826D01*
X0417987Y0216798D01*
X0417864Y0216774D01*
X0417740Y0216754D01*
X0417616Y0216738D01*
X0417491Y0216726D01*
X0417365Y0216718D01*
X0417240Y0216714D01*
X0417114Y0216714D01*
X0416989Y0216718D01*
X0416863Y0216726D01*
X0416738Y0216738D01*
X0416614Y0216754D01*
X0416490Y0216774D01*
X0416367Y0216798D01*
X0416244Y0216826D01*
X0416123Y0216857D01*
X0416002Y0216892D01*
X0415883Y0216932D01*
X0415765Y0216975D01*
X0415648Y0217021D01*
X0415533Y0217072D01*
X0415420Y0217126D01*
X0415308Y0217183D01*
X0415198Y0217244D01*
X0415091Y0217309D01*
X0414985Y0217377D01*
X0414882Y0217448D01*
X0414781Y0217522D01*
X0414682Y0217600D01*
X0414586Y0217680D01*
X0414492Y0217764D01*
X0414401Y0217851D01*
X0414313Y0217940D01*
X0414228Y0218033D01*
X0414146Y0218127D01*
X0414067Y0218225D01*
X0413991Y0218325D01*
X0413918Y0218427D01*
X0413848Y0218532D01*
X0413782Y0218638D01*
X0413719Y0218747D01*
X0413660Y0218858D01*
X0413604Y0218970D01*
X0413552Y0219085D01*
X0413503Y0219200D01*
X0413459Y0219318D01*
X0413418Y0219436D01*
X0413380Y0219556D01*
X0413347Y0219677D01*
X0413317Y0219799D01*
X0413292Y0219922D01*
X0413270Y0220046D01*
X0413252Y0220170D01*
X0413238Y0220295D01*
X0413228Y0220420D01*
X0413222Y0220545D01*
X0413220Y0220671D01*
X0413220Y0260671D02*
X0413222Y0260797D01*
X0413228Y0260922D01*
X0413238Y0261047D01*
X0413252Y0261172D01*
X0413270Y0261296D01*
X0413292Y0261420D01*
X0413317Y0261543D01*
X0413347Y0261665D01*
X0413380Y0261786D01*
X0413418Y0261906D01*
X0413459Y0262024D01*
X0413503Y0262142D01*
X0413552Y0262257D01*
X0413604Y0262372D01*
X0413660Y0262484D01*
X0413719Y0262595D01*
X0413782Y0262704D01*
X0413848Y0262810D01*
X0413918Y0262915D01*
X0413991Y0263017D01*
X0414067Y0263117D01*
X0414146Y0263215D01*
X0414228Y0263309D01*
X0414313Y0263402D01*
X0414401Y0263491D01*
X0414492Y0263578D01*
X0414586Y0263662D01*
X0414682Y0263742D01*
X0414781Y0263820D01*
X0414882Y0263894D01*
X0414985Y0263965D01*
X0415091Y0264033D01*
X0415199Y0264098D01*
X0415308Y0264159D01*
X0415420Y0264216D01*
X0415533Y0264270D01*
X0415648Y0264321D01*
X0415765Y0264367D01*
X0415883Y0264410D01*
X0416002Y0264450D01*
X0416123Y0264485D01*
X0416244Y0264516D01*
X0416367Y0264544D01*
X0416490Y0264568D01*
X0416614Y0264588D01*
X0416738Y0264604D01*
X0416863Y0264616D01*
X0416989Y0264624D01*
X0417114Y0264628D01*
X0417240Y0264628D01*
X0417365Y0264624D01*
X0417491Y0264616D01*
X0417616Y0264604D01*
X0417740Y0264588D01*
X0417864Y0264568D01*
X0417987Y0264544D01*
X0418110Y0264516D01*
X0418231Y0264485D01*
X0418352Y0264450D01*
X0418471Y0264410D01*
X0418589Y0264367D01*
X0418706Y0264321D01*
X0418821Y0264270D01*
X0418934Y0264216D01*
X0419046Y0264159D01*
X0419156Y0264098D01*
X0419263Y0264033D01*
X0419369Y0263965D01*
X0419472Y0263894D01*
X0419573Y0263820D01*
X0419672Y0263742D01*
X0419768Y0263662D01*
X0419862Y0263578D01*
X0419953Y0263491D01*
X0420041Y0263402D01*
X0420126Y0263309D01*
X0420208Y0263215D01*
X0420287Y0263117D01*
X0420363Y0263017D01*
X0420436Y0262915D01*
X0420506Y0262810D01*
X0420572Y0262704D01*
X0420635Y0262595D01*
X0420694Y0262484D01*
X0420750Y0262372D01*
X0420802Y0262257D01*
X0420851Y0262142D01*
X0420895Y0262024D01*
X0420936Y0261906D01*
X0420974Y0261786D01*
X0421007Y0261665D01*
X0421037Y0261543D01*
X0421062Y0261420D01*
X0421084Y0261296D01*
X0421102Y0261172D01*
X0421116Y0261047D01*
X0421126Y0260922D01*
X0421132Y0260797D01*
X0421134Y0260671D01*
X0421132Y0260545D01*
X0421126Y0260420D01*
X0421116Y0260295D01*
X0421102Y0260170D01*
X0421084Y0260046D01*
X0421062Y0259922D01*
X0421037Y0259799D01*
X0421007Y0259677D01*
X0420974Y0259556D01*
X0420936Y0259436D01*
X0420895Y0259318D01*
X0420851Y0259200D01*
X0420802Y0259085D01*
X0420750Y0258970D01*
X0420694Y0258858D01*
X0420635Y0258747D01*
X0420572Y0258638D01*
X0420506Y0258532D01*
X0420436Y0258427D01*
X0420363Y0258325D01*
X0420287Y0258225D01*
X0420208Y0258127D01*
X0420126Y0258033D01*
X0420041Y0257940D01*
X0419953Y0257851D01*
X0419862Y0257764D01*
X0419768Y0257680D01*
X0419672Y0257600D01*
X0419573Y0257522D01*
X0419472Y0257448D01*
X0419369Y0257377D01*
X0419263Y0257309D01*
X0419155Y0257244D01*
X0419046Y0257183D01*
X0418934Y0257126D01*
X0418821Y0257072D01*
X0418706Y0257021D01*
X0418589Y0256975D01*
X0418471Y0256932D01*
X0418352Y0256892D01*
X0418231Y0256857D01*
X0418110Y0256826D01*
X0417987Y0256798D01*
X0417864Y0256774D01*
X0417740Y0256754D01*
X0417616Y0256738D01*
X0417491Y0256726D01*
X0417365Y0256718D01*
X0417240Y0256714D01*
X0417114Y0256714D01*
X0416989Y0256718D01*
X0416863Y0256726D01*
X0416738Y0256738D01*
X0416614Y0256754D01*
X0416490Y0256774D01*
X0416367Y0256798D01*
X0416244Y0256826D01*
X0416123Y0256857D01*
X0416002Y0256892D01*
X0415883Y0256932D01*
X0415765Y0256975D01*
X0415648Y0257021D01*
X0415533Y0257072D01*
X0415420Y0257126D01*
X0415308Y0257183D01*
X0415198Y0257244D01*
X0415091Y0257309D01*
X0414985Y0257377D01*
X0414882Y0257448D01*
X0414781Y0257522D01*
X0414682Y0257600D01*
X0414586Y0257680D01*
X0414492Y0257764D01*
X0414401Y0257851D01*
X0414313Y0257940D01*
X0414228Y0258033D01*
X0414146Y0258127D01*
X0414067Y0258225D01*
X0413991Y0258325D01*
X0413918Y0258427D01*
X0413848Y0258532D01*
X0413782Y0258638D01*
X0413719Y0258747D01*
X0413660Y0258858D01*
X0413604Y0258970D01*
X0413552Y0259085D01*
X0413503Y0259200D01*
X0413459Y0259318D01*
X0413418Y0259436D01*
X0413380Y0259556D01*
X0413347Y0259677D01*
X0413317Y0259799D01*
X0413292Y0259922D01*
X0413270Y0260046D01*
X0413252Y0260170D01*
X0413238Y0260295D01*
X0413228Y0260420D01*
X0413222Y0260545D01*
X0413220Y0260671D01*
X0279913Y0186557D02*
X0279915Y0186731D01*
X0279922Y0186905D01*
X0279932Y0187078D01*
X0279947Y0187252D01*
X0279966Y0187425D01*
X0279990Y0187597D01*
X0280017Y0187769D01*
X0280049Y0187940D01*
X0280085Y0188110D01*
X0280125Y0188279D01*
X0280170Y0188447D01*
X0280218Y0188614D01*
X0280271Y0188780D01*
X0280327Y0188945D01*
X0280388Y0189108D01*
X0280452Y0189269D01*
X0280521Y0189429D01*
X0280593Y0189587D01*
X0280670Y0189743D01*
X0280750Y0189898D01*
X0280834Y0190050D01*
X0280921Y0190200D01*
X0281013Y0190349D01*
X0281107Y0190494D01*
X0281206Y0190638D01*
X0281308Y0190779D01*
X0281413Y0190917D01*
X0281522Y0191053D01*
X0281634Y0191186D01*
X0281749Y0191316D01*
X0281867Y0191444D01*
X0281989Y0191568D01*
X0282113Y0191690D01*
X0282241Y0191808D01*
X0282371Y0191923D01*
X0282504Y0192035D01*
X0282640Y0192144D01*
X0282778Y0192249D01*
X0282919Y0192351D01*
X0283063Y0192450D01*
X0283208Y0192544D01*
X0283357Y0192636D01*
X0283507Y0192723D01*
X0283659Y0192807D01*
X0283814Y0192887D01*
X0283970Y0192964D01*
X0284128Y0193036D01*
X0284288Y0193105D01*
X0284449Y0193169D01*
X0284612Y0193230D01*
X0284777Y0193286D01*
X0284943Y0193339D01*
X0285110Y0193387D01*
X0285278Y0193432D01*
X0285447Y0193472D01*
X0285617Y0193508D01*
X0285788Y0193540D01*
X0285960Y0193567D01*
X0286132Y0193591D01*
X0286305Y0193610D01*
X0286479Y0193625D01*
X0286652Y0193635D01*
X0286826Y0193642D01*
X0287000Y0193644D01*
X0287174Y0193642D01*
X0287348Y0193635D01*
X0287521Y0193625D01*
X0287695Y0193610D01*
X0287868Y0193591D01*
X0288040Y0193567D01*
X0288212Y0193540D01*
X0288383Y0193508D01*
X0288553Y0193472D01*
X0288722Y0193432D01*
X0288890Y0193387D01*
X0289057Y0193339D01*
X0289223Y0193286D01*
X0289388Y0193230D01*
X0289551Y0193169D01*
X0289712Y0193105D01*
X0289872Y0193036D01*
X0290030Y0192964D01*
X0290186Y0192887D01*
X0290341Y0192807D01*
X0290493Y0192723D01*
X0290643Y0192636D01*
X0290792Y0192544D01*
X0290937Y0192450D01*
X0291081Y0192351D01*
X0291222Y0192249D01*
X0291360Y0192144D01*
X0291496Y0192035D01*
X0291629Y0191923D01*
X0291759Y0191808D01*
X0291887Y0191690D01*
X0292011Y0191568D01*
X0292133Y0191444D01*
X0292251Y0191316D01*
X0292366Y0191186D01*
X0292478Y0191053D01*
X0292587Y0190917D01*
X0292692Y0190779D01*
X0292794Y0190638D01*
X0292893Y0190494D01*
X0292987Y0190349D01*
X0293079Y0190200D01*
X0293166Y0190050D01*
X0293250Y0189898D01*
X0293330Y0189743D01*
X0293407Y0189587D01*
X0293479Y0189429D01*
X0293548Y0189269D01*
X0293612Y0189108D01*
X0293673Y0188945D01*
X0293729Y0188780D01*
X0293782Y0188614D01*
X0293830Y0188447D01*
X0293875Y0188279D01*
X0293915Y0188110D01*
X0293951Y0187940D01*
X0293983Y0187769D01*
X0294010Y0187597D01*
X0294034Y0187425D01*
X0294053Y0187252D01*
X0294068Y0187078D01*
X0294078Y0186905D01*
X0294085Y0186731D01*
X0294087Y0186557D01*
X0294085Y0186383D01*
X0294078Y0186209D01*
X0294068Y0186036D01*
X0294053Y0185862D01*
X0294034Y0185689D01*
X0294010Y0185517D01*
X0293983Y0185345D01*
X0293951Y0185174D01*
X0293915Y0185004D01*
X0293875Y0184835D01*
X0293830Y0184667D01*
X0293782Y0184500D01*
X0293729Y0184334D01*
X0293673Y0184169D01*
X0293612Y0184006D01*
X0293548Y0183845D01*
X0293479Y0183685D01*
X0293407Y0183527D01*
X0293330Y0183371D01*
X0293250Y0183216D01*
X0293166Y0183064D01*
X0293079Y0182914D01*
X0292987Y0182765D01*
X0292893Y0182620D01*
X0292794Y0182476D01*
X0292692Y0182335D01*
X0292587Y0182197D01*
X0292478Y0182061D01*
X0292366Y0181928D01*
X0292251Y0181798D01*
X0292133Y0181670D01*
X0292011Y0181546D01*
X0291887Y0181424D01*
X0291759Y0181306D01*
X0291629Y0181191D01*
X0291496Y0181079D01*
X0291360Y0180970D01*
X0291222Y0180865D01*
X0291081Y0180763D01*
X0290937Y0180664D01*
X0290792Y0180570D01*
X0290643Y0180478D01*
X0290493Y0180391D01*
X0290341Y0180307D01*
X0290186Y0180227D01*
X0290030Y0180150D01*
X0289872Y0180078D01*
X0289712Y0180009D01*
X0289551Y0179945D01*
X0289388Y0179884D01*
X0289223Y0179828D01*
X0289057Y0179775D01*
X0288890Y0179727D01*
X0288722Y0179682D01*
X0288553Y0179642D01*
X0288383Y0179606D01*
X0288212Y0179574D01*
X0288040Y0179547D01*
X0287868Y0179523D01*
X0287695Y0179504D01*
X0287521Y0179489D01*
X0287348Y0179479D01*
X0287174Y0179472D01*
X0287000Y0179470D01*
X0286826Y0179472D01*
X0286652Y0179479D01*
X0286479Y0179489D01*
X0286305Y0179504D01*
X0286132Y0179523D01*
X0285960Y0179547D01*
X0285788Y0179574D01*
X0285617Y0179606D01*
X0285447Y0179642D01*
X0285278Y0179682D01*
X0285110Y0179727D01*
X0284943Y0179775D01*
X0284777Y0179828D01*
X0284612Y0179884D01*
X0284449Y0179945D01*
X0284288Y0180009D01*
X0284128Y0180078D01*
X0283970Y0180150D01*
X0283814Y0180227D01*
X0283659Y0180307D01*
X0283507Y0180391D01*
X0283357Y0180478D01*
X0283208Y0180570D01*
X0283063Y0180664D01*
X0282919Y0180763D01*
X0282778Y0180865D01*
X0282640Y0180970D01*
X0282504Y0181079D01*
X0282371Y0181191D01*
X0282241Y0181306D01*
X0282113Y0181424D01*
X0281989Y0181546D01*
X0281867Y0181670D01*
X0281749Y0181798D01*
X0281634Y0181928D01*
X0281522Y0182061D01*
X0281413Y0182197D01*
X0281308Y0182335D01*
X0281206Y0182476D01*
X0281107Y0182620D01*
X0281013Y0182765D01*
X0280921Y0182914D01*
X0280834Y0183064D01*
X0280750Y0183216D01*
X0280670Y0183371D01*
X0280593Y0183527D01*
X0280521Y0183685D01*
X0280452Y0183845D01*
X0280388Y0184006D01*
X0280327Y0184169D01*
X0280271Y0184334D01*
X0280218Y0184500D01*
X0280170Y0184667D01*
X0280125Y0184835D01*
X0280085Y0185004D01*
X0280049Y0185174D01*
X0280017Y0185345D01*
X0279990Y0185517D01*
X0279966Y0185689D01*
X0279947Y0185862D01*
X0279932Y0186036D01*
X0279922Y0186209D01*
X0279915Y0186383D01*
X0279913Y0186557D01*
X0079913Y0246557D02*
X0079915Y0246731D01*
X0079922Y0246905D01*
X0079932Y0247078D01*
X0079947Y0247252D01*
X0079966Y0247425D01*
X0079990Y0247597D01*
X0080017Y0247769D01*
X0080049Y0247940D01*
X0080085Y0248110D01*
X0080125Y0248279D01*
X0080170Y0248447D01*
X0080218Y0248614D01*
X0080271Y0248780D01*
X0080327Y0248945D01*
X0080388Y0249108D01*
X0080452Y0249269D01*
X0080521Y0249429D01*
X0080593Y0249587D01*
X0080670Y0249743D01*
X0080750Y0249898D01*
X0080834Y0250050D01*
X0080921Y0250200D01*
X0081013Y0250349D01*
X0081107Y0250494D01*
X0081206Y0250638D01*
X0081308Y0250779D01*
X0081413Y0250917D01*
X0081522Y0251053D01*
X0081634Y0251186D01*
X0081749Y0251316D01*
X0081867Y0251444D01*
X0081989Y0251568D01*
X0082113Y0251690D01*
X0082241Y0251808D01*
X0082371Y0251923D01*
X0082504Y0252035D01*
X0082640Y0252144D01*
X0082778Y0252249D01*
X0082919Y0252351D01*
X0083063Y0252450D01*
X0083208Y0252544D01*
X0083357Y0252636D01*
X0083507Y0252723D01*
X0083659Y0252807D01*
X0083814Y0252887D01*
X0083970Y0252964D01*
X0084128Y0253036D01*
X0084288Y0253105D01*
X0084449Y0253169D01*
X0084612Y0253230D01*
X0084777Y0253286D01*
X0084943Y0253339D01*
X0085110Y0253387D01*
X0085278Y0253432D01*
X0085447Y0253472D01*
X0085617Y0253508D01*
X0085788Y0253540D01*
X0085960Y0253567D01*
X0086132Y0253591D01*
X0086305Y0253610D01*
X0086479Y0253625D01*
X0086652Y0253635D01*
X0086826Y0253642D01*
X0087000Y0253644D01*
X0087174Y0253642D01*
X0087348Y0253635D01*
X0087521Y0253625D01*
X0087695Y0253610D01*
X0087868Y0253591D01*
X0088040Y0253567D01*
X0088212Y0253540D01*
X0088383Y0253508D01*
X0088553Y0253472D01*
X0088722Y0253432D01*
X0088890Y0253387D01*
X0089057Y0253339D01*
X0089223Y0253286D01*
X0089388Y0253230D01*
X0089551Y0253169D01*
X0089712Y0253105D01*
X0089872Y0253036D01*
X0090030Y0252964D01*
X0090186Y0252887D01*
X0090341Y0252807D01*
X0090493Y0252723D01*
X0090643Y0252636D01*
X0090792Y0252544D01*
X0090937Y0252450D01*
X0091081Y0252351D01*
X0091222Y0252249D01*
X0091360Y0252144D01*
X0091496Y0252035D01*
X0091629Y0251923D01*
X0091759Y0251808D01*
X0091887Y0251690D01*
X0092011Y0251568D01*
X0092133Y0251444D01*
X0092251Y0251316D01*
X0092366Y0251186D01*
X0092478Y0251053D01*
X0092587Y0250917D01*
X0092692Y0250779D01*
X0092794Y0250638D01*
X0092893Y0250494D01*
X0092987Y0250349D01*
X0093079Y0250200D01*
X0093166Y0250050D01*
X0093250Y0249898D01*
X0093330Y0249743D01*
X0093407Y0249587D01*
X0093479Y0249429D01*
X0093548Y0249269D01*
X0093612Y0249108D01*
X0093673Y0248945D01*
X0093729Y0248780D01*
X0093782Y0248614D01*
X0093830Y0248447D01*
X0093875Y0248279D01*
X0093915Y0248110D01*
X0093951Y0247940D01*
X0093983Y0247769D01*
X0094010Y0247597D01*
X0094034Y0247425D01*
X0094053Y0247252D01*
X0094068Y0247078D01*
X0094078Y0246905D01*
X0094085Y0246731D01*
X0094087Y0246557D01*
X0094085Y0246383D01*
X0094078Y0246209D01*
X0094068Y0246036D01*
X0094053Y0245862D01*
X0094034Y0245689D01*
X0094010Y0245517D01*
X0093983Y0245345D01*
X0093951Y0245174D01*
X0093915Y0245004D01*
X0093875Y0244835D01*
X0093830Y0244667D01*
X0093782Y0244500D01*
X0093729Y0244334D01*
X0093673Y0244169D01*
X0093612Y0244006D01*
X0093548Y0243845D01*
X0093479Y0243685D01*
X0093407Y0243527D01*
X0093330Y0243371D01*
X0093250Y0243216D01*
X0093166Y0243064D01*
X0093079Y0242914D01*
X0092987Y0242765D01*
X0092893Y0242620D01*
X0092794Y0242476D01*
X0092692Y0242335D01*
X0092587Y0242197D01*
X0092478Y0242061D01*
X0092366Y0241928D01*
X0092251Y0241798D01*
X0092133Y0241670D01*
X0092011Y0241546D01*
X0091887Y0241424D01*
X0091759Y0241306D01*
X0091629Y0241191D01*
X0091496Y0241079D01*
X0091360Y0240970D01*
X0091222Y0240865D01*
X0091081Y0240763D01*
X0090937Y0240664D01*
X0090792Y0240570D01*
X0090643Y0240478D01*
X0090493Y0240391D01*
X0090341Y0240307D01*
X0090186Y0240227D01*
X0090030Y0240150D01*
X0089872Y0240078D01*
X0089712Y0240009D01*
X0089551Y0239945D01*
X0089388Y0239884D01*
X0089223Y0239828D01*
X0089057Y0239775D01*
X0088890Y0239727D01*
X0088722Y0239682D01*
X0088553Y0239642D01*
X0088383Y0239606D01*
X0088212Y0239574D01*
X0088040Y0239547D01*
X0087868Y0239523D01*
X0087695Y0239504D01*
X0087521Y0239489D01*
X0087348Y0239479D01*
X0087174Y0239472D01*
X0087000Y0239470D01*
X0086826Y0239472D01*
X0086652Y0239479D01*
X0086479Y0239489D01*
X0086305Y0239504D01*
X0086132Y0239523D01*
X0085960Y0239547D01*
X0085788Y0239574D01*
X0085617Y0239606D01*
X0085447Y0239642D01*
X0085278Y0239682D01*
X0085110Y0239727D01*
X0084943Y0239775D01*
X0084777Y0239828D01*
X0084612Y0239884D01*
X0084449Y0239945D01*
X0084288Y0240009D01*
X0084128Y0240078D01*
X0083970Y0240150D01*
X0083814Y0240227D01*
X0083659Y0240307D01*
X0083507Y0240391D01*
X0083357Y0240478D01*
X0083208Y0240570D01*
X0083063Y0240664D01*
X0082919Y0240763D01*
X0082778Y0240865D01*
X0082640Y0240970D01*
X0082504Y0241079D01*
X0082371Y0241191D01*
X0082241Y0241306D01*
X0082113Y0241424D01*
X0081989Y0241546D01*
X0081867Y0241670D01*
X0081749Y0241798D01*
X0081634Y0241928D01*
X0081522Y0242061D01*
X0081413Y0242197D01*
X0081308Y0242335D01*
X0081206Y0242476D01*
X0081107Y0242620D01*
X0081013Y0242765D01*
X0080921Y0242914D01*
X0080834Y0243064D01*
X0080750Y0243216D01*
X0080670Y0243371D01*
X0080593Y0243527D01*
X0080521Y0243685D01*
X0080452Y0243845D01*
X0080388Y0244006D01*
X0080327Y0244169D01*
X0080271Y0244334D01*
X0080218Y0244500D01*
X0080170Y0244667D01*
X0080125Y0244835D01*
X0080085Y0245004D01*
X0080049Y0245174D01*
X0080017Y0245345D01*
X0079990Y0245517D01*
X0079966Y0245689D01*
X0079947Y0245862D01*
X0079932Y0246036D01*
X0079922Y0246209D01*
X0079915Y0246383D01*
X0079913Y0246557D01*
X0413614Y0040927D02*
X0413616Y0041053D01*
X0413622Y0041178D01*
X0413632Y0041303D01*
X0413646Y0041428D01*
X0413664Y0041552D01*
X0413686Y0041676D01*
X0413711Y0041799D01*
X0413741Y0041921D01*
X0413774Y0042042D01*
X0413812Y0042162D01*
X0413853Y0042280D01*
X0413897Y0042398D01*
X0413946Y0042513D01*
X0413998Y0042628D01*
X0414054Y0042740D01*
X0414113Y0042851D01*
X0414176Y0042960D01*
X0414242Y0043066D01*
X0414312Y0043171D01*
X0414385Y0043273D01*
X0414461Y0043373D01*
X0414540Y0043471D01*
X0414622Y0043565D01*
X0414707Y0043658D01*
X0414795Y0043747D01*
X0414886Y0043834D01*
X0414980Y0043918D01*
X0415076Y0043998D01*
X0415175Y0044076D01*
X0415276Y0044150D01*
X0415379Y0044221D01*
X0415485Y0044289D01*
X0415593Y0044354D01*
X0415702Y0044415D01*
X0415814Y0044472D01*
X0415927Y0044526D01*
X0416042Y0044577D01*
X0416159Y0044623D01*
X0416277Y0044666D01*
X0416396Y0044706D01*
X0416517Y0044741D01*
X0416638Y0044772D01*
X0416761Y0044800D01*
X0416884Y0044824D01*
X0417008Y0044844D01*
X0417132Y0044860D01*
X0417257Y0044872D01*
X0417383Y0044880D01*
X0417508Y0044884D01*
X0417634Y0044884D01*
X0417759Y0044880D01*
X0417885Y0044872D01*
X0418010Y0044860D01*
X0418134Y0044844D01*
X0418258Y0044824D01*
X0418381Y0044800D01*
X0418504Y0044772D01*
X0418625Y0044741D01*
X0418746Y0044706D01*
X0418865Y0044666D01*
X0418983Y0044623D01*
X0419100Y0044577D01*
X0419215Y0044526D01*
X0419328Y0044472D01*
X0419440Y0044415D01*
X0419550Y0044354D01*
X0419657Y0044289D01*
X0419763Y0044221D01*
X0419866Y0044150D01*
X0419967Y0044076D01*
X0420066Y0043998D01*
X0420162Y0043918D01*
X0420256Y0043834D01*
X0420347Y0043747D01*
X0420435Y0043658D01*
X0420520Y0043565D01*
X0420602Y0043471D01*
X0420681Y0043373D01*
X0420757Y0043273D01*
X0420830Y0043171D01*
X0420900Y0043066D01*
X0420966Y0042960D01*
X0421029Y0042851D01*
X0421088Y0042740D01*
X0421144Y0042628D01*
X0421196Y0042513D01*
X0421245Y0042398D01*
X0421289Y0042280D01*
X0421330Y0042162D01*
X0421368Y0042042D01*
X0421401Y0041921D01*
X0421431Y0041799D01*
X0421456Y0041676D01*
X0421478Y0041552D01*
X0421496Y0041428D01*
X0421510Y0041303D01*
X0421520Y0041178D01*
X0421526Y0041053D01*
X0421528Y0040927D01*
X0421526Y0040801D01*
X0421520Y0040676D01*
X0421510Y0040551D01*
X0421496Y0040426D01*
X0421478Y0040302D01*
X0421456Y0040178D01*
X0421431Y0040055D01*
X0421401Y0039933D01*
X0421368Y0039812D01*
X0421330Y0039692D01*
X0421289Y0039574D01*
X0421245Y0039456D01*
X0421196Y0039341D01*
X0421144Y0039226D01*
X0421088Y0039114D01*
X0421029Y0039003D01*
X0420966Y0038894D01*
X0420900Y0038788D01*
X0420830Y0038683D01*
X0420757Y0038581D01*
X0420681Y0038481D01*
X0420602Y0038383D01*
X0420520Y0038289D01*
X0420435Y0038196D01*
X0420347Y0038107D01*
X0420256Y0038020D01*
X0420162Y0037936D01*
X0420066Y0037856D01*
X0419967Y0037778D01*
X0419866Y0037704D01*
X0419763Y0037633D01*
X0419657Y0037565D01*
X0419549Y0037500D01*
X0419440Y0037439D01*
X0419328Y0037382D01*
X0419215Y0037328D01*
X0419100Y0037277D01*
X0418983Y0037231D01*
X0418865Y0037188D01*
X0418746Y0037148D01*
X0418625Y0037113D01*
X0418504Y0037082D01*
X0418381Y0037054D01*
X0418258Y0037030D01*
X0418134Y0037010D01*
X0418010Y0036994D01*
X0417885Y0036982D01*
X0417759Y0036974D01*
X0417634Y0036970D01*
X0417508Y0036970D01*
X0417383Y0036974D01*
X0417257Y0036982D01*
X0417132Y0036994D01*
X0417008Y0037010D01*
X0416884Y0037030D01*
X0416761Y0037054D01*
X0416638Y0037082D01*
X0416517Y0037113D01*
X0416396Y0037148D01*
X0416277Y0037188D01*
X0416159Y0037231D01*
X0416042Y0037277D01*
X0415927Y0037328D01*
X0415814Y0037382D01*
X0415702Y0037439D01*
X0415592Y0037500D01*
X0415485Y0037565D01*
X0415379Y0037633D01*
X0415276Y0037704D01*
X0415175Y0037778D01*
X0415076Y0037856D01*
X0414980Y0037936D01*
X0414886Y0038020D01*
X0414795Y0038107D01*
X0414707Y0038196D01*
X0414622Y0038289D01*
X0414540Y0038383D01*
X0414461Y0038481D01*
X0414385Y0038581D01*
X0414312Y0038683D01*
X0414242Y0038788D01*
X0414176Y0038894D01*
X0414113Y0039003D01*
X0414054Y0039114D01*
X0413998Y0039226D01*
X0413946Y0039341D01*
X0413897Y0039456D01*
X0413853Y0039574D01*
X0413812Y0039692D01*
X0413774Y0039812D01*
X0413741Y0039933D01*
X0413711Y0040055D01*
X0413686Y0040178D01*
X0413664Y0040302D01*
X0413646Y0040426D01*
X0413632Y0040551D01*
X0413622Y0040676D01*
X0413616Y0040801D01*
X0413614Y0040927D01*
M02*
