G75*
%MOIN*%
%OFA0B0*%
%FSLAX25Y25*%
%IPPOS*%
%LPD*%
%AMOC8*
5,1,8,0,0,1.08239X$1,22.5*
%
%ADD10C,0.02047*%
%ADD11R,0.13386X0.21260*%
%ADD12C,0.00472*%
%ADD13C,0.04724*%
%ADD14C,0.13200*%
%ADD15C,0.01890*%
%ADD16C,0.01260*%
%ADD17C,0.01575*%
%ADD18R,0.13200X0.13200*%
%ADD19C,0.15827*%
%ADD20C,0.16535*%
%ADD21C,0.27685*%
%ADD22OC8,0.13200*%
%ADD23C,0.28346*%
%ADD24C,0.05156*%
%ADD25C,0.07677*%
D10*
X0079381Y0078722D02*
X0087571Y0078722D01*
X0079381Y0078722D02*
X0079381Y0087700D01*
X0087571Y0087700D01*
X0087571Y0078722D01*
X0087571Y0080768D02*
X0079381Y0080768D01*
X0079381Y0082814D02*
X0087571Y0082814D01*
X0087571Y0084860D02*
X0079381Y0084860D01*
X0079381Y0086906D02*
X0087571Y0086906D01*
X0086862Y0078722D02*
X0095052Y0078722D01*
X0086862Y0078722D02*
X0086862Y0087700D01*
X0095052Y0087700D01*
X0095052Y0078722D01*
X0095052Y0080768D02*
X0086862Y0080768D01*
X0086862Y0082814D02*
X0095052Y0082814D01*
X0095052Y0084860D02*
X0086862Y0084860D01*
X0086862Y0086906D02*
X0095052Y0086906D01*
X0095052Y0087107D02*
X0086862Y0087107D01*
X0086862Y0096085D01*
X0095052Y0096085D01*
X0095052Y0087107D01*
X0095052Y0089153D02*
X0086862Y0089153D01*
X0086862Y0091199D02*
X0095052Y0091199D01*
X0095052Y0093245D02*
X0086862Y0093245D01*
X0086862Y0095291D02*
X0095052Y0095291D01*
X0095091Y0104491D02*
X0086901Y0104491D01*
X0095091Y0104491D02*
X0095091Y0095513D01*
X0086901Y0095513D01*
X0086901Y0104491D01*
X0086901Y0097559D02*
X0095091Y0097559D01*
X0095091Y0099605D02*
X0086901Y0099605D01*
X0086901Y0101651D02*
X0095091Y0101651D01*
X0095091Y0103697D02*
X0086901Y0103697D01*
X0087611Y0104491D02*
X0079421Y0104491D01*
X0087611Y0104491D02*
X0087611Y0095513D01*
X0079421Y0095513D01*
X0079421Y0104491D01*
X0079421Y0097559D02*
X0087611Y0097559D01*
X0087611Y0099605D02*
X0079421Y0099605D01*
X0079421Y0101651D02*
X0087611Y0101651D01*
X0087611Y0103697D02*
X0079421Y0103697D01*
X0079381Y0087107D02*
X0087571Y0087107D01*
X0079381Y0087107D02*
X0079381Y0096085D01*
X0087571Y0096085D01*
X0087571Y0087107D01*
X0087571Y0089153D02*
X0079381Y0089153D01*
X0079381Y0091199D02*
X0087571Y0091199D01*
X0087571Y0093245D02*
X0079381Y0093245D01*
X0079381Y0095291D02*
X0087571Y0095291D01*
X0141409Y0094234D02*
X0141409Y0102424D01*
X0150387Y0102424D01*
X0150387Y0094234D01*
X0141409Y0094234D01*
X0141409Y0096280D02*
X0150387Y0096280D01*
X0150387Y0098326D02*
X0141409Y0098326D01*
X0141409Y0100372D02*
X0150387Y0100372D01*
X0150387Y0102418D02*
X0141409Y0102418D01*
X0141409Y0101714D02*
X0141409Y0109904D01*
X0150387Y0109904D01*
X0150387Y0101714D01*
X0141409Y0101714D01*
X0141409Y0103760D02*
X0150387Y0103760D01*
X0150387Y0105806D02*
X0141409Y0105806D01*
X0141409Y0107852D02*
X0150387Y0107852D01*
X0150387Y0109898D02*
X0141409Y0109898D01*
X0174499Y0082462D02*
X0182689Y0082462D01*
X0174499Y0082462D02*
X0174499Y0091440D01*
X0182689Y0091440D01*
X0182689Y0082462D01*
X0182689Y0084508D02*
X0174499Y0084508D01*
X0174499Y0086554D02*
X0182689Y0086554D01*
X0182689Y0088600D02*
X0174499Y0088600D01*
X0174499Y0090646D02*
X0182689Y0090646D01*
X0181980Y0082462D02*
X0190170Y0082462D01*
X0181980Y0082462D02*
X0181980Y0091440D01*
X0190170Y0091440D01*
X0190170Y0082462D01*
X0190170Y0084508D02*
X0181980Y0084508D01*
X0181980Y0086554D02*
X0190170Y0086554D01*
X0190170Y0088600D02*
X0181980Y0088600D01*
X0181980Y0090646D02*
X0190170Y0090646D01*
X0190189Y0072206D02*
X0181999Y0072206D01*
X0181999Y0081184D01*
X0190189Y0081184D01*
X0190189Y0072206D01*
X0190189Y0074252D02*
X0181999Y0074252D01*
X0181999Y0076298D02*
X0190189Y0076298D01*
X0190189Y0078344D02*
X0181999Y0078344D01*
X0181999Y0080390D02*
X0190189Y0080390D01*
X0198692Y0071989D02*
X0206882Y0071989D01*
X0198692Y0071989D02*
X0198692Y0080967D01*
X0206882Y0080967D01*
X0206882Y0071989D01*
X0206882Y0074035D02*
X0198692Y0074035D01*
X0198692Y0076081D02*
X0206882Y0076081D01*
X0206882Y0078127D02*
X0198692Y0078127D01*
X0198692Y0080173D02*
X0206882Y0080173D01*
X0206173Y0071989D02*
X0214363Y0071989D01*
X0206173Y0071989D02*
X0206173Y0080967D01*
X0214363Y0080967D01*
X0214363Y0071989D01*
X0214363Y0074035D02*
X0206173Y0074035D01*
X0206173Y0076081D02*
X0214363Y0076081D01*
X0214363Y0078127D02*
X0206173Y0078127D01*
X0206173Y0080173D02*
X0214363Y0080173D01*
X0182709Y0072206D02*
X0174519Y0072206D01*
X0174519Y0081184D01*
X0182709Y0081184D01*
X0182709Y0072206D01*
X0182709Y0074252D02*
X0174519Y0074252D01*
X0174519Y0076298D02*
X0182709Y0076298D01*
X0182709Y0078344D02*
X0174519Y0078344D01*
X0174519Y0080390D02*
X0182709Y0080390D01*
X0223909Y0180218D02*
X0223909Y0188408D01*
X0232887Y0188408D01*
X0232887Y0180218D01*
X0223909Y0180218D01*
X0223909Y0182264D02*
X0232887Y0182264D01*
X0232887Y0184310D02*
X0223909Y0184310D01*
X0223909Y0186356D02*
X0232887Y0186356D01*
X0232887Y0188402D02*
X0223909Y0188402D01*
X0224973Y0184785D02*
X0224973Y0192975D01*
X0224973Y0184785D02*
X0215995Y0184785D01*
X0215995Y0192975D01*
X0224973Y0192975D01*
X0224973Y0186831D02*
X0215995Y0186831D01*
X0215995Y0188877D02*
X0224973Y0188877D01*
X0224973Y0190923D02*
X0215995Y0190923D01*
X0215995Y0192969D02*
X0224973Y0192969D01*
X0223909Y0195888D02*
X0223909Y0187698D01*
X0223909Y0195888D02*
X0232887Y0195888D01*
X0232887Y0187698D01*
X0223909Y0187698D01*
X0223909Y0189744D02*
X0232887Y0189744D01*
X0232887Y0191790D02*
X0223909Y0191790D01*
X0223909Y0193836D02*
X0232887Y0193836D01*
X0232887Y0195882D02*
X0223909Y0195882D01*
X0224973Y0192265D02*
X0224973Y0200455D01*
X0224973Y0192265D02*
X0215995Y0192265D01*
X0215995Y0200455D01*
X0224973Y0200455D01*
X0224973Y0194311D02*
X0215995Y0194311D01*
X0215995Y0196357D02*
X0224973Y0196357D01*
X0224973Y0198403D02*
X0215995Y0198403D01*
X0215995Y0200449D02*
X0224973Y0200449D01*
X0232847Y0202502D02*
X0232847Y0194312D01*
X0223869Y0194312D01*
X0223869Y0202502D01*
X0232847Y0202502D01*
X0232847Y0196358D02*
X0223869Y0196358D01*
X0223869Y0198404D02*
X0232847Y0198404D01*
X0232847Y0200450D02*
X0223869Y0200450D01*
X0223869Y0202496D02*
X0232847Y0202496D01*
X0232847Y0201793D02*
X0232847Y0209983D01*
X0232847Y0201793D02*
X0223869Y0201793D01*
X0223869Y0209983D01*
X0232847Y0209983D01*
X0232847Y0203839D02*
X0223869Y0203839D01*
X0223869Y0205885D02*
X0232847Y0205885D01*
X0232847Y0207931D02*
X0223869Y0207931D01*
X0223869Y0209977D02*
X0232847Y0209977D01*
X0224973Y0206596D02*
X0224973Y0214786D01*
X0224973Y0206596D02*
X0215995Y0206596D01*
X0215995Y0214786D01*
X0224973Y0214786D01*
X0224973Y0208642D02*
X0215995Y0208642D01*
X0215995Y0210688D02*
X0224973Y0210688D01*
X0224973Y0212734D02*
X0215995Y0212734D01*
X0215995Y0214780D02*
X0224973Y0214780D01*
X0224973Y0207306D02*
X0224973Y0199116D01*
X0215995Y0199116D01*
X0215995Y0207306D01*
X0224973Y0207306D01*
X0224973Y0201162D02*
X0215995Y0201162D01*
X0215995Y0203208D02*
X0224973Y0203208D01*
X0224973Y0205254D02*
X0215995Y0205254D01*
X0215995Y0207300D02*
X0224973Y0207300D01*
X0195188Y0217718D02*
X0195188Y0225908D01*
X0204166Y0225908D01*
X0204166Y0217718D01*
X0195188Y0217718D01*
X0195188Y0219764D02*
X0204166Y0219764D01*
X0204166Y0221810D02*
X0195188Y0221810D01*
X0195188Y0223856D02*
X0204166Y0223856D01*
X0204166Y0225902D02*
X0195188Y0225902D01*
X0195188Y0225198D02*
X0195188Y0233388D01*
X0204166Y0233388D01*
X0204166Y0225198D01*
X0195188Y0225198D01*
X0195188Y0227244D02*
X0204166Y0227244D01*
X0204166Y0229290D02*
X0195188Y0229290D01*
X0195188Y0231336D02*
X0204166Y0231336D01*
X0204166Y0233382D02*
X0195188Y0233382D01*
X0157237Y0230829D02*
X0157237Y0222639D01*
X0148259Y0222639D01*
X0148259Y0230829D01*
X0157237Y0230829D01*
X0157237Y0224685D02*
X0148259Y0224685D01*
X0148259Y0226731D02*
X0157237Y0226731D01*
X0157237Y0228777D02*
X0148259Y0228777D01*
X0148259Y0230823D02*
X0157237Y0230823D01*
X0157237Y0223349D02*
X0157237Y0215159D01*
X0148259Y0215159D01*
X0148259Y0223349D01*
X0157237Y0223349D01*
X0157237Y0217205D02*
X0148259Y0217205D01*
X0148259Y0219251D02*
X0157237Y0219251D01*
X0157237Y0221297D02*
X0148259Y0221297D01*
X0148259Y0223343D02*
X0157237Y0223343D01*
X0129323Y0210572D02*
X0121133Y0210572D01*
X0121133Y0219550D01*
X0129323Y0219550D01*
X0129323Y0210572D01*
X0129323Y0212618D02*
X0121133Y0212618D01*
X0121133Y0214664D02*
X0129323Y0214664D01*
X0129323Y0216710D02*
X0121133Y0216710D01*
X0121133Y0218756D02*
X0129323Y0218756D01*
X0121843Y0210572D02*
X0113653Y0210572D01*
X0113653Y0219550D01*
X0121843Y0219550D01*
X0121843Y0210572D01*
X0121843Y0212618D02*
X0113653Y0212618D01*
X0113653Y0214664D02*
X0121843Y0214664D01*
X0121843Y0216710D02*
X0113653Y0216710D01*
X0113653Y0218756D02*
X0121843Y0218756D01*
X0121133Y0197974D02*
X0129323Y0197974D01*
X0121133Y0197974D02*
X0121133Y0206952D01*
X0129323Y0206952D01*
X0129323Y0197974D01*
X0129323Y0200020D02*
X0121133Y0200020D01*
X0121133Y0202066D02*
X0129323Y0202066D01*
X0129323Y0204112D02*
X0121133Y0204112D01*
X0121133Y0206158D02*
X0129323Y0206158D01*
X0121843Y0197974D02*
X0113653Y0197974D01*
X0113653Y0206952D01*
X0121843Y0206952D01*
X0121843Y0197974D01*
X0121843Y0200020D02*
X0113653Y0200020D01*
X0113653Y0202066D02*
X0121843Y0202066D01*
X0121843Y0204112D02*
X0113653Y0204112D01*
X0113653Y0206158D02*
X0121843Y0206158D01*
X0261981Y0196439D02*
X0261981Y0188249D01*
X0253003Y0188249D01*
X0253003Y0196439D01*
X0261981Y0196439D01*
X0261981Y0190295D02*
X0253003Y0190295D01*
X0253003Y0192341D02*
X0261981Y0192341D01*
X0261981Y0194387D02*
X0253003Y0194387D01*
X0253003Y0196433D02*
X0261981Y0196433D01*
X0261981Y0188959D02*
X0261981Y0180769D01*
X0253003Y0180769D01*
X0253003Y0188959D01*
X0261981Y0188959D01*
X0261981Y0182815D02*
X0253003Y0182815D01*
X0253003Y0184861D02*
X0261981Y0184861D01*
X0261981Y0186907D02*
X0253003Y0186907D01*
X0253003Y0188953D02*
X0261981Y0188953D01*
X0355385Y0189312D02*
X0363575Y0189312D01*
X0355385Y0189312D02*
X0355385Y0198290D01*
X0363575Y0198290D01*
X0363575Y0189312D01*
X0363575Y0191358D02*
X0355385Y0191358D01*
X0355385Y0193404D02*
X0363575Y0193404D01*
X0363575Y0195450D02*
X0355385Y0195450D01*
X0355385Y0197496D02*
X0363575Y0197496D01*
X0362866Y0189312D02*
X0371056Y0189312D01*
X0362866Y0189312D02*
X0362866Y0198290D01*
X0371056Y0198290D01*
X0371056Y0189312D01*
X0371056Y0191358D02*
X0362866Y0191358D01*
X0362866Y0193404D02*
X0371056Y0193404D01*
X0371056Y0195450D02*
X0362866Y0195450D01*
X0362866Y0197496D02*
X0371056Y0197496D01*
X0381056Y0193427D02*
X0381056Y0201617D01*
X0381056Y0193427D02*
X0372078Y0193427D01*
X0372078Y0201617D01*
X0381056Y0201617D01*
X0381056Y0195473D02*
X0372078Y0195473D01*
X0372078Y0197519D02*
X0381056Y0197519D01*
X0381056Y0199565D02*
X0372078Y0199565D01*
X0372078Y0201611D02*
X0381056Y0201611D01*
X0381056Y0194136D02*
X0381056Y0185946D01*
X0372078Y0185946D01*
X0372078Y0194136D01*
X0381056Y0194136D01*
X0381056Y0187992D02*
X0372078Y0187992D01*
X0372078Y0190038D02*
X0381056Y0190038D01*
X0381056Y0192084D02*
X0372078Y0192084D01*
X0372078Y0194130D02*
X0381056Y0194130D01*
X0371960Y0185180D02*
X0371960Y0176990D01*
X0371960Y0185180D02*
X0380938Y0185180D01*
X0380938Y0176990D01*
X0371960Y0176990D01*
X0371960Y0179036D02*
X0380938Y0179036D01*
X0380938Y0181082D02*
X0371960Y0181082D01*
X0371960Y0183128D02*
X0380938Y0183128D01*
X0380938Y0185174D02*
X0371960Y0185174D01*
X0371056Y0181755D02*
X0362866Y0181755D01*
X0371056Y0181755D02*
X0371056Y0172777D01*
X0362866Y0172777D01*
X0362866Y0181755D01*
X0362866Y0174823D02*
X0371056Y0174823D01*
X0371056Y0176869D02*
X0362866Y0176869D01*
X0362866Y0178915D02*
X0371056Y0178915D01*
X0371056Y0180961D02*
X0362866Y0180961D01*
X0363575Y0181755D02*
X0355385Y0181755D01*
X0363575Y0181755D02*
X0363575Y0172777D01*
X0355385Y0172777D01*
X0355385Y0181755D01*
X0355385Y0174823D02*
X0363575Y0174823D01*
X0363575Y0176869D02*
X0355385Y0176869D01*
X0355385Y0178915D02*
X0363575Y0178915D01*
X0363575Y0180961D02*
X0355385Y0180961D01*
X0371960Y0177699D02*
X0371960Y0169509D01*
X0371960Y0177699D02*
X0380938Y0177699D01*
X0380938Y0169509D01*
X0371960Y0169509D01*
X0371960Y0171555D02*
X0380938Y0171555D01*
X0380938Y0173601D02*
X0371960Y0173601D01*
X0371960Y0175647D02*
X0380938Y0175647D01*
X0380938Y0177693D02*
X0371960Y0177693D01*
X0381253Y0141794D02*
X0381253Y0133604D01*
X0372275Y0133604D01*
X0372275Y0141794D01*
X0381253Y0141794D01*
X0381253Y0135650D02*
X0372275Y0135650D01*
X0372275Y0137696D02*
X0381253Y0137696D01*
X0381253Y0139742D02*
X0372275Y0139742D01*
X0372275Y0141788D02*
X0381253Y0141788D01*
X0371056Y0129470D02*
X0362866Y0129470D01*
X0362866Y0138448D01*
X0371056Y0138448D01*
X0371056Y0129470D01*
X0371056Y0131516D02*
X0362866Y0131516D01*
X0362866Y0133562D02*
X0371056Y0133562D01*
X0371056Y0135608D02*
X0362866Y0135608D01*
X0362866Y0137654D02*
X0371056Y0137654D01*
X0363575Y0129470D02*
X0355385Y0129470D01*
X0355385Y0138448D01*
X0363575Y0138448D01*
X0363575Y0129470D01*
X0363575Y0131516D02*
X0355385Y0131516D01*
X0355385Y0133562D02*
X0363575Y0133562D01*
X0363575Y0135608D02*
X0355385Y0135608D01*
X0355385Y0137654D02*
X0363575Y0137654D01*
X0381253Y0134314D02*
X0381253Y0126124D01*
X0372275Y0126124D01*
X0372275Y0134314D01*
X0381253Y0134314D01*
X0381253Y0128170D02*
X0372275Y0128170D01*
X0372275Y0130216D02*
X0381253Y0130216D01*
X0381253Y0132262D02*
X0372275Y0132262D01*
X0372275Y0134308D02*
X0381253Y0134308D01*
X0371960Y0125573D02*
X0371960Y0117383D01*
X0371960Y0125573D02*
X0380938Y0125573D01*
X0380938Y0117383D01*
X0371960Y0117383D01*
X0371960Y0119429D02*
X0380938Y0119429D01*
X0380938Y0121475D02*
X0371960Y0121475D01*
X0371960Y0123521D02*
X0380938Y0123521D01*
X0380938Y0125567D02*
X0371960Y0125567D01*
X0371056Y0122700D02*
X0362866Y0122700D01*
X0371056Y0122700D02*
X0371056Y0113722D01*
X0362866Y0113722D01*
X0362866Y0122700D01*
X0362866Y0115768D02*
X0371056Y0115768D01*
X0371056Y0117814D02*
X0362866Y0117814D01*
X0362866Y0119860D02*
X0371056Y0119860D01*
X0371056Y0121906D02*
X0362866Y0121906D01*
X0363575Y0122700D02*
X0355385Y0122700D01*
X0363575Y0122700D02*
X0363575Y0113722D01*
X0355385Y0113722D01*
X0355385Y0122700D01*
X0355385Y0115768D02*
X0363575Y0115768D01*
X0363575Y0117814D02*
X0355385Y0117814D01*
X0355385Y0119860D02*
X0363575Y0119860D01*
X0363575Y0121906D02*
X0355385Y0121906D01*
X0371960Y0118093D02*
X0371960Y0109903D01*
X0371960Y0118093D02*
X0380938Y0118093D01*
X0380938Y0109903D01*
X0371960Y0109903D01*
X0371960Y0111949D02*
X0380938Y0111949D01*
X0380938Y0113995D02*
X0371960Y0113995D01*
X0371960Y0116041D02*
X0380938Y0116041D01*
X0380938Y0118087D02*
X0371960Y0118087D01*
X0381253Y0080829D02*
X0381253Y0072639D01*
X0372275Y0072639D01*
X0372275Y0080829D01*
X0381253Y0080829D01*
X0381253Y0074685D02*
X0372275Y0074685D01*
X0372275Y0076731D02*
X0381253Y0076731D01*
X0381253Y0078777D02*
X0372275Y0078777D01*
X0372275Y0080823D02*
X0381253Y0080823D01*
X0371056Y0068446D02*
X0362866Y0068446D01*
X0362866Y0077424D01*
X0371056Y0077424D01*
X0371056Y0068446D01*
X0371056Y0070492D02*
X0362866Y0070492D01*
X0362866Y0072538D02*
X0371056Y0072538D01*
X0371056Y0074584D02*
X0362866Y0074584D01*
X0362866Y0076630D02*
X0371056Y0076630D01*
X0363575Y0068446D02*
X0355385Y0068446D01*
X0355385Y0077424D01*
X0363575Y0077424D01*
X0363575Y0068446D01*
X0363575Y0070492D02*
X0355385Y0070492D01*
X0355385Y0072538D02*
X0363575Y0072538D01*
X0363575Y0074584D02*
X0355385Y0074584D01*
X0355385Y0076630D02*
X0363575Y0076630D01*
X0381253Y0073349D02*
X0381253Y0065159D01*
X0372275Y0065159D01*
X0372275Y0073349D01*
X0381253Y0073349D01*
X0381253Y0067205D02*
X0372275Y0067205D01*
X0372275Y0069251D02*
X0381253Y0069251D01*
X0381253Y0071297D02*
X0372275Y0071297D01*
X0372275Y0073343D02*
X0381253Y0073343D01*
X0372354Y0065022D02*
X0372354Y0056832D01*
X0372354Y0065022D02*
X0381332Y0065022D01*
X0381332Y0056832D01*
X0372354Y0056832D01*
X0372354Y0058878D02*
X0381332Y0058878D01*
X0381332Y0060924D02*
X0372354Y0060924D01*
X0372354Y0062970D02*
X0381332Y0062970D01*
X0381332Y0065016D02*
X0372354Y0065016D01*
X0371056Y0061676D02*
X0362866Y0061676D01*
X0371056Y0061676D02*
X0371056Y0052698D01*
X0362866Y0052698D01*
X0362866Y0061676D01*
X0362866Y0054744D02*
X0371056Y0054744D01*
X0371056Y0056790D02*
X0362866Y0056790D01*
X0362866Y0058836D02*
X0371056Y0058836D01*
X0371056Y0060882D02*
X0362866Y0060882D01*
X0363575Y0061676D02*
X0355385Y0061676D01*
X0363575Y0061676D02*
X0363575Y0052698D01*
X0355385Y0052698D01*
X0355385Y0061676D01*
X0355385Y0054744D02*
X0363575Y0054744D01*
X0363575Y0056790D02*
X0355385Y0056790D01*
X0355385Y0058836D02*
X0363575Y0058836D01*
X0363575Y0060882D02*
X0355385Y0060882D01*
X0372354Y0057542D02*
X0372354Y0049352D01*
X0372354Y0057542D02*
X0381332Y0057542D01*
X0381332Y0049352D01*
X0372354Y0049352D01*
X0372354Y0051398D02*
X0381332Y0051398D01*
X0381332Y0053444D02*
X0372354Y0053444D01*
X0372354Y0055490D02*
X0381332Y0055490D01*
X0381332Y0057536D02*
X0372354Y0057536D01*
X0372354Y0230336D02*
X0372354Y0238526D01*
X0381332Y0238526D01*
X0381332Y0230336D01*
X0372354Y0230336D01*
X0372354Y0232382D02*
X0381332Y0232382D01*
X0381332Y0234428D02*
X0372354Y0234428D01*
X0372354Y0236474D02*
X0381332Y0236474D01*
X0381332Y0238520D02*
X0372354Y0238520D01*
X0371056Y0242778D02*
X0362866Y0242778D01*
X0371056Y0242778D02*
X0371056Y0233800D01*
X0362866Y0233800D01*
X0362866Y0242778D01*
X0362866Y0235846D02*
X0371056Y0235846D01*
X0371056Y0237892D02*
X0362866Y0237892D01*
X0362866Y0239938D02*
X0371056Y0239938D01*
X0371056Y0241984D02*
X0362866Y0241984D01*
X0363575Y0242778D02*
X0355385Y0242778D01*
X0363575Y0242778D02*
X0363575Y0233800D01*
X0355385Y0233800D01*
X0355385Y0242778D01*
X0355385Y0235846D02*
X0363575Y0235846D01*
X0363575Y0237892D02*
X0355385Y0237892D01*
X0355385Y0239938D02*
X0363575Y0239938D01*
X0363575Y0241984D02*
X0355385Y0241984D01*
X0355385Y0249155D02*
X0363575Y0249155D01*
X0355385Y0249155D02*
X0355385Y0258133D01*
X0363575Y0258133D01*
X0363575Y0249155D01*
X0363575Y0251201D02*
X0355385Y0251201D01*
X0355385Y0253247D02*
X0363575Y0253247D01*
X0363575Y0255293D02*
X0355385Y0255293D01*
X0355385Y0257339D02*
X0363575Y0257339D01*
X0362866Y0249155D02*
X0371056Y0249155D01*
X0362866Y0249155D02*
X0362866Y0258133D01*
X0371056Y0258133D01*
X0371056Y0249155D01*
X0371056Y0251201D02*
X0362866Y0251201D01*
X0362866Y0253247D02*
X0371056Y0253247D01*
X0371056Y0255293D02*
X0362866Y0255293D01*
X0362866Y0257339D02*
X0371056Y0257339D01*
X0381253Y0253466D02*
X0381253Y0261656D01*
X0381253Y0253466D02*
X0372275Y0253466D01*
X0372275Y0261656D01*
X0381253Y0261656D01*
X0381253Y0255512D02*
X0372275Y0255512D01*
X0372275Y0257558D02*
X0381253Y0257558D01*
X0381253Y0259604D02*
X0372275Y0259604D01*
X0372275Y0261650D02*
X0381253Y0261650D01*
X0381253Y0254176D02*
X0381253Y0245986D01*
X0372275Y0245986D01*
X0372275Y0254176D01*
X0381253Y0254176D01*
X0381253Y0248032D02*
X0372275Y0248032D01*
X0372275Y0250078D02*
X0381253Y0250078D01*
X0381253Y0252124D02*
X0372275Y0252124D01*
X0372275Y0254170D02*
X0381253Y0254170D01*
X0372354Y0246006D02*
X0372354Y0237816D01*
X0372354Y0246006D02*
X0381332Y0246006D01*
X0381332Y0237816D01*
X0372354Y0237816D01*
X0372354Y0239862D02*
X0381332Y0239862D01*
X0381332Y0241908D02*
X0372354Y0241908D01*
X0372354Y0243954D02*
X0381332Y0243954D01*
X0381332Y0246000D02*
X0372354Y0246000D01*
D11*
X0253142Y0211872D03*
D12*
X0260760Y0211567D02*
X0260760Y0209677D01*
X0260760Y0211567D02*
X0267570Y0211567D01*
X0267570Y0209677D01*
X0260760Y0209677D01*
X0260760Y0210148D02*
X0267570Y0210148D01*
X0267570Y0210619D02*
X0260760Y0210619D01*
X0260760Y0211090D02*
X0267570Y0211090D01*
X0267570Y0211561D02*
X0260760Y0211561D01*
X0260760Y0212177D02*
X0260760Y0214067D01*
X0267570Y0214067D01*
X0267570Y0212177D01*
X0260760Y0212177D01*
X0260760Y0212648D02*
X0267570Y0212648D01*
X0267570Y0213119D02*
X0260760Y0213119D01*
X0260760Y0213590D02*
X0267570Y0213590D01*
X0267570Y0214061D02*
X0260760Y0214061D01*
X0260760Y0214677D02*
X0260760Y0216567D01*
X0267570Y0216567D01*
X0267570Y0214677D01*
X0260760Y0214677D01*
X0260760Y0215148D02*
X0267570Y0215148D01*
X0267570Y0215619D02*
X0260760Y0215619D01*
X0260760Y0216090D02*
X0267570Y0216090D01*
X0267570Y0216561D02*
X0260760Y0216561D01*
X0260760Y0217177D02*
X0260760Y0219067D01*
X0267570Y0219067D01*
X0267570Y0217177D01*
X0260760Y0217177D01*
X0260760Y0217648D02*
X0267570Y0217648D01*
X0267570Y0218119D02*
X0260760Y0218119D01*
X0260760Y0218590D02*
X0267570Y0218590D01*
X0267570Y0219061D02*
X0260760Y0219061D01*
X0260760Y0219677D02*
X0260760Y0221567D01*
X0267570Y0221567D01*
X0267570Y0219677D01*
X0260760Y0219677D01*
X0260760Y0220148D02*
X0267570Y0220148D01*
X0267570Y0220619D02*
X0260760Y0220619D01*
X0260760Y0221090D02*
X0267570Y0221090D01*
X0267570Y0221561D02*
X0260760Y0221561D01*
X0260760Y0222177D02*
X0260760Y0224067D01*
X0267570Y0224067D01*
X0267570Y0222177D01*
X0260760Y0222177D01*
X0260760Y0222648D02*
X0267570Y0222648D01*
X0267570Y0223119D02*
X0260760Y0223119D01*
X0260760Y0223590D02*
X0267570Y0223590D01*
X0267570Y0224061D02*
X0260760Y0224061D01*
X0260760Y0224677D02*
X0260760Y0226567D01*
X0267570Y0226567D01*
X0267570Y0224677D01*
X0260760Y0224677D01*
X0260760Y0225148D02*
X0267570Y0225148D01*
X0267570Y0225619D02*
X0260760Y0225619D01*
X0260760Y0226090D02*
X0267570Y0226090D01*
X0267570Y0226561D02*
X0260760Y0226561D01*
X0238713Y0226567D02*
X0238713Y0224677D01*
X0238713Y0226567D02*
X0245523Y0226567D01*
X0245523Y0224677D01*
X0238713Y0224677D01*
X0238713Y0225148D02*
X0245523Y0225148D01*
X0245523Y0225619D02*
X0238713Y0225619D01*
X0238713Y0226090D02*
X0245523Y0226090D01*
X0245523Y0226561D02*
X0238713Y0226561D01*
X0238713Y0224067D02*
X0238713Y0222177D01*
X0238713Y0224067D02*
X0245523Y0224067D01*
X0245523Y0222177D01*
X0238713Y0222177D01*
X0238713Y0222648D02*
X0245523Y0222648D01*
X0245523Y0223119D02*
X0238713Y0223119D01*
X0238713Y0223590D02*
X0245523Y0223590D01*
X0245523Y0224061D02*
X0238713Y0224061D01*
X0238713Y0221567D02*
X0238713Y0219677D01*
X0238713Y0221567D02*
X0245523Y0221567D01*
X0245523Y0219677D01*
X0238713Y0219677D01*
X0238713Y0220148D02*
X0245523Y0220148D01*
X0245523Y0220619D02*
X0238713Y0220619D01*
X0238713Y0221090D02*
X0245523Y0221090D01*
X0245523Y0221561D02*
X0238713Y0221561D01*
X0238713Y0219067D02*
X0238713Y0217177D01*
X0238713Y0219067D02*
X0245523Y0219067D01*
X0245523Y0217177D01*
X0238713Y0217177D01*
X0238713Y0217648D02*
X0245523Y0217648D01*
X0245523Y0218119D02*
X0238713Y0218119D01*
X0238713Y0218590D02*
X0245523Y0218590D01*
X0245523Y0219061D02*
X0238713Y0219061D01*
X0238713Y0216567D02*
X0238713Y0214677D01*
X0238713Y0216567D02*
X0245523Y0216567D01*
X0245523Y0214677D01*
X0238713Y0214677D01*
X0238713Y0215148D02*
X0245523Y0215148D01*
X0245523Y0215619D02*
X0238713Y0215619D01*
X0238713Y0216090D02*
X0245523Y0216090D01*
X0245523Y0216561D02*
X0238713Y0216561D01*
X0238713Y0214067D02*
X0238713Y0212177D01*
X0238713Y0214067D02*
X0245523Y0214067D01*
X0245523Y0212177D01*
X0238713Y0212177D01*
X0238713Y0212648D02*
X0245523Y0212648D01*
X0245523Y0213119D02*
X0238713Y0213119D01*
X0238713Y0213590D02*
X0245523Y0213590D01*
X0245523Y0214061D02*
X0238713Y0214061D01*
X0238713Y0211567D02*
X0238713Y0209677D01*
X0238713Y0211567D02*
X0245523Y0211567D01*
X0245523Y0209677D01*
X0238713Y0209677D01*
X0238713Y0210148D02*
X0245523Y0210148D01*
X0245523Y0210619D02*
X0238713Y0210619D01*
X0238713Y0211090D02*
X0245523Y0211090D01*
X0245523Y0211561D02*
X0238713Y0211561D01*
X0238713Y0209067D02*
X0238713Y0207177D01*
X0238713Y0209067D02*
X0245523Y0209067D01*
X0245523Y0207177D01*
X0238713Y0207177D01*
X0238713Y0207648D02*
X0245523Y0207648D01*
X0245523Y0208119D02*
X0238713Y0208119D01*
X0238713Y0208590D02*
X0245523Y0208590D01*
X0245523Y0209061D02*
X0238713Y0209061D01*
X0238713Y0206567D02*
X0238713Y0204677D01*
X0238713Y0206567D02*
X0245523Y0206567D01*
X0245523Y0204677D01*
X0238713Y0204677D01*
X0238713Y0205148D02*
X0245523Y0205148D01*
X0245523Y0205619D02*
X0238713Y0205619D01*
X0238713Y0206090D02*
X0245523Y0206090D01*
X0245523Y0206561D02*
X0238713Y0206561D01*
X0238713Y0204067D02*
X0238713Y0202177D01*
X0238713Y0204067D02*
X0245523Y0204067D01*
X0245523Y0202177D01*
X0238713Y0202177D01*
X0238713Y0202648D02*
X0245523Y0202648D01*
X0245523Y0203119D02*
X0238713Y0203119D01*
X0238713Y0203590D02*
X0245523Y0203590D01*
X0245523Y0204061D02*
X0238713Y0204061D01*
X0238713Y0201567D02*
X0238713Y0199677D01*
X0238713Y0201567D02*
X0245523Y0201567D01*
X0245523Y0199677D01*
X0238713Y0199677D01*
X0238713Y0200148D02*
X0245523Y0200148D01*
X0245523Y0200619D02*
X0238713Y0200619D01*
X0238713Y0201090D02*
X0245523Y0201090D01*
X0245523Y0201561D02*
X0238713Y0201561D01*
X0238713Y0199067D02*
X0238713Y0197177D01*
X0238713Y0199067D02*
X0245523Y0199067D01*
X0245523Y0197177D01*
X0238713Y0197177D01*
X0238713Y0197648D02*
X0245523Y0197648D01*
X0245523Y0198119D02*
X0238713Y0198119D01*
X0238713Y0198590D02*
X0245523Y0198590D01*
X0245523Y0199061D02*
X0238713Y0199061D01*
X0260760Y0199067D02*
X0260760Y0197177D01*
X0260760Y0199067D02*
X0267570Y0199067D01*
X0267570Y0197177D01*
X0260760Y0197177D01*
X0260760Y0197648D02*
X0267570Y0197648D01*
X0267570Y0198119D02*
X0260760Y0198119D01*
X0260760Y0198590D02*
X0267570Y0198590D01*
X0267570Y0199061D02*
X0260760Y0199061D01*
X0260760Y0199677D02*
X0260760Y0201567D01*
X0267570Y0201567D01*
X0267570Y0199677D01*
X0260760Y0199677D01*
X0260760Y0200148D02*
X0267570Y0200148D01*
X0267570Y0200619D02*
X0260760Y0200619D01*
X0260760Y0201090D02*
X0267570Y0201090D01*
X0267570Y0201561D02*
X0260760Y0201561D01*
X0260760Y0202177D02*
X0260760Y0204067D01*
X0267570Y0204067D01*
X0267570Y0202177D01*
X0260760Y0202177D01*
X0260760Y0202648D02*
X0267570Y0202648D01*
X0267570Y0203119D02*
X0260760Y0203119D01*
X0260760Y0203590D02*
X0267570Y0203590D01*
X0267570Y0204061D02*
X0260760Y0204061D01*
X0260760Y0204677D02*
X0260760Y0206567D01*
X0267570Y0206567D01*
X0267570Y0204677D01*
X0260760Y0204677D01*
X0260760Y0205148D02*
X0267570Y0205148D01*
X0267570Y0205619D02*
X0260760Y0205619D01*
X0260760Y0206090D02*
X0267570Y0206090D01*
X0267570Y0206561D02*
X0260760Y0206561D01*
X0260760Y0207177D02*
X0260760Y0209067D01*
X0267570Y0209067D01*
X0267570Y0207177D01*
X0260760Y0207177D01*
X0260760Y0207648D02*
X0267570Y0207648D01*
X0267570Y0208119D02*
X0260760Y0208119D01*
X0260760Y0208590D02*
X0267570Y0208590D01*
X0267570Y0209061D02*
X0260760Y0209061D01*
X0193653Y0208171D02*
X0193653Y0210061D01*
X0193653Y0208171D02*
X0186055Y0208171D01*
X0186055Y0210061D01*
X0193653Y0210061D01*
X0193653Y0208642D02*
X0186055Y0208642D01*
X0186055Y0209113D02*
X0193653Y0209113D01*
X0193653Y0209584D02*
X0186055Y0209584D01*
X0186055Y0210055D02*
X0193653Y0210055D01*
X0193653Y0210730D02*
X0193653Y0212620D01*
X0193653Y0210730D02*
X0186055Y0210730D01*
X0186055Y0212620D01*
X0193653Y0212620D01*
X0193653Y0211201D02*
X0186055Y0211201D01*
X0186055Y0211672D02*
X0193653Y0211672D01*
X0193653Y0212143D02*
X0186055Y0212143D01*
X0186055Y0212614D02*
X0193653Y0212614D01*
X0193653Y0213289D02*
X0193653Y0215179D01*
X0193653Y0213289D02*
X0186055Y0213289D01*
X0186055Y0215179D01*
X0193653Y0215179D01*
X0193653Y0213760D02*
X0186055Y0213760D01*
X0186055Y0214231D02*
X0193653Y0214231D01*
X0193653Y0214702D02*
X0186055Y0214702D01*
X0186055Y0215173D02*
X0193653Y0215173D01*
X0193653Y0215848D02*
X0193653Y0217738D01*
X0193653Y0215848D02*
X0186055Y0215848D01*
X0186055Y0217738D01*
X0193653Y0217738D01*
X0193653Y0216319D02*
X0186055Y0216319D01*
X0186055Y0216790D02*
X0193653Y0216790D01*
X0193653Y0217261D02*
X0186055Y0217261D01*
X0186055Y0217732D02*
X0193653Y0217732D01*
X0193653Y0218407D02*
X0193653Y0220297D01*
X0193653Y0218407D02*
X0186055Y0218407D01*
X0186055Y0220297D01*
X0193653Y0220297D01*
X0193653Y0218878D02*
X0186055Y0218878D01*
X0186055Y0219349D02*
X0193653Y0219349D01*
X0193653Y0219820D02*
X0186055Y0219820D01*
X0186055Y0220291D02*
X0193653Y0220291D01*
X0193653Y0220966D02*
X0193653Y0222856D01*
X0193653Y0220966D02*
X0186055Y0220966D01*
X0186055Y0222856D01*
X0193653Y0222856D01*
X0193653Y0221437D02*
X0186055Y0221437D01*
X0186055Y0221908D02*
X0193653Y0221908D01*
X0193653Y0222379D02*
X0186055Y0222379D01*
X0186055Y0222850D02*
X0193653Y0222850D01*
X0193653Y0207502D02*
X0193653Y0205612D01*
X0186055Y0205612D01*
X0186055Y0207502D01*
X0193653Y0207502D01*
X0193653Y0206083D02*
X0186055Y0206083D01*
X0186055Y0206554D02*
X0193653Y0206554D01*
X0193653Y0207025D02*
X0186055Y0207025D01*
X0186055Y0207496D02*
X0193653Y0207496D01*
X0193653Y0204943D02*
X0193653Y0203053D01*
X0186055Y0203053D01*
X0186055Y0204943D01*
X0193653Y0204943D01*
X0193653Y0203524D02*
X0186055Y0203524D01*
X0186055Y0203995D02*
X0193653Y0203995D01*
X0193653Y0204466D02*
X0186055Y0204466D01*
X0186055Y0204937D02*
X0193653Y0204937D01*
X0193653Y0202384D02*
X0193653Y0200494D01*
X0186055Y0200494D01*
X0186055Y0202384D01*
X0193653Y0202384D01*
X0193653Y0200965D02*
X0186055Y0200965D01*
X0186055Y0201436D02*
X0193653Y0201436D01*
X0193653Y0201907D02*
X0186055Y0201907D01*
X0186055Y0202378D02*
X0193653Y0202378D01*
X0193653Y0199825D02*
X0193653Y0197935D01*
X0186055Y0197935D01*
X0186055Y0199825D01*
X0193653Y0199825D01*
X0193653Y0198406D02*
X0186055Y0198406D01*
X0186055Y0198877D02*
X0193653Y0198877D01*
X0193653Y0199348D02*
X0186055Y0199348D01*
X0186055Y0199819D02*
X0193653Y0199819D01*
X0165897Y0199825D02*
X0165897Y0197935D01*
X0158299Y0197935D01*
X0158299Y0199825D01*
X0165897Y0199825D01*
X0165897Y0198406D02*
X0158299Y0198406D01*
X0158299Y0198877D02*
X0165897Y0198877D01*
X0165897Y0199348D02*
X0158299Y0199348D01*
X0158299Y0199819D02*
X0165897Y0199819D01*
X0165897Y0200494D02*
X0165897Y0202384D01*
X0165897Y0200494D02*
X0158299Y0200494D01*
X0158299Y0202384D01*
X0165897Y0202384D01*
X0165897Y0200965D02*
X0158299Y0200965D01*
X0158299Y0201436D02*
X0165897Y0201436D01*
X0165897Y0201907D02*
X0158299Y0201907D01*
X0158299Y0202378D02*
X0165897Y0202378D01*
X0165897Y0203053D02*
X0165897Y0204943D01*
X0165897Y0203053D02*
X0158299Y0203053D01*
X0158299Y0204943D01*
X0165897Y0204943D01*
X0165897Y0203524D02*
X0158299Y0203524D01*
X0158299Y0203995D02*
X0165897Y0203995D01*
X0165897Y0204466D02*
X0158299Y0204466D01*
X0158299Y0204937D02*
X0165897Y0204937D01*
X0165897Y0205612D02*
X0165897Y0207502D01*
X0165897Y0205612D02*
X0158299Y0205612D01*
X0158299Y0207502D01*
X0165897Y0207502D01*
X0165897Y0206083D02*
X0158299Y0206083D01*
X0158299Y0206554D02*
X0165897Y0206554D01*
X0165897Y0207025D02*
X0158299Y0207025D01*
X0158299Y0207496D02*
X0165897Y0207496D01*
X0165897Y0208171D02*
X0165897Y0210061D01*
X0165897Y0208171D02*
X0158299Y0208171D01*
X0158299Y0210061D01*
X0165897Y0210061D01*
X0165897Y0208642D02*
X0158299Y0208642D01*
X0158299Y0209113D02*
X0165897Y0209113D01*
X0165897Y0209584D02*
X0158299Y0209584D01*
X0158299Y0210055D02*
X0165897Y0210055D01*
X0165897Y0210730D02*
X0165897Y0212620D01*
X0165897Y0210730D02*
X0158299Y0210730D01*
X0158299Y0212620D01*
X0165897Y0212620D01*
X0165897Y0211201D02*
X0158299Y0211201D01*
X0158299Y0211672D02*
X0165897Y0211672D01*
X0165897Y0212143D02*
X0158299Y0212143D01*
X0158299Y0212614D02*
X0165897Y0212614D01*
X0165897Y0213289D02*
X0165897Y0215179D01*
X0165897Y0213289D02*
X0158299Y0213289D01*
X0158299Y0215179D01*
X0165897Y0215179D01*
X0165897Y0213760D02*
X0158299Y0213760D01*
X0158299Y0214231D02*
X0165897Y0214231D01*
X0165897Y0214702D02*
X0158299Y0214702D01*
X0158299Y0215173D02*
X0165897Y0215173D01*
X0165897Y0215848D02*
X0165897Y0217738D01*
X0165897Y0215848D02*
X0158299Y0215848D01*
X0158299Y0217738D01*
X0165897Y0217738D01*
X0165897Y0216319D02*
X0158299Y0216319D01*
X0158299Y0216790D02*
X0165897Y0216790D01*
X0165897Y0217261D02*
X0158299Y0217261D01*
X0158299Y0217732D02*
X0165897Y0217732D01*
X0165897Y0218407D02*
X0165897Y0220297D01*
X0165897Y0218407D02*
X0158299Y0218407D01*
X0158299Y0220297D01*
X0165897Y0220297D01*
X0165897Y0218878D02*
X0158299Y0218878D01*
X0158299Y0219349D02*
X0165897Y0219349D01*
X0165897Y0219820D02*
X0158299Y0219820D01*
X0158299Y0220291D02*
X0165897Y0220291D01*
X0165897Y0220966D02*
X0165897Y0222856D01*
X0165897Y0220966D02*
X0158299Y0220966D01*
X0158299Y0222856D01*
X0165897Y0222856D01*
X0165897Y0221437D02*
X0158299Y0221437D01*
X0158299Y0221908D02*
X0165897Y0221908D01*
X0165897Y0222379D02*
X0158299Y0222379D01*
X0158299Y0222850D02*
X0165897Y0222850D01*
D13*
X0243693Y0229195D02*
X0262591Y0229195D01*
X0262591Y0194549D01*
X0243693Y0194549D01*
X0243693Y0229195D01*
X0243693Y0199272D02*
X0262591Y0199272D01*
X0262591Y0203995D02*
X0243693Y0203995D01*
X0243693Y0208718D02*
X0262591Y0208718D01*
X0262591Y0213441D02*
X0243693Y0213441D01*
X0243693Y0218164D02*
X0262591Y0218164D01*
X0262591Y0222887D02*
X0243693Y0222887D01*
X0243693Y0227610D02*
X0262591Y0227610D01*
D14*
X0179697Y0187758D03*
X0169697Y0187758D03*
X0386567Y0190474D03*
X0386567Y0180474D03*
X0397177Y0190494D03*
X0386567Y0240868D03*
X0386567Y0250868D03*
X0397177Y0250671D03*
X0397177Y0130711D03*
X0386646Y0130789D03*
X0386646Y0120789D03*
X0386646Y0070789D03*
X0397571Y0070927D03*
X0386646Y0060789D03*
D15*
X0209913Y0115219D02*
X0209913Y0122777D01*
X0209913Y0115219D02*
X0199993Y0115219D01*
X0199993Y0122777D01*
X0209913Y0122777D01*
X0209913Y0117108D02*
X0199993Y0117108D01*
X0199993Y0118997D02*
X0209913Y0118997D01*
X0209913Y0120886D02*
X0199993Y0120886D01*
X0199993Y0122775D02*
X0209913Y0122775D01*
X0209913Y0125219D02*
X0209913Y0132777D01*
X0209913Y0125219D02*
X0199993Y0125219D01*
X0199993Y0132777D01*
X0209913Y0132777D01*
X0209913Y0127108D02*
X0199993Y0127108D01*
X0199993Y0128997D02*
X0209913Y0128997D01*
X0209913Y0130886D02*
X0199993Y0130886D01*
X0199993Y0132775D02*
X0209913Y0132775D01*
X0209913Y0135219D02*
X0209913Y0142777D01*
X0209913Y0135219D02*
X0199993Y0135219D01*
X0199993Y0142777D01*
X0209913Y0142777D01*
X0209913Y0137108D02*
X0199993Y0137108D01*
X0199993Y0138997D02*
X0209913Y0138997D01*
X0209913Y0140886D02*
X0199993Y0140886D01*
X0199993Y0142775D02*
X0209913Y0142775D01*
X0209913Y0145219D02*
X0209913Y0152777D01*
X0209913Y0145219D02*
X0199993Y0145219D01*
X0199993Y0152777D01*
X0209913Y0152777D01*
X0209913Y0147108D02*
X0199993Y0147108D01*
X0199993Y0148997D02*
X0209913Y0148997D01*
X0209913Y0150886D02*
X0199993Y0150886D01*
X0199993Y0152775D02*
X0209913Y0152775D01*
X0159993Y0152777D02*
X0159993Y0145219D01*
X0159993Y0152777D02*
X0169913Y0152777D01*
X0169913Y0145219D01*
X0159993Y0145219D01*
X0159993Y0147108D02*
X0169913Y0147108D01*
X0169913Y0148997D02*
X0159993Y0148997D01*
X0159993Y0150886D02*
X0169913Y0150886D01*
X0169913Y0152775D02*
X0159993Y0152775D01*
X0159993Y0142777D02*
X0159993Y0135219D01*
X0159993Y0142777D02*
X0169913Y0142777D01*
X0169913Y0135219D01*
X0159993Y0135219D01*
X0159993Y0137108D02*
X0169913Y0137108D01*
X0169913Y0138997D02*
X0159993Y0138997D01*
X0159993Y0140886D02*
X0169913Y0140886D01*
X0169913Y0142775D02*
X0159993Y0142775D01*
X0159993Y0132777D02*
X0159993Y0125219D01*
X0159993Y0132777D02*
X0169913Y0132777D01*
X0169913Y0125219D01*
X0159993Y0125219D01*
X0159993Y0127108D02*
X0169913Y0127108D01*
X0169913Y0128997D02*
X0159993Y0128997D01*
X0159993Y0130886D02*
X0169913Y0130886D01*
X0169913Y0132775D02*
X0159993Y0132775D01*
X0159993Y0122777D02*
X0159993Y0115219D01*
X0159993Y0122777D02*
X0169913Y0122777D01*
X0169913Y0115219D01*
X0159993Y0115219D01*
X0159993Y0117108D02*
X0169913Y0117108D01*
X0169913Y0118997D02*
X0159993Y0118997D01*
X0159993Y0120886D02*
X0169913Y0120886D01*
X0169913Y0122775D02*
X0159993Y0122775D01*
D16*
X0129362Y0109706D02*
X0129362Y0104668D01*
X0129362Y0109706D02*
X0136370Y0109706D01*
X0136370Y0104668D01*
X0129362Y0104668D01*
X0129362Y0105927D02*
X0136370Y0105927D01*
X0136370Y0107186D02*
X0129362Y0107186D01*
X0129362Y0108445D02*
X0136370Y0108445D01*
X0136370Y0109704D02*
X0129362Y0109704D01*
X0129362Y0104706D02*
X0129362Y0099668D01*
X0129362Y0104706D02*
X0136370Y0104706D01*
X0136370Y0099668D01*
X0129362Y0099668D01*
X0129362Y0100927D02*
X0136370Y0100927D01*
X0136370Y0102186D02*
X0129362Y0102186D01*
X0129362Y0103445D02*
X0136370Y0103445D01*
X0136370Y0104704D02*
X0129362Y0104704D01*
X0129362Y0099706D02*
X0129362Y0094668D01*
X0129362Y0099706D02*
X0136370Y0099706D01*
X0136370Y0094668D01*
X0129362Y0094668D01*
X0129362Y0095927D02*
X0136370Y0095927D01*
X0136370Y0097186D02*
X0129362Y0097186D01*
X0129362Y0098445D02*
X0136370Y0098445D01*
X0136370Y0099704D02*
X0129362Y0099704D01*
X0095898Y0099668D02*
X0095898Y0104706D01*
X0102906Y0104706D01*
X0102906Y0099668D01*
X0095898Y0099668D01*
X0095898Y0100927D02*
X0102906Y0100927D01*
X0102906Y0102186D02*
X0095898Y0102186D01*
X0095898Y0103445D02*
X0102906Y0103445D01*
X0102906Y0104704D02*
X0095898Y0104704D01*
X0095898Y0104668D02*
X0095898Y0109706D01*
X0102906Y0109706D01*
X0102906Y0104668D01*
X0095898Y0104668D01*
X0095898Y0105927D02*
X0102906Y0105927D01*
X0102906Y0107186D02*
X0095898Y0107186D01*
X0095898Y0108445D02*
X0102906Y0108445D01*
X0102906Y0109704D02*
X0095898Y0109704D01*
X0095898Y0099706D02*
X0095898Y0094668D01*
X0095898Y0099706D02*
X0102906Y0099706D01*
X0102906Y0094668D01*
X0095898Y0094668D01*
X0095898Y0095927D02*
X0102906Y0095927D01*
X0102906Y0097186D02*
X0095898Y0097186D01*
X0095898Y0098445D02*
X0102906Y0098445D01*
X0102906Y0099704D02*
X0095898Y0099704D01*
D17*
X0112669Y0090042D02*
X0112669Y0083742D01*
X0104795Y0083742D01*
X0104795Y0090042D01*
X0112669Y0090042D01*
X0112669Y0085316D02*
X0104795Y0085316D01*
X0104795Y0086890D02*
X0112669Y0086890D01*
X0112669Y0088464D02*
X0104795Y0088464D01*
X0104795Y0090038D02*
X0112669Y0090038D01*
X0112669Y0082561D02*
X0112669Y0076261D01*
X0104795Y0076261D01*
X0104795Y0082561D01*
X0112669Y0082561D01*
X0112669Y0077835D02*
X0104795Y0077835D01*
X0104795Y0079409D02*
X0112669Y0079409D01*
X0112669Y0080983D02*
X0104795Y0080983D01*
X0104795Y0082557D02*
X0112669Y0082557D01*
X0104008Y0080002D02*
X0104008Y0086302D01*
X0104008Y0080002D02*
X0096134Y0080002D01*
X0096134Y0086302D01*
X0104008Y0086302D01*
X0104008Y0081576D02*
X0096134Y0081576D01*
X0096134Y0083150D02*
X0104008Y0083150D01*
X0104008Y0084724D02*
X0096134Y0084724D01*
X0096134Y0086298D02*
X0104008Y0086298D01*
D18*
X0397571Y0060927D03*
X0397177Y0120711D03*
X0397177Y0180494D03*
X0397177Y0240671D03*
D19*
X0417177Y0260671D03*
X0417177Y0220671D03*
X0417177Y0200494D03*
X0417177Y0160494D03*
X0417177Y0140711D03*
X0417177Y0100711D03*
X0417571Y0080927D03*
X0417571Y0040927D03*
D20*
X0067059Y0062699D03*
X0067059Y0082384D03*
X0067059Y0102384D03*
X0067059Y0122384D03*
X0067059Y0142384D03*
X0067059Y0162384D03*
X0067059Y0182384D03*
X0067059Y0202384D03*
X0067059Y0222384D03*
X0067059Y0242069D03*
D21*
X0057217Y0042384D03*
X0057217Y0262384D03*
D22*
X0101000Y0246557D03*
X0111000Y0246557D03*
X0121000Y0246557D03*
X0131000Y0246557D03*
X0141000Y0246557D03*
X0151000Y0246557D03*
X0161000Y0246557D03*
X0171000Y0246557D03*
X0181000Y0246557D03*
X0191000Y0246557D03*
X0207000Y0246557D03*
X0217000Y0246557D03*
X0227000Y0246557D03*
X0237000Y0246557D03*
X0247000Y0246557D03*
X0257000Y0246557D03*
X0267000Y0246557D03*
X0277000Y0246557D03*
X0277000Y0056557D03*
X0267000Y0056557D03*
X0257000Y0056557D03*
X0247000Y0056557D03*
X0237000Y0056557D03*
X0227000Y0056557D03*
X0207000Y0056557D03*
X0197000Y0056557D03*
X0187000Y0056557D03*
X0177000Y0056557D03*
X0167000Y0056557D03*
X0157000Y0056557D03*
X0147000Y0056557D03*
X0137000Y0056557D03*
D23*
X0082000Y0056557D03*
X0287000Y0076557D03*
X0287000Y0186557D03*
X0087000Y0246557D03*
D24*
X0110071Y0213880D03*
X0130937Y0233565D03*
X0141173Y0229628D03*
X0152591Y0231203D03*
X0141173Y0239077D03*
X0167945Y0219392D03*
X0185661Y0231596D03*
X0177787Y0236715D03*
X0201409Y0236321D03*
X0206921Y0227659D03*
X0206134Y0223329D03*
X0223457Y0223302D03*
X0231331Y0220573D03*
X0233299Y0215848D03*
X0237033Y0218184D03*
X0236449Y0202069D03*
X0233693Y0194195D03*
X0238811Y0187502D03*
X0257709Y0174904D03*
X0215189Y0197344D03*
X0204559Y0206400D03*
X0136449Y0197738D03*
X0227000Y0254037D03*
X0236843Y0254037D03*
X0272276Y0223329D03*
X0277787Y0220573D03*
X0354953Y0240258D03*
X0354953Y0250888D03*
X0354559Y0190258D03*
X0354559Y0179628D03*
X0354559Y0131990D03*
X0354559Y0120967D03*
X0354953Y0069392D03*
X0354953Y0059943D03*
X0215583Y0076085D03*
X0190780Y0076478D03*
X0138417Y0096951D03*
X0114402Y0079628D03*
X0097866Y0091439D03*
X0105346Y0097344D03*
X0086449Y0106006D03*
X0215189Y0118998D03*
D25*
X0130543Y0084746D03*
X0084480Y0122541D03*
X0084480Y0142226D03*
M02*
