%
M48
M72
T01C0.01378
T02C0.02559
T03C0.03504
T04C0.03937
T05C0.05512
T06C0.07913
T07C0.09843
T08C0.14173
%
T01
X114402Y79628
X97866Y91439
X105346Y97344
X86449Y106006
X138417Y96951
X190780Y76478
X215583Y76085
X215189Y118998
X257709Y174904
X238811Y187502
X233693Y194195
X236449Y202069
X233299Y215848
X237033Y218184
X231331Y220573
X223457Y223302
X206921Y227659
X206134Y223329
X201409Y236321
X185661Y231596
X177787Y236715
X167945Y219392
X152591Y231203
X141173Y229628
X130937Y233565
X141173Y239077
X110071Y213880
X136449Y197738
X204559Y206400
X215189Y197344
X272276Y223329
X277787Y220573
X236843Y254037
X227000Y254037
X354953Y250888
X354953Y240258
X354559Y190258
X354559Y179628
X354559Y131990
X354559Y120967
X354953Y69392
X354953Y59943
T02
X130543Y84746
X84480Y122541
X84480Y142226
T03
X397177Y130711
X397177Y120711
X397571Y70927
X397571Y60927
X397177Y180494
X397177Y190494
X397177Y240671
X397177Y250671
T04
X386567Y250868
X386567Y240868
X386567Y190474
X386567Y180474
X386646Y130789
X386646Y120789
X386646Y70789
X386646Y60789
X277000Y56557
X267000Y56557
X257000Y56557
X247000Y56557
X237000Y56557
X227000Y56557
X207000Y56557
X197000Y56557
X187000Y56557
X177000Y56557
X167000Y56557
X157000Y56557
X147000Y56557
X137000Y56557
X169697Y187758
X179697Y187758
X181000Y246557
X171000Y246557
X161000Y246557
X151000Y246557
X141000Y246557
X131000Y246557
X121000Y246557
X111000Y246557
X101000Y246557
X191000Y246557
X207000Y246557
X217000Y246557
X227000Y246557
X237000Y246557
X247000Y246557
X257000Y246557
X267000Y246557
X277000Y246557
T05
X67059Y242069
X67059Y222384
X67059Y202384
X67059Y182384
X67059Y162384
X67059Y142384
X67059Y122384
X67059Y102384
X67059Y82384
X67059Y62699
T06
X417571Y80927
X417177Y100711
X417177Y140711
X417177Y160494
X417177Y200494
X417177Y220671
X417177Y260671
X417571Y40927
T07
X57217Y42384
X57217Y262384
T08
X87000Y246557
X287000Y186557
X287000Y76557
X82000Y56557
M30
