G75*
%MOIN*%
%OFA0B0*%
%FSLAX25Y25*%
%IPPOS*%
%LPD*%
%AMOC8*
5,1,8,0,0,1.08239X$1,22.5*
%
%ADD10C,0.00400*%
%ADD11C,0.00000*%
%ADD12C,0.00500*%
%ADD13C,0.00300*%
%ADD14C,0.00787*%
%ADD15C,0.00800*%
%ADD16C,0.00600*%
%ADD17C,0.01000*%
%ADD18R,0.47244X0.20000*%
D10*
X0054262Y0061048D02*
X0052728Y0062583D01*
X0057331Y0062583D01*
X0057331Y0061048D02*
X0057331Y0064118D01*
X0056564Y0065652D02*
X0053495Y0068722D01*
X0056564Y0068722D01*
X0057331Y0067954D01*
X0057331Y0066420D01*
X0056564Y0065652D01*
X0053495Y0065652D01*
X0052728Y0066420D01*
X0052728Y0067954D01*
X0053495Y0068722D01*
X0053495Y0080733D02*
X0052728Y0081501D01*
X0052728Y0083035D01*
X0053495Y0083803D01*
X0056564Y0083803D01*
X0057331Y0083035D01*
X0057331Y0081501D01*
X0056564Y0080733D01*
X0055030Y0081501D02*
X0055030Y0083803D01*
X0055030Y0081501D02*
X0054262Y0080733D01*
X0053495Y0080733D01*
X0076144Y0090969D02*
X0076144Y0094039D01*
X0076911Y0094806D01*
X0078446Y0094806D01*
X0079213Y0094039D01*
X0080748Y0094039D02*
X0081515Y0094806D01*
X0083050Y0094806D01*
X0083817Y0094039D01*
X0083817Y0093271D01*
X0080748Y0090202D01*
X0083817Y0090202D01*
X0084917Y0089945D02*
X0087218Y0089945D01*
X0087986Y0090713D01*
X0087986Y0092247D01*
X0087218Y0093015D01*
X0084917Y0093015D01*
X0084917Y0088411D01*
X0085352Y0090202D02*
X0088421Y0093271D01*
X0088421Y0094039D01*
X0087654Y0094806D01*
X0086119Y0094806D01*
X0085352Y0094039D01*
X0084917Y0096796D02*
X0084917Y0101400D01*
X0087218Y0101400D01*
X0087986Y0100633D01*
X0087986Y0099098D01*
X0087218Y0098331D01*
X0084917Y0098331D01*
X0086451Y0098331D02*
X0087986Y0096796D01*
X0089520Y0096796D02*
X0092590Y0096796D01*
X0091055Y0096796D02*
X0091055Y0101400D01*
X0089520Y0099866D01*
X0094124Y0099098D02*
X0095659Y0100633D01*
X0097194Y0101400D01*
X0096426Y0099098D02*
X0094124Y0099098D01*
X0094124Y0097564D01*
X0094892Y0096796D01*
X0096426Y0096796D01*
X0097194Y0097564D01*
X0097194Y0098331D01*
X0096426Y0099098D01*
X0096426Y0093015D02*
X0097194Y0092247D01*
X0097194Y0091480D01*
X0096426Y0090713D01*
X0097194Y0089945D01*
X0097194Y0089178D01*
X0096426Y0088411D01*
X0094892Y0088411D01*
X0094124Y0089178D01*
X0092590Y0088411D02*
X0089520Y0088411D01*
X0087986Y0088411D02*
X0086451Y0089945D01*
X0085352Y0090202D02*
X0088421Y0090202D01*
X0089520Y0091480D02*
X0091055Y0093015D01*
X0091055Y0088411D01*
X0094124Y0092247D02*
X0094892Y0093015D01*
X0096426Y0093015D01*
X0096426Y0090713D02*
X0095659Y0090713D01*
X0096702Y0083525D02*
X0096702Y0080455D01*
X0093632Y0083525D01*
X0092865Y0083525D01*
X0092098Y0082757D01*
X0092098Y0081223D01*
X0092865Y0080455D01*
X0092098Y0078921D02*
X0092098Y0075852D01*
X0092098Y0077386D02*
X0096702Y0077386D01*
X0079213Y0090969D02*
X0078446Y0090202D01*
X0076911Y0090202D01*
X0076144Y0090969D01*
X0057331Y0101186D02*
X0056564Y0100419D01*
X0055797Y0100419D01*
X0055030Y0101186D01*
X0055030Y0102720D01*
X0055797Y0103488D01*
X0056564Y0103488D01*
X0057331Y0102720D01*
X0057331Y0101186D01*
X0055030Y0101186D02*
X0054262Y0100419D01*
X0053495Y0100419D01*
X0052728Y0101186D01*
X0052728Y0102720D01*
X0053495Y0103488D01*
X0054262Y0103488D01*
X0055030Y0102720D01*
X0056564Y0121088D02*
X0057331Y0121088D01*
X0056564Y0121088D02*
X0053495Y0124157D01*
X0052728Y0124157D01*
X0052728Y0121088D01*
X0055030Y0140773D02*
X0055030Y0143075D01*
X0055797Y0143842D01*
X0056564Y0143842D01*
X0057331Y0143075D01*
X0057331Y0141540D01*
X0056564Y0140773D01*
X0055030Y0140773D01*
X0053495Y0142307D01*
X0052728Y0143842D01*
X0052728Y0160458D02*
X0055030Y0160458D01*
X0054262Y0161993D01*
X0054262Y0162760D01*
X0055030Y0163527D01*
X0056564Y0163527D01*
X0057331Y0162760D01*
X0057331Y0161225D01*
X0056564Y0160458D01*
X0052728Y0160458D02*
X0052728Y0163527D01*
X0055030Y0181127D02*
X0055030Y0184196D01*
X0057331Y0183429D02*
X0052728Y0183429D01*
X0055030Y0181127D01*
X0056564Y0200812D02*
X0057331Y0201580D01*
X0057331Y0203114D01*
X0056564Y0203881D01*
X0055797Y0203881D01*
X0055030Y0203114D01*
X0055030Y0202347D01*
X0055030Y0203114D02*
X0054262Y0203881D01*
X0053495Y0203881D01*
X0052728Y0203114D01*
X0052728Y0201580D01*
X0053495Y0200812D01*
X0053495Y0220497D02*
X0052728Y0221265D01*
X0052728Y0222799D01*
X0053495Y0223567D01*
X0054262Y0223567D01*
X0057331Y0220497D01*
X0057331Y0223567D01*
X0057331Y0240182D02*
X0057331Y0243252D01*
X0057331Y0241717D02*
X0052728Y0241717D01*
X0054262Y0240182D01*
X0111188Y0223865D02*
X0111188Y0219261D01*
X0114257Y0219261D01*
X0115792Y0219261D02*
X0118861Y0219261D01*
X0120396Y0219261D02*
X0122698Y0219261D01*
X0123465Y0220028D01*
X0123465Y0223098D01*
X0122698Y0223865D01*
X0120396Y0223865D01*
X0120396Y0219261D01*
X0117327Y0221563D02*
X0115792Y0221563D01*
X0115792Y0223865D02*
X0115792Y0219261D01*
X0115792Y0223865D02*
X0118861Y0223865D01*
X0125000Y0222330D02*
X0126535Y0223865D01*
X0126535Y0219261D01*
X0128069Y0219261D02*
X0125000Y0219261D01*
X0125327Y0212267D02*
X0125327Y0207663D01*
X0126861Y0207663D02*
X0123792Y0207663D01*
X0122257Y0207663D02*
X0120723Y0209197D01*
X0121490Y0209197D02*
X0119188Y0209197D01*
X0119188Y0207663D02*
X0119188Y0212267D01*
X0121490Y0212267D01*
X0122257Y0211499D01*
X0122257Y0209965D01*
X0121490Y0209197D01*
X0123792Y0210732D02*
X0125327Y0212267D01*
X0142944Y0221461D02*
X0142944Y0222996D01*
X0143711Y0223763D01*
X0143711Y0225298D02*
X0142944Y0226065D01*
X0142944Y0227600D01*
X0143711Y0228367D01*
X0144479Y0228367D01*
X0147548Y0225298D01*
X0147548Y0228367D01*
X0146781Y0229902D02*
X0147548Y0230669D01*
X0147548Y0232204D01*
X0146781Y0232971D01*
X0143711Y0232971D01*
X0142944Y0232204D01*
X0142944Y0230669D01*
X0143711Y0229902D01*
X0144479Y0229902D01*
X0145246Y0230669D01*
X0145246Y0232971D01*
X0146781Y0223763D02*
X0147548Y0222996D01*
X0147548Y0221461D01*
X0146781Y0220694D01*
X0143711Y0220694D01*
X0142944Y0221461D01*
X0204873Y0221347D02*
X0205641Y0222115D01*
X0206408Y0222115D01*
X0207175Y0221347D01*
X0207943Y0222115D01*
X0208710Y0222115D01*
X0209477Y0221347D01*
X0209477Y0219813D01*
X0208710Y0219045D01*
X0208710Y0217511D02*
X0209477Y0216743D01*
X0209477Y0215209D01*
X0208710Y0214441D01*
X0205641Y0214441D01*
X0204873Y0215209D01*
X0204873Y0216743D01*
X0205641Y0217511D01*
X0205641Y0219045D02*
X0204873Y0219813D01*
X0204873Y0221347D01*
X0207175Y0221347D02*
X0207175Y0220580D01*
X0205641Y0223649D02*
X0204873Y0224417D01*
X0204873Y0225951D01*
X0205641Y0226718D01*
X0208710Y0223649D01*
X0209477Y0224417D01*
X0209477Y0225951D01*
X0208710Y0226718D01*
X0205641Y0226718D01*
X0205641Y0223649D02*
X0208710Y0223649D01*
X0210680Y0216928D02*
X0210680Y0213859D01*
X0212982Y0213859D01*
X0212215Y0215393D01*
X0212215Y0216161D01*
X0212982Y0216928D01*
X0214517Y0216928D01*
X0215284Y0216161D01*
X0215284Y0214626D01*
X0214517Y0213859D01*
X0215284Y0212324D02*
X0215284Y0209255D01*
X0215284Y0210789D02*
X0210680Y0210789D01*
X0212215Y0209255D01*
X0211448Y0207720D02*
X0210680Y0206953D01*
X0210680Y0205418D01*
X0211448Y0204651D01*
X0214517Y0204651D01*
X0215284Y0205418D01*
X0215284Y0206953D01*
X0214517Y0207720D01*
X0218554Y0205986D02*
X0223158Y0205986D01*
X0223158Y0204452D02*
X0223158Y0207521D01*
X0220856Y0209055D02*
X0220856Y0212125D01*
X0218554Y0211357D02*
X0220856Y0209055D01*
X0223158Y0211357D02*
X0218554Y0211357D01*
X0218554Y0205986D02*
X0220089Y0204452D01*
X0219322Y0202917D02*
X0218554Y0202150D01*
X0218554Y0200615D01*
X0219322Y0199848D01*
X0222391Y0199848D01*
X0223158Y0200615D01*
X0223158Y0202150D01*
X0222391Y0202917D01*
X0215284Y0201830D02*
X0215284Y0200295D01*
X0214517Y0199528D01*
X0215284Y0197993D02*
X0215284Y0194924D01*
X0215284Y0196459D02*
X0210680Y0196459D01*
X0212215Y0194924D01*
X0211448Y0193389D02*
X0210680Y0192622D01*
X0210680Y0191087D01*
X0211448Y0190320D01*
X0214517Y0190320D01*
X0215284Y0191087D01*
X0215284Y0192622D01*
X0214517Y0193389D01*
X0211448Y0199528D02*
X0210680Y0200295D01*
X0210680Y0201830D01*
X0211448Y0202597D01*
X0212215Y0202597D01*
X0212982Y0201830D01*
X0213750Y0202597D01*
X0214517Y0202597D01*
X0215284Y0201830D01*
X0212982Y0201830D02*
X0212982Y0201063D01*
X0233594Y0189218D02*
X0234361Y0187684D01*
X0235896Y0186149D01*
X0235896Y0188451D01*
X0236663Y0189218D01*
X0237430Y0189218D01*
X0238198Y0188451D01*
X0238198Y0186917D01*
X0237430Y0186149D01*
X0235896Y0186149D01*
X0238198Y0184615D02*
X0238198Y0181545D01*
X0238198Y0183080D02*
X0233594Y0183080D01*
X0235128Y0181545D01*
X0234361Y0180011D02*
X0233594Y0179243D01*
X0233594Y0177709D01*
X0234361Y0176941D01*
X0237430Y0176941D01*
X0238198Y0177709D01*
X0238198Y0179243D01*
X0237430Y0180011D01*
X0247688Y0187072D02*
X0248456Y0186304D01*
X0251525Y0186304D01*
X0252292Y0187072D01*
X0252292Y0188606D01*
X0251525Y0189374D01*
X0252292Y0190908D02*
X0252292Y0193978D01*
X0252292Y0195512D02*
X0249223Y0198581D01*
X0248456Y0198581D01*
X0247688Y0197814D01*
X0247688Y0196279D01*
X0248456Y0195512D01*
X0247688Y0192443D02*
X0252292Y0192443D01*
X0252292Y0195512D02*
X0252292Y0198581D01*
X0247688Y0192443D02*
X0249223Y0190908D01*
X0248456Y0189374D02*
X0247688Y0188606D01*
X0247688Y0187072D01*
X0155225Y0132658D02*
X0154458Y0132658D01*
X0151389Y0135727D01*
X0150621Y0135727D01*
X0150621Y0132658D01*
X0151389Y0131123D02*
X0150621Y0130356D01*
X0150621Y0128821D01*
X0151389Y0128054D01*
X0152156Y0128054D01*
X0152923Y0128821D01*
X0152923Y0130356D01*
X0153691Y0131123D01*
X0154458Y0131123D01*
X0155225Y0130356D01*
X0155225Y0128821D01*
X0154458Y0128054D01*
X0154458Y0126519D02*
X0150621Y0126519D01*
X0150621Y0123450D02*
X0154458Y0123450D01*
X0155225Y0124217D01*
X0155225Y0125752D01*
X0154458Y0126519D01*
X0155993Y0129589D02*
X0149854Y0129589D01*
X0117174Y0114856D02*
X0114105Y0114856D01*
X0115639Y0114856D02*
X0115639Y0119459D01*
X0114105Y0117925D01*
X0112570Y0118692D02*
X0112570Y0117157D01*
X0111803Y0116390D01*
X0109501Y0116390D01*
X0109501Y0114856D02*
X0109501Y0119459D01*
X0111803Y0119459D01*
X0112570Y0118692D01*
X0107966Y0118692D02*
X0107966Y0115623D01*
X0107199Y0114856D01*
X0105664Y0114856D01*
X0104897Y0115623D01*
X0104897Y0118692D01*
X0105664Y0119459D01*
X0107199Y0119459D01*
X0107966Y0118692D01*
X0151094Y0101700D02*
X0152628Y0100165D01*
X0151861Y0098630D02*
X0151094Y0097863D01*
X0151094Y0096328D01*
X0151861Y0095561D01*
X0154930Y0095561D01*
X0155698Y0096328D01*
X0155698Y0097863D01*
X0154930Y0098630D01*
X0155698Y0100165D02*
X0155698Y0103234D01*
X0155698Y0101700D02*
X0151094Y0101700D01*
X0180035Y0096755D02*
X0180035Y0092151D01*
X0180035Y0093685D02*
X0182337Y0093685D01*
X0183104Y0094453D01*
X0183104Y0095987D01*
X0182337Y0096755D01*
X0180035Y0096755D01*
X0181569Y0093685D02*
X0183104Y0092151D01*
X0184639Y0092918D02*
X0185406Y0092151D01*
X0186941Y0092151D01*
X0187708Y0092918D01*
X0187708Y0093685D01*
X0186941Y0094453D01*
X0186173Y0094453D01*
X0186941Y0094453D02*
X0187708Y0095220D01*
X0187708Y0095987D01*
X0186941Y0096755D01*
X0185406Y0096755D01*
X0184639Y0095987D01*
X0186193Y0086499D02*
X0186193Y0081895D01*
X0184658Y0081895D02*
X0187728Y0081895D01*
X0189262Y0082662D02*
X0192331Y0085731D01*
X0192331Y0082662D01*
X0191564Y0081895D01*
X0190029Y0081895D01*
X0189262Y0082662D01*
X0189262Y0085731D01*
X0190029Y0086499D01*
X0191564Y0086499D01*
X0192331Y0085731D01*
X0196228Y0085282D02*
X0196228Y0080678D01*
X0199297Y0080678D01*
X0200831Y0080678D02*
X0203901Y0080678D01*
X0205435Y0080678D02*
X0207737Y0080678D01*
X0208505Y0081446D01*
X0208505Y0084515D01*
X0207737Y0085282D01*
X0205435Y0085282D01*
X0205435Y0080678D01*
X0202366Y0082980D02*
X0200831Y0082980D01*
X0200831Y0085282D02*
X0200831Y0080678D01*
X0200831Y0085282D02*
X0203901Y0085282D01*
X0210039Y0082980D02*
X0213109Y0082980D01*
X0212341Y0080678D02*
X0212341Y0085282D01*
X0210039Y0082980D01*
X0186193Y0086499D02*
X0184658Y0084964D01*
X0183124Y0085731D02*
X0182356Y0086499D01*
X0180822Y0086499D01*
X0180054Y0085731D01*
X0180054Y0082662D01*
X0180822Y0081895D01*
X0182356Y0081895D01*
X0183124Y0082662D01*
X0016111Y0148351D02*
X0016111Y0149886D01*
X0015344Y0150653D01*
X0011507Y0150653D01*
X0012274Y0152188D02*
X0011507Y0152955D01*
X0011507Y0154490D01*
X0012274Y0155257D01*
X0013809Y0154490D02*
X0013809Y0152955D01*
X0013042Y0152188D01*
X0012274Y0152188D01*
X0010740Y0153722D02*
X0016878Y0153722D01*
X0016111Y0152955D02*
X0016111Y0154490D01*
X0015344Y0155257D01*
X0014576Y0155257D01*
X0013809Y0154490D01*
X0013809Y0156792D02*
X0013809Y0159861D01*
X0012274Y0161396D02*
X0011507Y0162163D01*
X0011507Y0163698D01*
X0012274Y0164465D01*
X0015344Y0161396D01*
X0016111Y0162163D01*
X0016111Y0163698D01*
X0015344Y0164465D01*
X0012274Y0164465D01*
X0012274Y0161396D02*
X0015344Y0161396D01*
X0016111Y0159094D02*
X0011507Y0159094D01*
X0013809Y0156792D01*
X0016111Y0152955D02*
X0015344Y0152188D01*
X0016111Y0148351D02*
X0015344Y0147584D01*
X0011507Y0147584D01*
X0347505Y0229257D02*
X0348272Y0228489D01*
X0349807Y0228489D01*
X0350574Y0229257D01*
X0350574Y0233093D01*
X0352109Y0232326D02*
X0352876Y0233093D01*
X0354411Y0233093D01*
X0355178Y0232326D01*
X0356713Y0231559D02*
X0358247Y0233093D01*
X0358247Y0228489D01*
X0356713Y0228489D02*
X0359782Y0228489D01*
X0361317Y0228489D02*
X0364386Y0231559D01*
X0364386Y0232326D01*
X0363618Y0233093D01*
X0362084Y0233093D01*
X0361317Y0232326D01*
X0361317Y0228489D02*
X0364386Y0228489D01*
X0355178Y0229257D02*
X0355178Y0230024D01*
X0354411Y0230791D01*
X0352876Y0230791D01*
X0352109Y0231559D01*
X0352109Y0232326D01*
X0353643Y0233861D02*
X0353643Y0227722D01*
X0352876Y0228489D02*
X0354411Y0228489D01*
X0355178Y0229257D01*
X0352876Y0228489D02*
X0352109Y0229257D01*
X0347505Y0229257D02*
X0347505Y0233093D01*
X0366960Y0251521D02*
X0366960Y0253823D01*
X0367727Y0254590D01*
X0369262Y0254590D01*
X0370029Y0253823D01*
X0370029Y0251521D01*
X0370029Y0253055D02*
X0371564Y0254590D01*
X0371564Y0256125D02*
X0371564Y0259194D01*
X0371663Y0258844D02*
X0371663Y0263448D01*
X0370128Y0261913D01*
X0370796Y0260729D02*
X0367727Y0263798D01*
X0366960Y0263798D01*
X0366960Y0260729D01*
X0366292Y0261146D02*
X0365524Y0261913D01*
X0365524Y0262680D01*
X0366292Y0263448D01*
X0367826Y0263448D01*
X0368594Y0262680D01*
X0367826Y0261146D02*
X0366292Y0261146D01*
X0367826Y0261146D02*
X0368594Y0260378D01*
X0368594Y0259611D01*
X0367826Y0258844D01*
X0366292Y0258844D01*
X0365524Y0259611D01*
X0363990Y0259611D02*
X0363990Y0263448D01*
X0360920Y0263448D02*
X0360920Y0259611D01*
X0361688Y0258844D01*
X0363222Y0258844D01*
X0363990Y0259611D01*
X0367059Y0258076D02*
X0367059Y0264215D01*
X0370796Y0260729D02*
X0371564Y0260729D01*
X0370128Y0258844D02*
X0373198Y0258844D01*
X0374732Y0259611D02*
X0375500Y0258844D01*
X0377034Y0258844D01*
X0377802Y0259611D01*
X0377802Y0260378D01*
X0377034Y0261146D01*
X0376267Y0261146D01*
X0377034Y0261146D02*
X0377802Y0261913D01*
X0377802Y0262680D01*
X0377034Y0263448D01*
X0375500Y0263448D01*
X0374732Y0262680D01*
X0371564Y0257659D02*
X0366960Y0257659D01*
X0368495Y0256125D01*
X0366960Y0251521D02*
X0371564Y0251521D01*
X0382039Y0239337D02*
X0382039Y0236267D01*
X0384341Y0236267D01*
X0383573Y0237802D01*
X0383573Y0238569D01*
X0384341Y0239337D01*
X0385875Y0239337D01*
X0386643Y0238569D01*
X0386643Y0237035D01*
X0385875Y0236267D01*
X0386643Y0234733D02*
X0386643Y0231663D01*
X0386643Y0230129D02*
X0385108Y0228594D01*
X0385108Y0229361D02*
X0385108Y0227059D01*
X0386643Y0227059D02*
X0382039Y0227059D01*
X0382039Y0229361D01*
X0382806Y0230129D01*
X0384341Y0230129D01*
X0385108Y0229361D01*
X0383573Y0231663D02*
X0382039Y0233198D01*
X0386643Y0233198D01*
X0367059Y0204372D02*
X0367059Y0198234D01*
X0366763Y0199155D02*
X0367530Y0199155D01*
X0370600Y0196085D01*
X0371367Y0196085D01*
X0371367Y0194551D02*
X0369832Y0193016D01*
X0369832Y0193783D02*
X0369832Y0191481D01*
X0371367Y0191481D02*
X0366763Y0191481D01*
X0366763Y0193783D01*
X0367530Y0194551D01*
X0369065Y0194551D01*
X0369832Y0193783D01*
X0366763Y0196085D02*
X0366763Y0199155D01*
X0366292Y0199001D02*
X0367826Y0199001D01*
X0368594Y0199768D01*
X0368594Y0200536D01*
X0367826Y0201303D01*
X0366292Y0201303D01*
X0365524Y0202070D01*
X0365524Y0202838D01*
X0366292Y0203605D01*
X0367826Y0203605D01*
X0368594Y0202838D01*
X0370128Y0201303D02*
X0372430Y0201303D01*
X0373198Y0200536D01*
X0373198Y0199768D01*
X0372430Y0199001D01*
X0370896Y0199001D01*
X0370128Y0199768D01*
X0370128Y0201303D01*
X0371663Y0202838D01*
X0373198Y0203605D01*
X0366292Y0199001D02*
X0365524Y0199768D01*
X0363990Y0199768D02*
X0363990Y0203605D01*
X0360920Y0203605D02*
X0360920Y0199768D01*
X0361688Y0199001D01*
X0363222Y0199001D01*
X0363990Y0199768D01*
X0381645Y0178510D02*
X0382412Y0176975D01*
X0383947Y0175441D01*
X0383947Y0177743D01*
X0384714Y0178510D01*
X0385482Y0178510D01*
X0386249Y0177743D01*
X0386249Y0176208D01*
X0385482Y0175441D01*
X0383947Y0175441D01*
X0383947Y0173906D02*
X0384714Y0173139D01*
X0384714Y0170837D01*
X0384714Y0172371D02*
X0386249Y0173906D01*
X0383947Y0173906D02*
X0382412Y0173906D01*
X0381645Y0173139D01*
X0381645Y0170837D01*
X0386249Y0170837D01*
X0364386Y0169768D02*
X0361317Y0169768D01*
X0363618Y0172070D01*
X0363618Y0167466D01*
X0359782Y0168233D02*
X0359782Y0169000D01*
X0359015Y0169768D01*
X0357480Y0169768D01*
X0356713Y0170535D01*
X0356713Y0171302D01*
X0357480Y0172070D01*
X0359015Y0172070D01*
X0359782Y0171302D01*
X0358247Y0172837D02*
X0358247Y0166698D01*
X0357480Y0167466D02*
X0359015Y0167466D01*
X0359782Y0168233D01*
X0357480Y0167466D02*
X0356713Y0168233D01*
X0355178Y0168233D02*
X0355178Y0172070D01*
X0352109Y0172070D02*
X0352109Y0168233D01*
X0352876Y0167466D01*
X0354411Y0167466D01*
X0355178Y0168233D01*
X0360920Y0143763D02*
X0360920Y0139926D01*
X0361688Y0139159D01*
X0363222Y0139159D01*
X0363990Y0139926D01*
X0363990Y0143763D01*
X0365524Y0142995D02*
X0366292Y0143763D01*
X0367826Y0143763D01*
X0368594Y0142995D01*
X0370128Y0142995D02*
X0370896Y0143763D01*
X0372430Y0143763D01*
X0373198Y0142995D01*
X0373198Y0142228D01*
X0372430Y0141461D01*
X0373198Y0140693D01*
X0373198Y0139926D01*
X0372430Y0139159D01*
X0370896Y0139159D01*
X0370128Y0139926D01*
X0370796Y0139332D02*
X0371564Y0138565D01*
X0371564Y0137030D01*
X0370796Y0136263D01*
X0369262Y0136263D02*
X0368495Y0137797D01*
X0368495Y0138565D01*
X0369262Y0139332D01*
X0370796Y0139332D01*
X0368594Y0139926D02*
X0368594Y0140693D01*
X0367826Y0141461D01*
X0366292Y0141461D01*
X0365524Y0142228D01*
X0365524Y0142995D01*
X0367059Y0144530D02*
X0367059Y0138391D01*
X0366960Y0139332D02*
X0366960Y0136263D01*
X0369262Y0136263D01*
X0369262Y0134728D02*
X0370029Y0133961D01*
X0370029Y0131659D01*
X0370029Y0133193D02*
X0371564Y0134728D01*
X0369262Y0134728D02*
X0367727Y0134728D01*
X0366960Y0133961D01*
X0366960Y0131659D01*
X0371564Y0131659D01*
X0367826Y0139159D02*
X0366292Y0139159D01*
X0365524Y0139926D01*
X0367826Y0139159D02*
X0368594Y0139926D01*
X0371663Y0141461D02*
X0372430Y0141461D01*
X0383947Y0118904D02*
X0383947Y0115834D01*
X0381645Y0118136D01*
X0386249Y0118136D01*
X0386249Y0114300D02*
X0384714Y0112765D01*
X0384714Y0113532D02*
X0384714Y0111230D01*
X0386249Y0111230D02*
X0381645Y0111230D01*
X0381645Y0113532D01*
X0382412Y0114300D01*
X0383947Y0114300D01*
X0384714Y0113532D01*
X0364386Y0112247D02*
X0363618Y0113015D01*
X0362084Y0113015D01*
X0361317Y0112247D01*
X0359782Y0112247D02*
X0359015Y0113015D01*
X0357480Y0113015D01*
X0356713Y0112247D01*
X0356713Y0111480D01*
X0357480Y0110713D01*
X0359015Y0110713D01*
X0359782Y0109945D01*
X0359782Y0109178D01*
X0359015Y0108411D01*
X0357480Y0108411D01*
X0356713Y0109178D01*
X0355178Y0109178D02*
X0355178Y0113015D01*
X0352109Y0113015D02*
X0352109Y0109178D01*
X0352876Y0108411D01*
X0354411Y0108411D01*
X0355178Y0109178D01*
X0358247Y0107643D02*
X0358247Y0113782D01*
X0361317Y0108411D02*
X0364386Y0111480D01*
X0364386Y0112247D01*
X0364386Y0108411D02*
X0361317Y0108411D01*
X0367059Y0083506D02*
X0367059Y0077368D01*
X0366960Y0076833D02*
X0371564Y0076833D01*
X0370896Y0078135D02*
X0372430Y0078135D01*
X0373198Y0078902D01*
X0373198Y0081972D01*
X0372430Y0082739D01*
X0370896Y0082739D01*
X0370128Y0081972D01*
X0370128Y0081204D01*
X0370896Y0080437D01*
X0373198Y0080437D01*
X0371564Y0082204D02*
X0366960Y0082204D01*
X0369262Y0079902D01*
X0369262Y0082971D01*
X0368594Y0081972D02*
X0367826Y0082739D01*
X0366292Y0082739D01*
X0365524Y0081972D01*
X0365524Y0081204D01*
X0366292Y0080437D01*
X0367826Y0080437D01*
X0368594Y0079670D01*
X0368594Y0078902D01*
X0367826Y0078135D01*
X0366292Y0078135D01*
X0365524Y0078902D01*
X0363990Y0078902D02*
X0363990Y0082739D01*
X0360920Y0082739D02*
X0360920Y0078902D01*
X0361688Y0078135D01*
X0363222Y0078135D01*
X0363990Y0078902D01*
X0366960Y0076833D02*
X0368495Y0075298D01*
X0369262Y0073763D02*
X0370029Y0072996D01*
X0370029Y0070694D01*
X0370029Y0072229D02*
X0371564Y0073763D01*
X0371564Y0075298D02*
X0371564Y0078367D01*
X0370896Y0078135D02*
X0370128Y0078902D01*
X0369262Y0073763D02*
X0367727Y0073763D01*
X0366960Y0072996D01*
X0366960Y0070694D01*
X0371564Y0070694D01*
X0382806Y0058352D02*
X0382039Y0057585D01*
X0382039Y0056050D01*
X0382806Y0055283D01*
X0382806Y0058352D02*
X0383573Y0058352D01*
X0386643Y0055283D01*
X0386643Y0058352D01*
X0386643Y0053748D02*
X0386643Y0050679D01*
X0386643Y0049144D02*
X0385108Y0047610D01*
X0385108Y0048377D02*
X0385108Y0046075D01*
X0386643Y0046075D02*
X0382039Y0046075D01*
X0382039Y0048377D01*
X0382806Y0049144D01*
X0384341Y0049144D01*
X0385108Y0048377D01*
X0383573Y0050679D02*
X0382039Y0052214D01*
X0386643Y0052214D01*
X0364386Y0051224D02*
X0364386Y0050456D01*
X0363618Y0049689D01*
X0362084Y0049689D01*
X0361317Y0050456D01*
X0361317Y0051224D01*
X0362084Y0051991D01*
X0363618Y0051991D01*
X0364386Y0051224D01*
X0363618Y0049689D02*
X0364386Y0048922D01*
X0364386Y0048154D01*
X0363618Y0047387D01*
X0362084Y0047387D01*
X0361317Y0048154D01*
X0361317Y0048922D01*
X0362084Y0049689D01*
X0359782Y0048922D02*
X0359015Y0049689D01*
X0357480Y0049689D01*
X0356713Y0050456D01*
X0356713Y0051224D01*
X0357480Y0051991D01*
X0359015Y0051991D01*
X0359782Y0051224D01*
X0358247Y0052758D02*
X0358247Y0046620D01*
X0357480Y0047387D02*
X0359015Y0047387D01*
X0359782Y0048154D01*
X0359782Y0048922D01*
X0357480Y0047387D02*
X0356713Y0048154D01*
X0355178Y0048154D02*
X0355178Y0051991D01*
X0352109Y0051991D02*
X0352109Y0048154D01*
X0352876Y0047387D01*
X0354411Y0047387D01*
X0355178Y0048154D01*
D11*
X0027000Y0050557D02*
X0027000Y0042557D01*
X0023000Y0046557D02*
X0031000Y0046557D01*
X0083217Y0083211D02*
X0091217Y0083211D01*
X0087217Y0079211D02*
X0087217Y0087211D01*
X0087217Y0087596D02*
X0087217Y0095596D01*
X0087256Y0096002D02*
X0087256Y0104002D01*
X0083256Y0100002D02*
X0091256Y0100002D01*
X0091217Y0091596D02*
X0083217Y0091596D01*
X0100402Y0083152D02*
X0108402Y0083152D01*
X0104402Y0079152D02*
X0104402Y0087152D01*
X0116134Y0098187D02*
X0116134Y0106187D01*
X0112134Y0102187D02*
X0120134Y0102187D01*
X0141898Y0102069D02*
X0149898Y0102069D01*
X0145898Y0098069D02*
X0145898Y0106069D01*
X0178335Y0086951D02*
X0186335Y0086951D01*
X0182335Y0082951D02*
X0182335Y0090951D01*
X0182354Y0080695D02*
X0182354Y0072695D01*
X0178354Y0076695D02*
X0186354Y0076695D01*
X0202528Y0076478D02*
X0210528Y0076478D01*
X0206528Y0072478D02*
X0206528Y0080478D01*
X0184953Y0129998D02*
X0184953Y0137998D01*
X0180953Y0133998D02*
X0188953Y0133998D01*
X0174697Y0183758D02*
X0174697Y0191758D01*
X0170697Y0187758D02*
X0178697Y0187758D01*
X0175976Y0206396D02*
X0175976Y0214396D01*
X0171976Y0210396D02*
X0179976Y0210396D01*
X0199677Y0221553D02*
X0199677Y0229553D01*
X0195677Y0225553D02*
X0203677Y0225553D01*
X0220484Y0210951D02*
X0220484Y0202951D01*
X0224358Y0202148D02*
X0232358Y0202148D01*
X0228358Y0198148D02*
X0228358Y0206148D01*
X0224484Y0206951D02*
X0216484Y0206951D01*
X0220484Y0196620D02*
X0220484Y0188620D01*
X0224398Y0188053D02*
X0232398Y0188053D01*
X0228398Y0184053D02*
X0228398Y0192053D01*
X0224484Y0192620D02*
X0216484Y0192620D01*
X0249142Y0211872D02*
X0257142Y0211872D01*
X0253142Y0207872D02*
X0253142Y0215872D01*
X0257492Y0192604D02*
X0257492Y0184604D01*
X0253492Y0188604D02*
X0261492Y0188604D01*
X0359220Y0193801D02*
X0367220Y0193801D01*
X0363220Y0189801D02*
X0363220Y0197801D01*
X0372567Y0193781D02*
X0380567Y0193781D01*
X0376567Y0189781D02*
X0376567Y0197781D01*
X0386567Y0189474D02*
X0386567Y0181474D01*
X0382567Y0185474D02*
X0390567Y0185474D01*
X0393177Y0180494D02*
X0401177Y0180494D01*
X0397177Y0176494D02*
X0397177Y0184494D01*
X0380449Y0177344D02*
X0372449Y0177344D01*
X0376449Y0173344D02*
X0376449Y0181344D01*
X0367220Y0177266D02*
X0359220Y0177266D01*
X0363220Y0173266D02*
X0363220Y0181266D01*
X0363220Y0137959D02*
X0363220Y0129959D01*
X0359220Y0133959D02*
X0367220Y0133959D01*
X0372764Y0133959D02*
X0380764Y0133959D01*
X0376764Y0129959D02*
X0376764Y0137959D01*
X0386646Y0129789D02*
X0386646Y0121789D01*
X0380449Y0117738D02*
X0372449Y0117738D01*
X0376449Y0113738D02*
X0376449Y0121738D01*
X0382646Y0125789D02*
X0390646Y0125789D01*
X0393177Y0120711D02*
X0401177Y0120711D01*
X0397177Y0116711D02*
X0397177Y0124711D01*
X0367220Y0118211D02*
X0359220Y0118211D01*
X0363220Y0114211D02*
X0363220Y0122211D01*
X0363220Y0076935D02*
X0363220Y0068935D01*
X0359220Y0072935D02*
X0367220Y0072935D01*
X0372764Y0072994D02*
X0380764Y0072994D01*
X0376764Y0068994D02*
X0376764Y0076994D01*
X0386646Y0069789D02*
X0386646Y0061789D01*
X0382646Y0065789D02*
X0390646Y0065789D01*
X0393571Y0060927D02*
X0401571Y0060927D01*
X0397571Y0056927D02*
X0397571Y0064927D01*
X0380843Y0057187D02*
X0372843Y0057187D01*
X0376843Y0053187D02*
X0376843Y0061187D01*
X0367220Y0057187D02*
X0359220Y0057187D01*
X0363220Y0053187D02*
X0363220Y0061187D01*
X0125488Y0202463D02*
X0117488Y0202463D01*
X0121488Y0198463D02*
X0121488Y0206463D01*
X0121488Y0211061D02*
X0121488Y0219061D01*
X0117488Y0215061D02*
X0125488Y0215061D01*
X0148748Y0222994D02*
X0156748Y0222994D01*
X0152748Y0218994D02*
X0152748Y0226994D01*
X0051311Y0156384D02*
X0051311Y0148384D01*
X0047311Y0152384D02*
X0055311Y0152384D01*
X0359220Y0238289D02*
X0367220Y0238289D01*
X0363220Y0234289D02*
X0363220Y0242289D01*
X0363220Y0249644D02*
X0363220Y0257644D01*
X0359220Y0253644D02*
X0367220Y0253644D01*
X0372764Y0253821D02*
X0380764Y0253821D01*
X0376764Y0249821D02*
X0376764Y0257821D01*
X0386567Y0249868D02*
X0386567Y0241868D01*
X0382567Y0245868D02*
X0390567Y0245868D01*
X0393177Y0240671D02*
X0401177Y0240671D01*
X0397177Y0236671D02*
X0397177Y0244671D01*
X0380843Y0238171D02*
X0372843Y0238171D01*
X0376843Y0234171D02*
X0376843Y0242171D01*
D12*
X0381921Y0233939D02*
X0391213Y0233939D01*
X0391213Y0257797D01*
X0381921Y0257797D01*
X0381921Y0233939D01*
X0392650Y0212325D02*
X0448161Y0212325D01*
X0448161Y0217049D01*
X0448161Y0264293D01*
X0448358Y0264293D01*
X0450327Y0217443D01*
X0448161Y0217049D02*
X0453083Y0217049D01*
X0450327Y0264293D01*
X0455839Y0264293D01*
X0458594Y0217049D01*
X0453083Y0217049D01*
X0455839Y0217443D02*
X0453083Y0263900D01*
X0455839Y0264293D02*
X0458594Y0264293D01*
X0460957Y0217443D01*
X0458594Y0217049D02*
X0466469Y0217049D01*
X0464106Y0264293D01*
X0471587Y0264293D01*
X0473949Y0217049D01*
X0471587Y0217049D01*
X0469224Y0263900D01*
X0466862Y0263900D02*
X0469224Y0217049D01*
X0466469Y0217049D01*
X0469224Y0217049D02*
X0471587Y0217049D01*
X0473949Y0217049D02*
X0476705Y0217049D01*
X0473949Y0264293D01*
X0475917Y0264293D01*
X0478673Y0217049D01*
X0476705Y0217049D01*
X0478673Y0217049D02*
X0481429Y0217049D01*
X0478673Y0264293D01*
X0482020Y0264293D01*
X0482020Y0217049D01*
X0481429Y0217049D01*
X0482020Y0204116D02*
X0478673Y0204116D01*
X0481429Y0156872D01*
X0478673Y0156872D01*
X0475917Y0204116D01*
X0478673Y0204116D01*
X0475917Y0204116D02*
X0473949Y0204116D01*
X0476705Y0156872D01*
X0473949Y0156872D01*
X0471587Y0204116D01*
X0473949Y0204116D01*
X0471587Y0204116D02*
X0464106Y0204116D01*
X0466469Y0156872D01*
X0458594Y0156872D01*
X0455839Y0204116D01*
X0458594Y0204116D01*
X0460957Y0157266D01*
X0458594Y0156872D02*
X0453083Y0156872D01*
X0450327Y0204116D01*
X0455839Y0204116D01*
X0458594Y0204116D02*
X0461744Y0204116D01*
X0463713Y0157266D01*
X0466469Y0156872D02*
X0469224Y0156872D01*
X0466862Y0203722D01*
X0469224Y0203722D02*
X0471587Y0156872D01*
X0469224Y0156872D01*
X0471587Y0156872D02*
X0473949Y0156872D01*
X0476705Y0156872D02*
X0478673Y0156872D01*
X0481429Y0156872D02*
X0482020Y0156872D01*
X0482020Y0204116D01*
X0464106Y0204116D02*
X0461744Y0204116D01*
X0453083Y0203722D02*
X0455839Y0157266D01*
X0453083Y0156872D02*
X0448161Y0156872D01*
X0448161Y0204116D01*
X0448358Y0204116D01*
X0450327Y0157266D01*
X0448161Y0156872D02*
X0448161Y0152148D01*
X0392650Y0152148D01*
X0392650Y0208841D01*
X0448161Y0208841D01*
X0448161Y0204116D01*
X0448358Y0204116D02*
X0450327Y0204116D01*
X0463713Y0217443D02*
X0461744Y0264293D01*
X0464106Y0264293D01*
X0461744Y0264293D02*
X0458594Y0264293D01*
X0450327Y0264293D02*
X0448358Y0264293D01*
X0448161Y0264293D02*
X0448161Y0269018D01*
X0392650Y0269018D01*
X0392650Y0212325D01*
X0379399Y0199569D02*
X0379401Y0199644D01*
X0379407Y0199719D01*
X0379417Y0199793D01*
X0379431Y0199867D01*
X0379448Y0199940D01*
X0379470Y0200011D01*
X0379495Y0200082D01*
X0379524Y0200151D01*
X0379556Y0200219D01*
X0379592Y0200284D01*
X0379632Y0200348D01*
X0379675Y0200410D01*
X0379721Y0200469D01*
X0379770Y0200526D01*
X0379822Y0200580D01*
X0379876Y0200631D01*
X0379934Y0200679D01*
X0379993Y0200724D01*
X0380056Y0200766D01*
X0380120Y0200805D01*
X0380186Y0200840D01*
X0380254Y0200872D01*
X0380324Y0200900D01*
X0380394Y0200924D01*
X0380467Y0200945D01*
X0380540Y0200961D01*
X0380614Y0200974D01*
X0380688Y0200983D01*
X0380763Y0200988D01*
X0380838Y0200989D01*
X0380913Y0200986D01*
X0380987Y0200979D01*
X0381061Y0200968D01*
X0381135Y0200953D01*
X0381208Y0200935D01*
X0381279Y0200912D01*
X0381349Y0200886D01*
X0381418Y0200856D01*
X0381485Y0200823D01*
X0381551Y0200786D01*
X0381614Y0200746D01*
X0381675Y0200702D01*
X0381733Y0200655D01*
X0381789Y0200606D01*
X0381843Y0200553D01*
X0381893Y0200498D01*
X0381941Y0200440D01*
X0381985Y0200379D01*
X0382026Y0200317D01*
X0382064Y0200252D01*
X0382098Y0200185D01*
X0382129Y0200117D01*
X0382156Y0200047D01*
X0382180Y0199976D01*
X0382199Y0199903D01*
X0382215Y0199830D01*
X0382227Y0199756D01*
X0382235Y0199681D01*
X0382239Y0199606D01*
X0382239Y0199532D01*
X0382235Y0199457D01*
X0382227Y0199382D01*
X0382215Y0199308D01*
X0382199Y0199235D01*
X0382180Y0199162D01*
X0382156Y0199091D01*
X0382129Y0199021D01*
X0382098Y0198953D01*
X0382064Y0198886D01*
X0382026Y0198821D01*
X0381985Y0198759D01*
X0381941Y0198698D01*
X0381893Y0198640D01*
X0381843Y0198585D01*
X0381789Y0198532D01*
X0381733Y0198483D01*
X0381675Y0198436D01*
X0381614Y0198392D01*
X0381551Y0198352D01*
X0381485Y0198315D01*
X0381418Y0198282D01*
X0381349Y0198252D01*
X0381279Y0198226D01*
X0381208Y0198203D01*
X0381135Y0198185D01*
X0381061Y0198170D01*
X0380987Y0198159D01*
X0380913Y0198152D01*
X0380838Y0198149D01*
X0380763Y0198150D01*
X0380688Y0198155D01*
X0380614Y0198164D01*
X0380540Y0198177D01*
X0380467Y0198193D01*
X0380394Y0198214D01*
X0380324Y0198238D01*
X0380254Y0198266D01*
X0380186Y0198298D01*
X0380120Y0198333D01*
X0380056Y0198372D01*
X0379993Y0198414D01*
X0379934Y0198459D01*
X0379876Y0198507D01*
X0379822Y0198558D01*
X0379770Y0198612D01*
X0379721Y0198669D01*
X0379675Y0198728D01*
X0379632Y0198790D01*
X0379592Y0198854D01*
X0379556Y0198919D01*
X0379524Y0198987D01*
X0379495Y0199056D01*
X0379470Y0199127D01*
X0379448Y0199198D01*
X0379431Y0199271D01*
X0379417Y0199345D01*
X0379407Y0199419D01*
X0379401Y0199494D01*
X0379399Y0199569D01*
X0381921Y0197404D02*
X0391213Y0197404D01*
X0391213Y0173545D01*
X0381921Y0173545D01*
X0381921Y0197404D01*
X0392650Y0149057D02*
X0448161Y0149057D01*
X0448161Y0144333D01*
X0448161Y0097089D01*
X0453083Y0097089D01*
X0450327Y0144333D01*
X0455839Y0144333D01*
X0458594Y0097089D01*
X0453083Y0097089D01*
X0455839Y0097482D02*
X0453083Y0143939D01*
X0455839Y0144333D02*
X0458594Y0144333D01*
X0460957Y0097482D01*
X0458594Y0097089D02*
X0466469Y0097089D01*
X0464106Y0144333D01*
X0471587Y0144333D01*
X0473949Y0097089D01*
X0471587Y0097089D01*
X0469224Y0143939D01*
X0466862Y0143939D02*
X0469224Y0097089D01*
X0466469Y0097089D01*
X0469224Y0097089D02*
X0471587Y0097089D01*
X0473949Y0097089D02*
X0476705Y0097089D01*
X0473949Y0144333D01*
X0475917Y0144333D01*
X0478673Y0097089D01*
X0476705Y0097089D01*
X0478673Y0097089D02*
X0481429Y0097089D01*
X0478673Y0144333D01*
X0482020Y0144333D01*
X0482020Y0097089D01*
X0481429Y0097089D01*
X0482413Y0084549D02*
X0482413Y0037305D01*
X0481823Y0037305D01*
X0479067Y0084549D01*
X0482413Y0084549D01*
X0479067Y0084549D02*
X0476311Y0084549D01*
X0479067Y0037305D01*
X0477098Y0037305D01*
X0474343Y0084549D01*
X0476311Y0084549D01*
X0474343Y0084549D02*
X0471980Y0084549D01*
X0474343Y0037305D01*
X0471980Y0037305D01*
X0469618Y0084156D01*
X0467256Y0084156D02*
X0469618Y0037305D01*
X0466862Y0037305D01*
X0464500Y0084549D01*
X0471980Y0084549D01*
X0464500Y0084549D02*
X0462138Y0084549D01*
X0464106Y0037699D01*
X0461350Y0037699D02*
X0458988Y0084549D01*
X0462138Y0084549D01*
X0458988Y0084549D02*
X0456232Y0084549D01*
X0458988Y0037305D01*
X0453476Y0037305D01*
X0450720Y0084549D01*
X0456232Y0084549D01*
X0453476Y0084156D02*
X0456232Y0037699D01*
X0453476Y0037305D02*
X0448555Y0037305D01*
X0448555Y0084549D01*
X0448752Y0084549D01*
X0450720Y0037699D01*
X0448555Y0037305D02*
X0448555Y0032581D01*
X0393043Y0032581D01*
X0393043Y0089274D01*
X0448555Y0089274D01*
X0448555Y0084549D01*
X0448752Y0084549D02*
X0450720Y0084549D01*
X0448161Y0092364D02*
X0448161Y0097089D01*
X0450327Y0097482D02*
X0448358Y0144333D01*
X0450327Y0144333D01*
X0448358Y0144333D02*
X0448161Y0144333D01*
X0458594Y0144333D02*
X0461744Y0144333D01*
X0463713Y0097482D01*
X0448161Y0092364D02*
X0392650Y0092364D01*
X0392650Y0149057D01*
X0391291Y0137719D02*
X0382000Y0137719D01*
X0382000Y0113860D01*
X0391291Y0113860D01*
X0391291Y0137719D01*
X0379478Y0139884D02*
X0379480Y0139959D01*
X0379486Y0140034D01*
X0379496Y0140108D01*
X0379510Y0140182D01*
X0379527Y0140255D01*
X0379549Y0140326D01*
X0379574Y0140397D01*
X0379603Y0140466D01*
X0379635Y0140534D01*
X0379671Y0140599D01*
X0379711Y0140663D01*
X0379754Y0140725D01*
X0379800Y0140784D01*
X0379849Y0140841D01*
X0379901Y0140895D01*
X0379955Y0140946D01*
X0380013Y0140994D01*
X0380072Y0141039D01*
X0380135Y0141081D01*
X0380199Y0141120D01*
X0380265Y0141155D01*
X0380333Y0141187D01*
X0380403Y0141215D01*
X0380473Y0141239D01*
X0380546Y0141260D01*
X0380619Y0141276D01*
X0380693Y0141289D01*
X0380767Y0141298D01*
X0380842Y0141303D01*
X0380917Y0141304D01*
X0380992Y0141301D01*
X0381066Y0141294D01*
X0381140Y0141283D01*
X0381214Y0141268D01*
X0381287Y0141250D01*
X0381358Y0141227D01*
X0381428Y0141201D01*
X0381497Y0141171D01*
X0381564Y0141138D01*
X0381630Y0141101D01*
X0381693Y0141061D01*
X0381754Y0141017D01*
X0381812Y0140970D01*
X0381868Y0140921D01*
X0381922Y0140868D01*
X0381972Y0140813D01*
X0382020Y0140755D01*
X0382064Y0140694D01*
X0382105Y0140632D01*
X0382143Y0140567D01*
X0382177Y0140500D01*
X0382208Y0140432D01*
X0382235Y0140362D01*
X0382259Y0140291D01*
X0382278Y0140218D01*
X0382294Y0140145D01*
X0382306Y0140071D01*
X0382314Y0139996D01*
X0382318Y0139921D01*
X0382318Y0139847D01*
X0382314Y0139772D01*
X0382306Y0139697D01*
X0382294Y0139623D01*
X0382278Y0139550D01*
X0382259Y0139477D01*
X0382235Y0139406D01*
X0382208Y0139336D01*
X0382177Y0139268D01*
X0382143Y0139201D01*
X0382105Y0139136D01*
X0382064Y0139074D01*
X0382020Y0139013D01*
X0381972Y0138955D01*
X0381922Y0138900D01*
X0381868Y0138847D01*
X0381812Y0138798D01*
X0381754Y0138751D01*
X0381693Y0138707D01*
X0381630Y0138667D01*
X0381564Y0138630D01*
X0381497Y0138597D01*
X0381428Y0138567D01*
X0381358Y0138541D01*
X0381287Y0138518D01*
X0381214Y0138500D01*
X0381140Y0138485D01*
X0381066Y0138474D01*
X0380992Y0138467D01*
X0380917Y0138464D01*
X0380842Y0138465D01*
X0380767Y0138470D01*
X0380693Y0138479D01*
X0380619Y0138492D01*
X0380546Y0138508D01*
X0380473Y0138529D01*
X0380403Y0138553D01*
X0380333Y0138581D01*
X0380265Y0138613D01*
X0380199Y0138648D01*
X0380135Y0138687D01*
X0380072Y0138729D01*
X0380013Y0138774D01*
X0379955Y0138822D01*
X0379901Y0138873D01*
X0379849Y0138927D01*
X0379800Y0138984D01*
X0379754Y0139043D01*
X0379711Y0139105D01*
X0379671Y0139169D01*
X0379635Y0139234D01*
X0379603Y0139302D01*
X0379574Y0139371D01*
X0379549Y0139442D01*
X0379527Y0139513D01*
X0379510Y0139586D01*
X0379496Y0139660D01*
X0379486Y0139734D01*
X0379480Y0139809D01*
X0379478Y0139884D01*
X0461744Y0144333D02*
X0464106Y0144333D01*
X0471587Y0144333D02*
X0473949Y0144333D01*
X0475917Y0144333D02*
X0478673Y0144333D01*
X0379478Y0079884D02*
X0379480Y0079959D01*
X0379486Y0080034D01*
X0379496Y0080108D01*
X0379510Y0080182D01*
X0379527Y0080255D01*
X0379549Y0080326D01*
X0379574Y0080397D01*
X0379603Y0080466D01*
X0379635Y0080534D01*
X0379671Y0080599D01*
X0379711Y0080663D01*
X0379754Y0080725D01*
X0379800Y0080784D01*
X0379849Y0080841D01*
X0379901Y0080895D01*
X0379955Y0080946D01*
X0380013Y0080994D01*
X0380072Y0081039D01*
X0380135Y0081081D01*
X0380199Y0081120D01*
X0380265Y0081155D01*
X0380333Y0081187D01*
X0380403Y0081215D01*
X0380473Y0081239D01*
X0380546Y0081260D01*
X0380619Y0081276D01*
X0380693Y0081289D01*
X0380767Y0081298D01*
X0380842Y0081303D01*
X0380917Y0081304D01*
X0380992Y0081301D01*
X0381066Y0081294D01*
X0381140Y0081283D01*
X0381214Y0081268D01*
X0381287Y0081250D01*
X0381358Y0081227D01*
X0381428Y0081201D01*
X0381497Y0081171D01*
X0381564Y0081138D01*
X0381630Y0081101D01*
X0381693Y0081061D01*
X0381754Y0081017D01*
X0381812Y0080970D01*
X0381868Y0080921D01*
X0381922Y0080868D01*
X0381972Y0080813D01*
X0382020Y0080755D01*
X0382064Y0080694D01*
X0382105Y0080632D01*
X0382143Y0080567D01*
X0382177Y0080500D01*
X0382208Y0080432D01*
X0382235Y0080362D01*
X0382259Y0080291D01*
X0382278Y0080218D01*
X0382294Y0080145D01*
X0382306Y0080071D01*
X0382314Y0079996D01*
X0382318Y0079921D01*
X0382318Y0079847D01*
X0382314Y0079772D01*
X0382306Y0079697D01*
X0382294Y0079623D01*
X0382278Y0079550D01*
X0382259Y0079477D01*
X0382235Y0079406D01*
X0382208Y0079336D01*
X0382177Y0079268D01*
X0382143Y0079201D01*
X0382105Y0079136D01*
X0382064Y0079074D01*
X0382020Y0079013D01*
X0381972Y0078955D01*
X0381922Y0078900D01*
X0381868Y0078847D01*
X0381812Y0078798D01*
X0381754Y0078751D01*
X0381693Y0078707D01*
X0381630Y0078667D01*
X0381564Y0078630D01*
X0381497Y0078597D01*
X0381428Y0078567D01*
X0381358Y0078541D01*
X0381287Y0078518D01*
X0381214Y0078500D01*
X0381140Y0078485D01*
X0381066Y0078474D01*
X0380992Y0078467D01*
X0380917Y0078464D01*
X0380842Y0078465D01*
X0380767Y0078470D01*
X0380693Y0078479D01*
X0380619Y0078492D01*
X0380546Y0078508D01*
X0380473Y0078529D01*
X0380403Y0078553D01*
X0380333Y0078581D01*
X0380265Y0078613D01*
X0380199Y0078648D01*
X0380135Y0078687D01*
X0380072Y0078729D01*
X0380013Y0078774D01*
X0379955Y0078822D01*
X0379901Y0078873D01*
X0379849Y0078927D01*
X0379800Y0078984D01*
X0379754Y0079043D01*
X0379711Y0079105D01*
X0379671Y0079169D01*
X0379635Y0079234D01*
X0379603Y0079302D01*
X0379574Y0079371D01*
X0379549Y0079442D01*
X0379527Y0079513D01*
X0379510Y0079586D01*
X0379496Y0079660D01*
X0379486Y0079734D01*
X0379480Y0079809D01*
X0379478Y0079884D01*
X0382000Y0077719D02*
X0391291Y0077719D01*
X0391291Y0053860D01*
X0382000Y0053860D01*
X0382000Y0077719D01*
X0458988Y0037305D02*
X0466862Y0037305D01*
X0469618Y0037305D02*
X0471980Y0037305D01*
X0474343Y0037305D02*
X0477098Y0037305D01*
X0479067Y0037305D02*
X0481823Y0037305D01*
X0261000Y0196880D02*
X0261000Y0226864D01*
X0259031Y0226864D01*
X0259031Y0196880D01*
X0245283Y0196880D01*
X0245283Y0226864D01*
X0259031Y0226864D01*
X0256473Y0198356D02*
X0256475Y0198412D01*
X0256481Y0198467D01*
X0256491Y0198521D01*
X0256504Y0198575D01*
X0256522Y0198628D01*
X0256543Y0198679D01*
X0256567Y0198729D01*
X0256595Y0198777D01*
X0256627Y0198823D01*
X0256661Y0198867D01*
X0256699Y0198908D01*
X0256739Y0198946D01*
X0256782Y0198981D01*
X0256827Y0199013D01*
X0256875Y0199042D01*
X0256924Y0199068D01*
X0256975Y0199090D01*
X0257027Y0199108D01*
X0257081Y0199122D01*
X0257136Y0199133D01*
X0257191Y0199140D01*
X0257246Y0199143D01*
X0257302Y0199142D01*
X0257357Y0199137D01*
X0257412Y0199128D01*
X0257466Y0199116D01*
X0257519Y0199099D01*
X0257571Y0199079D01*
X0257621Y0199055D01*
X0257669Y0199028D01*
X0257716Y0198998D01*
X0257760Y0198964D01*
X0257802Y0198927D01*
X0257840Y0198887D01*
X0257877Y0198845D01*
X0257910Y0198800D01*
X0257939Y0198754D01*
X0257966Y0198705D01*
X0257988Y0198654D01*
X0258008Y0198602D01*
X0258023Y0198548D01*
X0258035Y0198494D01*
X0258043Y0198439D01*
X0258047Y0198384D01*
X0258047Y0198328D01*
X0258043Y0198273D01*
X0258035Y0198218D01*
X0258023Y0198164D01*
X0258008Y0198110D01*
X0257988Y0198058D01*
X0257966Y0198007D01*
X0257939Y0197958D01*
X0257910Y0197912D01*
X0257877Y0197867D01*
X0257840Y0197825D01*
X0257802Y0197785D01*
X0257760Y0197748D01*
X0257716Y0197714D01*
X0257669Y0197684D01*
X0257621Y0197657D01*
X0257571Y0197633D01*
X0257519Y0197613D01*
X0257466Y0197596D01*
X0257412Y0197584D01*
X0257357Y0197575D01*
X0257302Y0197570D01*
X0257246Y0197569D01*
X0257191Y0197572D01*
X0257136Y0197579D01*
X0257081Y0197590D01*
X0257027Y0197604D01*
X0256975Y0197622D01*
X0256924Y0197644D01*
X0256875Y0197670D01*
X0256827Y0197699D01*
X0256782Y0197731D01*
X0256739Y0197766D01*
X0256699Y0197804D01*
X0256661Y0197845D01*
X0256627Y0197889D01*
X0256595Y0197935D01*
X0256567Y0197983D01*
X0256543Y0198033D01*
X0256522Y0198084D01*
X0256504Y0198137D01*
X0256491Y0198191D01*
X0256481Y0198245D01*
X0256475Y0198300D01*
X0256473Y0198356D01*
X0259031Y0196880D02*
X0261000Y0196880D01*
X0186626Y0192404D02*
X0186626Y0183112D01*
X0162768Y0183112D01*
X0162768Y0192404D01*
X0186626Y0192404D01*
X0186409Y0196222D02*
X0165543Y0196222D01*
X0165543Y0224569D01*
X0186409Y0224569D01*
X0186409Y0196222D01*
X0159182Y0182010D02*
X0159184Y0182085D01*
X0159190Y0182160D01*
X0159200Y0182234D01*
X0159214Y0182308D01*
X0159231Y0182381D01*
X0159253Y0182452D01*
X0159278Y0182523D01*
X0159307Y0182592D01*
X0159339Y0182660D01*
X0159375Y0182725D01*
X0159415Y0182789D01*
X0159458Y0182851D01*
X0159504Y0182910D01*
X0159553Y0182967D01*
X0159605Y0183021D01*
X0159659Y0183072D01*
X0159717Y0183120D01*
X0159776Y0183165D01*
X0159839Y0183207D01*
X0159903Y0183246D01*
X0159969Y0183281D01*
X0160037Y0183313D01*
X0160107Y0183341D01*
X0160177Y0183365D01*
X0160250Y0183386D01*
X0160323Y0183402D01*
X0160397Y0183415D01*
X0160471Y0183424D01*
X0160546Y0183429D01*
X0160621Y0183430D01*
X0160696Y0183427D01*
X0160770Y0183420D01*
X0160844Y0183409D01*
X0160918Y0183394D01*
X0160991Y0183376D01*
X0161062Y0183353D01*
X0161132Y0183327D01*
X0161201Y0183297D01*
X0161268Y0183264D01*
X0161334Y0183227D01*
X0161397Y0183187D01*
X0161458Y0183143D01*
X0161516Y0183096D01*
X0161572Y0183047D01*
X0161626Y0182994D01*
X0161676Y0182939D01*
X0161724Y0182881D01*
X0161768Y0182820D01*
X0161809Y0182758D01*
X0161847Y0182693D01*
X0161881Y0182626D01*
X0161912Y0182558D01*
X0161939Y0182488D01*
X0161963Y0182417D01*
X0161982Y0182344D01*
X0161998Y0182271D01*
X0162010Y0182197D01*
X0162018Y0182122D01*
X0162022Y0182047D01*
X0162022Y0181973D01*
X0162018Y0181898D01*
X0162010Y0181823D01*
X0161998Y0181749D01*
X0161982Y0181676D01*
X0161963Y0181603D01*
X0161939Y0181532D01*
X0161912Y0181462D01*
X0161881Y0181394D01*
X0161847Y0181327D01*
X0161809Y0181262D01*
X0161768Y0181200D01*
X0161724Y0181139D01*
X0161676Y0181081D01*
X0161626Y0181026D01*
X0161572Y0180973D01*
X0161516Y0180924D01*
X0161458Y0180877D01*
X0161397Y0180833D01*
X0161334Y0180793D01*
X0161268Y0180756D01*
X0161201Y0180723D01*
X0161132Y0180693D01*
X0161062Y0180667D01*
X0160991Y0180644D01*
X0160918Y0180626D01*
X0160844Y0180611D01*
X0160770Y0180600D01*
X0160696Y0180593D01*
X0160621Y0180590D01*
X0160546Y0180591D01*
X0160471Y0180596D01*
X0160397Y0180605D01*
X0160323Y0180618D01*
X0160250Y0180634D01*
X0160177Y0180655D01*
X0160107Y0180679D01*
X0160037Y0180707D01*
X0159969Y0180739D01*
X0159903Y0180774D01*
X0159839Y0180813D01*
X0159776Y0180855D01*
X0159717Y0180900D01*
X0159659Y0180948D01*
X0159605Y0180999D01*
X0159553Y0181053D01*
X0159504Y0181110D01*
X0159458Y0181169D01*
X0159415Y0181231D01*
X0159375Y0181295D01*
X0159339Y0181360D01*
X0159307Y0181428D01*
X0159278Y0181497D01*
X0159253Y0181568D01*
X0159231Y0181639D01*
X0159214Y0181712D01*
X0159200Y0181786D01*
X0159190Y0181860D01*
X0159184Y0181935D01*
X0159182Y0182010D01*
X0125488Y0207061D02*
X0125488Y0211061D01*
X0124417Y0210132D02*
X0123488Y0210132D01*
X0123488Y0209634D02*
X0124916Y0209634D01*
X0125414Y0209135D02*
X0123488Y0209135D01*
X0123488Y0208637D02*
X0125064Y0208637D01*
X0125488Y0209061D02*
X0123488Y0211061D01*
X0123488Y0207061D01*
X0125488Y0209061D01*
X0124565Y0208138D02*
X0123488Y0208138D01*
X0123488Y0207640D02*
X0124067Y0207640D01*
X0123568Y0207141D02*
X0123488Y0207141D01*
X0123488Y0210631D02*
X0123919Y0210631D01*
X0127488Y0209061D02*
X0115488Y0209061D01*
X0163197Y0225880D02*
X0163199Y0225936D01*
X0163205Y0225991D01*
X0163215Y0226045D01*
X0163228Y0226099D01*
X0163246Y0226152D01*
X0163267Y0226203D01*
X0163291Y0226253D01*
X0163319Y0226301D01*
X0163351Y0226347D01*
X0163385Y0226391D01*
X0163423Y0226432D01*
X0163463Y0226470D01*
X0163506Y0226505D01*
X0163551Y0226537D01*
X0163599Y0226566D01*
X0163648Y0226592D01*
X0163699Y0226614D01*
X0163751Y0226632D01*
X0163805Y0226646D01*
X0163860Y0226657D01*
X0163915Y0226664D01*
X0163970Y0226667D01*
X0164026Y0226666D01*
X0164081Y0226661D01*
X0164136Y0226652D01*
X0164190Y0226640D01*
X0164243Y0226623D01*
X0164295Y0226603D01*
X0164345Y0226579D01*
X0164393Y0226552D01*
X0164440Y0226522D01*
X0164484Y0226488D01*
X0164526Y0226451D01*
X0164564Y0226411D01*
X0164601Y0226369D01*
X0164634Y0226324D01*
X0164663Y0226278D01*
X0164690Y0226229D01*
X0164712Y0226178D01*
X0164732Y0226126D01*
X0164747Y0226072D01*
X0164759Y0226018D01*
X0164767Y0225963D01*
X0164771Y0225908D01*
X0164771Y0225852D01*
X0164767Y0225797D01*
X0164759Y0225742D01*
X0164747Y0225688D01*
X0164732Y0225634D01*
X0164712Y0225582D01*
X0164690Y0225531D01*
X0164663Y0225482D01*
X0164634Y0225436D01*
X0164601Y0225391D01*
X0164564Y0225349D01*
X0164526Y0225309D01*
X0164484Y0225272D01*
X0164440Y0225238D01*
X0164393Y0225208D01*
X0164345Y0225181D01*
X0164295Y0225157D01*
X0164243Y0225137D01*
X0164190Y0225120D01*
X0164136Y0225108D01*
X0164081Y0225099D01*
X0164026Y0225094D01*
X0163970Y0225093D01*
X0163915Y0225096D01*
X0163860Y0225103D01*
X0163805Y0225114D01*
X0163751Y0225128D01*
X0163699Y0225146D01*
X0163648Y0225168D01*
X0163599Y0225194D01*
X0163551Y0225223D01*
X0163506Y0225255D01*
X0163463Y0225290D01*
X0163423Y0225328D01*
X0163385Y0225369D01*
X0163351Y0225413D01*
X0163319Y0225459D01*
X0163291Y0225507D01*
X0163267Y0225557D01*
X0163246Y0225608D01*
X0163228Y0225661D01*
X0163215Y0225715D01*
X0163205Y0225769D01*
X0163199Y0225824D01*
X0163197Y0225880D01*
X0379399Y0259963D02*
X0379401Y0260038D01*
X0379407Y0260113D01*
X0379417Y0260187D01*
X0379431Y0260261D01*
X0379448Y0260334D01*
X0379470Y0260405D01*
X0379495Y0260476D01*
X0379524Y0260545D01*
X0379556Y0260613D01*
X0379592Y0260678D01*
X0379632Y0260742D01*
X0379675Y0260804D01*
X0379721Y0260863D01*
X0379770Y0260920D01*
X0379822Y0260974D01*
X0379876Y0261025D01*
X0379934Y0261073D01*
X0379993Y0261118D01*
X0380056Y0261160D01*
X0380120Y0261199D01*
X0380186Y0261234D01*
X0380254Y0261266D01*
X0380324Y0261294D01*
X0380394Y0261318D01*
X0380467Y0261339D01*
X0380540Y0261355D01*
X0380614Y0261368D01*
X0380688Y0261377D01*
X0380763Y0261382D01*
X0380838Y0261383D01*
X0380913Y0261380D01*
X0380987Y0261373D01*
X0381061Y0261362D01*
X0381135Y0261347D01*
X0381208Y0261329D01*
X0381279Y0261306D01*
X0381349Y0261280D01*
X0381418Y0261250D01*
X0381485Y0261217D01*
X0381551Y0261180D01*
X0381614Y0261140D01*
X0381675Y0261096D01*
X0381733Y0261049D01*
X0381789Y0261000D01*
X0381843Y0260947D01*
X0381893Y0260892D01*
X0381941Y0260834D01*
X0381985Y0260773D01*
X0382026Y0260711D01*
X0382064Y0260646D01*
X0382098Y0260579D01*
X0382129Y0260511D01*
X0382156Y0260441D01*
X0382180Y0260370D01*
X0382199Y0260297D01*
X0382215Y0260224D01*
X0382227Y0260150D01*
X0382235Y0260075D01*
X0382239Y0260000D01*
X0382239Y0259926D01*
X0382235Y0259851D01*
X0382227Y0259776D01*
X0382215Y0259702D01*
X0382199Y0259629D01*
X0382180Y0259556D01*
X0382156Y0259485D01*
X0382129Y0259415D01*
X0382098Y0259347D01*
X0382064Y0259280D01*
X0382026Y0259215D01*
X0381985Y0259153D01*
X0381941Y0259092D01*
X0381893Y0259034D01*
X0381843Y0258979D01*
X0381789Y0258926D01*
X0381733Y0258877D01*
X0381675Y0258830D01*
X0381614Y0258786D01*
X0381551Y0258746D01*
X0381485Y0258709D01*
X0381418Y0258676D01*
X0381349Y0258646D01*
X0381279Y0258620D01*
X0381208Y0258597D01*
X0381135Y0258579D01*
X0381061Y0258564D01*
X0380987Y0258553D01*
X0380913Y0258546D01*
X0380838Y0258543D01*
X0380763Y0258544D01*
X0380688Y0258549D01*
X0380614Y0258558D01*
X0380540Y0258571D01*
X0380467Y0258587D01*
X0380394Y0258608D01*
X0380324Y0258632D01*
X0380254Y0258660D01*
X0380186Y0258692D01*
X0380120Y0258727D01*
X0380056Y0258766D01*
X0379993Y0258808D01*
X0379934Y0258853D01*
X0379876Y0258901D01*
X0379822Y0258952D01*
X0379770Y0259006D01*
X0379721Y0259063D01*
X0379675Y0259122D01*
X0379632Y0259184D01*
X0379592Y0259248D01*
X0379556Y0259313D01*
X0379524Y0259381D01*
X0379495Y0259450D01*
X0379470Y0259521D01*
X0379448Y0259592D01*
X0379431Y0259665D01*
X0379417Y0259739D01*
X0379407Y0259813D01*
X0379401Y0259888D01*
X0379399Y0259963D01*
X0471587Y0264293D02*
X0473949Y0264293D01*
X0475917Y0264293D02*
X0478673Y0264293D01*
X0212528Y0070478D02*
X0200528Y0070478D01*
X0208528Y0070549D02*
X0210457Y0070549D01*
X0210528Y0070478D02*
X0208528Y0072478D01*
X0208528Y0068478D01*
X0210528Y0070478D01*
X0210100Y0070051D02*
X0208528Y0070051D01*
X0208528Y0069552D02*
X0209601Y0069552D01*
X0209103Y0069053D02*
X0208528Y0069053D01*
X0208528Y0068555D02*
X0208604Y0068555D01*
X0210528Y0068478D02*
X0210528Y0072478D01*
X0209460Y0071546D02*
X0208528Y0071546D01*
X0208528Y0071048D02*
X0209958Y0071048D01*
X0208961Y0072045D02*
X0208528Y0072045D01*
D13*
X0207770Y0066027D02*
X0207770Y0065410D01*
X0207770Y0064176D02*
X0207770Y0061707D01*
X0207153Y0061707D02*
X0208388Y0061707D01*
X0209609Y0061707D02*
X0209609Y0064176D01*
X0211460Y0064176D01*
X0212077Y0063559D01*
X0212077Y0061707D01*
X0207770Y0064176D02*
X0207153Y0064176D01*
X0205939Y0062941D02*
X0205939Y0065410D01*
X0205939Y0062941D02*
X0204704Y0061707D01*
X0203470Y0062941D01*
X0203470Y0065410D01*
X0197525Y0065410D02*
X0197525Y0061707D01*
X0195673Y0061707D01*
X0195056Y0062324D01*
X0195056Y0063559D01*
X0195673Y0064176D01*
X0197525Y0064176D01*
X0193842Y0063559D02*
X0193842Y0061707D01*
X0193842Y0063559D02*
X0193224Y0064176D01*
X0191373Y0064176D01*
X0191373Y0061707D01*
X0190159Y0062324D02*
X0190159Y0063559D01*
X0188924Y0063559D01*
X0187690Y0064793D02*
X0187690Y0062324D01*
X0188307Y0061707D01*
X0189541Y0061707D01*
X0190159Y0062324D01*
X0190159Y0064793D02*
X0189541Y0065410D01*
X0188307Y0065410D01*
X0187690Y0064793D01*
X0181122Y0064176D02*
X0179888Y0061707D01*
X0178653Y0064176D01*
X0177439Y0063559D02*
X0176822Y0064176D01*
X0176204Y0064176D01*
X0174970Y0063559D01*
X0174970Y0065410D01*
X0177439Y0065410D01*
X0177439Y0063559D02*
X0177439Y0062324D01*
X0176822Y0061707D01*
X0175587Y0061707D01*
X0174970Y0062324D01*
X0170122Y0064176D02*
X0168888Y0061707D01*
X0167653Y0064176D01*
X0166439Y0064176D02*
X0165822Y0063559D01*
X0166439Y0062941D01*
X0166439Y0062324D01*
X0165822Y0061707D01*
X0164587Y0061707D01*
X0163970Y0062324D01*
X0165204Y0063559D02*
X0165822Y0063559D01*
X0166439Y0064176D02*
X0166439Y0064793D01*
X0165822Y0065410D01*
X0164587Y0065410D01*
X0163970Y0064793D01*
X0158850Y0064136D02*
X0157616Y0062902D01*
X0157616Y0063519D02*
X0157616Y0061667D01*
X0158850Y0061667D02*
X0155147Y0061667D01*
X0155147Y0063519D01*
X0155764Y0064136D01*
X0156998Y0064136D01*
X0157616Y0063519D01*
X0158233Y0065350D02*
X0158850Y0065968D01*
X0158850Y0067202D01*
X0158233Y0067819D01*
X0157616Y0067819D01*
X0156998Y0067202D01*
X0156998Y0065968D01*
X0156381Y0065350D01*
X0155764Y0065350D01*
X0155147Y0065968D01*
X0155147Y0067202D01*
X0155764Y0067819D01*
X0155147Y0069034D02*
X0155147Y0071502D01*
X0155147Y0070268D02*
X0158850Y0070268D01*
X0148850Y0067806D02*
X0146381Y0067806D01*
X0146381Y0069040D02*
X0146381Y0069657D01*
X0146381Y0069040D02*
X0147616Y0067806D01*
X0148233Y0066592D02*
X0145764Y0066592D01*
X0145147Y0065974D01*
X0145147Y0064740D01*
X0145764Y0064123D01*
X0148233Y0064123D01*
X0148850Y0064740D01*
X0148850Y0065974D01*
X0148233Y0066592D01*
X0148850Y0062902D02*
X0148850Y0061667D01*
X0148850Y0062285D02*
X0145147Y0062285D01*
X0145147Y0062902D02*
X0145147Y0061667D01*
X0225650Y0062324D02*
X0228119Y0064793D01*
X0228119Y0062324D01*
X0227502Y0061707D01*
X0226267Y0061707D01*
X0225650Y0062324D01*
X0225650Y0064793D01*
X0226267Y0065410D01*
X0227502Y0065410D01*
X0228119Y0064793D01*
X0235650Y0064176D02*
X0236884Y0065410D01*
X0236884Y0061707D01*
X0235650Y0061707D02*
X0238119Y0061707D01*
X0245650Y0061707D02*
X0248119Y0064176D01*
X0248119Y0064793D01*
X0247502Y0065410D01*
X0246267Y0065410D01*
X0245650Y0064793D01*
X0245650Y0061707D02*
X0248119Y0061707D01*
X0255650Y0062324D02*
X0256267Y0061707D01*
X0257502Y0061707D01*
X0258119Y0062324D01*
X0258119Y0062941D01*
X0257502Y0063559D01*
X0256884Y0063559D01*
X0257502Y0063559D02*
X0258119Y0064176D01*
X0258119Y0064793D01*
X0257502Y0065410D01*
X0256267Y0065410D01*
X0255650Y0064793D01*
X0265650Y0063559D02*
X0268119Y0063559D01*
X0267502Y0065410D02*
X0267502Y0061707D01*
X0265650Y0063559D02*
X0267502Y0065410D01*
X0275650Y0065410D02*
X0275650Y0063559D01*
X0276884Y0064176D01*
X0277502Y0064176D01*
X0278119Y0063559D01*
X0278119Y0062324D01*
X0277502Y0061707D01*
X0276267Y0061707D01*
X0275650Y0062324D01*
X0275650Y0065410D02*
X0278119Y0065410D01*
X0265978Y0052230D02*
X0264744Y0052230D01*
X0265361Y0052230D02*
X0265361Y0048527D01*
X0264744Y0048527D02*
X0265978Y0048527D01*
X0267199Y0048527D02*
X0267199Y0050996D01*
X0269051Y0050996D01*
X0269668Y0050379D01*
X0269668Y0048527D01*
X0259847Y0048527D02*
X0257995Y0048527D01*
X0257378Y0049144D01*
X0257378Y0050379D01*
X0257995Y0050996D01*
X0259847Y0050996D01*
X0259847Y0047910D01*
X0259229Y0047293D01*
X0258612Y0047293D01*
X0256163Y0049144D02*
X0256163Y0050379D01*
X0255546Y0050996D01*
X0254312Y0050996D01*
X0253695Y0050379D01*
X0253695Y0049144D01*
X0254312Y0048527D01*
X0255546Y0048527D01*
X0256163Y0049144D01*
X0252474Y0048527D02*
X0251239Y0048527D01*
X0251856Y0048527D02*
X0251856Y0052230D01*
X0251239Y0052230D01*
X0249408Y0050996D02*
X0250025Y0050379D01*
X0250025Y0048527D01*
X0248173Y0048527D01*
X0247556Y0049144D01*
X0248173Y0049762D01*
X0250025Y0049762D01*
X0249408Y0050996D02*
X0248173Y0050996D01*
X0246342Y0050379D02*
X0246342Y0048527D01*
X0246342Y0050379D02*
X0245724Y0050996D01*
X0243873Y0050996D01*
X0243873Y0048527D01*
X0242659Y0048527D02*
X0242659Y0050996D01*
X0241424Y0052230D01*
X0240190Y0050996D01*
X0240190Y0048527D01*
X0240190Y0050379D02*
X0242659Y0050379D01*
X0249363Y0193422D02*
X0250331Y0193422D01*
X0249847Y0193422D02*
X0249847Y0196325D01*
X0249363Y0196325D02*
X0250331Y0196325D01*
X0251327Y0195841D02*
X0251327Y0193906D01*
X0251811Y0193422D01*
X0252779Y0193422D01*
X0253262Y0193906D01*
X0254274Y0193906D02*
X0254758Y0193422D01*
X0255725Y0193422D01*
X0256209Y0193906D01*
X0256209Y0194390D01*
X0255725Y0194873D01*
X0255241Y0194873D01*
X0255725Y0194873D02*
X0256209Y0195357D01*
X0256209Y0195841D01*
X0255725Y0196325D01*
X0254758Y0196325D01*
X0254274Y0195841D01*
X0253262Y0195841D02*
X0252779Y0196325D01*
X0251811Y0196325D01*
X0251327Y0195841D01*
X0247818Y0237707D02*
X0246584Y0237707D01*
X0245967Y0238324D01*
X0247201Y0239559D02*
X0247818Y0239559D01*
X0248436Y0238941D01*
X0248436Y0238324D01*
X0247818Y0237707D01*
X0247818Y0239559D02*
X0248436Y0240176D01*
X0248436Y0240793D01*
X0247818Y0241410D01*
X0246584Y0241410D01*
X0245967Y0240793D01*
X0238436Y0239559D02*
X0235967Y0239559D01*
X0237818Y0241410D01*
X0237818Y0237707D01*
X0228436Y0238324D02*
X0227818Y0237707D01*
X0226584Y0237707D01*
X0225967Y0238324D01*
X0225967Y0239559D02*
X0227201Y0240176D01*
X0227818Y0240176D01*
X0228436Y0239559D01*
X0228436Y0238324D01*
X0225967Y0239559D02*
X0225967Y0241410D01*
X0228436Y0241410D01*
X0218436Y0241410D02*
X0217201Y0240793D01*
X0215967Y0239559D01*
X0217818Y0239559D01*
X0218436Y0238941D01*
X0218436Y0238324D01*
X0217818Y0237707D01*
X0216584Y0237707D01*
X0215967Y0238324D01*
X0215967Y0239559D01*
X0208436Y0240793D02*
X0205967Y0238324D01*
X0205967Y0237707D01*
X0205967Y0241410D02*
X0208436Y0241410D01*
X0208436Y0240793D01*
X0192436Y0240793D02*
X0192436Y0240176D01*
X0191818Y0239559D01*
X0190584Y0239559D01*
X0189967Y0240176D01*
X0189967Y0240793D01*
X0190584Y0241410D01*
X0191818Y0241410D01*
X0192436Y0240793D01*
X0191818Y0239559D02*
X0192436Y0238941D01*
X0192436Y0238324D01*
X0191818Y0237707D01*
X0190584Y0237707D01*
X0189967Y0238324D01*
X0189967Y0238941D01*
X0190584Y0239559D01*
X0182436Y0239559D02*
X0180584Y0239559D01*
X0179967Y0240176D01*
X0179967Y0240793D01*
X0180584Y0241410D01*
X0181818Y0241410D01*
X0182436Y0240793D01*
X0182436Y0238324D01*
X0181818Y0237707D01*
X0180584Y0237707D01*
X0179967Y0238324D01*
X0174436Y0238324D02*
X0174436Y0240793D01*
X0171967Y0238324D01*
X0172584Y0237707D01*
X0173818Y0237707D01*
X0174436Y0238324D01*
X0174436Y0240793D02*
X0173818Y0241410D01*
X0172584Y0241410D01*
X0171967Y0240793D01*
X0171967Y0238324D01*
X0170752Y0237707D02*
X0168284Y0237707D01*
X0169518Y0237707D02*
X0169518Y0241410D01*
X0168284Y0240176D01*
X0164436Y0237707D02*
X0161967Y0237707D01*
X0160752Y0237707D02*
X0158284Y0237707D01*
X0159518Y0237707D02*
X0159518Y0241410D01*
X0158284Y0240176D01*
X0161967Y0240176D02*
X0163201Y0241410D01*
X0163201Y0237707D01*
X0154436Y0237707D02*
X0151967Y0237707D01*
X0154436Y0240176D01*
X0154436Y0240793D01*
X0153818Y0241410D01*
X0152584Y0241410D01*
X0151967Y0240793D01*
X0149518Y0241410D02*
X0149518Y0237707D01*
X0148284Y0237707D02*
X0150752Y0237707D01*
X0148284Y0240176D02*
X0149518Y0241410D01*
X0144436Y0240793D02*
X0144436Y0240176D01*
X0143818Y0239559D01*
X0144436Y0238941D01*
X0144436Y0238324D01*
X0143818Y0237707D01*
X0142584Y0237707D01*
X0141967Y0238324D01*
X0140752Y0237707D02*
X0138284Y0237707D01*
X0139518Y0237707D02*
X0139518Y0241410D01*
X0138284Y0240176D01*
X0141967Y0240793D02*
X0142584Y0241410D01*
X0143818Y0241410D01*
X0144436Y0240793D01*
X0143818Y0239559D02*
X0143201Y0239559D01*
X0132850Y0239641D02*
X0132233Y0239024D01*
X0130998Y0239024D01*
X0130381Y0239641D01*
X0130381Y0241493D01*
X0129147Y0241493D02*
X0132850Y0241493D01*
X0132850Y0239641D01*
X0132850Y0237810D02*
X0130998Y0237810D01*
X0130381Y0237192D01*
X0130381Y0235341D01*
X0132850Y0235341D01*
X0132850Y0234126D02*
X0132850Y0232275D01*
X0132233Y0231658D01*
X0130998Y0231658D01*
X0130381Y0232275D01*
X0130381Y0234126D01*
X0133467Y0234126D01*
X0134084Y0233509D01*
X0134084Y0232892D01*
X0122850Y0233385D02*
X0119147Y0233385D01*
X0119147Y0235237D01*
X0119764Y0235854D01*
X0120998Y0235854D01*
X0121616Y0235237D01*
X0121616Y0233385D01*
X0121616Y0234620D02*
X0122850Y0235854D01*
X0122233Y0237069D02*
X0120998Y0237069D01*
X0120381Y0237686D01*
X0120381Y0238920D01*
X0120998Y0239537D01*
X0121616Y0239537D01*
X0121616Y0237069D01*
X0122233Y0237069D02*
X0122850Y0237686D01*
X0122850Y0238920D01*
X0122850Y0241369D02*
X0119764Y0241369D01*
X0119147Y0241986D01*
X0120998Y0241986D02*
X0120998Y0240752D01*
X0112850Y0239524D02*
X0110381Y0239524D01*
X0109147Y0240758D01*
X0110381Y0241993D01*
X0112850Y0241993D01*
X0110998Y0241993D02*
X0110998Y0239524D01*
X0109764Y0238310D02*
X0109147Y0237692D01*
X0109147Y0235841D01*
X0112850Y0235841D01*
X0112850Y0237692D01*
X0112233Y0238310D01*
X0109764Y0238310D01*
X0109764Y0234626D02*
X0109147Y0234009D01*
X0109147Y0232775D01*
X0109764Y0232158D01*
X0110381Y0232158D01*
X0110998Y0232775D01*
X0110998Y0234009D01*
X0111616Y0234626D01*
X0112233Y0234626D01*
X0112850Y0234009D01*
X0112850Y0232775D01*
X0112233Y0232158D01*
X0119147Y0230937D02*
X0120381Y0232171D01*
X0122850Y0232171D01*
X0120998Y0232171D02*
X0120998Y0229702D01*
X0120381Y0229702D02*
X0122850Y0229702D01*
X0120381Y0229702D02*
X0119147Y0230937D01*
X0102850Y0232775D02*
X0102233Y0232158D01*
X0102850Y0232775D02*
X0102850Y0234009D01*
X0102233Y0234626D01*
X0101616Y0234626D01*
X0100998Y0234009D01*
X0100998Y0232775D01*
X0100381Y0232158D01*
X0099764Y0232158D01*
X0099147Y0232775D01*
X0099147Y0234009D01*
X0099764Y0234626D01*
X0099764Y0235841D02*
X0102233Y0235841D01*
X0102850Y0236458D01*
X0102850Y0237692D01*
X0102233Y0238310D01*
X0102850Y0239524D02*
X0102850Y0241993D01*
X0102850Y0239524D02*
X0099147Y0239524D01*
X0099764Y0238310D02*
X0099147Y0237692D01*
X0099147Y0236458D01*
X0099764Y0235841D01*
X0151650Y0251707D02*
X0153502Y0251707D01*
X0154119Y0252324D01*
X0154119Y0254793D01*
X0153502Y0255410D01*
X0151650Y0255410D01*
X0151650Y0251707D01*
X0155333Y0251707D02*
X0156568Y0251707D01*
X0155950Y0251707D02*
X0155950Y0254176D01*
X0155333Y0254176D01*
X0155950Y0255410D02*
X0155950Y0256027D01*
X0158406Y0254176D02*
X0157789Y0253559D01*
X0157789Y0252324D01*
X0158406Y0251707D01*
X0160257Y0251707D01*
X0160257Y0251090D02*
X0160257Y0254176D01*
X0158406Y0254176D01*
X0161472Y0254176D02*
X0162089Y0254176D01*
X0162089Y0251707D01*
X0161472Y0251707D02*
X0162706Y0251707D01*
X0164544Y0252324D02*
X0164544Y0254793D01*
X0163927Y0254176D02*
X0165162Y0254176D01*
X0167000Y0254176D02*
X0168234Y0254176D01*
X0168851Y0253559D01*
X0168851Y0251707D01*
X0167000Y0251707D01*
X0166383Y0252324D01*
X0167000Y0252941D01*
X0168851Y0252941D01*
X0170066Y0251707D02*
X0171300Y0251707D01*
X0170683Y0251707D02*
X0170683Y0255410D01*
X0170066Y0255410D01*
X0176204Y0255410D02*
X0177439Y0255410D01*
X0176821Y0255410D02*
X0176821Y0251707D01*
X0176204Y0251707D02*
X0177439Y0251707D01*
X0178660Y0251707D02*
X0181128Y0255410D01*
X0182343Y0254793D02*
X0182343Y0252324D01*
X0182960Y0251707D01*
X0184194Y0251707D01*
X0184812Y0252324D01*
X0184812Y0254793D01*
X0184194Y0255410D01*
X0182960Y0255410D01*
X0182343Y0254793D01*
X0165162Y0251707D02*
X0164544Y0252324D01*
X0162089Y0255410D02*
X0162089Y0256027D01*
X0160257Y0251090D02*
X0159640Y0250473D01*
X0159023Y0250473D01*
X0171707Y0228848D02*
X0171707Y0226429D01*
X0172190Y0225946D01*
X0173158Y0225946D01*
X0173642Y0226429D01*
X0173642Y0228848D01*
X0174653Y0228364D02*
X0175137Y0228848D01*
X0176104Y0228848D01*
X0176588Y0228364D01*
X0176104Y0227397D02*
X0175137Y0227397D01*
X0174653Y0227881D01*
X0174653Y0228364D01*
X0175621Y0229332D02*
X0175621Y0225462D01*
X0176104Y0225946D02*
X0176588Y0226429D01*
X0176588Y0226913D01*
X0176104Y0227397D01*
X0176104Y0225946D02*
X0175137Y0225946D01*
X0174653Y0226429D01*
X0177600Y0226429D02*
X0178083Y0225946D01*
X0179051Y0225946D01*
X0179535Y0226429D01*
X0179535Y0227397D01*
X0179051Y0227881D01*
X0178567Y0227881D01*
X0177600Y0227397D01*
X0177600Y0228848D01*
X0179535Y0228848D01*
X0227650Y0251707D02*
X0229502Y0251707D01*
X0230119Y0252324D01*
X0230119Y0254793D01*
X0229502Y0255410D01*
X0227650Y0255410D01*
X0227650Y0251707D01*
X0231333Y0251707D02*
X0232568Y0251707D01*
X0231950Y0251707D02*
X0231950Y0254176D01*
X0231333Y0254176D01*
X0231950Y0255410D02*
X0231950Y0256027D01*
X0234406Y0254176D02*
X0233789Y0253559D01*
X0233789Y0252324D01*
X0234406Y0251707D01*
X0236257Y0251707D01*
X0236257Y0251090D02*
X0236257Y0254176D01*
X0234406Y0254176D01*
X0237472Y0254176D02*
X0238089Y0254176D01*
X0238089Y0251707D01*
X0237472Y0251707D02*
X0238706Y0251707D01*
X0240544Y0252324D02*
X0241162Y0251707D01*
X0240544Y0252324D02*
X0240544Y0254793D01*
X0239927Y0254176D02*
X0241162Y0254176D01*
X0243000Y0254176D02*
X0244234Y0254176D01*
X0244851Y0253559D01*
X0244851Y0251707D01*
X0243000Y0251707D01*
X0242383Y0252324D01*
X0243000Y0252941D01*
X0244851Y0252941D01*
X0246066Y0251707D02*
X0247300Y0251707D01*
X0246683Y0251707D02*
X0246683Y0255410D01*
X0246066Y0255410D01*
X0238089Y0255410D02*
X0238089Y0256027D01*
X0236257Y0251090D02*
X0235640Y0250473D01*
X0235023Y0250473D01*
X0252204Y0251707D02*
X0253439Y0251707D01*
X0252821Y0251707D02*
X0252821Y0255410D01*
X0252204Y0255410D02*
X0253439Y0255410D01*
X0257128Y0255410D02*
X0254660Y0251707D01*
X0258343Y0252324D02*
X0258343Y0254793D01*
X0258960Y0255410D01*
X0260194Y0255410D01*
X0260812Y0254793D01*
X0260812Y0252324D01*
X0260194Y0251707D01*
X0258960Y0251707D01*
X0258343Y0252324D01*
X0257818Y0241410D02*
X0256584Y0241410D01*
X0255967Y0240793D01*
X0257818Y0241410D02*
X0258436Y0240793D01*
X0258436Y0240176D01*
X0255967Y0237707D01*
X0258436Y0237707D01*
X0265967Y0237707D02*
X0268436Y0237707D01*
X0267201Y0237707D02*
X0267201Y0241410D01*
X0265967Y0240176D01*
X0275967Y0240793D02*
X0275967Y0238324D01*
X0278436Y0240793D01*
X0278436Y0238324D01*
X0277818Y0237707D01*
X0276584Y0237707D01*
X0275967Y0238324D01*
X0275967Y0240793D02*
X0276584Y0241410D01*
X0277818Y0241410D01*
X0278436Y0240793D01*
D14*
X0206803Y0159096D02*
X0163102Y0159096D01*
X0163102Y0108900D01*
X0163299Y0108900D02*
X0206606Y0108900D01*
X0206803Y0108900D02*
X0206803Y0159096D01*
X0208968Y0109470D02*
X0208970Y0109558D01*
X0208976Y0109646D01*
X0208986Y0109734D01*
X0209000Y0109822D01*
X0209017Y0109908D01*
X0209039Y0109994D01*
X0209064Y0110078D01*
X0209094Y0110162D01*
X0209126Y0110244D01*
X0209163Y0110324D01*
X0209203Y0110403D01*
X0209247Y0110480D01*
X0209294Y0110555D01*
X0209344Y0110627D01*
X0209398Y0110698D01*
X0209454Y0110765D01*
X0209514Y0110831D01*
X0209576Y0110893D01*
X0209642Y0110953D01*
X0209709Y0111009D01*
X0209780Y0111063D01*
X0209852Y0111113D01*
X0209927Y0111160D01*
X0210004Y0111204D01*
X0210083Y0111244D01*
X0210163Y0111281D01*
X0210245Y0111313D01*
X0210329Y0111343D01*
X0210413Y0111368D01*
X0210499Y0111390D01*
X0210585Y0111407D01*
X0210673Y0111421D01*
X0210761Y0111431D01*
X0210849Y0111437D01*
X0210937Y0111439D01*
X0211025Y0111437D01*
X0211113Y0111431D01*
X0211201Y0111421D01*
X0211289Y0111407D01*
X0211375Y0111390D01*
X0211461Y0111368D01*
X0211545Y0111343D01*
X0211629Y0111313D01*
X0211711Y0111281D01*
X0211791Y0111244D01*
X0211870Y0111204D01*
X0211947Y0111160D01*
X0212022Y0111113D01*
X0212094Y0111063D01*
X0212165Y0111009D01*
X0212232Y0110953D01*
X0212298Y0110893D01*
X0212360Y0110831D01*
X0212420Y0110765D01*
X0212476Y0110698D01*
X0212530Y0110627D01*
X0212580Y0110555D01*
X0212627Y0110480D01*
X0212671Y0110403D01*
X0212711Y0110324D01*
X0212748Y0110244D01*
X0212780Y0110162D01*
X0212810Y0110078D01*
X0212835Y0109994D01*
X0212857Y0109908D01*
X0212874Y0109822D01*
X0212888Y0109734D01*
X0212898Y0109646D01*
X0212904Y0109558D01*
X0212906Y0109470D01*
X0212904Y0109382D01*
X0212898Y0109294D01*
X0212888Y0109206D01*
X0212874Y0109118D01*
X0212857Y0109032D01*
X0212835Y0108946D01*
X0212810Y0108862D01*
X0212780Y0108778D01*
X0212748Y0108696D01*
X0212711Y0108616D01*
X0212671Y0108537D01*
X0212627Y0108460D01*
X0212580Y0108385D01*
X0212530Y0108313D01*
X0212476Y0108242D01*
X0212420Y0108175D01*
X0212360Y0108109D01*
X0212298Y0108047D01*
X0212232Y0107987D01*
X0212165Y0107931D01*
X0212094Y0107877D01*
X0212022Y0107827D01*
X0211947Y0107780D01*
X0211870Y0107736D01*
X0211791Y0107696D01*
X0211711Y0107659D01*
X0211629Y0107627D01*
X0211545Y0107597D01*
X0211461Y0107572D01*
X0211375Y0107550D01*
X0211289Y0107533D01*
X0211201Y0107519D01*
X0211113Y0107509D01*
X0211025Y0107503D01*
X0210937Y0107501D01*
X0210849Y0107503D01*
X0210761Y0107509D01*
X0210673Y0107519D01*
X0210585Y0107533D01*
X0210499Y0107550D01*
X0210413Y0107572D01*
X0210329Y0107597D01*
X0210245Y0107627D01*
X0210163Y0107659D01*
X0210083Y0107696D01*
X0210004Y0107736D01*
X0209927Y0107780D01*
X0209852Y0107827D01*
X0209780Y0107877D01*
X0209709Y0107931D01*
X0209642Y0107987D01*
X0209576Y0108047D01*
X0209514Y0108109D01*
X0209454Y0108175D01*
X0209398Y0108242D01*
X0209344Y0108313D01*
X0209294Y0108385D01*
X0209247Y0108460D01*
X0209203Y0108537D01*
X0209163Y0108616D01*
X0209126Y0108696D01*
X0209094Y0108778D01*
X0209064Y0108862D01*
X0209039Y0108946D01*
X0209017Y0109032D01*
X0209000Y0109118D01*
X0208986Y0109206D01*
X0208976Y0109294D01*
X0208970Y0109382D01*
X0208968Y0109470D01*
D15*
X0129783Y0111703D02*
X0102484Y0111703D01*
X0102484Y0092671D02*
X0129783Y0092671D01*
X0027000Y0046557D02*
X0027000Y0256557D01*
X0281000Y0256557D01*
X0287000Y0250557D01*
X0287000Y0205557D01*
X0297000Y0195557D01*
X0297000Y0066557D01*
X0287000Y0056557D01*
X0287000Y0046557D01*
X0027000Y0046557D01*
D16*
X0096760Y0112219D02*
X0096762Y0112296D01*
X0096768Y0112373D01*
X0096778Y0112450D01*
X0096792Y0112526D01*
X0096809Y0112601D01*
X0096831Y0112675D01*
X0096856Y0112748D01*
X0096886Y0112820D01*
X0096918Y0112890D01*
X0096955Y0112958D01*
X0096994Y0113024D01*
X0097037Y0113088D01*
X0097084Y0113150D01*
X0097133Y0113209D01*
X0097186Y0113266D01*
X0097241Y0113320D01*
X0097299Y0113371D01*
X0097360Y0113419D01*
X0097423Y0113464D01*
X0097488Y0113505D01*
X0097555Y0113543D01*
X0097624Y0113578D01*
X0097695Y0113608D01*
X0097767Y0113636D01*
X0097841Y0113659D01*
X0097915Y0113679D01*
X0097991Y0113695D01*
X0098067Y0113707D01*
X0098144Y0113715D01*
X0098221Y0113719D01*
X0098299Y0113719D01*
X0098376Y0113715D01*
X0098453Y0113707D01*
X0098529Y0113695D01*
X0098605Y0113679D01*
X0098679Y0113659D01*
X0098753Y0113636D01*
X0098825Y0113608D01*
X0098896Y0113578D01*
X0098965Y0113543D01*
X0099032Y0113505D01*
X0099097Y0113464D01*
X0099160Y0113419D01*
X0099221Y0113371D01*
X0099279Y0113320D01*
X0099334Y0113266D01*
X0099387Y0113209D01*
X0099436Y0113150D01*
X0099483Y0113088D01*
X0099526Y0113024D01*
X0099565Y0112958D01*
X0099602Y0112890D01*
X0099634Y0112820D01*
X0099664Y0112748D01*
X0099689Y0112675D01*
X0099711Y0112601D01*
X0099728Y0112526D01*
X0099742Y0112450D01*
X0099752Y0112373D01*
X0099758Y0112296D01*
X0099760Y0112219D01*
X0099758Y0112142D01*
X0099752Y0112065D01*
X0099742Y0111988D01*
X0099728Y0111912D01*
X0099711Y0111837D01*
X0099689Y0111763D01*
X0099664Y0111690D01*
X0099634Y0111618D01*
X0099602Y0111548D01*
X0099565Y0111480D01*
X0099526Y0111414D01*
X0099483Y0111350D01*
X0099436Y0111288D01*
X0099387Y0111229D01*
X0099334Y0111172D01*
X0099279Y0111118D01*
X0099221Y0111067D01*
X0099160Y0111019D01*
X0099097Y0110974D01*
X0099032Y0110933D01*
X0098965Y0110895D01*
X0098896Y0110860D01*
X0098825Y0110830D01*
X0098753Y0110802D01*
X0098679Y0110779D01*
X0098605Y0110759D01*
X0098529Y0110743D01*
X0098453Y0110731D01*
X0098376Y0110723D01*
X0098299Y0110719D01*
X0098221Y0110719D01*
X0098144Y0110723D01*
X0098067Y0110731D01*
X0097991Y0110743D01*
X0097915Y0110759D01*
X0097841Y0110779D01*
X0097767Y0110802D01*
X0097695Y0110830D01*
X0097624Y0110860D01*
X0097555Y0110895D01*
X0097488Y0110933D01*
X0097423Y0110974D01*
X0097360Y0111019D01*
X0097299Y0111067D01*
X0097241Y0111118D01*
X0097186Y0111172D01*
X0097133Y0111229D01*
X0097084Y0111288D01*
X0097037Y0111350D01*
X0096994Y0111414D01*
X0096955Y0111480D01*
X0096918Y0111548D01*
X0096886Y0111618D01*
X0096856Y0111690D01*
X0096831Y0111763D01*
X0096809Y0111837D01*
X0096792Y0111912D01*
X0096778Y0111988D01*
X0096768Y0112065D01*
X0096762Y0112142D01*
X0096760Y0112219D01*
D17*
X0074933Y0112384D02*
X0027689Y0112384D01*
X0027689Y0092384D01*
X0074933Y0092384D01*
X0074933Y0072384D01*
X0027689Y0072384D01*
X0027689Y0052384D01*
X0074933Y0052384D01*
X0074933Y0072384D01*
X0074933Y0092384D02*
X0074933Y0112384D01*
X0074933Y0132384D01*
X0027689Y0132384D01*
X0027689Y0112384D01*
X0027689Y0092384D02*
X0027689Y0072384D01*
X0027689Y0132384D02*
X0027689Y0152384D01*
X0074933Y0152384D01*
X0074933Y0172384D01*
X0074933Y0192384D01*
X0027689Y0192384D01*
X0027689Y0172384D01*
X0074933Y0172384D01*
X0074933Y0152384D02*
X0074933Y0132384D01*
X0027689Y0152384D02*
X0027689Y0172384D01*
X0027689Y0192384D02*
X0027689Y0212384D01*
X0074933Y0212384D01*
X0074933Y0192384D01*
X0074933Y0212384D02*
X0074933Y0232384D01*
X0027689Y0232384D01*
X0027689Y0252384D01*
X0074933Y0252384D01*
X0074933Y0232384D01*
X0027689Y0232384D02*
X0027689Y0212384D01*
D18*
X0051311Y0262384D03*
X0051311Y0042384D03*
M02*
