G75*
%MOIN*%
%OFA0B0*%
%FSLAX25Y25*%
%IPPOS*%
%LPD*%
%AMOC8*
5,1,8,0,0,1.08239X$1,22.5*
%
%ADD10C,0.00600*%
%ADD11C,0.00000*%
D10*
X0027000Y0003250D02*
X0027000Y0303250D01*
X0448260Y0303250D01*
X0448260Y0003250D01*
X0027000Y0003250D01*
D11*
X0074913Y0056557D02*
X0074915Y0056731D01*
X0074922Y0056905D01*
X0074932Y0057078D01*
X0074947Y0057252D01*
X0074966Y0057425D01*
X0074990Y0057597D01*
X0075017Y0057769D01*
X0075049Y0057940D01*
X0075085Y0058110D01*
X0075125Y0058279D01*
X0075170Y0058447D01*
X0075218Y0058614D01*
X0075271Y0058780D01*
X0075327Y0058945D01*
X0075388Y0059108D01*
X0075452Y0059269D01*
X0075521Y0059429D01*
X0075593Y0059587D01*
X0075670Y0059743D01*
X0075750Y0059898D01*
X0075834Y0060050D01*
X0075921Y0060200D01*
X0076013Y0060349D01*
X0076107Y0060494D01*
X0076206Y0060638D01*
X0076308Y0060779D01*
X0076413Y0060917D01*
X0076522Y0061053D01*
X0076634Y0061186D01*
X0076749Y0061316D01*
X0076867Y0061444D01*
X0076989Y0061568D01*
X0077113Y0061690D01*
X0077241Y0061808D01*
X0077371Y0061923D01*
X0077504Y0062035D01*
X0077640Y0062144D01*
X0077778Y0062249D01*
X0077919Y0062351D01*
X0078063Y0062450D01*
X0078208Y0062544D01*
X0078357Y0062636D01*
X0078507Y0062723D01*
X0078659Y0062807D01*
X0078814Y0062887D01*
X0078970Y0062964D01*
X0079128Y0063036D01*
X0079288Y0063105D01*
X0079449Y0063169D01*
X0079612Y0063230D01*
X0079777Y0063286D01*
X0079943Y0063339D01*
X0080110Y0063387D01*
X0080278Y0063432D01*
X0080447Y0063472D01*
X0080617Y0063508D01*
X0080788Y0063540D01*
X0080960Y0063567D01*
X0081132Y0063591D01*
X0081305Y0063610D01*
X0081479Y0063625D01*
X0081652Y0063635D01*
X0081826Y0063642D01*
X0082000Y0063644D01*
X0082174Y0063642D01*
X0082348Y0063635D01*
X0082521Y0063625D01*
X0082695Y0063610D01*
X0082868Y0063591D01*
X0083040Y0063567D01*
X0083212Y0063540D01*
X0083383Y0063508D01*
X0083553Y0063472D01*
X0083722Y0063432D01*
X0083890Y0063387D01*
X0084057Y0063339D01*
X0084223Y0063286D01*
X0084388Y0063230D01*
X0084551Y0063169D01*
X0084712Y0063105D01*
X0084872Y0063036D01*
X0085030Y0062964D01*
X0085186Y0062887D01*
X0085341Y0062807D01*
X0085493Y0062723D01*
X0085643Y0062636D01*
X0085792Y0062544D01*
X0085937Y0062450D01*
X0086081Y0062351D01*
X0086222Y0062249D01*
X0086360Y0062144D01*
X0086496Y0062035D01*
X0086629Y0061923D01*
X0086759Y0061808D01*
X0086887Y0061690D01*
X0087011Y0061568D01*
X0087133Y0061444D01*
X0087251Y0061316D01*
X0087366Y0061186D01*
X0087478Y0061053D01*
X0087587Y0060917D01*
X0087692Y0060779D01*
X0087794Y0060638D01*
X0087893Y0060494D01*
X0087987Y0060349D01*
X0088079Y0060200D01*
X0088166Y0060050D01*
X0088250Y0059898D01*
X0088330Y0059743D01*
X0088407Y0059587D01*
X0088479Y0059429D01*
X0088548Y0059269D01*
X0088612Y0059108D01*
X0088673Y0058945D01*
X0088729Y0058780D01*
X0088782Y0058614D01*
X0088830Y0058447D01*
X0088875Y0058279D01*
X0088915Y0058110D01*
X0088951Y0057940D01*
X0088983Y0057769D01*
X0089010Y0057597D01*
X0089034Y0057425D01*
X0089053Y0057252D01*
X0089068Y0057078D01*
X0089078Y0056905D01*
X0089085Y0056731D01*
X0089087Y0056557D01*
X0089085Y0056383D01*
X0089078Y0056209D01*
X0089068Y0056036D01*
X0089053Y0055862D01*
X0089034Y0055689D01*
X0089010Y0055517D01*
X0088983Y0055345D01*
X0088951Y0055174D01*
X0088915Y0055004D01*
X0088875Y0054835D01*
X0088830Y0054667D01*
X0088782Y0054500D01*
X0088729Y0054334D01*
X0088673Y0054169D01*
X0088612Y0054006D01*
X0088548Y0053845D01*
X0088479Y0053685D01*
X0088407Y0053527D01*
X0088330Y0053371D01*
X0088250Y0053216D01*
X0088166Y0053064D01*
X0088079Y0052914D01*
X0087987Y0052765D01*
X0087893Y0052620D01*
X0087794Y0052476D01*
X0087692Y0052335D01*
X0087587Y0052197D01*
X0087478Y0052061D01*
X0087366Y0051928D01*
X0087251Y0051798D01*
X0087133Y0051670D01*
X0087011Y0051546D01*
X0086887Y0051424D01*
X0086759Y0051306D01*
X0086629Y0051191D01*
X0086496Y0051079D01*
X0086360Y0050970D01*
X0086222Y0050865D01*
X0086081Y0050763D01*
X0085937Y0050664D01*
X0085792Y0050570D01*
X0085643Y0050478D01*
X0085493Y0050391D01*
X0085341Y0050307D01*
X0085186Y0050227D01*
X0085030Y0050150D01*
X0084872Y0050078D01*
X0084712Y0050009D01*
X0084551Y0049945D01*
X0084388Y0049884D01*
X0084223Y0049828D01*
X0084057Y0049775D01*
X0083890Y0049727D01*
X0083722Y0049682D01*
X0083553Y0049642D01*
X0083383Y0049606D01*
X0083212Y0049574D01*
X0083040Y0049547D01*
X0082868Y0049523D01*
X0082695Y0049504D01*
X0082521Y0049489D01*
X0082348Y0049479D01*
X0082174Y0049472D01*
X0082000Y0049470D01*
X0081826Y0049472D01*
X0081652Y0049479D01*
X0081479Y0049489D01*
X0081305Y0049504D01*
X0081132Y0049523D01*
X0080960Y0049547D01*
X0080788Y0049574D01*
X0080617Y0049606D01*
X0080447Y0049642D01*
X0080278Y0049682D01*
X0080110Y0049727D01*
X0079943Y0049775D01*
X0079777Y0049828D01*
X0079612Y0049884D01*
X0079449Y0049945D01*
X0079288Y0050009D01*
X0079128Y0050078D01*
X0078970Y0050150D01*
X0078814Y0050227D01*
X0078659Y0050307D01*
X0078507Y0050391D01*
X0078357Y0050478D01*
X0078208Y0050570D01*
X0078063Y0050664D01*
X0077919Y0050763D01*
X0077778Y0050865D01*
X0077640Y0050970D01*
X0077504Y0051079D01*
X0077371Y0051191D01*
X0077241Y0051306D01*
X0077113Y0051424D01*
X0076989Y0051546D01*
X0076867Y0051670D01*
X0076749Y0051798D01*
X0076634Y0051928D01*
X0076522Y0052061D01*
X0076413Y0052197D01*
X0076308Y0052335D01*
X0076206Y0052476D01*
X0076107Y0052620D01*
X0076013Y0052765D01*
X0075921Y0052914D01*
X0075834Y0053064D01*
X0075750Y0053216D01*
X0075670Y0053371D01*
X0075593Y0053527D01*
X0075521Y0053685D01*
X0075452Y0053845D01*
X0075388Y0054006D01*
X0075327Y0054169D01*
X0075271Y0054334D01*
X0075218Y0054500D01*
X0075170Y0054667D01*
X0075125Y0054835D01*
X0075085Y0055004D01*
X0075049Y0055174D01*
X0075017Y0055345D01*
X0074990Y0055517D01*
X0074966Y0055689D01*
X0074947Y0055862D01*
X0074932Y0056036D01*
X0074922Y0056209D01*
X0074915Y0056383D01*
X0074913Y0056557D01*
X0279913Y0076557D02*
X0279915Y0076731D01*
X0279922Y0076905D01*
X0279932Y0077078D01*
X0279947Y0077252D01*
X0279966Y0077425D01*
X0279990Y0077597D01*
X0280017Y0077769D01*
X0280049Y0077940D01*
X0280085Y0078110D01*
X0280125Y0078279D01*
X0280170Y0078447D01*
X0280218Y0078614D01*
X0280271Y0078780D01*
X0280327Y0078945D01*
X0280388Y0079108D01*
X0280452Y0079269D01*
X0280521Y0079429D01*
X0280593Y0079587D01*
X0280670Y0079743D01*
X0280750Y0079898D01*
X0280834Y0080050D01*
X0280921Y0080200D01*
X0281013Y0080349D01*
X0281107Y0080494D01*
X0281206Y0080638D01*
X0281308Y0080779D01*
X0281413Y0080917D01*
X0281522Y0081053D01*
X0281634Y0081186D01*
X0281749Y0081316D01*
X0281867Y0081444D01*
X0281989Y0081568D01*
X0282113Y0081690D01*
X0282241Y0081808D01*
X0282371Y0081923D01*
X0282504Y0082035D01*
X0282640Y0082144D01*
X0282778Y0082249D01*
X0282919Y0082351D01*
X0283063Y0082450D01*
X0283208Y0082544D01*
X0283357Y0082636D01*
X0283507Y0082723D01*
X0283659Y0082807D01*
X0283814Y0082887D01*
X0283970Y0082964D01*
X0284128Y0083036D01*
X0284288Y0083105D01*
X0284449Y0083169D01*
X0284612Y0083230D01*
X0284777Y0083286D01*
X0284943Y0083339D01*
X0285110Y0083387D01*
X0285278Y0083432D01*
X0285447Y0083472D01*
X0285617Y0083508D01*
X0285788Y0083540D01*
X0285960Y0083567D01*
X0286132Y0083591D01*
X0286305Y0083610D01*
X0286479Y0083625D01*
X0286652Y0083635D01*
X0286826Y0083642D01*
X0287000Y0083644D01*
X0287174Y0083642D01*
X0287348Y0083635D01*
X0287521Y0083625D01*
X0287695Y0083610D01*
X0287868Y0083591D01*
X0288040Y0083567D01*
X0288212Y0083540D01*
X0288383Y0083508D01*
X0288553Y0083472D01*
X0288722Y0083432D01*
X0288890Y0083387D01*
X0289057Y0083339D01*
X0289223Y0083286D01*
X0289388Y0083230D01*
X0289551Y0083169D01*
X0289712Y0083105D01*
X0289872Y0083036D01*
X0290030Y0082964D01*
X0290186Y0082887D01*
X0290341Y0082807D01*
X0290493Y0082723D01*
X0290643Y0082636D01*
X0290792Y0082544D01*
X0290937Y0082450D01*
X0291081Y0082351D01*
X0291222Y0082249D01*
X0291360Y0082144D01*
X0291496Y0082035D01*
X0291629Y0081923D01*
X0291759Y0081808D01*
X0291887Y0081690D01*
X0292011Y0081568D01*
X0292133Y0081444D01*
X0292251Y0081316D01*
X0292366Y0081186D01*
X0292478Y0081053D01*
X0292587Y0080917D01*
X0292692Y0080779D01*
X0292794Y0080638D01*
X0292893Y0080494D01*
X0292987Y0080349D01*
X0293079Y0080200D01*
X0293166Y0080050D01*
X0293250Y0079898D01*
X0293330Y0079743D01*
X0293407Y0079587D01*
X0293479Y0079429D01*
X0293548Y0079269D01*
X0293612Y0079108D01*
X0293673Y0078945D01*
X0293729Y0078780D01*
X0293782Y0078614D01*
X0293830Y0078447D01*
X0293875Y0078279D01*
X0293915Y0078110D01*
X0293951Y0077940D01*
X0293983Y0077769D01*
X0294010Y0077597D01*
X0294034Y0077425D01*
X0294053Y0077252D01*
X0294068Y0077078D01*
X0294078Y0076905D01*
X0294085Y0076731D01*
X0294087Y0076557D01*
X0294085Y0076383D01*
X0294078Y0076209D01*
X0294068Y0076036D01*
X0294053Y0075862D01*
X0294034Y0075689D01*
X0294010Y0075517D01*
X0293983Y0075345D01*
X0293951Y0075174D01*
X0293915Y0075004D01*
X0293875Y0074835D01*
X0293830Y0074667D01*
X0293782Y0074500D01*
X0293729Y0074334D01*
X0293673Y0074169D01*
X0293612Y0074006D01*
X0293548Y0073845D01*
X0293479Y0073685D01*
X0293407Y0073527D01*
X0293330Y0073371D01*
X0293250Y0073216D01*
X0293166Y0073064D01*
X0293079Y0072914D01*
X0292987Y0072765D01*
X0292893Y0072620D01*
X0292794Y0072476D01*
X0292692Y0072335D01*
X0292587Y0072197D01*
X0292478Y0072061D01*
X0292366Y0071928D01*
X0292251Y0071798D01*
X0292133Y0071670D01*
X0292011Y0071546D01*
X0291887Y0071424D01*
X0291759Y0071306D01*
X0291629Y0071191D01*
X0291496Y0071079D01*
X0291360Y0070970D01*
X0291222Y0070865D01*
X0291081Y0070763D01*
X0290937Y0070664D01*
X0290792Y0070570D01*
X0290643Y0070478D01*
X0290493Y0070391D01*
X0290341Y0070307D01*
X0290186Y0070227D01*
X0290030Y0070150D01*
X0289872Y0070078D01*
X0289712Y0070009D01*
X0289551Y0069945D01*
X0289388Y0069884D01*
X0289223Y0069828D01*
X0289057Y0069775D01*
X0288890Y0069727D01*
X0288722Y0069682D01*
X0288553Y0069642D01*
X0288383Y0069606D01*
X0288212Y0069574D01*
X0288040Y0069547D01*
X0287868Y0069523D01*
X0287695Y0069504D01*
X0287521Y0069489D01*
X0287348Y0069479D01*
X0287174Y0069472D01*
X0287000Y0069470D01*
X0286826Y0069472D01*
X0286652Y0069479D01*
X0286479Y0069489D01*
X0286305Y0069504D01*
X0286132Y0069523D01*
X0285960Y0069547D01*
X0285788Y0069574D01*
X0285617Y0069606D01*
X0285447Y0069642D01*
X0285278Y0069682D01*
X0285110Y0069727D01*
X0284943Y0069775D01*
X0284777Y0069828D01*
X0284612Y0069884D01*
X0284449Y0069945D01*
X0284288Y0070009D01*
X0284128Y0070078D01*
X0283970Y0070150D01*
X0283814Y0070227D01*
X0283659Y0070307D01*
X0283507Y0070391D01*
X0283357Y0070478D01*
X0283208Y0070570D01*
X0283063Y0070664D01*
X0282919Y0070763D01*
X0282778Y0070865D01*
X0282640Y0070970D01*
X0282504Y0071079D01*
X0282371Y0071191D01*
X0282241Y0071306D01*
X0282113Y0071424D01*
X0281989Y0071546D01*
X0281867Y0071670D01*
X0281749Y0071798D01*
X0281634Y0071928D01*
X0281522Y0072061D01*
X0281413Y0072197D01*
X0281308Y0072335D01*
X0281206Y0072476D01*
X0281107Y0072620D01*
X0281013Y0072765D01*
X0280921Y0072914D01*
X0280834Y0073064D01*
X0280750Y0073216D01*
X0280670Y0073371D01*
X0280593Y0073527D01*
X0280521Y0073685D01*
X0280452Y0073845D01*
X0280388Y0074006D01*
X0280327Y0074169D01*
X0280271Y0074334D01*
X0280218Y0074500D01*
X0280170Y0074667D01*
X0280125Y0074835D01*
X0280085Y0075004D01*
X0280049Y0075174D01*
X0280017Y0075345D01*
X0279990Y0075517D01*
X0279966Y0075689D01*
X0279947Y0075862D01*
X0279932Y0076036D01*
X0279922Y0076209D01*
X0279915Y0076383D01*
X0279913Y0076557D01*
X0412630Y0066163D02*
X0412632Y0066289D01*
X0412638Y0066414D01*
X0412648Y0066539D01*
X0412662Y0066664D01*
X0412680Y0066788D01*
X0412702Y0066912D01*
X0412727Y0067035D01*
X0412757Y0067157D01*
X0412790Y0067278D01*
X0412828Y0067398D01*
X0412869Y0067516D01*
X0412913Y0067634D01*
X0412962Y0067749D01*
X0413014Y0067864D01*
X0413070Y0067976D01*
X0413129Y0068087D01*
X0413192Y0068196D01*
X0413258Y0068302D01*
X0413328Y0068407D01*
X0413401Y0068509D01*
X0413477Y0068609D01*
X0413556Y0068707D01*
X0413638Y0068801D01*
X0413723Y0068894D01*
X0413811Y0068983D01*
X0413902Y0069070D01*
X0413996Y0069154D01*
X0414092Y0069234D01*
X0414191Y0069312D01*
X0414292Y0069386D01*
X0414395Y0069457D01*
X0414501Y0069525D01*
X0414609Y0069590D01*
X0414718Y0069651D01*
X0414830Y0069708D01*
X0414943Y0069762D01*
X0415058Y0069813D01*
X0415175Y0069859D01*
X0415293Y0069902D01*
X0415412Y0069942D01*
X0415533Y0069977D01*
X0415654Y0070008D01*
X0415777Y0070036D01*
X0415900Y0070060D01*
X0416024Y0070080D01*
X0416148Y0070096D01*
X0416273Y0070108D01*
X0416399Y0070116D01*
X0416524Y0070120D01*
X0416650Y0070120D01*
X0416775Y0070116D01*
X0416901Y0070108D01*
X0417026Y0070096D01*
X0417150Y0070080D01*
X0417274Y0070060D01*
X0417397Y0070036D01*
X0417520Y0070008D01*
X0417641Y0069977D01*
X0417762Y0069942D01*
X0417881Y0069902D01*
X0417999Y0069859D01*
X0418116Y0069813D01*
X0418231Y0069762D01*
X0418344Y0069708D01*
X0418456Y0069651D01*
X0418566Y0069590D01*
X0418673Y0069525D01*
X0418779Y0069457D01*
X0418882Y0069386D01*
X0418983Y0069312D01*
X0419082Y0069234D01*
X0419178Y0069154D01*
X0419272Y0069070D01*
X0419363Y0068983D01*
X0419451Y0068894D01*
X0419536Y0068801D01*
X0419618Y0068707D01*
X0419697Y0068609D01*
X0419773Y0068509D01*
X0419846Y0068407D01*
X0419916Y0068302D01*
X0419982Y0068196D01*
X0420045Y0068087D01*
X0420104Y0067976D01*
X0420160Y0067864D01*
X0420212Y0067749D01*
X0420261Y0067634D01*
X0420305Y0067516D01*
X0420346Y0067398D01*
X0420384Y0067278D01*
X0420417Y0067157D01*
X0420447Y0067035D01*
X0420472Y0066912D01*
X0420494Y0066788D01*
X0420512Y0066664D01*
X0420526Y0066539D01*
X0420536Y0066414D01*
X0420542Y0066289D01*
X0420544Y0066163D01*
X0420542Y0066037D01*
X0420536Y0065912D01*
X0420526Y0065787D01*
X0420512Y0065662D01*
X0420494Y0065538D01*
X0420472Y0065414D01*
X0420447Y0065291D01*
X0420417Y0065169D01*
X0420384Y0065048D01*
X0420346Y0064928D01*
X0420305Y0064810D01*
X0420261Y0064692D01*
X0420212Y0064577D01*
X0420160Y0064462D01*
X0420104Y0064350D01*
X0420045Y0064239D01*
X0419982Y0064130D01*
X0419916Y0064024D01*
X0419846Y0063919D01*
X0419773Y0063817D01*
X0419697Y0063717D01*
X0419618Y0063619D01*
X0419536Y0063525D01*
X0419451Y0063432D01*
X0419363Y0063343D01*
X0419272Y0063256D01*
X0419178Y0063172D01*
X0419082Y0063092D01*
X0418983Y0063014D01*
X0418882Y0062940D01*
X0418779Y0062869D01*
X0418673Y0062801D01*
X0418565Y0062736D01*
X0418456Y0062675D01*
X0418344Y0062618D01*
X0418231Y0062564D01*
X0418116Y0062513D01*
X0417999Y0062467D01*
X0417881Y0062424D01*
X0417762Y0062384D01*
X0417641Y0062349D01*
X0417520Y0062318D01*
X0417397Y0062290D01*
X0417274Y0062266D01*
X0417150Y0062246D01*
X0417026Y0062230D01*
X0416901Y0062218D01*
X0416775Y0062210D01*
X0416650Y0062206D01*
X0416524Y0062206D01*
X0416399Y0062210D01*
X0416273Y0062218D01*
X0416148Y0062230D01*
X0416024Y0062246D01*
X0415900Y0062266D01*
X0415777Y0062290D01*
X0415654Y0062318D01*
X0415533Y0062349D01*
X0415412Y0062384D01*
X0415293Y0062424D01*
X0415175Y0062467D01*
X0415058Y0062513D01*
X0414943Y0062564D01*
X0414830Y0062618D01*
X0414718Y0062675D01*
X0414608Y0062736D01*
X0414501Y0062801D01*
X0414395Y0062869D01*
X0414292Y0062940D01*
X0414191Y0063014D01*
X0414092Y0063092D01*
X0413996Y0063172D01*
X0413902Y0063256D01*
X0413811Y0063343D01*
X0413723Y0063432D01*
X0413638Y0063525D01*
X0413556Y0063619D01*
X0413477Y0063717D01*
X0413401Y0063817D01*
X0413328Y0063919D01*
X0413258Y0064024D01*
X0413192Y0064130D01*
X0413129Y0064239D01*
X0413070Y0064350D01*
X0413014Y0064462D01*
X0412962Y0064577D01*
X0412913Y0064692D01*
X0412869Y0064810D01*
X0412828Y0064928D01*
X0412790Y0065048D01*
X0412757Y0065169D01*
X0412727Y0065291D01*
X0412702Y0065414D01*
X0412680Y0065538D01*
X0412662Y0065662D01*
X0412648Y0065787D01*
X0412638Y0065912D01*
X0412632Y0066037D01*
X0412630Y0066163D01*
X0413220Y0096774D02*
X0413222Y0096900D01*
X0413228Y0097025D01*
X0413238Y0097150D01*
X0413252Y0097275D01*
X0413270Y0097399D01*
X0413292Y0097523D01*
X0413317Y0097646D01*
X0413347Y0097768D01*
X0413380Y0097889D01*
X0413418Y0098009D01*
X0413459Y0098127D01*
X0413503Y0098245D01*
X0413552Y0098360D01*
X0413604Y0098475D01*
X0413660Y0098587D01*
X0413719Y0098698D01*
X0413782Y0098807D01*
X0413848Y0098913D01*
X0413918Y0099018D01*
X0413991Y0099120D01*
X0414067Y0099220D01*
X0414146Y0099318D01*
X0414228Y0099412D01*
X0414313Y0099505D01*
X0414401Y0099594D01*
X0414492Y0099681D01*
X0414586Y0099765D01*
X0414682Y0099845D01*
X0414781Y0099923D01*
X0414882Y0099997D01*
X0414985Y0100068D01*
X0415091Y0100136D01*
X0415199Y0100201D01*
X0415308Y0100262D01*
X0415420Y0100319D01*
X0415533Y0100373D01*
X0415648Y0100424D01*
X0415765Y0100470D01*
X0415883Y0100513D01*
X0416002Y0100553D01*
X0416123Y0100588D01*
X0416244Y0100619D01*
X0416367Y0100647D01*
X0416490Y0100671D01*
X0416614Y0100691D01*
X0416738Y0100707D01*
X0416863Y0100719D01*
X0416989Y0100727D01*
X0417114Y0100731D01*
X0417240Y0100731D01*
X0417365Y0100727D01*
X0417491Y0100719D01*
X0417616Y0100707D01*
X0417740Y0100691D01*
X0417864Y0100671D01*
X0417987Y0100647D01*
X0418110Y0100619D01*
X0418231Y0100588D01*
X0418352Y0100553D01*
X0418471Y0100513D01*
X0418589Y0100470D01*
X0418706Y0100424D01*
X0418821Y0100373D01*
X0418934Y0100319D01*
X0419046Y0100262D01*
X0419156Y0100201D01*
X0419263Y0100136D01*
X0419369Y0100068D01*
X0419472Y0099997D01*
X0419573Y0099923D01*
X0419672Y0099845D01*
X0419768Y0099765D01*
X0419862Y0099681D01*
X0419953Y0099594D01*
X0420041Y0099505D01*
X0420126Y0099412D01*
X0420208Y0099318D01*
X0420287Y0099220D01*
X0420363Y0099120D01*
X0420436Y0099018D01*
X0420506Y0098913D01*
X0420572Y0098807D01*
X0420635Y0098698D01*
X0420694Y0098587D01*
X0420750Y0098475D01*
X0420802Y0098360D01*
X0420851Y0098245D01*
X0420895Y0098127D01*
X0420936Y0098009D01*
X0420974Y0097889D01*
X0421007Y0097768D01*
X0421037Y0097646D01*
X0421062Y0097523D01*
X0421084Y0097399D01*
X0421102Y0097275D01*
X0421116Y0097150D01*
X0421126Y0097025D01*
X0421132Y0096900D01*
X0421134Y0096774D01*
X0421132Y0096648D01*
X0421126Y0096523D01*
X0421116Y0096398D01*
X0421102Y0096273D01*
X0421084Y0096149D01*
X0421062Y0096025D01*
X0421037Y0095902D01*
X0421007Y0095780D01*
X0420974Y0095659D01*
X0420936Y0095539D01*
X0420895Y0095421D01*
X0420851Y0095303D01*
X0420802Y0095188D01*
X0420750Y0095073D01*
X0420694Y0094961D01*
X0420635Y0094850D01*
X0420572Y0094741D01*
X0420506Y0094635D01*
X0420436Y0094530D01*
X0420363Y0094428D01*
X0420287Y0094328D01*
X0420208Y0094230D01*
X0420126Y0094136D01*
X0420041Y0094043D01*
X0419953Y0093954D01*
X0419862Y0093867D01*
X0419768Y0093783D01*
X0419672Y0093703D01*
X0419573Y0093625D01*
X0419472Y0093551D01*
X0419369Y0093480D01*
X0419263Y0093412D01*
X0419155Y0093347D01*
X0419046Y0093286D01*
X0418934Y0093229D01*
X0418821Y0093175D01*
X0418706Y0093124D01*
X0418589Y0093078D01*
X0418471Y0093035D01*
X0418352Y0092995D01*
X0418231Y0092960D01*
X0418110Y0092929D01*
X0417987Y0092901D01*
X0417864Y0092877D01*
X0417740Y0092857D01*
X0417616Y0092841D01*
X0417491Y0092829D01*
X0417365Y0092821D01*
X0417240Y0092817D01*
X0417114Y0092817D01*
X0416989Y0092821D01*
X0416863Y0092829D01*
X0416738Y0092841D01*
X0416614Y0092857D01*
X0416490Y0092877D01*
X0416367Y0092901D01*
X0416244Y0092929D01*
X0416123Y0092960D01*
X0416002Y0092995D01*
X0415883Y0093035D01*
X0415765Y0093078D01*
X0415648Y0093124D01*
X0415533Y0093175D01*
X0415420Y0093229D01*
X0415308Y0093286D01*
X0415198Y0093347D01*
X0415091Y0093412D01*
X0414985Y0093480D01*
X0414882Y0093551D01*
X0414781Y0093625D01*
X0414682Y0093703D01*
X0414586Y0093783D01*
X0414492Y0093867D01*
X0414401Y0093954D01*
X0414313Y0094043D01*
X0414228Y0094136D01*
X0414146Y0094230D01*
X0414067Y0094328D01*
X0413991Y0094428D01*
X0413918Y0094530D01*
X0413848Y0094635D01*
X0413782Y0094741D01*
X0413719Y0094850D01*
X0413660Y0094961D01*
X0413604Y0095073D01*
X0413552Y0095188D01*
X0413503Y0095303D01*
X0413459Y0095421D01*
X0413418Y0095539D01*
X0413380Y0095659D01*
X0413347Y0095780D01*
X0413317Y0095902D01*
X0413292Y0096025D01*
X0413270Y0096149D01*
X0413252Y0096273D01*
X0413238Y0096398D01*
X0413228Y0096523D01*
X0413222Y0096648D01*
X0413220Y0096774D01*
X0413220Y0136774D02*
X0413222Y0136900D01*
X0413228Y0137025D01*
X0413238Y0137150D01*
X0413252Y0137275D01*
X0413270Y0137399D01*
X0413292Y0137523D01*
X0413317Y0137646D01*
X0413347Y0137768D01*
X0413380Y0137889D01*
X0413418Y0138009D01*
X0413459Y0138127D01*
X0413503Y0138245D01*
X0413552Y0138360D01*
X0413604Y0138475D01*
X0413660Y0138587D01*
X0413719Y0138698D01*
X0413782Y0138807D01*
X0413848Y0138913D01*
X0413918Y0139018D01*
X0413991Y0139120D01*
X0414067Y0139220D01*
X0414146Y0139318D01*
X0414228Y0139412D01*
X0414313Y0139505D01*
X0414401Y0139594D01*
X0414492Y0139681D01*
X0414586Y0139765D01*
X0414682Y0139845D01*
X0414781Y0139923D01*
X0414882Y0139997D01*
X0414985Y0140068D01*
X0415091Y0140136D01*
X0415199Y0140201D01*
X0415308Y0140262D01*
X0415420Y0140319D01*
X0415533Y0140373D01*
X0415648Y0140424D01*
X0415765Y0140470D01*
X0415883Y0140513D01*
X0416002Y0140553D01*
X0416123Y0140588D01*
X0416244Y0140619D01*
X0416367Y0140647D01*
X0416490Y0140671D01*
X0416614Y0140691D01*
X0416738Y0140707D01*
X0416863Y0140719D01*
X0416989Y0140727D01*
X0417114Y0140731D01*
X0417240Y0140731D01*
X0417365Y0140727D01*
X0417491Y0140719D01*
X0417616Y0140707D01*
X0417740Y0140691D01*
X0417864Y0140671D01*
X0417987Y0140647D01*
X0418110Y0140619D01*
X0418231Y0140588D01*
X0418352Y0140553D01*
X0418471Y0140513D01*
X0418589Y0140470D01*
X0418706Y0140424D01*
X0418821Y0140373D01*
X0418934Y0140319D01*
X0419046Y0140262D01*
X0419156Y0140201D01*
X0419263Y0140136D01*
X0419369Y0140068D01*
X0419472Y0139997D01*
X0419573Y0139923D01*
X0419672Y0139845D01*
X0419768Y0139765D01*
X0419862Y0139681D01*
X0419953Y0139594D01*
X0420041Y0139505D01*
X0420126Y0139412D01*
X0420208Y0139318D01*
X0420287Y0139220D01*
X0420363Y0139120D01*
X0420436Y0139018D01*
X0420506Y0138913D01*
X0420572Y0138807D01*
X0420635Y0138698D01*
X0420694Y0138587D01*
X0420750Y0138475D01*
X0420802Y0138360D01*
X0420851Y0138245D01*
X0420895Y0138127D01*
X0420936Y0138009D01*
X0420974Y0137889D01*
X0421007Y0137768D01*
X0421037Y0137646D01*
X0421062Y0137523D01*
X0421084Y0137399D01*
X0421102Y0137275D01*
X0421116Y0137150D01*
X0421126Y0137025D01*
X0421132Y0136900D01*
X0421134Y0136774D01*
X0421132Y0136648D01*
X0421126Y0136523D01*
X0421116Y0136398D01*
X0421102Y0136273D01*
X0421084Y0136149D01*
X0421062Y0136025D01*
X0421037Y0135902D01*
X0421007Y0135780D01*
X0420974Y0135659D01*
X0420936Y0135539D01*
X0420895Y0135421D01*
X0420851Y0135303D01*
X0420802Y0135188D01*
X0420750Y0135073D01*
X0420694Y0134961D01*
X0420635Y0134850D01*
X0420572Y0134741D01*
X0420506Y0134635D01*
X0420436Y0134530D01*
X0420363Y0134428D01*
X0420287Y0134328D01*
X0420208Y0134230D01*
X0420126Y0134136D01*
X0420041Y0134043D01*
X0419953Y0133954D01*
X0419862Y0133867D01*
X0419768Y0133783D01*
X0419672Y0133703D01*
X0419573Y0133625D01*
X0419472Y0133551D01*
X0419369Y0133480D01*
X0419263Y0133412D01*
X0419155Y0133347D01*
X0419046Y0133286D01*
X0418934Y0133229D01*
X0418821Y0133175D01*
X0418706Y0133124D01*
X0418589Y0133078D01*
X0418471Y0133035D01*
X0418352Y0132995D01*
X0418231Y0132960D01*
X0418110Y0132929D01*
X0417987Y0132901D01*
X0417864Y0132877D01*
X0417740Y0132857D01*
X0417616Y0132841D01*
X0417491Y0132829D01*
X0417365Y0132821D01*
X0417240Y0132817D01*
X0417114Y0132817D01*
X0416989Y0132821D01*
X0416863Y0132829D01*
X0416738Y0132841D01*
X0416614Y0132857D01*
X0416490Y0132877D01*
X0416367Y0132901D01*
X0416244Y0132929D01*
X0416123Y0132960D01*
X0416002Y0132995D01*
X0415883Y0133035D01*
X0415765Y0133078D01*
X0415648Y0133124D01*
X0415533Y0133175D01*
X0415420Y0133229D01*
X0415308Y0133286D01*
X0415198Y0133347D01*
X0415091Y0133412D01*
X0414985Y0133480D01*
X0414882Y0133551D01*
X0414781Y0133625D01*
X0414682Y0133703D01*
X0414586Y0133783D01*
X0414492Y0133867D01*
X0414401Y0133954D01*
X0414313Y0134043D01*
X0414228Y0134136D01*
X0414146Y0134230D01*
X0414067Y0134328D01*
X0413991Y0134428D01*
X0413918Y0134530D01*
X0413848Y0134635D01*
X0413782Y0134741D01*
X0413719Y0134850D01*
X0413660Y0134961D01*
X0413604Y0135073D01*
X0413552Y0135188D01*
X0413503Y0135303D01*
X0413459Y0135421D01*
X0413418Y0135539D01*
X0413380Y0135659D01*
X0413347Y0135780D01*
X0413317Y0135902D01*
X0413292Y0136025D01*
X0413270Y0136149D01*
X0413252Y0136273D01*
X0413238Y0136398D01*
X0413228Y0136523D01*
X0413222Y0136648D01*
X0413220Y0136774D01*
X0413220Y0169352D02*
X0413222Y0169478D01*
X0413228Y0169603D01*
X0413238Y0169728D01*
X0413252Y0169853D01*
X0413270Y0169977D01*
X0413292Y0170101D01*
X0413317Y0170224D01*
X0413347Y0170346D01*
X0413380Y0170467D01*
X0413418Y0170587D01*
X0413459Y0170705D01*
X0413503Y0170823D01*
X0413552Y0170938D01*
X0413604Y0171053D01*
X0413660Y0171165D01*
X0413719Y0171276D01*
X0413782Y0171385D01*
X0413848Y0171491D01*
X0413918Y0171596D01*
X0413991Y0171698D01*
X0414067Y0171798D01*
X0414146Y0171896D01*
X0414228Y0171990D01*
X0414313Y0172083D01*
X0414401Y0172172D01*
X0414492Y0172259D01*
X0414586Y0172343D01*
X0414682Y0172423D01*
X0414781Y0172501D01*
X0414882Y0172575D01*
X0414985Y0172646D01*
X0415091Y0172714D01*
X0415199Y0172779D01*
X0415308Y0172840D01*
X0415420Y0172897D01*
X0415533Y0172951D01*
X0415648Y0173002D01*
X0415765Y0173048D01*
X0415883Y0173091D01*
X0416002Y0173131D01*
X0416123Y0173166D01*
X0416244Y0173197D01*
X0416367Y0173225D01*
X0416490Y0173249D01*
X0416614Y0173269D01*
X0416738Y0173285D01*
X0416863Y0173297D01*
X0416989Y0173305D01*
X0417114Y0173309D01*
X0417240Y0173309D01*
X0417365Y0173305D01*
X0417491Y0173297D01*
X0417616Y0173285D01*
X0417740Y0173269D01*
X0417864Y0173249D01*
X0417987Y0173225D01*
X0418110Y0173197D01*
X0418231Y0173166D01*
X0418352Y0173131D01*
X0418471Y0173091D01*
X0418589Y0173048D01*
X0418706Y0173002D01*
X0418821Y0172951D01*
X0418934Y0172897D01*
X0419046Y0172840D01*
X0419156Y0172779D01*
X0419263Y0172714D01*
X0419369Y0172646D01*
X0419472Y0172575D01*
X0419573Y0172501D01*
X0419672Y0172423D01*
X0419768Y0172343D01*
X0419862Y0172259D01*
X0419953Y0172172D01*
X0420041Y0172083D01*
X0420126Y0171990D01*
X0420208Y0171896D01*
X0420287Y0171798D01*
X0420363Y0171698D01*
X0420436Y0171596D01*
X0420506Y0171491D01*
X0420572Y0171385D01*
X0420635Y0171276D01*
X0420694Y0171165D01*
X0420750Y0171053D01*
X0420802Y0170938D01*
X0420851Y0170823D01*
X0420895Y0170705D01*
X0420936Y0170587D01*
X0420974Y0170467D01*
X0421007Y0170346D01*
X0421037Y0170224D01*
X0421062Y0170101D01*
X0421084Y0169977D01*
X0421102Y0169853D01*
X0421116Y0169728D01*
X0421126Y0169603D01*
X0421132Y0169478D01*
X0421134Y0169352D01*
X0421132Y0169226D01*
X0421126Y0169101D01*
X0421116Y0168976D01*
X0421102Y0168851D01*
X0421084Y0168727D01*
X0421062Y0168603D01*
X0421037Y0168480D01*
X0421007Y0168358D01*
X0420974Y0168237D01*
X0420936Y0168117D01*
X0420895Y0167999D01*
X0420851Y0167881D01*
X0420802Y0167766D01*
X0420750Y0167651D01*
X0420694Y0167539D01*
X0420635Y0167428D01*
X0420572Y0167319D01*
X0420506Y0167213D01*
X0420436Y0167108D01*
X0420363Y0167006D01*
X0420287Y0166906D01*
X0420208Y0166808D01*
X0420126Y0166714D01*
X0420041Y0166621D01*
X0419953Y0166532D01*
X0419862Y0166445D01*
X0419768Y0166361D01*
X0419672Y0166281D01*
X0419573Y0166203D01*
X0419472Y0166129D01*
X0419369Y0166058D01*
X0419263Y0165990D01*
X0419155Y0165925D01*
X0419046Y0165864D01*
X0418934Y0165807D01*
X0418821Y0165753D01*
X0418706Y0165702D01*
X0418589Y0165656D01*
X0418471Y0165613D01*
X0418352Y0165573D01*
X0418231Y0165538D01*
X0418110Y0165507D01*
X0417987Y0165479D01*
X0417864Y0165455D01*
X0417740Y0165435D01*
X0417616Y0165419D01*
X0417491Y0165407D01*
X0417365Y0165399D01*
X0417240Y0165395D01*
X0417114Y0165395D01*
X0416989Y0165399D01*
X0416863Y0165407D01*
X0416738Y0165419D01*
X0416614Y0165435D01*
X0416490Y0165455D01*
X0416367Y0165479D01*
X0416244Y0165507D01*
X0416123Y0165538D01*
X0416002Y0165573D01*
X0415883Y0165613D01*
X0415765Y0165656D01*
X0415648Y0165702D01*
X0415533Y0165753D01*
X0415420Y0165807D01*
X0415308Y0165864D01*
X0415198Y0165925D01*
X0415091Y0165990D01*
X0414985Y0166058D01*
X0414882Y0166129D01*
X0414781Y0166203D01*
X0414682Y0166281D01*
X0414586Y0166361D01*
X0414492Y0166445D01*
X0414401Y0166532D01*
X0414313Y0166621D01*
X0414228Y0166714D01*
X0414146Y0166808D01*
X0414067Y0166906D01*
X0413991Y0167006D01*
X0413918Y0167108D01*
X0413848Y0167213D01*
X0413782Y0167319D01*
X0413719Y0167428D01*
X0413660Y0167539D01*
X0413604Y0167651D01*
X0413552Y0167766D01*
X0413503Y0167881D01*
X0413459Y0167999D01*
X0413418Y0168117D01*
X0413380Y0168237D01*
X0413347Y0168358D01*
X0413317Y0168480D01*
X0413292Y0168603D01*
X0413270Y0168727D01*
X0413252Y0168851D01*
X0413238Y0168976D01*
X0413228Y0169101D01*
X0413222Y0169226D01*
X0413220Y0169352D01*
X0413220Y0209352D02*
X0413222Y0209478D01*
X0413228Y0209603D01*
X0413238Y0209728D01*
X0413252Y0209853D01*
X0413270Y0209977D01*
X0413292Y0210101D01*
X0413317Y0210224D01*
X0413347Y0210346D01*
X0413380Y0210467D01*
X0413418Y0210587D01*
X0413459Y0210705D01*
X0413503Y0210823D01*
X0413552Y0210938D01*
X0413604Y0211053D01*
X0413660Y0211165D01*
X0413719Y0211276D01*
X0413782Y0211385D01*
X0413848Y0211491D01*
X0413918Y0211596D01*
X0413991Y0211698D01*
X0414067Y0211798D01*
X0414146Y0211896D01*
X0414228Y0211990D01*
X0414313Y0212083D01*
X0414401Y0212172D01*
X0414492Y0212259D01*
X0414586Y0212343D01*
X0414682Y0212423D01*
X0414781Y0212501D01*
X0414882Y0212575D01*
X0414985Y0212646D01*
X0415091Y0212714D01*
X0415199Y0212779D01*
X0415308Y0212840D01*
X0415420Y0212897D01*
X0415533Y0212951D01*
X0415648Y0213002D01*
X0415765Y0213048D01*
X0415883Y0213091D01*
X0416002Y0213131D01*
X0416123Y0213166D01*
X0416244Y0213197D01*
X0416367Y0213225D01*
X0416490Y0213249D01*
X0416614Y0213269D01*
X0416738Y0213285D01*
X0416863Y0213297D01*
X0416989Y0213305D01*
X0417114Y0213309D01*
X0417240Y0213309D01*
X0417365Y0213305D01*
X0417491Y0213297D01*
X0417616Y0213285D01*
X0417740Y0213269D01*
X0417864Y0213249D01*
X0417987Y0213225D01*
X0418110Y0213197D01*
X0418231Y0213166D01*
X0418352Y0213131D01*
X0418471Y0213091D01*
X0418589Y0213048D01*
X0418706Y0213002D01*
X0418821Y0212951D01*
X0418934Y0212897D01*
X0419046Y0212840D01*
X0419156Y0212779D01*
X0419263Y0212714D01*
X0419369Y0212646D01*
X0419472Y0212575D01*
X0419573Y0212501D01*
X0419672Y0212423D01*
X0419768Y0212343D01*
X0419862Y0212259D01*
X0419953Y0212172D01*
X0420041Y0212083D01*
X0420126Y0211990D01*
X0420208Y0211896D01*
X0420287Y0211798D01*
X0420363Y0211698D01*
X0420436Y0211596D01*
X0420506Y0211491D01*
X0420572Y0211385D01*
X0420635Y0211276D01*
X0420694Y0211165D01*
X0420750Y0211053D01*
X0420802Y0210938D01*
X0420851Y0210823D01*
X0420895Y0210705D01*
X0420936Y0210587D01*
X0420974Y0210467D01*
X0421007Y0210346D01*
X0421037Y0210224D01*
X0421062Y0210101D01*
X0421084Y0209977D01*
X0421102Y0209853D01*
X0421116Y0209728D01*
X0421126Y0209603D01*
X0421132Y0209478D01*
X0421134Y0209352D01*
X0421132Y0209226D01*
X0421126Y0209101D01*
X0421116Y0208976D01*
X0421102Y0208851D01*
X0421084Y0208727D01*
X0421062Y0208603D01*
X0421037Y0208480D01*
X0421007Y0208358D01*
X0420974Y0208237D01*
X0420936Y0208117D01*
X0420895Y0207999D01*
X0420851Y0207881D01*
X0420802Y0207766D01*
X0420750Y0207651D01*
X0420694Y0207539D01*
X0420635Y0207428D01*
X0420572Y0207319D01*
X0420506Y0207213D01*
X0420436Y0207108D01*
X0420363Y0207006D01*
X0420287Y0206906D01*
X0420208Y0206808D01*
X0420126Y0206714D01*
X0420041Y0206621D01*
X0419953Y0206532D01*
X0419862Y0206445D01*
X0419768Y0206361D01*
X0419672Y0206281D01*
X0419573Y0206203D01*
X0419472Y0206129D01*
X0419369Y0206058D01*
X0419263Y0205990D01*
X0419155Y0205925D01*
X0419046Y0205864D01*
X0418934Y0205807D01*
X0418821Y0205753D01*
X0418706Y0205702D01*
X0418589Y0205656D01*
X0418471Y0205613D01*
X0418352Y0205573D01*
X0418231Y0205538D01*
X0418110Y0205507D01*
X0417987Y0205479D01*
X0417864Y0205455D01*
X0417740Y0205435D01*
X0417616Y0205419D01*
X0417491Y0205407D01*
X0417365Y0205399D01*
X0417240Y0205395D01*
X0417114Y0205395D01*
X0416989Y0205399D01*
X0416863Y0205407D01*
X0416738Y0205419D01*
X0416614Y0205435D01*
X0416490Y0205455D01*
X0416367Y0205479D01*
X0416244Y0205507D01*
X0416123Y0205538D01*
X0416002Y0205573D01*
X0415883Y0205613D01*
X0415765Y0205656D01*
X0415648Y0205702D01*
X0415533Y0205753D01*
X0415420Y0205807D01*
X0415308Y0205864D01*
X0415198Y0205925D01*
X0415091Y0205990D01*
X0414985Y0206058D01*
X0414882Y0206129D01*
X0414781Y0206203D01*
X0414682Y0206281D01*
X0414586Y0206361D01*
X0414492Y0206445D01*
X0414401Y0206532D01*
X0414313Y0206621D01*
X0414228Y0206714D01*
X0414146Y0206808D01*
X0414067Y0206906D01*
X0413991Y0207006D01*
X0413918Y0207108D01*
X0413848Y0207213D01*
X0413782Y0207319D01*
X0413719Y0207428D01*
X0413660Y0207539D01*
X0413604Y0207651D01*
X0413552Y0207766D01*
X0413503Y0207881D01*
X0413459Y0207999D01*
X0413418Y0208117D01*
X0413380Y0208237D01*
X0413347Y0208358D01*
X0413317Y0208480D01*
X0413292Y0208603D01*
X0413270Y0208727D01*
X0413252Y0208851D01*
X0413238Y0208976D01*
X0413228Y0209101D01*
X0413222Y0209226D01*
X0413220Y0209352D01*
X0412826Y0241341D02*
X0412828Y0241467D01*
X0412834Y0241592D01*
X0412844Y0241717D01*
X0412858Y0241842D01*
X0412876Y0241966D01*
X0412898Y0242090D01*
X0412923Y0242213D01*
X0412953Y0242335D01*
X0412986Y0242456D01*
X0413024Y0242576D01*
X0413065Y0242694D01*
X0413109Y0242812D01*
X0413158Y0242927D01*
X0413210Y0243042D01*
X0413266Y0243154D01*
X0413325Y0243265D01*
X0413388Y0243374D01*
X0413454Y0243480D01*
X0413524Y0243585D01*
X0413597Y0243687D01*
X0413673Y0243787D01*
X0413752Y0243885D01*
X0413834Y0243979D01*
X0413919Y0244072D01*
X0414007Y0244161D01*
X0414098Y0244248D01*
X0414192Y0244332D01*
X0414288Y0244412D01*
X0414387Y0244490D01*
X0414488Y0244564D01*
X0414591Y0244635D01*
X0414697Y0244703D01*
X0414805Y0244768D01*
X0414914Y0244829D01*
X0415026Y0244886D01*
X0415139Y0244940D01*
X0415254Y0244991D01*
X0415371Y0245037D01*
X0415489Y0245080D01*
X0415608Y0245120D01*
X0415729Y0245155D01*
X0415850Y0245186D01*
X0415973Y0245214D01*
X0416096Y0245238D01*
X0416220Y0245258D01*
X0416344Y0245274D01*
X0416469Y0245286D01*
X0416595Y0245294D01*
X0416720Y0245298D01*
X0416846Y0245298D01*
X0416971Y0245294D01*
X0417097Y0245286D01*
X0417222Y0245274D01*
X0417346Y0245258D01*
X0417470Y0245238D01*
X0417593Y0245214D01*
X0417716Y0245186D01*
X0417837Y0245155D01*
X0417958Y0245120D01*
X0418077Y0245080D01*
X0418195Y0245037D01*
X0418312Y0244991D01*
X0418427Y0244940D01*
X0418540Y0244886D01*
X0418652Y0244829D01*
X0418762Y0244768D01*
X0418869Y0244703D01*
X0418975Y0244635D01*
X0419078Y0244564D01*
X0419179Y0244490D01*
X0419278Y0244412D01*
X0419374Y0244332D01*
X0419468Y0244248D01*
X0419559Y0244161D01*
X0419647Y0244072D01*
X0419732Y0243979D01*
X0419814Y0243885D01*
X0419893Y0243787D01*
X0419969Y0243687D01*
X0420042Y0243585D01*
X0420112Y0243480D01*
X0420178Y0243374D01*
X0420241Y0243265D01*
X0420300Y0243154D01*
X0420356Y0243042D01*
X0420408Y0242927D01*
X0420457Y0242812D01*
X0420501Y0242694D01*
X0420542Y0242576D01*
X0420580Y0242456D01*
X0420613Y0242335D01*
X0420643Y0242213D01*
X0420668Y0242090D01*
X0420690Y0241966D01*
X0420708Y0241842D01*
X0420722Y0241717D01*
X0420732Y0241592D01*
X0420738Y0241467D01*
X0420740Y0241341D01*
X0420738Y0241215D01*
X0420732Y0241090D01*
X0420722Y0240965D01*
X0420708Y0240840D01*
X0420690Y0240716D01*
X0420668Y0240592D01*
X0420643Y0240469D01*
X0420613Y0240347D01*
X0420580Y0240226D01*
X0420542Y0240106D01*
X0420501Y0239988D01*
X0420457Y0239870D01*
X0420408Y0239755D01*
X0420356Y0239640D01*
X0420300Y0239528D01*
X0420241Y0239417D01*
X0420178Y0239308D01*
X0420112Y0239202D01*
X0420042Y0239097D01*
X0419969Y0238995D01*
X0419893Y0238895D01*
X0419814Y0238797D01*
X0419732Y0238703D01*
X0419647Y0238610D01*
X0419559Y0238521D01*
X0419468Y0238434D01*
X0419374Y0238350D01*
X0419278Y0238270D01*
X0419179Y0238192D01*
X0419078Y0238118D01*
X0418975Y0238047D01*
X0418869Y0237979D01*
X0418761Y0237914D01*
X0418652Y0237853D01*
X0418540Y0237796D01*
X0418427Y0237742D01*
X0418312Y0237691D01*
X0418195Y0237645D01*
X0418077Y0237602D01*
X0417958Y0237562D01*
X0417837Y0237527D01*
X0417716Y0237496D01*
X0417593Y0237468D01*
X0417470Y0237444D01*
X0417346Y0237424D01*
X0417222Y0237408D01*
X0417097Y0237396D01*
X0416971Y0237388D01*
X0416846Y0237384D01*
X0416720Y0237384D01*
X0416595Y0237388D01*
X0416469Y0237396D01*
X0416344Y0237408D01*
X0416220Y0237424D01*
X0416096Y0237444D01*
X0415973Y0237468D01*
X0415850Y0237496D01*
X0415729Y0237527D01*
X0415608Y0237562D01*
X0415489Y0237602D01*
X0415371Y0237645D01*
X0415254Y0237691D01*
X0415139Y0237742D01*
X0415026Y0237796D01*
X0414914Y0237853D01*
X0414804Y0237914D01*
X0414697Y0237979D01*
X0414591Y0238047D01*
X0414488Y0238118D01*
X0414387Y0238192D01*
X0414288Y0238270D01*
X0414192Y0238350D01*
X0414098Y0238434D01*
X0414007Y0238521D01*
X0413919Y0238610D01*
X0413834Y0238703D01*
X0413752Y0238797D01*
X0413673Y0238895D01*
X0413597Y0238995D01*
X0413524Y0239097D01*
X0413454Y0239202D01*
X0413388Y0239308D01*
X0413325Y0239417D01*
X0413266Y0239528D01*
X0413210Y0239640D01*
X0413158Y0239755D01*
X0413109Y0239870D01*
X0413065Y0239988D01*
X0413024Y0240106D01*
X0412986Y0240226D01*
X0412953Y0240347D01*
X0412923Y0240469D01*
X0412898Y0240592D01*
X0412876Y0240716D01*
X0412858Y0240840D01*
X0412844Y0240965D01*
X0412834Y0241090D01*
X0412828Y0241215D01*
X0412826Y0241341D01*
X0412826Y0281341D02*
X0412828Y0281467D01*
X0412834Y0281592D01*
X0412844Y0281717D01*
X0412858Y0281842D01*
X0412876Y0281966D01*
X0412898Y0282090D01*
X0412923Y0282213D01*
X0412953Y0282335D01*
X0412986Y0282456D01*
X0413024Y0282576D01*
X0413065Y0282694D01*
X0413109Y0282812D01*
X0413158Y0282927D01*
X0413210Y0283042D01*
X0413266Y0283154D01*
X0413325Y0283265D01*
X0413388Y0283374D01*
X0413454Y0283480D01*
X0413524Y0283585D01*
X0413597Y0283687D01*
X0413673Y0283787D01*
X0413752Y0283885D01*
X0413834Y0283979D01*
X0413919Y0284072D01*
X0414007Y0284161D01*
X0414098Y0284248D01*
X0414192Y0284332D01*
X0414288Y0284412D01*
X0414387Y0284490D01*
X0414488Y0284564D01*
X0414591Y0284635D01*
X0414697Y0284703D01*
X0414805Y0284768D01*
X0414914Y0284829D01*
X0415026Y0284886D01*
X0415139Y0284940D01*
X0415254Y0284991D01*
X0415371Y0285037D01*
X0415489Y0285080D01*
X0415608Y0285120D01*
X0415729Y0285155D01*
X0415850Y0285186D01*
X0415973Y0285214D01*
X0416096Y0285238D01*
X0416220Y0285258D01*
X0416344Y0285274D01*
X0416469Y0285286D01*
X0416595Y0285294D01*
X0416720Y0285298D01*
X0416846Y0285298D01*
X0416971Y0285294D01*
X0417097Y0285286D01*
X0417222Y0285274D01*
X0417346Y0285258D01*
X0417470Y0285238D01*
X0417593Y0285214D01*
X0417716Y0285186D01*
X0417837Y0285155D01*
X0417958Y0285120D01*
X0418077Y0285080D01*
X0418195Y0285037D01*
X0418312Y0284991D01*
X0418427Y0284940D01*
X0418540Y0284886D01*
X0418652Y0284829D01*
X0418762Y0284768D01*
X0418869Y0284703D01*
X0418975Y0284635D01*
X0419078Y0284564D01*
X0419179Y0284490D01*
X0419278Y0284412D01*
X0419374Y0284332D01*
X0419468Y0284248D01*
X0419559Y0284161D01*
X0419647Y0284072D01*
X0419732Y0283979D01*
X0419814Y0283885D01*
X0419893Y0283787D01*
X0419969Y0283687D01*
X0420042Y0283585D01*
X0420112Y0283480D01*
X0420178Y0283374D01*
X0420241Y0283265D01*
X0420300Y0283154D01*
X0420356Y0283042D01*
X0420408Y0282927D01*
X0420457Y0282812D01*
X0420501Y0282694D01*
X0420542Y0282576D01*
X0420580Y0282456D01*
X0420613Y0282335D01*
X0420643Y0282213D01*
X0420668Y0282090D01*
X0420690Y0281966D01*
X0420708Y0281842D01*
X0420722Y0281717D01*
X0420732Y0281592D01*
X0420738Y0281467D01*
X0420740Y0281341D01*
X0420738Y0281215D01*
X0420732Y0281090D01*
X0420722Y0280965D01*
X0420708Y0280840D01*
X0420690Y0280716D01*
X0420668Y0280592D01*
X0420643Y0280469D01*
X0420613Y0280347D01*
X0420580Y0280226D01*
X0420542Y0280106D01*
X0420501Y0279988D01*
X0420457Y0279870D01*
X0420408Y0279755D01*
X0420356Y0279640D01*
X0420300Y0279528D01*
X0420241Y0279417D01*
X0420178Y0279308D01*
X0420112Y0279202D01*
X0420042Y0279097D01*
X0419969Y0278995D01*
X0419893Y0278895D01*
X0419814Y0278797D01*
X0419732Y0278703D01*
X0419647Y0278610D01*
X0419559Y0278521D01*
X0419468Y0278434D01*
X0419374Y0278350D01*
X0419278Y0278270D01*
X0419179Y0278192D01*
X0419078Y0278118D01*
X0418975Y0278047D01*
X0418869Y0277979D01*
X0418761Y0277914D01*
X0418652Y0277853D01*
X0418540Y0277796D01*
X0418427Y0277742D01*
X0418312Y0277691D01*
X0418195Y0277645D01*
X0418077Y0277602D01*
X0417958Y0277562D01*
X0417837Y0277527D01*
X0417716Y0277496D01*
X0417593Y0277468D01*
X0417470Y0277444D01*
X0417346Y0277424D01*
X0417222Y0277408D01*
X0417097Y0277396D01*
X0416971Y0277388D01*
X0416846Y0277384D01*
X0416720Y0277384D01*
X0416595Y0277388D01*
X0416469Y0277396D01*
X0416344Y0277408D01*
X0416220Y0277424D01*
X0416096Y0277444D01*
X0415973Y0277468D01*
X0415850Y0277496D01*
X0415729Y0277527D01*
X0415608Y0277562D01*
X0415489Y0277602D01*
X0415371Y0277645D01*
X0415254Y0277691D01*
X0415139Y0277742D01*
X0415026Y0277796D01*
X0414914Y0277853D01*
X0414804Y0277914D01*
X0414697Y0277979D01*
X0414591Y0278047D01*
X0414488Y0278118D01*
X0414387Y0278192D01*
X0414288Y0278270D01*
X0414192Y0278350D01*
X0414098Y0278434D01*
X0414007Y0278521D01*
X0413919Y0278610D01*
X0413834Y0278703D01*
X0413752Y0278797D01*
X0413673Y0278895D01*
X0413597Y0278995D01*
X0413524Y0279097D01*
X0413454Y0279202D01*
X0413388Y0279308D01*
X0413325Y0279417D01*
X0413266Y0279528D01*
X0413210Y0279640D01*
X0413158Y0279755D01*
X0413109Y0279870D01*
X0413065Y0279988D01*
X0413024Y0280106D01*
X0412986Y0280226D01*
X0412953Y0280347D01*
X0412923Y0280469D01*
X0412898Y0280592D01*
X0412876Y0280716D01*
X0412858Y0280840D01*
X0412844Y0280965D01*
X0412834Y0281090D01*
X0412828Y0281215D01*
X0412826Y0281341D01*
X0279913Y0186557D02*
X0279915Y0186731D01*
X0279922Y0186905D01*
X0279932Y0187078D01*
X0279947Y0187252D01*
X0279966Y0187425D01*
X0279990Y0187597D01*
X0280017Y0187769D01*
X0280049Y0187940D01*
X0280085Y0188110D01*
X0280125Y0188279D01*
X0280170Y0188447D01*
X0280218Y0188614D01*
X0280271Y0188780D01*
X0280327Y0188945D01*
X0280388Y0189108D01*
X0280452Y0189269D01*
X0280521Y0189429D01*
X0280593Y0189587D01*
X0280670Y0189743D01*
X0280750Y0189898D01*
X0280834Y0190050D01*
X0280921Y0190200D01*
X0281013Y0190349D01*
X0281107Y0190494D01*
X0281206Y0190638D01*
X0281308Y0190779D01*
X0281413Y0190917D01*
X0281522Y0191053D01*
X0281634Y0191186D01*
X0281749Y0191316D01*
X0281867Y0191444D01*
X0281989Y0191568D01*
X0282113Y0191690D01*
X0282241Y0191808D01*
X0282371Y0191923D01*
X0282504Y0192035D01*
X0282640Y0192144D01*
X0282778Y0192249D01*
X0282919Y0192351D01*
X0283063Y0192450D01*
X0283208Y0192544D01*
X0283357Y0192636D01*
X0283507Y0192723D01*
X0283659Y0192807D01*
X0283814Y0192887D01*
X0283970Y0192964D01*
X0284128Y0193036D01*
X0284288Y0193105D01*
X0284449Y0193169D01*
X0284612Y0193230D01*
X0284777Y0193286D01*
X0284943Y0193339D01*
X0285110Y0193387D01*
X0285278Y0193432D01*
X0285447Y0193472D01*
X0285617Y0193508D01*
X0285788Y0193540D01*
X0285960Y0193567D01*
X0286132Y0193591D01*
X0286305Y0193610D01*
X0286479Y0193625D01*
X0286652Y0193635D01*
X0286826Y0193642D01*
X0287000Y0193644D01*
X0287174Y0193642D01*
X0287348Y0193635D01*
X0287521Y0193625D01*
X0287695Y0193610D01*
X0287868Y0193591D01*
X0288040Y0193567D01*
X0288212Y0193540D01*
X0288383Y0193508D01*
X0288553Y0193472D01*
X0288722Y0193432D01*
X0288890Y0193387D01*
X0289057Y0193339D01*
X0289223Y0193286D01*
X0289388Y0193230D01*
X0289551Y0193169D01*
X0289712Y0193105D01*
X0289872Y0193036D01*
X0290030Y0192964D01*
X0290186Y0192887D01*
X0290341Y0192807D01*
X0290493Y0192723D01*
X0290643Y0192636D01*
X0290792Y0192544D01*
X0290937Y0192450D01*
X0291081Y0192351D01*
X0291222Y0192249D01*
X0291360Y0192144D01*
X0291496Y0192035D01*
X0291629Y0191923D01*
X0291759Y0191808D01*
X0291887Y0191690D01*
X0292011Y0191568D01*
X0292133Y0191444D01*
X0292251Y0191316D01*
X0292366Y0191186D01*
X0292478Y0191053D01*
X0292587Y0190917D01*
X0292692Y0190779D01*
X0292794Y0190638D01*
X0292893Y0190494D01*
X0292987Y0190349D01*
X0293079Y0190200D01*
X0293166Y0190050D01*
X0293250Y0189898D01*
X0293330Y0189743D01*
X0293407Y0189587D01*
X0293479Y0189429D01*
X0293548Y0189269D01*
X0293612Y0189108D01*
X0293673Y0188945D01*
X0293729Y0188780D01*
X0293782Y0188614D01*
X0293830Y0188447D01*
X0293875Y0188279D01*
X0293915Y0188110D01*
X0293951Y0187940D01*
X0293983Y0187769D01*
X0294010Y0187597D01*
X0294034Y0187425D01*
X0294053Y0187252D01*
X0294068Y0187078D01*
X0294078Y0186905D01*
X0294085Y0186731D01*
X0294087Y0186557D01*
X0294085Y0186383D01*
X0294078Y0186209D01*
X0294068Y0186036D01*
X0294053Y0185862D01*
X0294034Y0185689D01*
X0294010Y0185517D01*
X0293983Y0185345D01*
X0293951Y0185174D01*
X0293915Y0185004D01*
X0293875Y0184835D01*
X0293830Y0184667D01*
X0293782Y0184500D01*
X0293729Y0184334D01*
X0293673Y0184169D01*
X0293612Y0184006D01*
X0293548Y0183845D01*
X0293479Y0183685D01*
X0293407Y0183527D01*
X0293330Y0183371D01*
X0293250Y0183216D01*
X0293166Y0183064D01*
X0293079Y0182914D01*
X0292987Y0182765D01*
X0292893Y0182620D01*
X0292794Y0182476D01*
X0292692Y0182335D01*
X0292587Y0182197D01*
X0292478Y0182061D01*
X0292366Y0181928D01*
X0292251Y0181798D01*
X0292133Y0181670D01*
X0292011Y0181546D01*
X0291887Y0181424D01*
X0291759Y0181306D01*
X0291629Y0181191D01*
X0291496Y0181079D01*
X0291360Y0180970D01*
X0291222Y0180865D01*
X0291081Y0180763D01*
X0290937Y0180664D01*
X0290792Y0180570D01*
X0290643Y0180478D01*
X0290493Y0180391D01*
X0290341Y0180307D01*
X0290186Y0180227D01*
X0290030Y0180150D01*
X0289872Y0180078D01*
X0289712Y0180009D01*
X0289551Y0179945D01*
X0289388Y0179884D01*
X0289223Y0179828D01*
X0289057Y0179775D01*
X0288890Y0179727D01*
X0288722Y0179682D01*
X0288553Y0179642D01*
X0288383Y0179606D01*
X0288212Y0179574D01*
X0288040Y0179547D01*
X0287868Y0179523D01*
X0287695Y0179504D01*
X0287521Y0179489D01*
X0287348Y0179479D01*
X0287174Y0179472D01*
X0287000Y0179470D01*
X0286826Y0179472D01*
X0286652Y0179479D01*
X0286479Y0179489D01*
X0286305Y0179504D01*
X0286132Y0179523D01*
X0285960Y0179547D01*
X0285788Y0179574D01*
X0285617Y0179606D01*
X0285447Y0179642D01*
X0285278Y0179682D01*
X0285110Y0179727D01*
X0284943Y0179775D01*
X0284777Y0179828D01*
X0284612Y0179884D01*
X0284449Y0179945D01*
X0284288Y0180009D01*
X0284128Y0180078D01*
X0283970Y0180150D01*
X0283814Y0180227D01*
X0283659Y0180307D01*
X0283507Y0180391D01*
X0283357Y0180478D01*
X0283208Y0180570D01*
X0283063Y0180664D01*
X0282919Y0180763D01*
X0282778Y0180865D01*
X0282640Y0180970D01*
X0282504Y0181079D01*
X0282371Y0181191D01*
X0282241Y0181306D01*
X0282113Y0181424D01*
X0281989Y0181546D01*
X0281867Y0181670D01*
X0281749Y0181798D01*
X0281634Y0181928D01*
X0281522Y0182061D01*
X0281413Y0182197D01*
X0281308Y0182335D01*
X0281206Y0182476D01*
X0281107Y0182620D01*
X0281013Y0182765D01*
X0280921Y0182914D01*
X0280834Y0183064D01*
X0280750Y0183216D01*
X0280670Y0183371D01*
X0280593Y0183527D01*
X0280521Y0183685D01*
X0280452Y0183845D01*
X0280388Y0184006D01*
X0280327Y0184169D01*
X0280271Y0184334D01*
X0280218Y0184500D01*
X0280170Y0184667D01*
X0280125Y0184835D01*
X0280085Y0185004D01*
X0280049Y0185174D01*
X0280017Y0185345D01*
X0279990Y0185517D01*
X0279966Y0185689D01*
X0279947Y0185862D01*
X0279932Y0186036D01*
X0279922Y0186209D01*
X0279915Y0186383D01*
X0279913Y0186557D01*
X0079913Y0246557D02*
X0079915Y0246731D01*
X0079922Y0246905D01*
X0079932Y0247078D01*
X0079947Y0247252D01*
X0079966Y0247425D01*
X0079990Y0247597D01*
X0080017Y0247769D01*
X0080049Y0247940D01*
X0080085Y0248110D01*
X0080125Y0248279D01*
X0080170Y0248447D01*
X0080218Y0248614D01*
X0080271Y0248780D01*
X0080327Y0248945D01*
X0080388Y0249108D01*
X0080452Y0249269D01*
X0080521Y0249429D01*
X0080593Y0249587D01*
X0080670Y0249743D01*
X0080750Y0249898D01*
X0080834Y0250050D01*
X0080921Y0250200D01*
X0081013Y0250349D01*
X0081107Y0250494D01*
X0081206Y0250638D01*
X0081308Y0250779D01*
X0081413Y0250917D01*
X0081522Y0251053D01*
X0081634Y0251186D01*
X0081749Y0251316D01*
X0081867Y0251444D01*
X0081989Y0251568D01*
X0082113Y0251690D01*
X0082241Y0251808D01*
X0082371Y0251923D01*
X0082504Y0252035D01*
X0082640Y0252144D01*
X0082778Y0252249D01*
X0082919Y0252351D01*
X0083063Y0252450D01*
X0083208Y0252544D01*
X0083357Y0252636D01*
X0083507Y0252723D01*
X0083659Y0252807D01*
X0083814Y0252887D01*
X0083970Y0252964D01*
X0084128Y0253036D01*
X0084288Y0253105D01*
X0084449Y0253169D01*
X0084612Y0253230D01*
X0084777Y0253286D01*
X0084943Y0253339D01*
X0085110Y0253387D01*
X0085278Y0253432D01*
X0085447Y0253472D01*
X0085617Y0253508D01*
X0085788Y0253540D01*
X0085960Y0253567D01*
X0086132Y0253591D01*
X0086305Y0253610D01*
X0086479Y0253625D01*
X0086652Y0253635D01*
X0086826Y0253642D01*
X0087000Y0253644D01*
X0087174Y0253642D01*
X0087348Y0253635D01*
X0087521Y0253625D01*
X0087695Y0253610D01*
X0087868Y0253591D01*
X0088040Y0253567D01*
X0088212Y0253540D01*
X0088383Y0253508D01*
X0088553Y0253472D01*
X0088722Y0253432D01*
X0088890Y0253387D01*
X0089057Y0253339D01*
X0089223Y0253286D01*
X0089388Y0253230D01*
X0089551Y0253169D01*
X0089712Y0253105D01*
X0089872Y0253036D01*
X0090030Y0252964D01*
X0090186Y0252887D01*
X0090341Y0252807D01*
X0090493Y0252723D01*
X0090643Y0252636D01*
X0090792Y0252544D01*
X0090937Y0252450D01*
X0091081Y0252351D01*
X0091222Y0252249D01*
X0091360Y0252144D01*
X0091496Y0252035D01*
X0091629Y0251923D01*
X0091759Y0251808D01*
X0091887Y0251690D01*
X0092011Y0251568D01*
X0092133Y0251444D01*
X0092251Y0251316D01*
X0092366Y0251186D01*
X0092478Y0251053D01*
X0092587Y0250917D01*
X0092692Y0250779D01*
X0092794Y0250638D01*
X0092893Y0250494D01*
X0092987Y0250349D01*
X0093079Y0250200D01*
X0093166Y0250050D01*
X0093250Y0249898D01*
X0093330Y0249743D01*
X0093407Y0249587D01*
X0093479Y0249429D01*
X0093548Y0249269D01*
X0093612Y0249108D01*
X0093673Y0248945D01*
X0093729Y0248780D01*
X0093782Y0248614D01*
X0093830Y0248447D01*
X0093875Y0248279D01*
X0093915Y0248110D01*
X0093951Y0247940D01*
X0093983Y0247769D01*
X0094010Y0247597D01*
X0094034Y0247425D01*
X0094053Y0247252D01*
X0094068Y0247078D01*
X0094078Y0246905D01*
X0094085Y0246731D01*
X0094087Y0246557D01*
X0094085Y0246383D01*
X0094078Y0246209D01*
X0094068Y0246036D01*
X0094053Y0245862D01*
X0094034Y0245689D01*
X0094010Y0245517D01*
X0093983Y0245345D01*
X0093951Y0245174D01*
X0093915Y0245004D01*
X0093875Y0244835D01*
X0093830Y0244667D01*
X0093782Y0244500D01*
X0093729Y0244334D01*
X0093673Y0244169D01*
X0093612Y0244006D01*
X0093548Y0243845D01*
X0093479Y0243685D01*
X0093407Y0243527D01*
X0093330Y0243371D01*
X0093250Y0243216D01*
X0093166Y0243064D01*
X0093079Y0242914D01*
X0092987Y0242765D01*
X0092893Y0242620D01*
X0092794Y0242476D01*
X0092692Y0242335D01*
X0092587Y0242197D01*
X0092478Y0242061D01*
X0092366Y0241928D01*
X0092251Y0241798D01*
X0092133Y0241670D01*
X0092011Y0241546D01*
X0091887Y0241424D01*
X0091759Y0241306D01*
X0091629Y0241191D01*
X0091496Y0241079D01*
X0091360Y0240970D01*
X0091222Y0240865D01*
X0091081Y0240763D01*
X0090937Y0240664D01*
X0090792Y0240570D01*
X0090643Y0240478D01*
X0090493Y0240391D01*
X0090341Y0240307D01*
X0090186Y0240227D01*
X0090030Y0240150D01*
X0089872Y0240078D01*
X0089712Y0240009D01*
X0089551Y0239945D01*
X0089388Y0239884D01*
X0089223Y0239828D01*
X0089057Y0239775D01*
X0088890Y0239727D01*
X0088722Y0239682D01*
X0088553Y0239642D01*
X0088383Y0239606D01*
X0088212Y0239574D01*
X0088040Y0239547D01*
X0087868Y0239523D01*
X0087695Y0239504D01*
X0087521Y0239489D01*
X0087348Y0239479D01*
X0087174Y0239472D01*
X0087000Y0239470D01*
X0086826Y0239472D01*
X0086652Y0239479D01*
X0086479Y0239489D01*
X0086305Y0239504D01*
X0086132Y0239523D01*
X0085960Y0239547D01*
X0085788Y0239574D01*
X0085617Y0239606D01*
X0085447Y0239642D01*
X0085278Y0239682D01*
X0085110Y0239727D01*
X0084943Y0239775D01*
X0084777Y0239828D01*
X0084612Y0239884D01*
X0084449Y0239945D01*
X0084288Y0240009D01*
X0084128Y0240078D01*
X0083970Y0240150D01*
X0083814Y0240227D01*
X0083659Y0240307D01*
X0083507Y0240391D01*
X0083357Y0240478D01*
X0083208Y0240570D01*
X0083063Y0240664D01*
X0082919Y0240763D01*
X0082778Y0240865D01*
X0082640Y0240970D01*
X0082504Y0241079D01*
X0082371Y0241191D01*
X0082241Y0241306D01*
X0082113Y0241424D01*
X0081989Y0241546D01*
X0081867Y0241670D01*
X0081749Y0241798D01*
X0081634Y0241928D01*
X0081522Y0242061D01*
X0081413Y0242197D01*
X0081308Y0242335D01*
X0081206Y0242476D01*
X0081107Y0242620D01*
X0081013Y0242765D01*
X0080921Y0242914D01*
X0080834Y0243064D01*
X0080750Y0243216D01*
X0080670Y0243371D01*
X0080593Y0243527D01*
X0080521Y0243685D01*
X0080452Y0243845D01*
X0080388Y0244006D01*
X0080327Y0244169D01*
X0080271Y0244334D01*
X0080218Y0244500D01*
X0080170Y0244667D01*
X0080125Y0244835D01*
X0080085Y0245004D01*
X0080049Y0245174D01*
X0080017Y0245345D01*
X0079990Y0245517D01*
X0079966Y0245689D01*
X0079947Y0245862D01*
X0079932Y0246036D01*
X0079922Y0246209D01*
X0079915Y0246383D01*
X0079913Y0246557D01*
X0412630Y0026163D02*
X0412632Y0026289D01*
X0412638Y0026414D01*
X0412648Y0026539D01*
X0412662Y0026664D01*
X0412680Y0026788D01*
X0412702Y0026912D01*
X0412727Y0027035D01*
X0412757Y0027157D01*
X0412790Y0027278D01*
X0412828Y0027398D01*
X0412869Y0027516D01*
X0412913Y0027634D01*
X0412962Y0027749D01*
X0413014Y0027864D01*
X0413070Y0027976D01*
X0413129Y0028087D01*
X0413192Y0028196D01*
X0413258Y0028302D01*
X0413328Y0028407D01*
X0413401Y0028509D01*
X0413477Y0028609D01*
X0413556Y0028707D01*
X0413638Y0028801D01*
X0413723Y0028894D01*
X0413811Y0028983D01*
X0413902Y0029070D01*
X0413996Y0029154D01*
X0414092Y0029234D01*
X0414191Y0029312D01*
X0414292Y0029386D01*
X0414395Y0029457D01*
X0414501Y0029525D01*
X0414609Y0029590D01*
X0414718Y0029651D01*
X0414830Y0029708D01*
X0414943Y0029762D01*
X0415058Y0029813D01*
X0415175Y0029859D01*
X0415293Y0029902D01*
X0415412Y0029942D01*
X0415533Y0029977D01*
X0415654Y0030008D01*
X0415777Y0030036D01*
X0415900Y0030060D01*
X0416024Y0030080D01*
X0416148Y0030096D01*
X0416273Y0030108D01*
X0416399Y0030116D01*
X0416524Y0030120D01*
X0416650Y0030120D01*
X0416775Y0030116D01*
X0416901Y0030108D01*
X0417026Y0030096D01*
X0417150Y0030080D01*
X0417274Y0030060D01*
X0417397Y0030036D01*
X0417520Y0030008D01*
X0417641Y0029977D01*
X0417762Y0029942D01*
X0417881Y0029902D01*
X0417999Y0029859D01*
X0418116Y0029813D01*
X0418231Y0029762D01*
X0418344Y0029708D01*
X0418456Y0029651D01*
X0418566Y0029590D01*
X0418673Y0029525D01*
X0418779Y0029457D01*
X0418882Y0029386D01*
X0418983Y0029312D01*
X0419082Y0029234D01*
X0419178Y0029154D01*
X0419272Y0029070D01*
X0419363Y0028983D01*
X0419451Y0028894D01*
X0419536Y0028801D01*
X0419618Y0028707D01*
X0419697Y0028609D01*
X0419773Y0028509D01*
X0419846Y0028407D01*
X0419916Y0028302D01*
X0419982Y0028196D01*
X0420045Y0028087D01*
X0420104Y0027976D01*
X0420160Y0027864D01*
X0420212Y0027749D01*
X0420261Y0027634D01*
X0420305Y0027516D01*
X0420346Y0027398D01*
X0420384Y0027278D01*
X0420417Y0027157D01*
X0420447Y0027035D01*
X0420472Y0026912D01*
X0420494Y0026788D01*
X0420512Y0026664D01*
X0420526Y0026539D01*
X0420536Y0026414D01*
X0420542Y0026289D01*
X0420544Y0026163D01*
X0420542Y0026037D01*
X0420536Y0025912D01*
X0420526Y0025787D01*
X0420512Y0025662D01*
X0420494Y0025538D01*
X0420472Y0025414D01*
X0420447Y0025291D01*
X0420417Y0025169D01*
X0420384Y0025048D01*
X0420346Y0024928D01*
X0420305Y0024810D01*
X0420261Y0024692D01*
X0420212Y0024577D01*
X0420160Y0024462D01*
X0420104Y0024350D01*
X0420045Y0024239D01*
X0419982Y0024130D01*
X0419916Y0024024D01*
X0419846Y0023919D01*
X0419773Y0023817D01*
X0419697Y0023717D01*
X0419618Y0023619D01*
X0419536Y0023525D01*
X0419451Y0023432D01*
X0419363Y0023343D01*
X0419272Y0023256D01*
X0419178Y0023172D01*
X0419082Y0023092D01*
X0418983Y0023014D01*
X0418882Y0022940D01*
X0418779Y0022869D01*
X0418673Y0022801D01*
X0418565Y0022736D01*
X0418456Y0022675D01*
X0418344Y0022618D01*
X0418231Y0022564D01*
X0418116Y0022513D01*
X0417999Y0022467D01*
X0417881Y0022424D01*
X0417762Y0022384D01*
X0417641Y0022349D01*
X0417520Y0022318D01*
X0417397Y0022290D01*
X0417274Y0022266D01*
X0417150Y0022246D01*
X0417026Y0022230D01*
X0416901Y0022218D01*
X0416775Y0022210D01*
X0416650Y0022206D01*
X0416524Y0022206D01*
X0416399Y0022210D01*
X0416273Y0022218D01*
X0416148Y0022230D01*
X0416024Y0022246D01*
X0415900Y0022266D01*
X0415777Y0022290D01*
X0415654Y0022318D01*
X0415533Y0022349D01*
X0415412Y0022384D01*
X0415293Y0022424D01*
X0415175Y0022467D01*
X0415058Y0022513D01*
X0414943Y0022564D01*
X0414830Y0022618D01*
X0414718Y0022675D01*
X0414608Y0022736D01*
X0414501Y0022801D01*
X0414395Y0022869D01*
X0414292Y0022940D01*
X0414191Y0023014D01*
X0414092Y0023092D01*
X0413996Y0023172D01*
X0413902Y0023256D01*
X0413811Y0023343D01*
X0413723Y0023432D01*
X0413638Y0023525D01*
X0413556Y0023619D01*
X0413477Y0023717D01*
X0413401Y0023817D01*
X0413328Y0023919D01*
X0413258Y0024024D01*
X0413192Y0024130D01*
X0413129Y0024239D01*
X0413070Y0024350D01*
X0413014Y0024462D01*
X0412962Y0024577D01*
X0412913Y0024692D01*
X0412869Y0024810D01*
X0412828Y0024928D01*
X0412790Y0025048D01*
X0412757Y0025169D01*
X0412727Y0025291D01*
X0412702Y0025414D01*
X0412680Y0025538D01*
X0412662Y0025662D01*
X0412648Y0025787D01*
X0412638Y0025912D01*
X0412632Y0026037D01*
X0412630Y0026163D01*
M02*
