G75*
%MOIN*%
%OFA0B0*%
%FSLAX25Y25*%
%IPPOS*%
%LPD*%
%AMOC8*
5,1,8,0,0,1.08239X$1,22.5*
%
%ADD10C,0.00400*%
%ADD11C,0.00300*%
%ADD12C,0.00000*%
%ADD13C,0.00500*%
%ADD14C,0.00787*%
%ADD15C,0.00800*%
%ADD16C,0.00600*%
%ADD17C,0.01000*%
%ADD18R,0.47244X0.20000*%
D10*
X0054262Y0061048D02*
X0052728Y0062583D01*
X0057331Y0062583D01*
X0057331Y0061048D02*
X0057331Y0064118D01*
X0056564Y0065652D02*
X0053495Y0068722D01*
X0056564Y0068722D01*
X0057331Y0067954D01*
X0057331Y0066420D01*
X0056564Y0065652D01*
X0053495Y0065652D01*
X0052728Y0066420D01*
X0052728Y0067954D01*
X0053495Y0068722D01*
X0053495Y0080733D02*
X0052728Y0081501D01*
X0052728Y0083035D01*
X0053495Y0083803D01*
X0056564Y0083803D01*
X0057331Y0083035D01*
X0057331Y0081501D01*
X0056564Y0080733D01*
X0055030Y0081501D02*
X0055030Y0083803D01*
X0055030Y0081501D02*
X0054262Y0080733D01*
X0053495Y0080733D01*
X0053495Y0100419D02*
X0052728Y0101186D01*
X0052728Y0102720D01*
X0053495Y0103488D01*
X0054262Y0103488D01*
X0055030Y0102720D01*
X0055030Y0101186D01*
X0054262Y0100419D01*
X0053495Y0100419D01*
X0055030Y0101186D02*
X0055797Y0100419D01*
X0056564Y0100419D01*
X0057331Y0101186D01*
X0057331Y0102720D01*
X0056564Y0103488D01*
X0055797Y0103488D01*
X0055030Y0102720D01*
X0056564Y0121088D02*
X0057331Y0121088D01*
X0056564Y0121088D02*
X0053495Y0124157D01*
X0052728Y0124157D01*
X0052728Y0121088D01*
X0055030Y0140773D02*
X0055030Y0143075D01*
X0055797Y0143842D01*
X0056564Y0143842D01*
X0057331Y0143075D01*
X0057331Y0141540D01*
X0056564Y0140773D01*
X0055030Y0140773D01*
X0053495Y0142307D01*
X0052728Y0143842D01*
X0052728Y0160458D02*
X0055030Y0160458D01*
X0054262Y0161993D01*
X0054262Y0162760D01*
X0055030Y0163527D01*
X0056564Y0163527D01*
X0057331Y0162760D01*
X0057331Y0161225D01*
X0056564Y0160458D01*
X0052728Y0160458D02*
X0052728Y0163527D01*
X0055030Y0181127D02*
X0055030Y0184196D01*
X0057331Y0183429D02*
X0052728Y0183429D01*
X0055030Y0181127D01*
X0056564Y0200812D02*
X0057331Y0201580D01*
X0057331Y0203114D01*
X0056564Y0203881D01*
X0055797Y0203881D01*
X0055030Y0203114D01*
X0055030Y0202347D01*
X0055030Y0203114D02*
X0054262Y0203881D01*
X0053495Y0203881D01*
X0052728Y0203114D01*
X0052728Y0201580D01*
X0053495Y0200812D01*
X0080743Y0202269D02*
X0082278Y0202269D01*
X0081511Y0202269D02*
X0081511Y0206873D01*
X0082278Y0206873D02*
X0080743Y0206873D01*
X0083813Y0206873D02*
X0086882Y0202269D01*
X0086882Y0206873D01*
X0088417Y0206873D02*
X0091486Y0206873D01*
X0089951Y0206873D02*
X0089951Y0202269D01*
X0093020Y0202269D02*
X0096090Y0202269D01*
X0094555Y0202269D02*
X0094555Y0206873D01*
X0093020Y0205338D01*
X0083813Y0206873D02*
X0083813Y0202269D01*
X0088417Y0221580D02*
X0091486Y0221580D01*
X0093020Y0224650D02*
X0096090Y0224650D01*
X0095322Y0226952D02*
X0093020Y0224650D01*
X0095322Y0222348D02*
X0095322Y0226952D01*
X0094535Y0233371D02*
X0093000Y0233371D01*
X0092233Y0234139D01*
X0092233Y0235673D02*
X0093768Y0236441D01*
X0094535Y0236441D01*
X0095302Y0235673D01*
X0095302Y0234139D01*
X0094535Y0233371D01*
X0092233Y0235673D02*
X0092233Y0237975D01*
X0095302Y0237975D01*
X0090698Y0232604D02*
X0087629Y0232604D01*
X0086094Y0233371D02*
X0084560Y0233371D01*
X0085327Y0233371D02*
X0085327Y0237975D01*
X0084560Y0237975D02*
X0086094Y0237975D01*
X0083025Y0237208D02*
X0082258Y0237975D01*
X0079956Y0237975D01*
X0079956Y0233371D01*
X0082258Y0233371D01*
X0083025Y0234139D01*
X0083025Y0237208D01*
X0083045Y0226952D02*
X0080743Y0226952D01*
X0080743Y0222348D01*
X0083045Y0222348D01*
X0083813Y0223115D01*
X0083813Y0226184D01*
X0083045Y0226952D01*
X0085347Y0226952D02*
X0086882Y0226952D01*
X0086115Y0226952D02*
X0086115Y0222348D01*
X0086882Y0222348D02*
X0085347Y0222348D01*
X0057331Y0223567D02*
X0057331Y0220497D01*
X0054262Y0223567D01*
X0053495Y0223567D01*
X0052728Y0222799D01*
X0052728Y0221265D01*
X0053495Y0220497D01*
X0054262Y0240182D02*
X0052728Y0241717D01*
X0057331Y0241717D01*
X0057331Y0240182D02*
X0057331Y0243252D01*
D11*
X0099147Y0239524D02*
X0102850Y0239524D01*
X0102850Y0241993D01*
X0102233Y0238310D02*
X0102850Y0237692D01*
X0102850Y0236458D01*
X0102233Y0235841D01*
X0099764Y0235841D01*
X0099147Y0236458D01*
X0099147Y0237692D01*
X0099764Y0238310D01*
X0099764Y0234626D02*
X0099147Y0234009D01*
X0099147Y0232775D01*
X0099764Y0232158D01*
X0100381Y0232158D01*
X0100998Y0232775D01*
X0100998Y0234009D01*
X0101616Y0234626D01*
X0102233Y0234626D01*
X0102850Y0234009D01*
X0102850Y0232775D01*
X0102233Y0232158D01*
X0109147Y0232775D02*
X0109147Y0234009D01*
X0109764Y0234626D01*
X0109147Y0235841D02*
X0109147Y0237692D01*
X0109764Y0238310D01*
X0112233Y0238310D01*
X0112850Y0237692D01*
X0112850Y0235841D01*
X0109147Y0235841D01*
X0110998Y0234009D02*
X0111616Y0234626D01*
X0112233Y0234626D01*
X0112850Y0234009D01*
X0112850Y0232775D01*
X0112233Y0232158D01*
X0110998Y0232775D02*
X0110998Y0234009D01*
X0110998Y0232775D02*
X0110381Y0232158D01*
X0109764Y0232158D01*
X0109147Y0232775D01*
X0110381Y0239524D02*
X0109147Y0240758D01*
X0110381Y0241993D01*
X0112850Y0241993D01*
X0110998Y0241993D02*
X0110998Y0239524D01*
X0110381Y0239524D02*
X0112850Y0239524D01*
X0119147Y0241986D02*
X0119764Y0241369D01*
X0122850Y0241369D01*
X0120998Y0240752D02*
X0120998Y0241986D01*
X0120998Y0239537D02*
X0120381Y0238920D01*
X0120381Y0237686D01*
X0120998Y0237069D01*
X0122233Y0237069D01*
X0122850Y0237686D01*
X0122850Y0238920D01*
X0121616Y0239537D02*
X0121616Y0237069D01*
X0120998Y0235854D02*
X0119764Y0235854D01*
X0119147Y0235237D01*
X0119147Y0233385D01*
X0122850Y0233385D01*
X0122850Y0232171D02*
X0120381Y0232171D01*
X0119147Y0230937D01*
X0120381Y0229702D01*
X0122850Y0229702D01*
X0120998Y0229702D02*
X0120998Y0232171D01*
X0121616Y0233385D02*
X0121616Y0235237D01*
X0120998Y0235854D01*
X0121616Y0234620D02*
X0122850Y0235854D01*
X0121616Y0239537D02*
X0120998Y0239537D01*
X0129147Y0241493D02*
X0132850Y0241493D01*
X0132850Y0239641D01*
X0132233Y0239024D01*
X0130998Y0239024D01*
X0130381Y0239641D01*
X0130381Y0241493D01*
X0130998Y0237810D02*
X0130381Y0237192D01*
X0130381Y0235341D01*
X0132850Y0235341D01*
X0132850Y0234126D02*
X0132850Y0232275D01*
X0132233Y0231658D01*
X0130998Y0231658D01*
X0130381Y0232275D01*
X0130381Y0234126D01*
X0133467Y0234126D01*
X0134084Y0233509D01*
X0134084Y0232892D01*
X0132850Y0237810D02*
X0130998Y0237810D01*
X0138284Y0237707D02*
X0140752Y0237707D01*
X0139518Y0237707D02*
X0139518Y0241410D01*
X0138284Y0240176D01*
X0141967Y0240793D02*
X0142584Y0241410D01*
X0143818Y0241410D01*
X0144436Y0240793D01*
X0144436Y0240176D01*
X0143818Y0239559D01*
X0144436Y0238941D01*
X0144436Y0238324D01*
X0143818Y0237707D01*
X0142584Y0237707D01*
X0141967Y0238324D01*
X0143201Y0239559D02*
X0143818Y0239559D01*
X0148284Y0240176D02*
X0149518Y0241410D01*
X0149518Y0237707D01*
X0148284Y0237707D02*
X0150752Y0237707D01*
X0151967Y0237707D02*
X0154436Y0240176D01*
X0154436Y0240793D01*
X0153818Y0241410D01*
X0152584Y0241410D01*
X0151967Y0240793D01*
X0151967Y0237707D02*
X0154436Y0237707D01*
X0158284Y0237707D02*
X0160752Y0237707D01*
X0161967Y0237707D02*
X0164436Y0237707D01*
X0163201Y0237707D02*
X0163201Y0241410D01*
X0161967Y0240176D01*
X0159518Y0241410D02*
X0159518Y0237707D01*
X0158284Y0240176D02*
X0159518Y0241410D01*
X0168284Y0240176D02*
X0169518Y0241410D01*
X0169518Y0237707D01*
X0168284Y0237707D02*
X0170752Y0237707D01*
X0171967Y0238324D02*
X0174436Y0240793D01*
X0174436Y0238324D01*
X0173818Y0237707D01*
X0172584Y0237707D01*
X0171967Y0238324D01*
X0171967Y0240793D01*
X0172584Y0241410D01*
X0173818Y0241410D01*
X0174436Y0240793D01*
X0179967Y0240793D02*
X0179967Y0240176D01*
X0180584Y0239559D01*
X0182436Y0239559D01*
X0182436Y0240793D02*
X0182436Y0238324D01*
X0181818Y0237707D01*
X0180584Y0237707D01*
X0179967Y0238324D01*
X0179967Y0240793D02*
X0180584Y0241410D01*
X0181818Y0241410D01*
X0182436Y0240793D01*
X0189967Y0240793D02*
X0189967Y0240176D01*
X0190584Y0239559D01*
X0191818Y0239559D01*
X0192436Y0238941D01*
X0192436Y0238324D01*
X0191818Y0237707D01*
X0190584Y0237707D01*
X0189967Y0238324D01*
X0189967Y0238941D01*
X0190584Y0239559D01*
X0191818Y0239559D02*
X0192436Y0240176D01*
X0192436Y0240793D01*
X0191818Y0241410D01*
X0190584Y0241410D01*
X0189967Y0240793D01*
X0184194Y0251707D02*
X0182960Y0251707D01*
X0182343Y0252324D01*
X0182343Y0254793D01*
X0182960Y0255410D01*
X0184194Y0255410D01*
X0184812Y0254793D01*
X0184812Y0252324D01*
X0184194Y0251707D01*
X0181128Y0255410D02*
X0178660Y0251707D01*
X0177439Y0251707D02*
X0176204Y0251707D01*
X0176821Y0251707D02*
X0176821Y0255410D01*
X0176204Y0255410D02*
X0177439Y0255410D01*
X0170683Y0255410D02*
X0170683Y0251707D01*
X0170066Y0251707D02*
X0171300Y0251707D01*
X0168851Y0251707D02*
X0168851Y0253559D01*
X0168234Y0254176D01*
X0167000Y0254176D01*
X0167000Y0252941D02*
X0168851Y0252941D01*
X0168851Y0251707D02*
X0167000Y0251707D01*
X0166383Y0252324D01*
X0167000Y0252941D01*
X0165162Y0251707D02*
X0164544Y0252324D01*
X0164544Y0254793D01*
X0163927Y0254176D02*
X0165162Y0254176D01*
X0162089Y0254176D02*
X0162089Y0251707D01*
X0161472Y0251707D02*
X0162706Y0251707D01*
X0160257Y0251707D02*
X0158406Y0251707D01*
X0157789Y0252324D01*
X0157789Y0253559D01*
X0158406Y0254176D01*
X0160257Y0254176D01*
X0160257Y0251090D01*
X0159640Y0250473D01*
X0159023Y0250473D01*
X0156568Y0251707D02*
X0155333Y0251707D01*
X0155950Y0251707D02*
X0155950Y0254176D01*
X0155333Y0254176D01*
X0154119Y0254793D02*
X0154119Y0252324D01*
X0153502Y0251707D01*
X0151650Y0251707D01*
X0151650Y0255410D01*
X0153502Y0255410D01*
X0154119Y0254793D01*
X0155950Y0255410D02*
X0155950Y0256027D01*
X0161472Y0254176D02*
X0162089Y0254176D01*
X0162089Y0255410D02*
X0162089Y0256027D01*
X0170066Y0255410D02*
X0170683Y0255410D01*
X0205967Y0241410D02*
X0208436Y0241410D01*
X0208436Y0240793D01*
X0205967Y0238324D01*
X0205967Y0237707D01*
X0215967Y0238324D02*
X0216584Y0237707D01*
X0217818Y0237707D01*
X0218436Y0238324D01*
X0218436Y0238941D01*
X0217818Y0239559D01*
X0215967Y0239559D01*
X0215967Y0238324D01*
X0215967Y0239559D02*
X0217201Y0240793D01*
X0218436Y0241410D01*
X0225967Y0241410D02*
X0225967Y0239559D01*
X0227201Y0240176D01*
X0227818Y0240176D01*
X0228436Y0239559D01*
X0228436Y0238324D01*
X0227818Y0237707D01*
X0226584Y0237707D01*
X0225967Y0238324D01*
X0225967Y0241410D02*
X0228436Y0241410D01*
X0235967Y0239559D02*
X0238436Y0239559D01*
X0237818Y0241410D02*
X0237818Y0237707D01*
X0235967Y0239559D02*
X0237818Y0241410D01*
X0245967Y0240793D02*
X0246584Y0241410D01*
X0247818Y0241410D01*
X0248436Y0240793D01*
X0248436Y0240176D01*
X0247818Y0239559D01*
X0248436Y0238941D01*
X0248436Y0238324D01*
X0247818Y0237707D01*
X0246584Y0237707D01*
X0245967Y0238324D01*
X0247201Y0239559D02*
X0247818Y0239559D01*
X0255967Y0240793D02*
X0256584Y0241410D01*
X0257818Y0241410D01*
X0258436Y0240793D01*
X0258436Y0240176D01*
X0255967Y0237707D01*
X0258436Y0237707D01*
X0265967Y0237707D02*
X0268436Y0237707D01*
X0267201Y0237707D02*
X0267201Y0241410D01*
X0265967Y0240176D01*
X0275967Y0240793D02*
X0275967Y0238324D01*
X0278436Y0240793D01*
X0278436Y0238324D01*
X0277818Y0237707D01*
X0276584Y0237707D01*
X0275967Y0238324D01*
X0275967Y0240793D02*
X0276584Y0241410D01*
X0277818Y0241410D01*
X0278436Y0240793D01*
X0260812Y0252324D02*
X0260812Y0254793D01*
X0260194Y0255410D01*
X0258960Y0255410D01*
X0258343Y0254793D01*
X0258343Y0252324D01*
X0258960Y0251707D01*
X0260194Y0251707D01*
X0260812Y0252324D01*
X0257128Y0255410D02*
X0254660Y0251707D01*
X0253439Y0251707D02*
X0252204Y0251707D01*
X0252821Y0251707D02*
X0252821Y0255410D01*
X0252204Y0255410D02*
X0253439Y0255410D01*
X0246683Y0255410D02*
X0246683Y0251707D01*
X0246066Y0251707D02*
X0247300Y0251707D01*
X0244851Y0251707D02*
X0244851Y0253559D01*
X0244234Y0254176D01*
X0243000Y0254176D01*
X0243000Y0252941D02*
X0244851Y0252941D01*
X0244851Y0251707D02*
X0243000Y0251707D01*
X0242383Y0252324D01*
X0243000Y0252941D01*
X0241162Y0251707D02*
X0240544Y0252324D01*
X0240544Y0254793D01*
X0239927Y0254176D02*
X0241162Y0254176D01*
X0238089Y0254176D02*
X0238089Y0251707D01*
X0237472Y0251707D02*
X0238706Y0251707D01*
X0236257Y0251707D02*
X0234406Y0251707D01*
X0233789Y0252324D01*
X0233789Y0253559D01*
X0234406Y0254176D01*
X0236257Y0254176D01*
X0236257Y0251090D01*
X0235640Y0250473D01*
X0235023Y0250473D01*
X0232568Y0251707D02*
X0231333Y0251707D01*
X0231950Y0251707D02*
X0231950Y0254176D01*
X0231333Y0254176D01*
X0230119Y0254793D02*
X0229502Y0255410D01*
X0227650Y0255410D01*
X0227650Y0251707D01*
X0229502Y0251707D01*
X0230119Y0252324D01*
X0230119Y0254793D01*
X0231950Y0255410D02*
X0231950Y0256027D01*
X0237472Y0254176D02*
X0238089Y0254176D01*
X0238089Y0255410D02*
X0238089Y0256027D01*
X0246066Y0255410D02*
X0246683Y0255410D01*
X0087379Y0147771D02*
X0084910Y0147771D01*
X0083696Y0147154D02*
X0083696Y0149623D01*
X0083696Y0147154D02*
X0082461Y0145920D01*
X0081227Y0147154D01*
X0081227Y0149623D01*
X0080012Y0149623D02*
X0077544Y0149623D01*
X0077544Y0147771D01*
X0078778Y0148388D01*
X0079395Y0148388D01*
X0080012Y0147771D01*
X0080012Y0146537D01*
X0079395Y0145920D01*
X0078161Y0145920D01*
X0077544Y0146537D01*
X0086144Y0146537D02*
X0086144Y0149006D01*
X0086368Y0129150D02*
X0084516Y0129150D01*
X0084516Y0125447D01*
X0086368Y0125447D01*
X0086985Y0126064D01*
X0086985Y0128533D01*
X0086368Y0129150D01*
X0083302Y0129150D02*
X0083302Y0125447D01*
X0080833Y0129150D01*
X0080833Y0125447D01*
X0079619Y0126064D02*
X0079619Y0127299D01*
X0078384Y0127299D01*
X0077150Y0128533D02*
X0077767Y0129150D01*
X0079002Y0129150D01*
X0079619Y0128533D01*
X0079619Y0126064D02*
X0079002Y0125447D01*
X0077767Y0125447D01*
X0077150Y0126064D01*
X0077150Y0128533D01*
X0077937Y0111434D02*
X0079789Y0111434D01*
X0080406Y0110817D01*
X0080406Y0109582D01*
X0079789Y0108965D01*
X0077937Y0108965D01*
X0077937Y0107731D02*
X0077937Y0111434D01*
X0081621Y0107114D02*
X0084089Y0107114D01*
X0085304Y0108348D02*
X0085921Y0107731D01*
X0087155Y0107731D01*
X0087772Y0108348D01*
X0087772Y0109582D01*
X0086538Y0109582D01*
X0085304Y0110817D02*
X0085304Y0108348D01*
X0085304Y0110817D02*
X0085921Y0111434D01*
X0087155Y0111434D01*
X0087772Y0110817D01*
X0088987Y0111434D02*
X0091456Y0107731D01*
X0091456Y0111434D01*
X0092670Y0111434D02*
X0092670Y0107731D01*
X0094522Y0107731D01*
X0095139Y0108348D01*
X0095139Y0110817D01*
X0094522Y0111434D01*
X0092670Y0111434D01*
X0088987Y0111434D02*
X0088987Y0107731D01*
X0089381Y0077576D02*
X0091849Y0073872D01*
X0089381Y0073872D02*
X0091849Y0077576D01*
X0088166Y0076958D02*
X0088166Y0074490D01*
X0087549Y0073872D01*
X0086315Y0073872D01*
X0085697Y0074490D01*
X0085697Y0076958D01*
X0086315Y0077576D01*
X0087549Y0077576D01*
X0088166Y0076958D01*
X0084483Y0076958D02*
X0084483Y0075724D01*
X0083866Y0075107D01*
X0082014Y0075107D01*
X0082014Y0073872D02*
X0082014Y0077576D01*
X0083866Y0077576D01*
X0084483Y0076958D01*
X0083249Y0075107D02*
X0084483Y0073872D01*
X0080800Y0075724D02*
X0080800Y0076958D01*
X0080183Y0077576D01*
X0078331Y0077576D01*
X0078331Y0073872D01*
X0078331Y0075107D02*
X0080183Y0075107D01*
X0080800Y0075724D01*
X0080693Y0068127D02*
X0082545Y0068127D01*
X0083162Y0067510D01*
X0083162Y0066275D01*
X0082545Y0065658D01*
X0080693Y0065658D01*
X0080693Y0064424D02*
X0080693Y0068127D01*
X0084376Y0068127D02*
X0084376Y0064424D01*
X0085611Y0065658D01*
X0086845Y0064424D01*
X0086845Y0068127D01*
X0088060Y0068127D02*
X0088060Y0064424D01*
X0088060Y0065658D02*
X0089911Y0065658D01*
X0090528Y0066275D01*
X0090528Y0067510D01*
X0089911Y0068127D01*
X0088060Y0068127D01*
X0089294Y0065658D02*
X0090528Y0064424D01*
X0145147Y0064740D02*
X0145764Y0064123D01*
X0148233Y0064123D01*
X0148850Y0064740D01*
X0148850Y0065974D01*
X0148233Y0066592D01*
X0145764Y0066592D01*
X0145147Y0065974D01*
X0145147Y0064740D01*
X0145147Y0062902D02*
X0145147Y0061667D01*
X0145147Y0062285D02*
X0148850Y0062285D01*
X0148850Y0062902D02*
X0148850Y0061667D01*
X0148850Y0067806D02*
X0146381Y0067806D01*
X0146381Y0069040D02*
X0146381Y0069657D01*
X0146381Y0069040D02*
X0147616Y0067806D01*
X0155147Y0067202D02*
X0155147Y0065968D01*
X0155764Y0065350D01*
X0156381Y0065350D01*
X0156998Y0065968D01*
X0156998Y0067202D01*
X0157616Y0067819D01*
X0158233Y0067819D01*
X0158850Y0067202D01*
X0158850Y0065968D01*
X0158233Y0065350D01*
X0158850Y0064136D02*
X0157616Y0062902D01*
X0157616Y0063519D02*
X0157616Y0061667D01*
X0158850Y0061667D02*
X0155147Y0061667D01*
X0155147Y0063519D01*
X0155764Y0064136D01*
X0156998Y0064136D01*
X0157616Y0063519D01*
X0155147Y0067202D02*
X0155764Y0067819D01*
X0155147Y0069034D02*
X0155147Y0071502D01*
X0155147Y0070268D02*
X0158850Y0070268D01*
X0163970Y0064793D02*
X0164587Y0065410D01*
X0165822Y0065410D01*
X0166439Y0064793D01*
X0166439Y0064176D01*
X0165822Y0063559D01*
X0166439Y0062941D01*
X0166439Y0062324D01*
X0165822Y0061707D01*
X0164587Y0061707D01*
X0163970Y0062324D01*
X0165204Y0063559D02*
X0165822Y0063559D01*
X0167653Y0064176D02*
X0168888Y0061707D01*
X0170122Y0064176D01*
X0174970Y0063559D02*
X0176204Y0064176D01*
X0176822Y0064176D01*
X0177439Y0063559D01*
X0177439Y0062324D01*
X0176822Y0061707D01*
X0175587Y0061707D01*
X0174970Y0062324D01*
X0174970Y0063559D02*
X0174970Y0065410D01*
X0177439Y0065410D01*
X0178653Y0064176D02*
X0179888Y0061707D01*
X0181122Y0064176D01*
X0187690Y0064793D02*
X0187690Y0062324D01*
X0188307Y0061707D01*
X0189541Y0061707D01*
X0190159Y0062324D01*
X0190159Y0063559D01*
X0188924Y0063559D01*
X0187690Y0064793D02*
X0188307Y0065410D01*
X0189541Y0065410D01*
X0190159Y0064793D01*
X0191373Y0064176D02*
X0193224Y0064176D01*
X0193842Y0063559D01*
X0193842Y0061707D01*
X0195056Y0062324D02*
X0195056Y0063559D01*
X0195673Y0064176D01*
X0197525Y0064176D01*
X0197525Y0065410D02*
X0197525Y0061707D01*
X0195673Y0061707D01*
X0195056Y0062324D01*
X0191373Y0061707D02*
X0191373Y0064176D01*
X0203470Y0065410D02*
X0203470Y0062941D01*
X0204704Y0061707D01*
X0205939Y0062941D01*
X0205939Y0065410D01*
X0207153Y0064176D02*
X0207770Y0064176D01*
X0207770Y0061707D01*
X0207153Y0061707D02*
X0208388Y0061707D01*
X0209609Y0061707D02*
X0209609Y0064176D01*
X0211460Y0064176D01*
X0212077Y0063559D01*
X0212077Y0061707D01*
X0207770Y0065410D02*
X0207770Y0066027D01*
X0225650Y0064793D02*
X0225650Y0062324D01*
X0228119Y0064793D01*
X0228119Y0062324D01*
X0227502Y0061707D01*
X0226267Y0061707D01*
X0225650Y0062324D01*
X0225650Y0064793D02*
X0226267Y0065410D01*
X0227502Y0065410D01*
X0228119Y0064793D01*
X0235650Y0064176D02*
X0236884Y0065410D01*
X0236884Y0061707D01*
X0235650Y0061707D02*
X0238119Y0061707D01*
X0245650Y0061707D02*
X0248119Y0064176D01*
X0248119Y0064793D01*
X0247502Y0065410D01*
X0246267Y0065410D01*
X0245650Y0064793D01*
X0245650Y0061707D02*
X0248119Y0061707D01*
X0255650Y0062324D02*
X0256267Y0061707D01*
X0257502Y0061707D01*
X0258119Y0062324D01*
X0258119Y0062941D01*
X0257502Y0063559D01*
X0256884Y0063559D01*
X0257502Y0063559D02*
X0258119Y0064176D01*
X0258119Y0064793D01*
X0257502Y0065410D01*
X0256267Y0065410D01*
X0255650Y0064793D01*
X0265650Y0063559D02*
X0268119Y0063559D01*
X0267502Y0065410D02*
X0265650Y0063559D01*
X0267502Y0065410D02*
X0267502Y0061707D01*
X0275650Y0062324D02*
X0276267Y0061707D01*
X0277502Y0061707D01*
X0278119Y0062324D01*
X0278119Y0063559D01*
X0277502Y0064176D01*
X0276884Y0064176D01*
X0275650Y0063559D01*
X0275650Y0065410D01*
X0278119Y0065410D01*
X0269051Y0050996D02*
X0269668Y0050379D01*
X0269668Y0048527D01*
X0267199Y0048527D02*
X0267199Y0050996D01*
X0269051Y0050996D01*
X0265978Y0052230D02*
X0264744Y0052230D01*
X0265361Y0052230D02*
X0265361Y0048527D01*
X0264744Y0048527D02*
X0265978Y0048527D01*
X0259847Y0048527D02*
X0257995Y0048527D01*
X0257378Y0049144D01*
X0257378Y0050379D01*
X0257995Y0050996D01*
X0259847Y0050996D01*
X0259847Y0047910D01*
X0259229Y0047293D01*
X0258612Y0047293D01*
X0256163Y0049144D02*
X0256163Y0050379D01*
X0255546Y0050996D01*
X0254312Y0050996D01*
X0253695Y0050379D01*
X0253695Y0049144D01*
X0254312Y0048527D01*
X0255546Y0048527D01*
X0256163Y0049144D01*
X0252474Y0048527D02*
X0251239Y0048527D01*
X0251856Y0048527D02*
X0251856Y0052230D01*
X0251239Y0052230D01*
X0249408Y0050996D02*
X0250025Y0050379D01*
X0250025Y0048527D01*
X0248173Y0048527D01*
X0247556Y0049144D01*
X0248173Y0049762D01*
X0250025Y0049762D01*
X0249408Y0050996D02*
X0248173Y0050996D01*
X0246342Y0050379D02*
X0246342Y0048527D01*
X0246342Y0050379D02*
X0245724Y0050996D01*
X0243873Y0050996D01*
X0243873Y0048527D01*
X0242659Y0048527D02*
X0242659Y0050996D01*
X0241424Y0052230D01*
X0240190Y0050996D01*
X0240190Y0048527D01*
X0240190Y0050379D02*
X0242659Y0050379D01*
D12*
X0027000Y0050557D02*
X0027000Y0042557D01*
X0023000Y0046557D02*
X0031000Y0046557D01*
X0083217Y0083211D02*
X0091217Y0083211D01*
X0087217Y0079211D02*
X0087217Y0087211D01*
X0087217Y0087596D02*
X0087217Y0095596D01*
X0087256Y0096002D02*
X0087256Y0104002D01*
X0083256Y0100002D02*
X0091256Y0100002D01*
X0091217Y0091596D02*
X0083217Y0091596D01*
X0100402Y0083152D02*
X0108402Y0083152D01*
X0104402Y0079152D02*
X0104402Y0087152D01*
X0116134Y0098187D02*
X0116134Y0106187D01*
X0112134Y0102187D02*
X0120134Y0102187D01*
X0141898Y0102069D02*
X0149898Y0102069D01*
X0145898Y0098069D02*
X0145898Y0106069D01*
X0178335Y0086951D02*
X0186335Y0086951D01*
X0182335Y0082951D02*
X0182335Y0090951D01*
X0182354Y0080695D02*
X0182354Y0072695D01*
X0178354Y0076695D02*
X0186354Y0076695D01*
X0202528Y0076478D02*
X0210528Y0076478D01*
X0206528Y0072478D02*
X0206528Y0080478D01*
X0184953Y0129998D02*
X0184953Y0137998D01*
X0180953Y0133998D02*
X0188953Y0133998D01*
X0228398Y0184053D02*
X0228398Y0192053D01*
X0224484Y0192620D02*
X0216484Y0192620D01*
X0220484Y0188620D02*
X0220484Y0196620D01*
X0220484Y0202951D02*
X0220484Y0210951D01*
X0216484Y0206951D02*
X0224484Y0206951D01*
X0228358Y0206148D02*
X0228358Y0198148D01*
X0224358Y0202148D02*
X0232358Y0202148D01*
X0249142Y0211872D02*
X0257142Y0211872D01*
X0253142Y0207872D02*
X0253142Y0215872D01*
X0257492Y0192604D02*
X0257492Y0184604D01*
X0253492Y0188604D02*
X0261492Y0188604D01*
X0232398Y0188053D02*
X0224398Y0188053D01*
X0179976Y0210396D02*
X0171976Y0210396D01*
X0175976Y0206396D02*
X0175976Y0214396D01*
X0156748Y0222994D02*
X0148748Y0222994D01*
X0152748Y0218994D02*
X0152748Y0226994D01*
X0125488Y0215061D02*
X0117488Y0215061D01*
X0121488Y0211061D02*
X0121488Y0219061D01*
X0121488Y0206463D02*
X0121488Y0198463D01*
X0117488Y0202463D02*
X0125488Y0202463D01*
X0095173Y0177266D02*
X0087173Y0177266D01*
X0091173Y0173266D02*
X0091173Y0181266D01*
X0051311Y0156384D02*
X0051311Y0148384D01*
X0047311Y0152384D02*
X0055311Y0152384D01*
X0195677Y0225553D02*
X0203677Y0225553D01*
X0199677Y0221553D02*
X0199677Y0229553D01*
X0208102Y0278778D02*
X0208102Y0286778D01*
X0204102Y0282778D02*
X0212102Y0282778D01*
X0221819Y0282778D02*
X0229819Y0282778D01*
X0225819Y0278778D02*
X0225819Y0286778D01*
X0194386Y0282778D02*
X0186386Y0282778D01*
X0190386Y0278778D02*
X0190386Y0286778D01*
X0176669Y0282778D02*
X0168669Y0282778D01*
X0172669Y0278778D02*
X0172669Y0286778D01*
X0361976Y0263880D02*
X0369976Y0263880D01*
X0370402Y0263998D02*
X0378402Y0263998D01*
X0374402Y0259998D02*
X0374402Y0267998D01*
X0365976Y0267880D02*
X0365976Y0259880D01*
X0365976Y0252132D02*
X0365976Y0244132D01*
X0361976Y0248132D02*
X0369976Y0248132D01*
X0370480Y0248348D02*
X0378480Y0248348D01*
X0374480Y0244348D02*
X0374480Y0252348D01*
X0379575Y0256301D02*
X0387575Y0256301D01*
X0383575Y0252301D02*
X0383575Y0260301D01*
X0392783Y0261341D02*
X0400783Y0261341D01*
X0396783Y0257341D02*
X0396783Y0265341D01*
X0374008Y0196541D02*
X0374008Y0188541D01*
X0369976Y0192226D02*
X0361976Y0192226D01*
X0365976Y0188226D02*
X0365976Y0196226D01*
X0370008Y0192541D02*
X0378008Y0192541D01*
X0383575Y0188411D02*
X0383575Y0180411D01*
X0379575Y0184411D02*
X0387575Y0184411D01*
X0393177Y0189352D02*
X0401177Y0189352D01*
X0397177Y0185352D02*
X0397177Y0193352D01*
X0378283Y0176498D02*
X0370283Y0176498D01*
X0369976Y0176478D02*
X0361976Y0176478D01*
X0365976Y0172478D02*
X0365976Y0180478D01*
X0374283Y0180498D02*
X0374283Y0172498D01*
X0374008Y0123864D02*
X0374008Y0115864D01*
X0370008Y0119864D02*
X0378008Y0119864D01*
X0383890Y0115813D02*
X0383890Y0107813D01*
X0379890Y0111813D02*
X0387890Y0111813D01*
X0393177Y0116774D02*
X0401177Y0116774D01*
X0397177Y0112774D02*
X0397177Y0120774D01*
X0378087Y0104431D02*
X0370087Y0104431D01*
X0369583Y0104431D02*
X0361583Y0104431D01*
X0365583Y0100431D02*
X0365583Y0108431D01*
X0365189Y0115785D02*
X0365189Y0123785D01*
X0361189Y0119785D02*
X0369189Y0119785D01*
X0374087Y0108431D02*
X0374087Y0100431D01*
X0374008Y0053313D02*
X0374008Y0045313D01*
X0370008Y0049313D02*
X0378008Y0049313D01*
X0383890Y0045104D02*
X0383890Y0037104D01*
X0379890Y0041104D02*
X0387890Y0041104D01*
X0392587Y0046163D02*
X0400587Y0046163D01*
X0396587Y0042163D02*
X0396587Y0050163D01*
X0378087Y0033506D02*
X0370087Y0033506D01*
X0369583Y0033171D02*
X0361583Y0033171D01*
X0365583Y0029171D02*
X0365583Y0037171D01*
X0365583Y0045313D02*
X0365583Y0053313D01*
X0361583Y0049313D02*
X0369583Y0049313D01*
X0374087Y0037506D02*
X0374087Y0029506D01*
D13*
X0379244Y0029175D02*
X0388535Y0029175D01*
X0388535Y0053033D01*
X0379244Y0053033D01*
X0379244Y0029175D01*
X0388218Y0027010D02*
X0388220Y0027085D01*
X0388226Y0027160D01*
X0388236Y0027234D01*
X0388250Y0027308D01*
X0388267Y0027381D01*
X0388289Y0027452D01*
X0388314Y0027523D01*
X0388343Y0027592D01*
X0388375Y0027660D01*
X0388411Y0027725D01*
X0388451Y0027789D01*
X0388494Y0027851D01*
X0388540Y0027910D01*
X0388589Y0027967D01*
X0388641Y0028021D01*
X0388695Y0028072D01*
X0388753Y0028120D01*
X0388812Y0028165D01*
X0388875Y0028207D01*
X0388939Y0028246D01*
X0389005Y0028281D01*
X0389073Y0028313D01*
X0389143Y0028341D01*
X0389213Y0028365D01*
X0389286Y0028386D01*
X0389359Y0028402D01*
X0389433Y0028415D01*
X0389507Y0028424D01*
X0389582Y0028429D01*
X0389657Y0028430D01*
X0389732Y0028427D01*
X0389806Y0028420D01*
X0389880Y0028409D01*
X0389954Y0028394D01*
X0390027Y0028376D01*
X0390098Y0028353D01*
X0390168Y0028327D01*
X0390237Y0028297D01*
X0390304Y0028264D01*
X0390370Y0028227D01*
X0390433Y0028187D01*
X0390494Y0028143D01*
X0390552Y0028096D01*
X0390608Y0028047D01*
X0390662Y0027994D01*
X0390712Y0027939D01*
X0390760Y0027881D01*
X0390804Y0027820D01*
X0390845Y0027758D01*
X0390883Y0027693D01*
X0390917Y0027626D01*
X0390948Y0027558D01*
X0390975Y0027488D01*
X0390999Y0027417D01*
X0391018Y0027344D01*
X0391034Y0027271D01*
X0391046Y0027197D01*
X0391054Y0027122D01*
X0391058Y0027047D01*
X0391058Y0026973D01*
X0391054Y0026898D01*
X0391046Y0026823D01*
X0391034Y0026749D01*
X0391018Y0026676D01*
X0390999Y0026603D01*
X0390975Y0026532D01*
X0390948Y0026462D01*
X0390917Y0026394D01*
X0390883Y0026327D01*
X0390845Y0026262D01*
X0390804Y0026200D01*
X0390760Y0026139D01*
X0390712Y0026081D01*
X0390662Y0026026D01*
X0390608Y0025973D01*
X0390552Y0025924D01*
X0390494Y0025877D01*
X0390433Y0025833D01*
X0390370Y0025793D01*
X0390304Y0025756D01*
X0390237Y0025723D01*
X0390168Y0025693D01*
X0390098Y0025667D01*
X0390027Y0025644D01*
X0389954Y0025626D01*
X0389880Y0025611D01*
X0389806Y0025600D01*
X0389732Y0025593D01*
X0389657Y0025590D01*
X0389582Y0025591D01*
X0389507Y0025596D01*
X0389433Y0025605D01*
X0389359Y0025618D01*
X0389286Y0025634D01*
X0389213Y0025655D01*
X0389143Y0025679D01*
X0389073Y0025707D01*
X0389005Y0025739D01*
X0388939Y0025774D01*
X0388875Y0025813D01*
X0388812Y0025855D01*
X0388753Y0025900D01*
X0388695Y0025948D01*
X0388641Y0025999D01*
X0388589Y0026053D01*
X0388540Y0026110D01*
X0388494Y0026169D01*
X0388451Y0026231D01*
X0388411Y0026295D01*
X0388375Y0026360D01*
X0388343Y0026428D01*
X0388314Y0026497D01*
X0388289Y0026568D01*
X0388267Y0026639D01*
X0388250Y0026712D01*
X0388236Y0026786D01*
X0388226Y0026860D01*
X0388220Y0026935D01*
X0388218Y0027010D01*
X0392059Y0017817D02*
X0447571Y0017817D01*
X0447571Y0022541D01*
X0447571Y0069785D01*
X0447768Y0069785D01*
X0449736Y0022935D01*
X0447571Y0022541D02*
X0452492Y0022541D01*
X0449736Y0069785D01*
X0455248Y0069785D01*
X0458004Y0022541D01*
X0452492Y0022541D01*
X0455248Y0022935D02*
X0452492Y0069392D01*
X0449736Y0069785D02*
X0447768Y0069785D01*
X0447571Y0069785D02*
X0447571Y0074510D01*
X0392059Y0074510D01*
X0392059Y0017817D01*
X0458004Y0022541D02*
X0465878Y0022541D01*
X0463516Y0069785D01*
X0470996Y0069785D01*
X0473358Y0022541D01*
X0470996Y0022541D01*
X0468634Y0069392D01*
X0466272Y0069392D02*
X0468634Y0022541D01*
X0465878Y0022541D01*
X0468634Y0022541D02*
X0470996Y0022541D01*
X0473358Y0022541D02*
X0476114Y0022541D01*
X0473358Y0069785D01*
X0475327Y0069785D01*
X0478083Y0022541D01*
X0476114Y0022541D01*
X0478083Y0022541D02*
X0480839Y0022541D01*
X0478083Y0069785D01*
X0481429Y0069785D01*
X0481429Y0022541D01*
X0480839Y0022541D01*
X0463122Y0022935D02*
X0461154Y0069785D01*
X0463516Y0069785D01*
X0461154Y0069785D02*
X0458004Y0069785D01*
X0460366Y0022935D01*
X0458004Y0069785D02*
X0455248Y0069785D01*
X0470996Y0069785D02*
X0473358Y0069785D01*
X0475327Y0069785D02*
X0478083Y0069785D01*
X0448161Y0088427D02*
X0448161Y0093152D01*
X0448161Y0140396D01*
X0448358Y0140396D01*
X0450327Y0093545D01*
X0448161Y0093152D02*
X0453083Y0093152D01*
X0450327Y0140396D01*
X0455839Y0140396D01*
X0458594Y0093152D01*
X0453083Y0093152D01*
X0455839Y0093545D02*
X0453083Y0140002D01*
X0455839Y0140396D02*
X0458594Y0140396D01*
X0460957Y0093545D01*
X0458594Y0093152D02*
X0466469Y0093152D01*
X0464106Y0140396D01*
X0471587Y0140396D01*
X0473949Y0093152D01*
X0471587Y0093152D01*
X0469224Y0140002D01*
X0466862Y0140002D02*
X0469224Y0093152D01*
X0466469Y0093152D01*
X0469224Y0093152D02*
X0471587Y0093152D01*
X0473949Y0093152D02*
X0476705Y0093152D01*
X0473949Y0140396D01*
X0475917Y0140396D01*
X0478673Y0093152D01*
X0476705Y0093152D01*
X0478673Y0093152D02*
X0481429Y0093152D01*
X0478673Y0140396D01*
X0482020Y0140396D01*
X0482020Y0093152D01*
X0481429Y0093152D01*
X0463713Y0093545D02*
X0461744Y0140396D01*
X0464106Y0140396D01*
X0461744Y0140396D02*
X0458594Y0140396D01*
X0450327Y0140396D02*
X0448358Y0140396D01*
X0448161Y0140396D02*
X0448161Y0145120D01*
X0392650Y0145120D01*
X0392650Y0088427D01*
X0448161Y0088427D01*
X0388218Y0097719D02*
X0388220Y0097794D01*
X0388226Y0097869D01*
X0388236Y0097943D01*
X0388250Y0098017D01*
X0388267Y0098090D01*
X0388289Y0098161D01*
X0388314Y0098232D01*
X0388343Y0098301D01*
X0388375Y0098369D01*
X0388411Y0098434D01*
X0388451Y0098498D01*
X0388494Y0098560D01*
X0388540Y0098619D01*
X0388589Y0098676D01*
X0388641Y0098730D01*
X0388695Y0098781D01*
X0388753Y0098829D01*
X0388812Y0098874D01*
X0388875Y0098916D01*
X0388939Y0098955D01*
X0389005Y0098990D01*
X0389073Y0099022D01*
X0389143Y0099050D01*
X0389213Y0099074D01*
X0389286Y0099095D01*
X0389359Y0099111D01*
X0389433Y0099124D01*
X0389507Y0099133D01*
X0389582Y0099138D01*
X0389657Y0099139D01*
X0389732Y0099136D01*
X0389806Y0099129D01*
X0389880Y0099118D01*
X0389954Y0099103D01*
X0390027Y0099085D01*
X0390098Y0099062D01*
X0390168Y0099036D01*
X0390237Y0099006D01*
X0390304Y0098973D01*
X0390370Y0098936D01*
X0390433Y0098896D01*
X0390494Y0098852D01*
X0390552Y0098805D01*
X0390608Y0098756D01*
X0390662Y0098703D01*
X0390712Y0098648D01*
X0390760Y0098590D01*
X0390804Y0098529D01*
X0390845Y0098467D01*
X0390883Y0098402D01*
X0390917Y0098335D01*
X0390948Y0098267D01*
X0390975Y0098197D01*
X0390999Y0098126D01*
X0391018Y0098053D01*
X0391034Y0097980D01*
X0391046Y0097906D01*
X0391054Y0097831D01*
X0391058Y0097756D01*
X0391058Y0097682D01*
X0391054Y0097607D01*
X0391046Y0097532D01*
X0391034Y0097458D01*
X0391018Y0097385D01*
X0390999Y0097312D01*
X0390975Y0097241D01*
X0390948Y0097171D01*
X0390917Y0097103D01*
X0390883Y0097036D01*
X0390845Y0096971D01*
X0390804Y0096909D01*
X0390760Y0096848D01*
X0390712Y0096790D01*
X0390662Y0096735D01*
X0390608Y0096682D01*
X0390552Y0096633D01*
X0390494Y0096586D01*
X0390433Y0096542D01*
X0390370Y0096502D01*
X0390304Y0096465D01*
X0390237Y0096432D01*
X0390168Y0096402D01*
X0390098Y0096376D01*
X0390027Y0096353D01*
X0389954Y0096335D01*
X0389880Y0096320D01*
X0389806Y0096309D01*
X0389732Y0096302D01*
X0389657Y0096299D01*
X0389582Y0096300D01*
X0389507Y0096305D01*
X0389433Y0096314D01*
X0389359Y0096327D01*
X0389286Y0096343D01*
X0389213Y0096364D01*
X0389143Y0096388D01*
X0389073Y0096416D01*
X0389005Y0096448D01*
X0388939Y0096483D01*
X0388875Y0096522D01*
X0388812Y0096564D01*
X0388753Y0096609D01*
X0388695Y0096657D01*
X0388641Y0096708D01*
X0388589Y0096762D01*
X0388540Y0096819D01*
X0388494Y0096878D01*
X0388451Y0096940D01*
X0388411Y0097004D01*
X0388375Y0097069D01*
X0388343Y0097137D01*
X0388314Y0097206D01*
X0388289Y0097277D01*
X0388267Y0097348D01*
X0388250Y0097421D01*
X0388236Y0097495D01*
X0388226Y0097569D01*
X0388220Y0097644D01*
X0388218Y0097719D01*
X0388535Y0099884D02*
X0379244Y0099884D01*
X0379244Y0123742D01*
X0388535Y0123742D01*
X0388535Y0099884D01*
X0471587Y0140396D02*
X0473949Y0140396D01*
X0475917Y0140396D02*
X0478673Y0140396D01*
X0478673Y0165730D02*
X0476705Y0165730D01*
X0473949Y0212974D01*
X0475917Y0212974D01*
X0478673Y0165730D01*
X0481429Y0165730D01*
X0478673Y0212974D01*
X0482020Y0212974D01*
X0482020Y0165730D01*
X0481429Y0165730D01*
X0476705Y0165730D02*
X0473949Y0165730D01*
X0471587Y0212974D01*
X0473949Y0212974D01*
X0475917Y0212974D02*
X0478673Y0212974D01*
X0471587Y0212974D02*
X0464106Y0212974D01*
X0466469Y0165730D01*
X0458594Y0165730D01*
X0455839Y0212974D01*
X0458594Y0212974D01*
X0460957Y0166124D01*
X0458594Y0165730D02*
X0453083Y0165730D01*
X0450327Y0212974D01*
X0455839Y0212974D01*
X0458594Y0212974D02*
X0461744Y0212974D01*
X0463713Y0166124D01*
X0466469Y0165730D02*
X0469224Y0165730D01*
X0466862Y0212581D01*
X0469224Y0212581D02*
X0471587Y0165730D01*
X0469224Y0165730D01*
X0471587Y0165730D02*
X0473949Y0165730D01*
X0455839Y0166124D02*
X0453083Y0212581D01*
X0450327Y0212974D02*
X0448358Y0212974D01*
X0450327Y0166124D01*
X0448161Y0165730D02*
X0453083Y0165730D01*
X0448161Y0165730D02*
X0448161Y0161006D01*
X0392650Y0161006D01*
X0392650Y0217699D01*
X0448161Y0217699D01*
X0448161Y0212974D01*
X0448161Y0165730D01*
X0387903Y0170317D02*
X0387905Y0170392D01*
X0387911Y0170467D01*
X0387921Y0170541D01*
X0387935Y0170615D01*
X0387952Y0170688D01*
X0387974Y0170759D01*
X0387999Y0170830D01*
X0388028Y0170899D01*
X0388060Y0170967D01*
X0388096Y0171032D01*
X0388136Y0171096D01*
X0388179Y0171158D01*
X0388225Y0171217D01*
X0388274Y0171274D01*
X0388326Y0171328D01*
X0388380Y0171379D01*
X0388438Y0171427D01*
X0388497Y0171472D01*
X0388560Y0171514D01*
X0388624Y0171553D01*
X0388690Y0171588D01*
X0388758Y0171620D01*
X0388828Y0171648D01*
X0388898Y0171672D01*
X0388971Y0171693D01*
X0389044Y0171709D01*
X0389118Y0171722D01*
X0389192Y0171731D01*
X0389267Y0171736D01*
X0389342Y0171737D01*
X0389417Y0171734D01*
X0389491Y0171727D01*
X0389565Y0171716D01*
X0389639Y0171701D01*
X0389712Y0171683D01*
X0389783Y0171660D01*
X0389853Y0171634D01*
X0389922Y0171604D01*
X0389989Y0171571D01*
X0390055Y0171534D01*
X0390118Y0171494D01*
X0390179Y0171450D01*
X0390237Y0171403D01*
X0390293Y0171354D01*
X0390347Y0171301D01*
X0390397Y0171246D01*
X0390445Y0171188D01*
X0390489Y0171127D01*
X0390530Y0171065D01*
X0390568Y0171000D01*
X0390602Y0170933D01*
X0390633Y0170865D01*
X0390660Y0170795D01*
X0390684Y0170724D01*
X0390703Y0170651D01*
X0390719Y0170578D01*
X0390731Y0170504D01*
X0390739Y0170429D01*
X0390743Y0170354D01*
X0390743Y0170280D01*
X0390739Y0170205D01*
X0390731Y0170130D01*
X0390719Y0170056D01*
X0390703Y0169983D01*
X0390684Y0169910D01*
X0390660Y0169839D01*
X0390633Y0169769D01*
X0390602Y0169701D01*
X0390568Y0169634D01*
X0390530Y0169569D01*
X0390489Y0169507D01*
X0390445Y0169446D01*
X0390397Y0169388D01*
X0390347Y0169333D01*
X0390293Y0169280D01*
X0390237Y0169231D01*
X0390179Y0169184D01*
X0390118Y0169140D01*
X0390055Y0169100D01*
X0389989Y0169063D01*
X0389922Y0169030D01*
X0389853Y0169000D01*
X0389783Y0168974D01*
X0389712Y0168951D01*
X0389639Y0168933D01*
X0389565Y0168918D01*
X0389491Y0168907D01*
X0389417Y0168900D01*
X0389342Y0168897D01*
X0389267Y0168898D01*
X0389192Y0168903D01*
X0389118Y0168912D01*
X0389044Y0168925D01*
X0388971Y0168941D01*
X0388898Y0168962D01*
X0388828Y0168986D01*
X0388758Y0169014D01*
X0388690Y0169046D01*
X0388624Y0169081D01*
X0388560Y0169120D01*
X0388497Y0169162D01*
X0388438Y0169207D01*
X0388380Y0169255D01*
X0388326Y0169306D01*
X0388274Y0169360D01*
X0388225Y0169417D01*
X0388179Y0169476D01*
X0388136Y0169538D01*
X0388096Y0169602D01*
X0388060Y0169667D01*
X0388028Y0169735D01*
X0387999Y0169804D01*
X0387974Y0169875D01*
X0387952Y0169946D01*
X0387935Y0170019D01*
X0387921Y0170093D01*
X0387911Y0170167D01*
X0387905Y0170242D01*
X0387903Y0170317D01*
X0388220Y0172482D02*
X0378929Y0172482D01*
X0378929Y0196341D01*
X0388220Y0196341D01*
X0388220Y0172482D01*
X0448161Y0212974D02*
X0448358Y0212974D01*
X0461744Y0212974D02*
X0464106Y0212974D01*
X0447768Y0232994D02*
X0447768Y0237719D01*
X0447768Y0284963D01*
X0447965Y0284963D01*
X0449933Y0238112D01*
X0447768Y0237719D02*
X0452689Y0237719D01*
X0449933Y0284963D01*
X0455445Y0284963D01*
X0458201Y0237719D01*
X0452689Y0237719D01*
X0455445Y0238112D02*
X0452689Y0284569D01*
X0455445Y0284963D02*
X0458201Y0284963D01*
X0460563Y0238112D01*
X0458201Y0237719D02*
X0466075Y0237719D01*
X0463713Y0284963D01*
X0471193Y0284963D01*
X0473555Y0237719D01*
X0471193Y0237719D01*
X0468831Y0284569D01*
X0466469Y0284569D02*
X0468831Y0237719D01*
X0466075Y0237719D01*
X0468831Y0237719D02*
X0471193Y0237719D01*
X0473555Y0237719D02*
X0476311Y0237719D01*
X0473555Y0284963D01*
X0475524Y0284963D01*
X0478280Y0237719D01*
X0476311Y0237719D01*
X0478280Y0237719D02*
X0481035Y0237719D01*
X0478280Y0284963D01*
X0481626Y0284963D01*
X0481626Y0237719D01*
X0481035Y0237719D01*
X0463319Y0238112D02*
X0461350Y0284963D01*
X0463713Y0284963D01*
X0461350Y0284963D02*
X0458201Y0284963D01*
X0449933Y0284963D02*
X0447965Y0284963D01*
X0447768Y0284963D02*
X0447768Y0289687D01*
X0392256Y0289687D01*
X0392256Y0232994D01*
X0447768Y0232994D01*
X0387903Y0242207D02*
X0387905Y0242282D01*
X0387911Y0242357D01*
X0387921Y0242431D01*
X0387935Y0242505D01*
X0387952Y0242578D01*
X0387974Y0242649D01*
X0387999Y0242720D01*
X0388028Y0242789D01*
X0388060Y0242857D01*
X0388096Y0242922D01*
X0388136Y0242986D01*
X0388179Y0243048D01*
X0388225Y0243107D01*
X0388274Y0243164D01*
X0388326Y0243218D01*
X0388380Y0243269D01*
X0388438Y0243317D01*
X0388497Y0243362D01*
X0388560Y0243404D01*
X0388624Y0243443D01*
X0388690Y0243478D01*
X0388758Y0243510D01*
X0388828Y0243538D01*
X0388898Y0243562D01*
X0388971Y0243583D01*
X0389044Y0243599D01*
X0389118Y0243612D01*
X0389192Y0243621D01*
X0389267Y0243626D01*
X0389342Y0243627D01*
X0389417Y0243624D01*
X0389491Y0243617D01*
X0389565Y0243606D01*
X0389639Y0243591D01*
X0389712Y0243573D01*
X0389783Y0243550D01*
X0389853Y0243524D01*
X0389922Y0243494D01*
X0389989Y0243461D01*
X0390055Y0243424D01*
X0390118Y0243384D01*
X0390179Y0243340D01*
X0390237Y0243293D01*
X0390293Y0243244D01*
X0390347Y0243191D01*
X0390397Y0243136D01*
X0390445Y0243078D01*
X0390489Y0243017D01*
X0390530Y0242955D01*
X0390568Y0242890D01*
X0390602Y0242823D01*
X0390633Y0242755D01*
X0390660Y0242685D01*
X0390684Y0242614D01*
X0390703Y0242541D01*
X0390719Y0242468D01*
X0390731Y0242394D01*
X0390739Y0242319D01*
X0390743Y0242244D01*
X0390743Y0242170D01*
X0390739Y0242095D01*
X0390731Y0242020D01*
X0390719Y0241946D01*
X0390703Y0241873D01*
X0390684Y0241800D01*
X0390660Y0241729D01*
X0390633Y0241659D01*
X0390602Y0241591D01*
X0390568Y0241524D01*
X0390530Y0241459D01*
X0390489Y0241397D01*
X0390445Y0241336D01*
X0390397Y0241278D01*
X0390347Y0241223D01*
X0390293Y0241170D01*
X0390237Y0241121D01*
X0390179Y0241074D01*
X0390118Y0241030D01*
X0390055Y0240990D01*
X0389989Y0240953D01*
X0389922Y0240920D01*
X0389853Y0240890D01*
X0389783Y0240864D01*
X0389712Y0240841D01*
X0389639Y0240823D01*
X0389565Y0240808D01*
X0389491Y0240797D01*
X0389417Y0240790D01*
X0389342Y0240787D01*
X0389267Y0240788D01*
X0389192Y0240793D01*
X0389118Y0240802D01*
X0389044Y0240815D01*
X0388971Y0240831D01*
X0388898Y0240852D01*
X0388828Y0240876D01*
X0388758Y0240904D01*
X0388690Y0240936D01*
X0388624Y0240971D01*
X0388560Y0241010D01*
X0388497Y0241052D01*
X0388438Y0241097D01*
X0388380Y0241145D01*
X0388326Y0241196D01*
X0388274Y0241250D01*
X0388225Y0241307D01*
X0388179Y0241366D01*
X0388136Y0241428D01*
X0388096Y0241492D01*
X0388060Y0241557D01*
X0388028Y0241625D01*
X0387999Y0241694D01*
X0387974Y0241765D01*
X0387952Y0241836D01*
X0387935Y0241909D01*
X0387921Y0241983D01*
X0387911Y0242057D01*
X0387905Y0242132D01*
X0387903Y0242207D01*
X0388220Y0244372D02*
X0378929Y0244372D01*
X0378929Y0268230D01*
X0388220Y0268230D01*
X0388220Y0244372D01*
X0471193Y0284963D02*
X0473555Y0284963D01*
X0475524Y0284963D02*
X0478280Y0284963D01*
X0261000Y0226864D02*
X0261000Y0196880D01*
X0259031Y0196880D01*
X0259031Y0226864D01*
X0261000Y0226864D01*
X0259031Y0226864D02*
X0245283Y0226864D01*
X0245283Y0196880D01*
X0259031Y0196880D01*
X0256473Y0198356D02*
X0256475Y0198412D01*
X0256481Y0198467D01*
X0256491Y0198521D01*
X0256504Y0198575D01*
X0256522Y0198628D01*
X0256543Y0198679D01*
X0256567Y0198729D01*
X0256595Y0198777D01*
X0256627Y0198823D01*
X0256661Y0198867D01*
X0256699Y0198908D01*
X0256739Y0198946D01*
X0256782Y0198981D01*
X0256827Y0199013D01*
X0256875Y0199042D01*
X0256924Y0199068D01*
X0256975Y0199090D01*
X0257027Y0199108D01*
X0257081Y0199122D01*
X0257136Y0199133D01*
X0257191Y0199140D01*
X0257246Y0199143D01*
X0257302Y0199142D01*
X0257357Y0199137D01*
X0257412Y0199128D01*
X0257466Y0199116D01*
X0257519Y0199099D01*
X0257571Y0199079D01*
X0257621Y0199055D01*
X0257669Y0199028D01*
X0257716Y0198998D01*
X0257760Y0198964D01*
X0257802Y0198927D01*
X0257840Y0198887D01*
X0257877Y0198845D01*
X0257910Y0198800D01*
X0257939Y0198754D01*
X0257966Y0198705D01*
X0257988Y0198654D01*
X0258008Y0198602D01*
X0258023Y0198548D01*
X0258035Y0198494D01*
X0258043Y0198439D01*
X0258047Y0198384D01*
X0258047Y0198328D01*
X0258043Y0198273D01*
X0258035Y0198218D01*
X0258023Y0198164D01*
X0258008Y0198110D01*
X0257988Y0198058D01*
X0257966Y0198007D01*
X0257939Y0197958D01*
X0257910Y0197912D01*
X0257877Y0197867D01*
X0257840Y0197825D01*
X0257802Y0197785D01*
X0257760Y0197748D01*
X0257716Y0197714D01*
X0257669Y0197684D01*
X0257621Y0197657D01*
X0257571Y0197633D01*
X0257519Y0197613D01*
X0257466Y0197596D01*
X0257412Y0197584D01*
X0257357Y0197575D01*
X0257302Y0197570D01*
X0257246Y0197569D01*
X0257191Y0197572D01*
X0257136Y0197579D01*
X0257081Y0197590D01*
X0257027Y0197604D01*
X0256975Y0197622D01*
X0256924Y0197644D01*
X0256875Y0197670D01*
X0256827Y0197699D01*
X0256782Y0197731D01*
X0256739Y0197766D01*
X0256699Y0197804D01*
X0256661Y0197845D01*
X0256627Y0197889D01*
X0256595Y0197935D01*
X0256567Y0197983D01*
X0256543Y0198033D01*
X0256522Y0198084D01*
X0256504Y0198137D01*
X0256491Y0198191D01*
X0256481Y0198245D01*
X0256475Y0198300D01*
X0256473Y0198356D01*
X0186409Y0196222D02*
X0165543Y0196222D01*
X0165543Y0224569D01*
X0186409Y0224569D01*
X0186409Y0196222D01*
X0163197Y0225880D02*
X0163199Y0225936D01*
X0163205Y0225991D01*
X0163215Y0226045D01*
X0163228Y0226099D01*
X0163246Y0226152D01*
X0163267Y0226203D01*
X0163291Y0226253D01*
X0163319Y0226301D01*
X0163351Y0226347D01*
X0163385Y0226391D01*
X0163423Y0226432D01*
X0163463Y0226470D01*
X0163506Y0226505D01*
X0163551Y0226537D01*
X0163599Y0226566D01*
X0163648Y0226592D01*
X0163699Y0226614D01*
X0163751Y0226632D01*
X0163805Y0226646D01*
X0163860Y0226657D01*
X0163915Y0226664D01*
X0163970Y0226667D01*
X0164026Y0226666D01*
X0164081Y0226661D01*
X0164136Y0226652D01*
X0164190Y0226640D01*
X0164243Y0226623D01*
X0164295Y0226603D01*
X0164345Y0226579D01*
X0164393Y0226552D01*
X0164440Y0226522D01*
X0164484Y0226488D01*
X0164526Y0226451D01*
X0164564Y0226411D01*
X0164601Y0226369D01*
X0164634Y0226324D01*
X0164663Y0226278D01*
X0164690Y0226229D01*
X0164712Y0226178D01*
X0164732Y0226126D01*
X0164747Y0226072D01*
X0164759Y0226018D01*
X0164767Y0225963D01*
X0164771Y0225908D01*
X0164771Y0225852D01*
X0164767Y0225797D01*
X0164759Y0225742D01*
X0164747Y0225688D01*
X0164732Y0225634D01*
X0164712Y0225582D01*
X0164690Y0225531D01*
X0164663Y0225482D01*
X0164634Y0225436D01*
X0164601Y0225391D01*
X0164564Y0225349D01*
X0164526Y0225309D01*
X0164484Y0225272D01*
X0164440Y0225238D01*
X0164393Y0225208D01*
X0164345Y0225181D01*
X0164295Y0225157D01*
X0164243Y0225137D01*
X0164190Y0225120D01*
X0164136Y0225108D01*
X0164081Y0225099D01*
X0164026Y0225094D01*
X0163970Y0225093D01*
X0163915Y0225096D01*
X0163860Y0225103D01*
X0163805Y0225114D01*
X0163751Y0225128D01*
X0163699Y0225146D01*
X0163648Y0225168D01*
X0163599Y0225194D01*
X0163551Y0225223D01*
X0163506Y0225255D01*
X0163463Y0225290D01*
X0163423Y0225328D01*
X0163385Y0225369D01*
X0163351Y0225413D01*
X0163319Y0225459D01*
X0163291Y0225507D01*
X0163267Y0225557D01*
X0163246Y0225608D01*
X0163228Y0225661D01*
X0163215Y0225715D01*
X0163205Y0225769D01*
X0163199Y0225824D01*
X0163197Y0225880D01*
X0127488Y0209061D02*
X0115488Y0209061D01*
X0123488Y0209135D02*
X0125414Y0209135D01*
X0125488Y0209061D02*
X0123488Y0211061D01*
X0123488Y0207061D01*
X0125488Y0209061D01*
X0125064Y0208637D02*
X0123488Y0208637D01*
X0123488Y0208138D02*
X0124565Y0208138D01*
X0124067Y0207640D02*
X0123488Y0207640D01*
X0123488Y0207141D02*
X0123568Y0207141D01*
X0125488Y0207061D02*
X0125488Y0211061D01*
X0124417Y0210132D02*
X0123488Y0210132D01*
X0123488Y0209634D02*
X0124916Y0209634D01*
X0123919Y0210631D02*
X0123488Y0210631D01*
X0095819Y0189195D02*
X0086528Y0189195D01*
X0086528Y0165337D01*
X0095819Y0165337D01*
X0095819Y0189195D01*
X0095501Y0163171D02*
X0095503Y0163246D01*
X0095509Y0163321D01*
X0095519Y0163395D01*
X0095533Y0163469D01*
X0095550Y0163542D01*
X0095572Y0163613D01*
X0095597Y0163684D01*
X0095626Y0163753D01*
X0095658Y0163821D01*
X0095694Y0163886D01*
X0095734Y0163950D01*
X0095777Y0164012D01*
X0095823Y0164071D01*
X0095872Y0164128D01*
X0095924Y0164182D01*
X0095978Y0164233D01*
X0096036Y0164281D01*
X0096095Y0164326D01*
X0096158Y0164368D01*
X0096222Y0164407D01*
X0096288Y0164442D01*
X0096356Y0164474D01*
X0096426Y0164502D01*
X0096496Y0164526D01*
X0096569Y0164547D01*
X0096642Y0164563D01*
X0096716Y0164576D01*
X0096790Y0164585D01*
X0096865Y0164590D01*
X0096940Y0164591D01*
X0097015Y0164588D01*
X0097089Y0164581D01*
X0097163Y0164570D01*
X0097237Y0164555D01*
X0097310Y0164537D01*
X0097381Y0164514D01*
X0097451Y0164488D01*
X0097520Y0164458D01*
X0097587Y0164425D01*
X0097653Y0164388D01*
X0097716Y0164348D01*
X0097777Y0164304D01*
X0097835Y0164257D01*
X0097891Y0164208D01*
X0097945Y0164155D01*
X0097995Y0164100D01*
X0098043Y0164042D01*
X0098087Y0163981D01*
X0098128Y0163919D01*
X0098166Y0163854D01*
X0098200Y0163787D01*
X0098231Y0163719D01*
X0098258Y0163649D01*
X0098282Y0163578D01*
X0098301Y0163505D01*
X0098317Y0163432D01*
X0098329Y0163358D01*
X0098337Y0163283D01*
X0098341Y0163208D01*
X0098341Y0163134D01*
X0098337Y0163059D01*
X0098329Y0162984D01*
X0098317Y0162910D01*
X0098301Y0162837D01*
X0098282Y0162764D01*
X0098258Y0162693D01*
X0098231Y0162623D01*
X0098200Y0162555D01*
X0098166Y0162488D01*
X0098128Y0162423D01*
X0098087Y0162361D01*
X0098043Y0162300D01*
X0097995Y0162242D01*
X0097945Y0162187D01*
X0097891Y0162134D01*
X0097835Y0162085D01*
X0097777Y0162038D01*
X0097716Y0161994D01*
X0097653Y0161954D01*
X0097587Y0161917D01*
X0097520Y0161884D01*
X0097451Y0161854D01*
X0097381Y0161828D01*
X0097310Y0161805D01*
X0097237Y0161787D01*
X0097163Y0161772D01*
X0097089Y0161761D01*
X0097015Y0161754D01*
X0096940Y0161751D01*
X0096865Y0161752D01*
X0096790Y0161757D01*
X0096716Y0161766D01*
X0096642Y0161779D01*
X0096569Y0161795D01*
X0096496Y0161816D01*
X0096426Y0161840D01*
X0096356Y0161868D01*
X0096288Y0161900D01*
X0096222Y0161935D01*
X0096158Y0161974D01*
X0096095Y0162016D01*
X0096036Y0162061D01*
X0095978Y0162109D01*
X0095924Y0162160D01*
X0095872Y0162214D01*
X0095823Y0162271D01*
X0095777Y0162330D01*
X0095734Y0162392D01*
X0095694Y0162456D01*
X0095658Y0162521D01*
X0095626Y0162589D01*
X0095597Y0162658D01*
X0095572Y0162729D01*
X0095550Y0162800D01*
X0095533Y0162873D01*
X0095519Y0162947D01*
X0095509Y0163021D01*
X0095503Y0163096D01*
X0095501Y0163171D01*
X0200528Y0070478D02*
X0212528Y0070478D01*
X0210528Y0070478D02*
X0208528Y0072478D01*
X0208528Y0068478D01*
X0210528Y0070478D01*
X0210457Y0070549D02*
X0208528Y0070549D01*
X0208528Y0070051D02*
X0210100Y0070051D01*
X0209601Y0069552D02*
X0208528Y0069552D01*
X0208528Y0069053D02*
X0209103Y0069053D01*
X0208604Y0068555D02*
X0208528Y0068555D01*
X0210528Y0068478D02*
X0210528Y0072478D01*
X0209460Y0071546D02*
X0208528Y0071546D01*
X0208528Y0071048D02*
X0209958Y0071048D01*
X0208961Y0072045D02*
X0208528Y0072045D01*
X0212430Y0268683D02*
X0212432Y0268758D01*
X0212438Y0268833D01*
X0212448Y0268907D01*
X0212462Y0268981D01*
X0212479Y0269054D01*
X0212501Y0269125D01*
X0212526Y0269196D01*
X0212555Y0269265D01*
X0212587Y0269333D01*
X0212623Y0269398D01*
X0212663Y0269462D01*
X0212706Y0269524D01*
X0212752Y0269583D01*
X0212801Y0269640D01*
X0212853Y0269694D01*
X0212907Y0269745D01*
X0212965Y0269793D01*
X0213024Y0269838D01*
X0213087Y0269880D01*
X0213151Y0269919D01*
X0213217Y0269954D01*
X0213285Y0269986D01*
X0213355Y0270014D01*
X0213425Y0270038D01*
X0213498Y0270059D01*
X0213571Y0270075D01*
X0213645Y0270088D01*
X0213719Y0270097D01*
X0213794Y0270102D01*
X0213869Y0270103D01*
X0213944Y0270100D01*
X0214018Y0270093D01*
X0214092Y0270082D01*
X0214166Y0270067D01*
X0214239Y0270049D01*
X0214310Y0270026D01*
X0214380Y0270000D01*
X0214449Y0269970D01*
X0214516Y0269937D01*
X0214582Y0269900D01*
X0214645Y0269860D01*
X0214706Y0269816D01*
X0214764Y0269769D01*
X0214820Y0269720D01*
X0214874Y0269667D01*
X0214924Y0269612D01*
X0214972Y0269554D01*
X0215016Y0269493D01*
X0215057Y0269431D01*
X0215095Y0269366D01*
X0215129Y0269299D01*
X0215160Y0269231D01*
X0215187Y0269161D01*
X0215211Y0269090D01*
X0215230Y0269017D01*
X0215246Y0268944D01*
X0215258Y0268870D01*
X0215266Y0268795D01*
X0215270Y0268720D01*
X0215270Y0268646D01*
X0215266Y0268571D01*
X0215258Y0268496D01*
X0215246Y0268422D01*
X0215230Y0268349D01*
X0215211Y0268276D01*
X0215187Y0268205D01*
X0215160Y0268135D01*
X0215129Y0268067D01*
X0215095Y0268000D01*
X0215057Y0267935D01*
X0215016Y0267873D01*
X0214972Y0267812D01*
X0214924Y0267754D01*
X0214874Y0267699D01*
X0214820Y0267646D01*
X0214764Y0267597D01*
X0214706Y0267550D01*
X0214645Y0267506D01*
X0214582Y0267466D01*
X0214516Y0267429D01*
X0214449Y0267396D01*
X0214380Y0267366D01*
X0214310Y0267340D01*
X0214239Y0267317D01*
X0214166Y0267299D01*
X0214092Y0267284D01*
X0214018Y0267273D01*
X0213944Y0267266D01*
X0213869Y0267263D01*
X0213794Y0267264D01*
X0213719Y0267269D01*
X0213645Y0267278D01*
X0213571Y0267291D01*
X0213498Y0267307D01*
X0213425Y0267328D01*
X0213355Y0267352D01*
X0213285Y0267380D01*
X0213217Y0267412D01*
X0213151Y0267447D01*
X0213087Y0267486D01*
X0213024Y0267528D01*
X0212965Y0267573D01*
X0212907Y0267621D01*
X0212853Y0267672D01*
X0212801Y0267726D01*
X0212752Y0267783D01*
X0212706Y0267842D01*
X0212663Y0267904D01*
X0212623Y0267968D01*
X0212587Y0268033D01*
X0212555Y0268101D01*
X0212526Y0268170D01*
X0212501Y0268241D01*
X0212479Y0268312D01*
X0212462Y0268385D01*
X0212448Y0268459D01*
X0212438Y0268533D01*
X0212432Y0268608D01*
X0212430Y0268683D01*
X0212748Y0270848D02*
X0203457Y0270848D01*
X0203457Y0294707D01*
X0212748Y0294707D01*
X0212748Y0270848D01*
X0221173Y0270848D02*
X0230465Y0270848D01*
X0230465Y0294707D01*
X0221173Y0294707D01*
X0221173Y0270848D01*
X0230147Y0268683D02*
X0230149Y0268758D01*
X0230155Y0268833D01*
X0230165Y0268907D01*
X0230179Y0268981D01*
X0230196Y0269054D01*
X0230218Y0269125D01*
X0230243Y0269196D01*
X0230272Y0269265D01*
X0230304Y0269333D01*
X0230340Y0269398D01*
X0230380Y0269462D01*
X0230423Y0269524D01*
X0230469Y0269583D01*
X0230518Y0269640D01*
X0230570Y0269694D01*
X0230624Y0269745D01*
X0230682Y0269793D01*
X0230741Y0269838D01*
X0230804Y0269880D01*
X0230868Y0269919D01*
X0230934Y0269954D01*
X0231002Y0269986D01*
X0231072Y0270014D01*
X0231142Y0270038D01*
X0231215Y0270059D01*
X0231288Y0270075D01*
X0231362Y0270088D01*
X0231436Y0270097D01*
X0231511Y0270102D01*
X0231586Y0270103D01*
X0231661Y0270100D01*
X0231735Y0270093D01*
X0231809Y0270082D01*
X0231883Y0270067D01*
X0231956Y0270049D01*
X0232027Y0270026D01*
X0232097Y0270000D01*
X0232166Y0269970D01*
X0232233Y0269937D01*
X0232299Y0269900D01*
X0232362Y0269860D01*
X0232423Y0269816D01*
X0232481Y0269769D01*
X0232537Y0269720D01*
X0232591Y0269667D01*
X0232641Y0269612D01*
X0232689Y0269554D01*
X0232733Y0269493D01*
X0232774Y0269431D01*
X0232812Y0269366D01*
X0232846Y0269299D01*
X0232877Y0269231D01*
X0232904Y0269161D01*
X0232928Y0269090D01*
X0232947Y0269017D01*
X0232963Y0268944D01*
X0232975Y0268870D01*
X0232983Y0268795D01*
X0232987Y0268720D01*
X0232987Y0268646D01*
X0232983Y0268571D01*
X0232975Y0268496D01*
X0232963Y0268422D01*
X0232947Y0268349D01*
X0232928Y0268276D01*
X0232904Y0268205D01*
X0232877Y0268135D01*
X0232846Y0268067D01*
X0232812Y0268000D01*
X0232774Y0267935D01*
X0232733Y0267873D01*
X0232689Y0267812D01*
X0232641Y0267754D01*
X0232591Y0267699D01*
X0232537Y0267646D01*
X0232481Y0267597D01*
X0232423Y0267550D01*
X0232362Y0267506D01*
X0232299Y0267466D01*
X0232233Y0267429D01*
X0232166Y0267396D01*
X0232097Y0267366D01*
X0232027Y0267340D01*
X0231956Y0267317D01*
X0231883Y0267299D01*
X0231809Y0267284D01*
X0231735Y0267273D01*
X0231661Y0267266D01*
X0231586Y0267263D01*
X0231511Y0267264D01*
X0231436Y0267269D01*
X0231362Y0267278D01*
X0231288Y0267291D01*
X0231215Y0267307D01*
X0231142Y0267328D01*
X0231072Y0267352D01*
X0231002Y0267380D01*
X0230934Y0267412D01*
X0230868Y0267447D01*
X0230804Y0267486D01*
X0230741Y0267528D01*
X0230682Y0267573D01*
X0230624Y0267621D01*
X0230570Y0267672D01*
X0230518Y0267726D01*
X0230469Y0267783D01*
X0230423Y0267842D01*
X0230380Y0267904D01*
X0230340Y0267968D01*
X0230304Y0268033D01*
X0230272Y0268101D01*
X0230243Y0268170D01*
X0230218Y0268241D01*
X0230196Y0268312D01*
X0230179Y0268385D01*
X0230165Y0268459D01*
X0230155Y0268533D01*
X0230149Y0268608D01*
X0230147Y0268683D01*
X0194714Y0268683D02*
X0194716Y0268758D01*
X0194722Y0268833D01*
X0194732Y0268907D01*
X0194746Y0268981D01*
X0194763Y0269054D01*
X0194785Y0269125D01*
X0194810Y0269196D01*
X0194839Y0269265D01*
X0194871Y0269333D01*
X0194907Y0269398D01*
X0194947Y0269462D01*
X0194990Y0269524D01*
X0195036Y0269583D01*
X0195085Y0269640D01*
X0195137Y0269694D01*
X0195191Y0269745D01*
X0195249Y0269793D01*
X0195308Y0269838D01*
X0195371Y0269880D01*
X0195435Y0269919D01*
X0195501Y0269954D01*
X0195569Y0269986D01*
X0195639Y0270014D01*
X0195709Y0270038D01*
X0195782Y0270059D01*
X0195855Y0270075D01*
X0195929Y0270088D01*
X0196003Y0270097D01*
X0196078Y0270102D01*
X0196153Y0270103D01*
X0196228Y0270100D01*
X0196302Y0270093D01*
X0196376Y0270082D01*
X0196450Y0270067D01*
X0196523Y0270049D01*
X0196594Y0270026D01*
X0196664Y0270000D01*
X0196733Y0269970D01*
X0196800Y0269937D01*
X0196866Y0269900D01*
X0196929Y0269860D01*
X0196990Y0269816D01*
X0197048Y0269769D01*
X0197104Y0269720D01*
X0197158Y0269667D01*
X0197208Y0269612D01*
X0197256Y0269554D01*
X0197300Y0269493D01*
X0197341Y0269431D01*
X0197379Y0269366D01*
X0197413Y0269299D01*
X0197444Y0269231D01*
X0197471Y0269161D01*
X0197495Y0269090D01*
X0197514Y0269017D01*
X0197530Y0268944D01*
X0197542Y0268870D01*
X0197550Y0268795D01*
X0197554Y0268720D01*
X0197554Y0268646D01*
X0197550Y0268571D01*
X0197542Y0268496D01*
X0197530Y0268422D01*
X0197514Y0268349D01*
X0197495Y0268276D01*
X0197471Y0268205D01*
X0197444Y0268135D01*
X0197413Y0268067D01*
X0197379Y0268000D01*
X0197341Y0267935D01*
X0197300Y0267873D01*
X0197256Y0267812D01*
X0197208Y0267754D01*
X0197158Y0267699D01*
X0197104Y0267646D01*
X0197048Y0267597D01*
X0196990Y0267550D01*
X0196929Y0267506D01*
X0196866Y0267466D01*
X0196800Y0267429D01*
X0196733Y0267396D01*
X0196664Y0267366D01*
X0196594Y0267340D01*
X0196523Y0267317D01*
X0196450Y0267299D01*
X0196376Y0267284D01*
X0196302Y0267273D01*
X0196228Y0267266D01*
X0196153Y0267263D01*
X0196078Y0267264D01*
X0196003Y0267269D01*
X0195929Y0267278D01*
X0195855Y0267291D01*
X0195782Y0267307D01*
X0195709Y0267328D01*
X0195639Y0267352D01*
X0195569Y0267380D01*
X0195501Y0267412D01*
X0195435Y0267447D01*
X0195371Y0267486D01*
X0195308Y0267528D01*
X0195249Y0267573D01*
X0195191Y0267621D01*
X0195137Y0267672D01*
X0195085Y0267726D01*
X0195036Y0267783D01*
X0194990Y0267842D01*
X0194947Y0267904D01*
X0194907Y0267968D01*
X0194871Y0268033D01*
X0194839Y0268101D01*
X0194810Y0268170D01*
X0194785Y0268241D01*
X0194763Y0268312D01*
X0194746Y0268385D01*
X0194732Y0268459D01*
X0194722Y0268533D01*
X0194716Y0268608D01*
X0194714Y0268683D01*
X0195031Y0270848D02*
X0185740Y0270848D01*
X0185740Y0294707D01*
X0195031Y0294707D01*
X0195031Y0270848D01*
X0176997Y0268683D02*
X0176999Y0268758D01*
X0177005Y0268833D01*
X0177015Y0268907D01*
X0177029Y0268981D01*
X0177046Y0269054D01*
X0177068Y0269125D01*
X0177093Y0269196D01*
X0177122Y0269265D01*
X0177154Y0269333D01*
X0177190Y0269398D01*
X0177230Y0269462D01*
X0177273Y0269524D01*
X0177319Y0269583D01*
X0177368Y0269640D01*
X0177420Y0269694D01*
X0177474Y0269745D01*
X0177532Y0269793D01*
X0177591Y0269838D01*
X0177654Y0269880D01*
X0177718Y0269919D01*
X0177784Y0269954D01*
X0177852Y0269986D01*
X0177922Y0270014D01*
X0177992Y0270038D01*
X0178065Y0270059D01*
X0178138Y0270075D01*
X0178212Y0270088D01*
X0178286Y0270097D01*
X0178361Y0270102D01*
X0178436Y0270103D01*
X0178511Y0270100D01*
X0178585Y0270093D01*
X0178659Y0270082D01*
X0178733Y0270067D01*
X0178806Y0270049D01*
X0178877Y0270026D01*
X0178947Y0270000D01*
X0179016Y0269970D01*
X0179083Y0269937D01*
X0179149Y0269900D01*
X0179212Y0269860D01*
X0179273Y0269816D01*
X0179331Y0269769D01*
X0179387Y0269720D01*
X0179441Y0269667D01*
X0179491Y0269612D01*
X0179539Y0269554D01*
X0179583Y0269493D01*
X0179624Y0269431D01*
X0179662Y0269366D01*
X0179696Y0269299D01*
X0179727Y0269231D01*
X0179754Y0269161D01*
X0179778Y0269090D01*
X0179797Y0269017D01*
X0179813Y0268944D01*
X0179825Y0268870D01*
X0179833Y0268795D01*
X0179837Y0268720D01*
X0179837Y0268646D01*
X0179833Y0268571D01*
X0179825Y0268496D01*
X0179813Y0268422D01*
X0179797Y0268349D01*
X0179778Y0268276D01*
X0179754Y0268205D01*
X0179727Y0268135D01*
X0179696Y0268067D01*
X0179662Y0268000D01*
X0179624Y0267935D01*
X0179583Y0267873D01*
X0179539Y0267812D01*
X0179491Y0267754D01*
X0179441Y0267699D01*
X0179387Y0267646D01*
X0179331Y0267597D01*
X0179273Y0267550D01*
X0179212Y0267506D01*
X0179149Y0267466D01*
X0179083Y0267429D01*
X0179016Y0267396D01*
X0178947Y0267366D01*
X0178877Y0267340D01*
X0178806Y0267317D01*
X0178733Y0267299D01*
X0178659Y0267284D01*
X0178585Y0267273D01*
X0178511Y0267266D01*
X0178436Y0267263D01*
X0178361Y0267264D01*
X0178286Y0267269D01*
X0178212Y0267278D01*
X0178138Y0267291D01*
X0178065Y0267307D01*
X0177992Y0267328D01*
X0177922Y0267352D01*
X0177852Y0267380D01*
X0177784Y0267412D01*
X0177718Y0267447D01*
X0177654Y0267486D01*
X0177591Y0267528D01*
X0177532Y0267573D01*
X0177474Y0267621D01*
X0177420Y0267672D01*
X0177368Y0267726D01*
X0177319Y0267783D01*
X0177273Y0267842D01*
X0177230Y0267904D01*
X0177190Y0267968D01*
X0177154Y0268033D01*
X0177122Y0268101D01*
X0177093Y0268170D01*
X0177068Y0268241D01*
X0177046Y0268312D01*
X0177029Y0268385D01*
X0177015Y0268459D01*
X0177005Y0268533D01*
X0176999Y0268608D01*
X0176997Y0268683D01*
X0177315Y0270848D02*
X0168024Y0270848D01*
X0168024Y0294707D01*
X0177315Y0294707D01*
X0177315Y0270848D01*
D14*
X0163102Y0159096D02*
X0206803Y0159096D01*
X0206803Y0108900D01*
X0206606Y0108900D02*
X0163299Y0108900D01*
X0163102Y0108900D02*
X0163102Y0159096D01*
X0208968Y0109470D02*
X0208970Y0109558D01*
X0208976Y0109646D01*
X0208986Y0109734D01*
X0209000Y0109822D01*
X0209017Y0109908D01*
X0209039Y0109994D01*
X0209064Y0110078D01*
X0209094Y0110162D01*
X0209126Y0110244D01*
X0209163Y0110324D01*
X0209203Y0110403D01*
X0209247Y0110480D01*
X0209294Y0110555D01*
X0209344Y0110627D01*
X0209398Y0110698D01*
X0209454Y0110765D01*
X0209514Y0110831D01*
X0209576Y0110893D01*
X0209642Y0110953D01*
X0209709Y0111009D01*
X0209780Y0111063D01*
X0209852Y0111113D01*
X0209927Y0111160D01*
X0210004Y0111204D01*
X0210083Y0111244D01*
X0210163Y0111281D01*
X0210245Y0111313D01*
X0210329Y0111343D01*
X0210413Y0111368D01*
X0210499Y0111390D01*
X0210585Y0111407D01*
X0210673Y0111421D01*
X0210761Y0111431D01*
X0210849Y0111437D01*
X0210937Y0111439D01*
X0211025Y0111437D01*
X0211113Y0111431D01*
X0211201Y0111421D01*
X0211289Y0111407D01*
X0211375Y0111390D01*
X0211461Y0111368D01*
X0211545Y0111343D01*
X0211629Y0111313D01*
X0211711Y0111281D01*
X0211791Y0111244D01*
X0211870Y0111204D01*
X0211947Y0111160D01*
X0212022Y0111113D01*
X0212094Y0111063D01*
X0212165Y0111009D01*
X0212232Y0110953D01*
X0212298Y0110893D01*
X0212360Y0110831D01*
X0212420Y0110765D01*
X0212476Y0110698D01*
X0212530Y0110627D01*
X0212580Y0110555D01*
X0212627Y0110480D01*
X0212671Y0110403D01*
X0212711Y0110324D01*
X0212748Y0110244D01*
X0212780Y0110162D01*
X0212810Y0110078D01*
X0212835Y0109994D01*
X0212857Y0109908D01*
X0212874Y0109822D01*
X0212888Y0109734D01*
X0212898Y0109646D01*
X0212904Y0109558D01*
X0212906Y0109470D01*
X0212904Y0109382D01*
X0212898Y0109294D01*
X0212888Y0109206D01*
X0212874Y0109118D01*
X0212857Y0109032D01*
X0212835Y0108946D01*
X0212810Y0108862D01*
X0212780Y0108778D01*
X0212748Y0108696D01*
X0212711Y0108616D01*
X0212671Y0108537D01*
X0212627Y0108460D01*
X0212580Y0108385D01*
X0212530Y0108313D01*
X0212476Y0108242D01*
X0212420Y0108175D01*
X0212360Y0108109D01*
X0212298Y0108047D01*
X0212232Y0107987D01*
X0212165Y0107931D01*
X0212094Y0107877D01*
X0212022Y0107827D01*
X0211947Y0107780D01*
X0211870Y0107736D01*
X0211791Y0107696D01*
X0211711Y0107659D01*
X0211629Y0107627D01*
X0211545Y0107597D01*
X0211461Y0107572D01*
X0211375Y0107550D01*
X0211289Y0107533D01*
X0211201Y0107519D01*
X0211113Y0107509D01*
X0211025Y0107503D01*
X0210937Y0107501D01*
X0210849Y0107503D01*
X0210761Y0107509D01*
X0210673Y0107519D01*
X0210585Y0107533D01*
X0210499Y0107550D01*
X0210413Y0107572D01*
X0210329Y0107597D01*
X0210245Y0107627D01*
X0210163Y0107659D01*
X0210083Y0107696D01*
X0210004Y0107736D01*
X0209927Y0107780D01*
X0209852Y0107827D01*
X0209780Y0107877D01*
X0209709Y0107931D01*
X0209642Y0107987D01*
X0209576Y0108047D01*
X0209514Y0108109D01*
X0209454Y0108175D01*
X0209398Y0108242D01*
X0209344Y0108313D01*
X0209294Y0108385D01*
X0209247Y0108460D01*
X0209203Y0108537D01*
X0209163Y0108616D01*
X0209126Y0108696D01*
X0209094Y0108778D01*
X0209064Y0108862D01*
X0209039Y0108946D01*
X0209017Y0109032D01*
X0209000Y0109118D01*
X0208986Y0109206D01*
X0208976Y0109294D01*
X0208970Y0109382D01*
X0208968Y0109470D01*
D15*
X0287000Y0056557D02*
X0297000Y0066557D01*
X0297000Y0195557D01*
X0287000Y0205557D01*
X0287000Y0250557D01*
X0281000Y0256557D01*
X0027000Y0256557D01*
X0027000Y0046557D01*
X0287000Y0046557D01*
X0287000Y0056557D01*
X0129783Y0092671D02*
X0102484Y0092671D01*
X0102484Y0111703D02*
X0129783Y0111703D01*
D16*
X0096760Y0112219D02*
X0096762Y0112296D01*
X0096768Y0112373D01*
X0096778Y0112450D01*
X0096792Y0112526D01*
X0096809Y0112601D01*
X0096831Y0112675D01*
X0096856Y0112748D01*
X0096886Y0112820D01*
X0096918Y0112890D01*
X0096955Y0112958D01*
X0096994Y0113024D01*
X0097037Y0113088D01*
X0097084Y0113150D01*
X0097133Y0113209D01*
X0097186Y0113266D01*
X0097241Y0113320D01*
X0097299Y0113371D01*
X0097360Y0113419D01*
X0097423Y0113464D01*
X0097488Y0113505D01*
X0097555Y0113543D01*
X0097624Y0113578D01*
X0097695Y0113608D01*
X0097767Y0113636D01*
X0097841Y0113659D01*
X0097915Y0113679D01*
X0097991Y0113695D01*
X0098067Y0113707D01*
X0098144Y0113715D01*
X0098221Y0113719D01*
X0098299Y0113719D01*
X0098376Y0113715D01*
X0098453Y0113707D01*
X0098529Y0113695D01*
X0098605Y0113679D01*
X0098679Y0113659D01*
X0098753Y0113636D01*
X0098825Y0113608D01*
X0098896Y0113578D01*
X0098965Y0113543D01*
X0099032Y0113505D01*
X0099097Y0113464D01*
X0099160Y0113419D01*
X0099221Y0113371D01*
X0099279Y0113320D01*
X0099334Y0113266D01*
X0099387Y0113209D01*
X0099436Y0113150D01*
X0099483Y0113088D01*
X0099526Y0113024D01*
X0099565Y0112958D01*
X0099602Y0112890D01*
X0099634Y0112820D01*
X0099664Y0112748D01*
X0099689Y0112675D01*
X0099711Y0112601D01*
X0099728Y0112526D01*
X0099742Y0112450D01*
X0099752Y0112373D01*
X0099758Y0112296D01*
X0099760Y0112219D01*
X0099758Y0112142D01*
X0099752Y0112065D01*
X0099742Y0111988D01*
X0099728Y0111912D01*
X0099711Y0111837D01*
X0099689Y0111763D01*
X0099664Y0111690D01*
X0099634Y0111618D01*
X0099602Y0111548D01*
X0099565Y0111480D01*
X0099526Y0111414D01*
X0099483Y0111350D01*
X0099436Y0111288D01*
X0099387Y0111229D01*
X0099334Y0111172D01*
X0099279Y0111118D01*
X0099221Y0111067D01*
X0099160Y0111019D01*
X0099097Y0110974D01*
X0099032Y0110933D01*
X0098965Y0110895D01*
X0098896Y0110860D01*
X0098825Y0110830D01*
X0098753Y0110802D01*
X0098679Y0110779D01*
X0098605Y0110759D01*
X0098529Y0110743D01*
X0098453Y0110731D01*
X0098376Y0110723D01*
X0098299Y0110719D01*
X0098221Y0110719D01*
X0098144Y0110723D01*
X0098067Y0110731D01*
X0097991Y0110743D01*
X0097915Y0110759D01*
X0097841Y0110779D01*
X0097767Y0110802D01*
X0097695Y0110830D01*
X0097624Y0110860D01*
X0097555Y0110895D01*
X0097488Y0110933D01*
X0097423Y0110974D01*
X0097360Y0111019D01*
X0097299Y0111067D01*
X0097241Y0111118D01*
X0097186Y0111172D01*
X0097133Y0111229D01*
X0097084Y0111288D01*
X0097037Y0111350D01*
X0096994Y0111414D01*
X0096955Y0111480D01*
X0096918Y0111548D01*
X0096886Y0111618D01*
X0096856Y0111690D01*
X0096831Y0111763D01*
X0096809Y0111837D01*
X0096792Y0111912D01*
X0096778Y0111988D01*
X0096768Y0112065D01*
X0096762Y0112142D01*
X0096760Y0112219D01*
D17*
X0074933Y0112384D02*
X0027689Y0112384D01*
X0027689Y0092384D01*
X0074933Y0092384D01*
X0074933Y0072384D01*
X0027689Y0072384D01*
X0027689Y0052384D01*
X0074933Y0052384D01*
X0074933Y0072384D01*
X0074933Y0092384D02*
X0074933Y0112384D01*
X0074933Y0132384D01*
X0027689Y0132384D01*
X0027689Y0112384D01*
X0027689Y0132384D02*
X0027689Y0152384D01*
X0074933Y0152384D01*
X0074933Y0172384D01*
X0074933Y0192384D01*
X0027689Y0192384D01*
X0027689Y0172384D01*
X0074933Y0172384D01*
X0074933Y0192384D02*
X0074933Y0212384D01*
X0027689Y0212384D01*
X0027689Y0192384D01*
X0027689Y0212384D02*
X0027689Y0232384D01*
X0074933Y0232384D01*
X0074933Y0252384D01*
X0027689Y0252384D01*
X0027689Y0232384D01*
X0074933Y0232384D02*
X0074933Y0212384D01*
X0027689Y0172384D02*
X0027689Y0152384D01*
X0074933Y0152384D02*
X0074933Y0132384D01*
X0027689Y0092384D02*
X0027689Y0072384D01*
D18*
X0051311Y0042384D03*
X0051311Y0262384D03*
M02*
