G75*
%MOIN*%
%OFA0B0*%
%FSLAX25Y25*%
%IPPOS*%
%LPD*%
%AMOC8*
5,1,8,0,0,1.08239X$1,22.5*
%
%ADD10C,0.02047*%
%ADD11R,0.13386X0.21260*%
%ADD12C,0.00472*%
%ADD13C,0.04724*%
%ADD14C,0.13200*%
%ADD15C,0.01890*%
%ADD16C,0.01260*%
%ADD17C,0.01575*%
%ADD18R,0.13200X0.13200*%
%ADD19C,0.15827*%
%ADD20C,0.16535*%
%ADD21C,0.27685*%
%ADD22OC8,0.13200*%
%ADD23C,0.28346*%
%ADD24C,0.05156*%
%ADD25C,0.07677*%
D10*
X0079381Y0078722D02*
X0087571Y0078722D01*
X0079381Y0078722D02*
X0079381Y0087700D01*
X0087571Y0087700D01*
X0087571Y0078722D01*
X0087571Y0080768D02*
X0079381Y0080768D01*
X0079381Y0082814D02*
X0087571Y0082814D01*
X0087571Y0084860D02*
X0079381Y0084860D01*
X0079381Y0086906D02*
X0087571Y0086906D01*
X0086862Y0087107D02*
X0095052Y0087107D01*
X0086862Y0087107D02*
X0086862Y0096085D01*
X0095052Y0096085D01*
X0095052Y0087107D01*
X0095052Y0089153D02*
X0086862Y0089153D01*
X0086862Y0091199D02*
X0095052Y0091199D01*
X0095052Y0093245D02*
X0086862Y0093245D01*
X0086862Y0095291D02*
X0095052Y0095291D01*
X0095091Y0104491D02*
X0086901Y0104491D01*
X0095091Y0104491D02*
X0095091Y0095513D01*
X0086901Y0095513D01*
X0086901Y0104491D01*
X0086901Y0097559D02*
X0095091Y0097559D01*
X0095091Y0099605D02*
X0086901Y0099605D01*
X0086901Y0101651D02*
X0095091Y0101651D01*
X0095091Y0103697D02*
X0086901Y0103697D01*
X0087611Y0104491D02*
X0079421Y0104491D01*
X0087611Y0104491D02*
X0087611Y0095513D01*
X0079421Y0095513D01*
X0079421Y0104491D01*
X0079421Y0097559D02*
X0087611Y0097559D01*
X0087611Y0099605D02*
X0079421Y0099605D01*
X0079421Y0101651D02*
X0087611Y0101651D01*
X0087611Y0103697D02*
X0079421Y0103697D01*
X0079381Y0087107D02*
X0087571Y0087107D01*
X0079381Y0087107D02*
X0079381Y0096085D01*
X0087571Y0096085D01*
X0087571Y0087107D01*
X0087571Y0089153D02*
X0079381Y0089153D01*
X0079381Y0091199D02*
X0087571Y0091199D01*
X0087571Y0093245D02*
X0079381Y0093245D01*
X0079381Y0095291D02*
X0087571Y0095291D01*
X0086862Y0078722D02*
X0095052Y0078722D01*
X0086862Y0078722D02*
X0086862Y0087700D01*
X0095052Y0087700D01*
X0095052Y0078722D01*
X0095052Y0080768D02*
X0086862Y0080768D01*
X0086862Y0082814D02*
X0095052Y0082814D01*
X0095052Y0084860D02*
X0086862Y0084860D01*
X0086862Y0086906D02*
X0095052Y0086906D01*
X0141409Y0094234D02*
X0141409Y0102424D01*
X0150387Y0102424D01*
X0150387Y0094234D01*
X0141409Y0094234D01*
X0141409Y0096280D02*
X0150387Y0096280D01*
X0150387Y0098326D02*
X0141409Y0098326D01*
X0141409Y0100372D02*
X0150387Y0100372D01*
X0150387Y0102418D02*
X0141409Y0102418D01*
X0141409Y0101714D02*
X0141409Y0109904D01*
X0150387Y0109904D01*
X0150387Y0101714D01*
X0141409Y0101714D01*
X0141409Y0103760D02*
X0150387Y0103760D01*
X0150387Y0105806D02*
X0141409Y0105806D01*
X0141409Y0107852D02*
X0150387Y0107852D01*
X0150387Y0109898D02*
X0141409Y0109898D01*
X0174499Y0082462D02*
X0182689Y0082462D01*
X0174499Y0082462D02*
X0174499Y0091440D01*
X0182689Y0091440D01*
X0182689Y0082462D01*
X0182689Y0084508D02*
X0174499Y0084508D01*
X0174499Y0086554D02*
X0182689Y0086554D01*
X0182689Y0088600D02*
X0174499Y0088600D01*
X0174499Y0090646D02*
X0182689Y0090646D01*
X0181980Y0082462D02*
X0190170Y0082462D01*
X0181980Y0082462D02*
X0181980Y0091440D01*
X0190170Y0091440D01*
X0190170Y0082462D01*
X0190170Y0084508D02*
X0181980Y0084508D01*
X0181980Y0086554D02*
X0190170Y0086554D01*
X0190170Y0088600D02*
X0181980Y0088600D01*
X0181980Y0090646D02*
X0190170Y0090646D01*
X0190189Y0072206D02*
X0181999Y0072206D01*
X0181999Y0081184D01*
X0190189Y0081184D01*
X0190189Y0072206D01*
X0190189Y0074252D02*
X0181999Y0074252D01*
X0181999Y0076298D02*
X0190189Y0076298D01*
X0190189Y0078344D02*
X0181999Y0078344D01*
X0181999Y0080390D02*
X0190189Y0080390D01*
X0198692Y0071989D02*
X0206882Y0071989D01*
X0198692Y0071989D02*
X0198692Y0080967D01*
X0206882Y0080967D01*
X0206882Y0071989D01*
X0206882Y0074035D02*
X0198692Y0074035D01*
X0198692Y0076081D02*
X0206882Y0076081D01*
X0206882Y0078127D02*
X0198692Y0078127D01*
X0198692Y0080173D02*
X0206882Y0080173D01*
X0206173Y0071989D02*
X0214363Y0071989D01*
X0206173Y0071989D02*
X0206173Y0080967D01*
X0214363Y0080967D01*
X0214363Y0071989D01*
X0214363Y0074035D02*
X0206173Y0074035D01*
X0206173Y0076081D02*
X0214363Y0076081D01*
X0214363Y0078127D02*
X0206173Y0078127D01*
X0206173Y0080173D02*
X0214363Y0080173D01*
X0182709Y0072206D02*
X0174519Y0072206D01*
X0174519Y0081184D01*
X0182709Y0081184D01*
X0182709Y0072206D01*
X0182709Y0074252D02*
X0174519Y0074252D01*
X0174519Y0076298D02*
X0182709Y0076298D01*
X0182709Y0078344D02*
X0174519Y0078344D01*
X0174519Y0080390D02*
X0182709Y0080390D01*
X0223909Y0180218D02*
X0223909Y0188408D01*
X0232887Y0188408D01*
X0232887Y0180218D01*
X0223909Y0180218D01*
X0223909Y0182264D02*
X0232887Y0182264D01*
X0232887Y0184310D02*
X0223909Y0184310D01*
X0223909Y0186356D02*
X0232887Y0186356D01*
X0232887Y0188402D02*
X0223909Y0188402D01*
X0224973Y0184785D02*
X0224973Y0192975D01*
X0224973Y0184785D02*
X0215995Y0184785D01*
X0215995Y0192975D01*
X0224973Y0192975D01*
X0224973Y0186831D02*
X0215995Y0186831D01*
X0215995Y0188877D02*
X0224973Y0188877D01*
X0224973Y0190923D02*
X0215995Y0190923D01*
X0215995Y0192969D02*
X0224973Y0192969D01*
X0223909Y0195888D02*
X0223909Y0187698D01*
X0223909Y0195888D02*
X0232887Y0195888D01*
X0232887Y0187698D01*
X0223909Y0187698D01*
X0223909Y0189744D02*
X0232887Y0189744D01*
X0232887Y0191790D02*
X0223909Y0191790D01*
X0223909Y0193836D02*
X0232887Y0193836D01*
X0232887Y0195882D02*
X0223909Y0195882D01*
X0224973Y0192265D02*
X0224973Y0200455D01*
X0224973Y0192265D02*
X0215995Y0192265D01*
X0215995Y0200455D01*
X0224973Y0200455D01*
X0224973Y0194311D02*
X0215995Y0194311D01*
X0215995Y0196357D02*
X0224973Y0196357D01*
X0224973Y0198403D02*
X0215995Y0198403D01*
X0215995Y0200449D02*
X0224973Y0200449D01*
X0232847Y0202502D02*
X0232847Y0194312D01*
X0223869Y0194312D01*
X0223869Y0202502D01*
X0232847Y0202502D01*
X0232847Y0196358D02*
X0223869Y0196358D01*
X0223869Y0198404D02*
X0232847Y0198404D01*
X0232847Y0200450D02*
X0223869Y0200450D01*
X0223869Y0202496D02*
X0232847Y0202496D01*
X0232847Y0201793D02*
X0232847Y0209983D01*
X0232847Y0201793D02*
X0223869Y0201793D01*
X0223869Y0209983D01*
X0232847Y0209983D01*
X0232847Y0203839D02*
X0223869Y0203839D01*
X0223869Y0205885D02*
X0232847Y0205885D01*
X0232847Y0207931D02*
X0223869Y0207931D01*
X0223869Y0209977D02*
X0232847Y0209977D01*
X0224973Y0206596D02*
X0224973Y0214786D01*
X0224973Y0206596D02*
X0215995Y0206596D01*
X0215995Y0214786D01*
X0224973Y0214786D01*
X0224973Y0208642D02*
X0215995Y0208642D01*
X0215995Y0210688D02*
X0224973Y0210688D01*
X0224973Y0212734D02*
X0215995Y0212734D01*
X0215995Y0214780D02*
X0224973Y0214780D01*
X0224973Y0207306D02*
X0224973Y0199116D01*
X0215995Y0199116D01*
X0215995Y0207306D01*
X0224973Y0207306D01*
X0224973Y0201162D02*
X0215995Y0201162D01*
X0215995Y0203208D02*
X0224973Y0203208D01*
X0224973Y0205254D02*
X0215995Y0205254D01*
X0215995Y0207300D02*
X0224973Y0207300D01*
X0195188Y0217718D02*
X0195188Y0225908D01*
X0204166Y0225908D01*
X0204166Y0217718D01*
X0195188Y0217718D01*
X0195188Y0219764D02*
X0204166Y0219764D01*
X0204166Y0221810D02*
X0195188Y0221810D01*
X0195188Y0223856D02*
X0204166Y0223856D01*
X0204166Y0225902D02*
X0195188Y0225902D01*
X0195188Y0225198D02*
X0195188Y0233388D01*
X0204166Y0233388D01*
X0204166Y0225198D01*
X0195188Y0225198D01*
X0195188Y0227244D02*
X0204166Y0227244D01*
X0204166Y0229290D02*
X0195188Y0229290D01*
X0195188Y0231336D02*
X0204166Y0231336D01*
X0204166Y0233382D02*
X0195188Y0233382D01*
X0157237Y0230829D02*
X0157237Y0222639D01*
X0148259Y0222639D01*
X0148259Y0230829D01*
X0157237Y0230829D01*
X0157237Y0224685D02*
X0148259Y0224685D01*
X0148259Y0226731D02*
X0157237Y0226731D01*
X0157237Y0228777D02*
X0148259Y0228777D01*
X0148259Y0230823D02*
X0157237Y0230823D01*
X0157237Y0223349D02*
X0157237Y0215159D01*
X0148259Y0215159D01*
X0148259Y0223349D01*
X0157237Y0223349D01*
X0157237Y0217205D02*
X0148259Y0217205D01*
X0148259Y0219251D02*
X0157237Y0219251D01*
X0157237Y0221297D02*
X0148259Y0221297D01*
X0148259Y0223343D02*
X0157237Y0223343D01*
X0129323Y0210572D02*
X0121133Y0210572D01*
X0121133Y0219550D01*
X0129323Y0219550D01*
X0129323Y0210572D01*
X0129323Y0212618D02*
X0121133Y0212618D01*
X0121133Y0214664D02*
X0129323Y0214664D01*
X0129323Y0216710D02*
X0121133Y0216710D01*
X0121133Y0218756D02*
X0129323Y0218756D01*
X0121843Y0210572D02*
X0113653Y0210572D01*
X0113653Y0219550D01*
X0121843Y0219550D01*
X0121843Y0210572D01*
X0121843Y0212618D02*
X0113653Y0212618D01*
X0113653Y0214664D02*
X0121843Y0214664D01*
X0121843Y0216710D02*
X0113653Y0216710D01*
X0113653Y0218756D02*
X0121843Y0218756D01*
X0121133Y0197974D02*
X0129323Y0197974D01*
X0121133Y0197974D02*
X0121133Y0206952D01*
X0129323Y0206952D01*
X0129323Y0197974D01*
X0129323Y0200020D02*
X0121133Y0200020D01*
X0121133Y0202066D02*
X0129323Y0202066D01*
X0129323Y0204112D02*
X0121133Y0204112D01*
X0121133Y0206158D02*
X0129323Y0206158D01*
X0121843Y0197974D02*
X0113653Y0197974D01*
X0113653Y0206952D01*
X0121843Y0206952D01*
X0121843Y0197974D01*
X0121843Y0200020D02*
X0113653Y0200020D01*
X0113653Y0202066D02*
X0121843Y0202066D01*
X0121843Y0204112D02*
X0113653Y0204112D01*
X0113653Y0206158D02*
X0121843Y0206158D01*
X0261981Y0196439D02*
X0261981Y0188249D01*
X0253003Y0188249D01*
X0253003Y0196439D01*
X0261981Y0196439D01*
X0261981Y0190295D02*
X0253003Y0190295D01*
X0253003Y0192341D02*
X0261981Y0192341D01*
X0261981Y0194387D02*
X0253003Y0194387D01*
X0253003Y0196433D02*
X0261981Y0196433D01*
X0261981Y0188959D02*
X0261981Y0180769D01*
X0253003Y0180769D01*
X0253003Y0188959D01*
X0261981Y0188959D01*
X0261981Y0182815D02*
X0253003Y0182815D01*
X0253003Y0184861D02*
X0261981Y0184861D01*
X0261981Y0186907D02*
X0253003Y0186907D01*
X0253003Y0188953D02*
X0261981Y0188953D01*
X0338969Y0192581D02*
X0338969Y0184391D01*
X0329991Y0184391D01*
X0329991Y0192581D01*
X0338969Y0192581D01*
X0338969Y0186437D02*
X0329991Y0186437D01*
X0329991Y0188483D02*
X0338969Y0188483D01*
X0338969Y0190529D02*
X0329991Y0190529D01*
X0329991Y0192575D02*
X0338969Y0192575D01*
X0347001Y0192186D02*
X0347001Y0200376D01*
X0347001Y0192186D02*
X0338023Y0192186D01*
X0338023Y0200376D01*
X0347001Y0200376D01*
X0347001Y0194232D02*
X0338023Y0194232D01*
X0338023Y0196278D02*
X0347001Y0196278D01*
X0347001Y0198324D02*
X0338023Y0198324D01*
X0338023Y0200370D02*
X0347001Y0200370D01*
X0338969Y0200062D02*
X0338969Y0191872D01*
X0329991Y0191872D01*
X0329991Y0200062D01*
X0338969Y0200062D01*
X0338969Y0193918D02*
X0329991Y0193918D01*
X0329991Y0195964D02*
X0338969Y0195964D01*
X0338969Y0198010D02*
X0329991Y0198010D01*
X0329991Y0200056D02*
X0338969Y0200056D01*
X0347001Y0192896D02*
X0347001Y0184706D01*
X0338023Y0184706D01*
X0338023Y0192896D01*
X0347001Y0192896D01*
X0347001Y0186752D02*
X0338023Y0186752D01*
X0338023Y0188798D02*
X0347001Y0188798D01*
X0347001Y0190844D02*
X0338023Y0190844D01*
X0338023Y0192890D02*
X0347001Y0192890D01*
X0338298Y0184333D02*
X0338298Y0176143D01*
X0338298Y0184333D02*
X0347276Y0184333D01*
X0347276Y0176143D01*
X0338298Y0176143D01*
X0338298Y0178189D02*
X0347276Y0178189D01*
X0347276Y0180235D02*
X0338298Y0180235D01*
X0338298Y0182281D02*
X0347276Y0182281D01*
X0347276Y0184327D02*
X0338298Y0184327D01*
X0338969Y0184314D02*
X0338969Y0176124D01*
X0329991Y0176124D01*
X0329991Y0184314D01*
X0338969Y0184314D01*
X0338969Y0178170D02*
X0329991Y0178170D01*
X0329991Y0180216D02*
X0338969Y0180216D01*
X0338969Y0182262D02*
X0329991Y0182262D01*
X0329991Y0184308D02*
X0338969Y0184308D01*
X0338298Y0176853D02*
X0338298Y0168663D01*
X0338298Y0176853D02*
X0347276Y0176853D01*
X0347276Y0168663D01*
X0338298Y0168663D01*
X0338298Y0170709D02*
X0347276Y0170709D01*
X0347276Y0172755D02*
X0338298Y0172755D01*
X0338298Y0174801D02*
X0347276Y0174801D01*
X0347276Y0176847D02*
X0338298Y0176847D01*
X0338969Y0176833D02*
X0338969Y0168643D01*
X0329991Y0168643D01*
X0329991Y0176833D01*
X0338969Y0176833D01*
X0338969Y0170689D02*
X0329991Y0170689D01*
X0329991Y0172735D02*
X0338969Y0172735D01*
X0338969Y0174781D02*
X0329991Y0174781D01*
X0329991Y0176827D02*
X0338969Y0176827D01*
X0347001Y0127699D02*
X0347001Y0119509D01*
X0338023Y0119509D01*
X0338023Y0127699D01*
X0347001Y0127699D01*
X0347001Y0121555D02*
X0338023Y0121555D01*
X0338023Y0123601D02*
X0347001Y0123601D01*
X0347001Y0125647D02*
X0338023Y0125647D01*
X0338023Y0127693D02*
X0347001Y0127693D01*
X0338182Y0127621D02*
X0338182Y0119431D01*
X0329204Y0119431D01*
X0329204Y0127621D01*
X0338182Y0127621D01*
X0338182Y0121477D02*
X0329204Y0121477D01*
X0329204Y0123523D02*
X0338182Y0123523D01*
X0338182Y0125569D02*
X0329204Y0125569D01*
X0329204Y0127615D02*
X0338182Y0127615D01*
X0347001Y0120219D02*
X0347001Y0112029D01*
X0338023Y0112029D01*
X0338023Y0120219D01*
X0347001Y0120219D01*
X0347001Y0114075D02*
X0338023Y0114075D01*
X0338023Y0116121D02*
X0347001Y0116121D01*
X0347001Y0118167D02*
X0338023Y0118167D01*
X0338023Y0120213D02*
X0347001Y0120213D01*
X0338182Y0120140D02*
X0338182Y0111950D01*
X0329204Y0111950D01*
X0329204Y0120140D01*
X0338182Y0120140D01*
X0338182Y0113996D02*
X0329204Y0113996D01*
X0329204Y0116042D02*
X0338182Y0116042D01*
X0338182Y0118088D02*
X0329204Y0118088D01*
X0329204Y0120134D02*
X0338182Y0120134D01*
X0338576Y0112266D02*
X0338576Y0104076D01*
X0329598Y0104076D01*
X0329598Y0112266D01*
X0338576Y0112266D01*
X0338576Y0106122D02*
X0329598Y0106122D01*
X0329598Y0108168D02*
X0338576Y0108168D01*
X0338576Y0110214D02*
X0329598Y0110214D01*
X0329598Y0112260D02*
X0338576Y0112260D01*
X0338102Y0112266D02*
X0338102Y0104076D01*
X0338102Y0112266D02*
X0347080Y0112266D01*
X0347080Y0104076D01*
X0338102Y0104076D01*
X0338102Y0106122D02*
X0347080Y0106122D01*
X0347080Y0108168D02*
X0338102Y0108168D01*
X0338102Y0110214D02*
X0347080Y0110214D01*
X0347080Y0112260D02*
X0338102Y0112260D01*
X0338576Y0104786D02*
X0338576Y0096596D01*
X0329598Y0096596D01*
X0329598Y0104786D01*
X0338576Y0104786D01*
X0338576Y0098642D02*
X0329598Y0098642D01*
X0329598Y0100688D02*
X0338576Y0100688D01*
X0338576Y0102734D02*
X0329598Y0102734D01*
X0329598Y0104780D02*
X0338576Y0104780D01*
X0338102Y0104786D02*
X0338102Y0096596D01*
X0338102Y0104786D02*
X0347080Y0104786D01*
X0347080Y0096596D01*
X0338102Y0096596D01*
X0338102Y0098642D02*
X0347080Y0098642D01*
X0347080Y0100688D02*
X0338102Y0100688D01*
X0338102Y0102734D02*
X0347080Y0102734D01*
X0347080Y0104780D02*
X0338102Y0104780D01*
X0338576Y0057148D02*
X0338576Y0048958D01*
X0329598Y0048958D01*
X0329598Y0057148D01*
X0338576Y0057148D01*
X0338576Y0051004D02*
X0329598Y0051004D01*
X0329598Y0053050D02*
X0338576Y0053050D01*
X0338576Y0055096D02*
X0329598Y0055096D01*
X0329598Y0057142D02*
X0338576Y0057142D01*
X0347001Y0057148D02*
X0347001Y0048958D01*
X0338023Y0048958D01*
X0338023Y0057148D01*
X0347001Y0057148D01*
X0347001Y0051004D02*
X0338023Y0051004D01*
X0338023Y0053050D02*
X0347001Y0053050D01*
X0347001Y0055096D02*
X0338023Y0055096D01*
X0338023Y0057142D02*
X0347001Y0057142D01*
X0347001Y0049668D02*
X0347001Y0041478D01*
X0338023Y0041478D01*
X0338023Y0049668D01*
X0347001Y0049668D01*
X0347001Y0043524D02*
X0338023Y0043524D01*
X0338023Y0045570D02*
X0347001Y0045570D01*
X0347001Y0047616D02*
X0338023Y0047616D01*
X0338023Y0049662D02*
X0347001Y0049662D01*
X0338102Y0041341D02*
X0338102Y0033151D01*
X0338102Y0041341D02*
X0347080Y0041341D01*
X0347080Y0033151D01*
X0338102Y0033151D01*
X0338102Y0035197D02*
X0347080Y0035197D01*
X0347080Y0037243D02*
X0338102Y0037243D01*
X0338102Y0039289D02*
X0347080Y0039289D01*
X0347080Y0041335D02*
X0338102Y0041335D01*
X0338576Y0041478D02*
X0338576Y0049668D01*
X0338576Y0041478D02*
X0329598Y0041478D01*
X0329598Y0049668D01*
X0338576Y0049668D01*
X0338576Y0043524D02*
X0329598Y0043524D01*
X0329598Y0045570D02*
X0338576Y0045570D01*
X0338576Y0047616D02*
X0329598Y0047616D01*
X0329598Y0049662D02*
X0338576Y0049662D01*
X0338576Y0041006D02*
X0338576Y0032816D01*
X0329598Y0032816D01*
X0329598Y0041006D01*
X0338576Y0041006D01*
X0338576Y0034862D02*
X0329598Y0034862D01*
X0329598Y0036908D02*
X0338576Y0036908D01*
X0338576Y0038954D02*
X0329598Y0038954D01*
X0329598Y0041000D02*
X0338576Y0041000D01*
X0338102Y0033861D02*
X0338102Y0025671D01*
X0338102Y0033861D02*
X0347080Y0033861D01*
X0347080Y0025671D01*
X0338102Y0025671D01*
X0338102Y0027717D02*
X0347080Y0027717D01*
X0347080Y0029763D02*
X0338102Y0029763D01*
X0338102Y0031809D02*
X0347080Y0031809D01*
X0347080Y0033855D02*
X0338102Y0033855D01*
X0338576Y0033526D02*
X0338576Y0025336D01*
X0329598Y0025336D01*
X0329598Y0033526D01*
X0338576Y0033526D01*
X0338576Y0027382D02*
X0329598Y0027382D01*
X0329598Y0029428D02*
X0338576Y0029428D01*
X0338576Y0031474D02*
X0329598Y0031474D01*
X0329598Y0033520D02*
X0338576Y0033520D01*
X0338969Y0240297D02*
X0338969Y0248487D01*
X0338969Y0240297D02*
X0329991Y0240297D01*
X0329991Y0248487D01*
X0338969Y0248487D01*
X0338969Y0242343D02*
X0329991Y0242343D01*
X0329991Y0244389D02*
X0338969Y0244389D01*
X0338969Y0246435D02*
X0329991Y0246435D01*
X0329991Y0248481D02*
X0338969Y0248481D01*
X0338495Y0247994D02*
X0338495Y0256184D01*
X0347473Y0256184D01*
X0347473Y0247994D01*
X0338495Y0247994D01*
X0338495Y0250040D02*
X0347473Y0250040D01*
X0347473Y0252086D02*
X0338495Y0252086D01*
X0338495Y0254132D02*
X0347473Y0254132D01*
X0347473Y0256178D02*
X0338495Y0256178D01*
X0338969Y0255967D02*
X0338969Y0247777D01*
X0329991Y0247777D01*
X0329991Y0255967D01*
X0338969Y0255967D01*
X0338969Y0249823D02*
X0329991Y0249823D01*
X0329991Y0251869D02*
X0338969Y0251869D01*
X0338969Y0253915D02*
X0329991Y0253915D01*
X0329991Y0255961D02*
X0338969Y0255961D01*
X0347395Y0256163D02*
X0347395Y0264353D01*
X0347395Y0256163D02*
X0338417Y0256163D01*
X0338417Y0264353D01*
X0347395Y0264353D01*
X0347395Y0258209D02*
X0338417Y0258209D01*
X0338417Y0260255D02*
X0347395Y0260255D01*
X0347395Y0262301D02*
X0338417Y0262301D01*
X0338417Y0264347D02*
X0347395Y0264347D01*
X0347395Y0263643D02*
X0347395Y0271833D01*
X0347395Y0263643D02*
X0338417Y0263643D01*
X0338417Y0271833D01*
X0347395Y0271833D01*
X0347395Y0265689D02*
X0338417Y0265689D01*
X0338417Y0267735D02*
X0347395Y0267735D01*
X0347395Y0269781D02*
X0338417Y0269781D01*
X0338417Y0271827D02*
X0347395Y0271827D01*
X0338969Y0271715D02*
X0338969Y0263525D01*
X0329991Y0263525D01*
X0329991Y0271715D01*
X0338969Y0271715D01*
X0338969Y0265571D02*
X0329991Y0265571D01*
X0329991Y0267617D02*
X0338969Y0267617D01*
X0338969Y0269663D02*
X0329991Y0269663D01*
X0329991Y0271709D02*
X0338969Y0271709D01*
X0338969Y0264235D02*
X0338969Y0256045D01*
X0329991Y0256045D01*
X0329991Y0264235D01*
X0338969Y0264235D01*
X0338969Y0258091D02*
X0329991Y0258091D01*
X0329991Y0260137D02*
X0338969Y0260137D01*
X0338969Y0262183D02*
X0329991Y0262183D01*
X0329991Y0264229D02*
X0338969Y0264229D01*
X0338495Y0248703D02*
X0338495Y0240513D01*
X0338495Y0248703D02*
X0347473Y0248703D01*
X0347473Y0240513D01*
X0338495Y0240513D01*
X0338495Y0242559D02*
X0347473Y0242559D01*
X0347473Y0244605D02*
X0338495Y0244605D01*
X0338495Y0246651D02*
X0347473Y0246651D01*
X0347473Y0248697D02*
X0338495Y0248697D01*
D11*
X0253142Y0211872D03*
D12*
X0260760Y0211567D02*
X0260760Y0209677D01*
X0260760Y0211567D02*
X0267570Y0211567D01*
X0267570Y0209677D01*
X0260760Y0209677D01*
X0260760Y0210148D02*
X0267570Y0210148D01*
X0267570Y0210619D02*
X0260760Y0210619D01*
X0260760Y0211090D02*
X0267570Y0211090D01*
X0267570Y0211561D02*
X0260760Y0211561D01*
X0260760Y0212177D02*
X0260760Y0214067D01*
X0267570Y0214067D01*
X0267570Y0212177D01*
X0260760Y0212177D01*
X0260760Y0212648D02*
X0267570Y0212648D01*
X0267570Y0213119D02*
X0260760Y0213119D01*
X0260760Y0213590D02*
X0267570Y0213590D01*
X0267570Y0214061D02*
X0260760Y0214061D01*
X0260760Y0214677D02*
X0260760Y0216567D01*
X0267570Y0216567D01*
X0267570Y0214677D01*
X0260760Y0214677D01*
X0260760Y0215148D02*
X0267570Y0215148D01*
X0267570Y0215619D02*
X0260760Y0215619D01*
X0260760Y0216090D02*
X0267570Y0216090D01*
X0267570Y0216561D02*
X0260760Y0216561D01*
X0260760Y0217177D02*
X0260760Y0219067D01*
X0267570Y0219067D01*
X0267570Y0217177D01*
X0260760Y0217177D01*
X0260760Y0217648D02*
X0267570Y0217648D01*
X0267570Y0218119D02*
X0260760Y0218119D01*
X0260760Y0218590D02*
X0267570Y0218590D01*
X0267570Y0219061D02*
X0260760Y0219061D01*
X0260760Y0219677D02*
X0260760Y0221567D01*
X0267570Y0221567D01*
X0267570Y0219677D01*
X0260760Y0219677D01*
X0260760Y0220148D02*
X0267570Y0220148D01*
X0267570Y0220619D02*
X0260760Y0220619D01*
X0260760Y0221090D02*
X0267570Y0221090D01*
X0267570Y0221561D02*
X0260760Y0221561D01*
X0260760Y0222177D02*
X0260760Y0224067D01*
X0267570Y0224067D01*
X0267570Y0222177D01*
X0260760Y0222177D01*
X0260760Y0222648D02*
X0267570Y0222648D01*
X0267570Y0223119D02*
X0260760Y0223119D01*
X0260760Y0223590D02*
X0267570Y0223590D01*
X0267570Y0224061D02*
X0260760Y0224061D01*
X0260760Y0224677D02*
X0260760Y0226567D01*
X0267570Y0226567D01*
X0267570Y0224677D01*
X0260760Y0224677D01*
X0260760Y0225148D02*
X0267570Y0225148D01*
X0267570Y0225619D02*
X0260760Y0225619D01*
X0260760Y0226090D02*
X0267570Y0226090D01*
X0267570Y0226561D02*
X0260760Y0226561D01*
X0238713Y0226567D02*
X0238713Y0224677D01*
X0238713Y0226567D02*
X0245523Y0226567D01*
X0245523Y0224677D01*
X0238713Y0224677D01*
X0238713Y0225148D02*
X0245523Y0225148D01*
X0245523Y0225619D02*
X0238713Y0225619D01*
X0238713Y0226090D02*
X0245523Y0226090D01*
X0245523Y0226561D02*
X0238713Y0226561D01*
X0238713Y0224067D02*
X0238713Y0222177D01*
X0238713Y0224067D02*
X0245523Y0224067D01*
X0245523Y0222177D01*
X0238713Y0222177D01*
X0238713Y0222648D02*
X0245523Y0222648D01*
X0245523Y0223119D02*
X0238713Y0223119D01*
X0238713Y0223590D02*
X0245523Y0223590D01*
X0245523Y0224061D02*
X0238713Y0224061D01*
X0238713Y0221567D02*
X0238713Y0219677D01*
X0238713Y0221567D02*
X0245523Y0221567D01*
X0245523Y0219677D01*
X0238713Y0219677D01*
X0238713Y0220148D02*
X0245523Y0220148D01*
X0245523Y0220619D02*
X0238713Y0220619D01*
X0238713Y0221090D02*
X0245523Y0221090D01*
X0245523Y0221561D02*
X0238713Y0221561D01*
X0238713Y0219067D02*
X0238713Y0217177D01*
X0238713Y0219067D02*
X0245523Y0219067D01*
X0245523Y0217177D01*
X0238713Y0217177D01*
X0238713Y0217648D02*
X0245523Y0217648D01*
X0245523Y0218119D02*
X0238713Y0218119D01*
X0238713Y0218590D02*
X0245523Y0218590D01*
X0245523Y0219061D02*
X0238713Y0219061D01*
X0238713Y0216567D02*
X0238713Y0214677D01*
X0238713Y0216567D02*
X0245523Y0216567D01*
X0245523Y0214677D01*
X0238713Y0214677D01*
X0238713Y0215148D02*
X0245523Y0215148D01*
X0245523Y0215619D02*
X0238713Y0215619D01*
X0238713Y0216090D02*
X0245523Y0216090D01*
X0245523Y0216561D02*
X0238713Y0216561D01*
X0238713Y0214067D02*
X0238713Y0212177D01*
X0238713Y0214067D02*
X0245523Y0214067D01*
X0245523Y0212177D01*
X0238713Y0212177D01*
X0238713Y0212648D02*
X0245523Y0212648D01*
X0245523Y0213119D02*
X0238713Y0213119D01*
X0238713Y0213590D02*
X0245523Y0213590D01*
X0245523Y0214061D02*
X0238713Y0214061D01*
X0238713Y0211567D02*
X0238713Y0209677D01*
X0238713Y0211567D02*
X0245523Y0211567D01*
X0245523Y0209677D01*
X0238713Y0209677D01*
X0238713Y0210148D02*
X0245523Y0210148D01*
X0245523Y0210619D02*
X0238713Y0210619D01*
X0238713Y0211090D02*
X0245523Y0211090D01*
X0245523Y0211561D02*
X0238713Y0211561D01*
X0238713Y0209067D02*
X0238713Y0207177D01*
X0238713Y0209067D02*
X0245523Y0209067D01*
X0245523Y0207177D01*
X0238713Y0207177D01*
X0238713Y0207648D02*
X0245523Y0207648D01*
X0245523Y0208119D02*
X0238713Y0208119D01*
X0238713Y0208590D02*
X0245523Y0208590D01*
X0245523Y0209061D02*
X0238713Y0209061D01*
X0238713Y0206567D02*
X0238713Y0204677D01*
X0238713Y0206567D02*
X0245523Y0206567D01*
X0245523Y0204677D01*
X0238713Y0204677D01*
X0238713Y0205148D02*
X0245523Y0205148D01*
X0245523Y0205619D02*
X0238713Y0205619D01*
X0238713Y0206090D02*
X0245523Y0206090D01*
X0245523Y0206561D02*
X0238713Y0206561D01*
X0238713Y0204067D02*
X0238713Y0202177D01*
X0238713Y0204067D02*
X0245523Y0204067D01*
X0245523Y0202177D01*
X0238713Y0202177D01*
X0238713Y0202648D02*
X0245523Y0202648D01*
X0245523Y0203119D02*
X0238713Y0203119D01*
X0238713Y0203590D02*
X0245523Y0203590D01*
X0245523Y0204061D02*
X0238713Y0204061D01*
X0238713Y0201567D02*
X0238713Y0199677D01*
X0238713Y0201567D02*
X0245523Y0201567D01*
X0245523Y0199677D01*
X0238713Y0199677D01*
X0238713Y0200148D02*
X0245523Y0200148D01*
X0245523Y0200619D02*
X0238713Y0200619D01*
X0238713Y0201090D02*
X0245523Y0201090D01*
X0245523Y0201561D02*
X0238713Y0201561D01*
X0238713Y0199067D02*
X0238713Y0197177D01*
X0238713Y0199067D02*
X0245523Y0199067D01*
X0245523Y0197177D01*
X0238713Y0197177D01*
X0238713Y0197648D02*
X0245523Y0197648D01*
X0245523Y0198119D02*
X0238713Y0198119D01*
X0238713Y0198590D02*
X0245523Y0198590D01*
X0245523Y0199061D02*
X0238713Y0199061D01*
X0260760Y0199067D02*
X0260760Y0197177D01*
X0260760Y0199067D02*
X0267570Y0199067D01*
X0267570Y0197177D01*
X0260760Y0197177D01*
X0260760Y0197648D02*
X0267570Y0197648D01*
X0267570Y0198119D02*
X0260760Y0198119D01*
X0260760Y0198590D02*
X0267570Y0198590D01*
X0267570Y0199061D02*
X0260760Y0199061D01*
X0260760Y0199677D02*
X0260760Y0201567D01*
X0267570Y0201567D01*
X0267570Y0199677D01*
X0260760Y0199677D01*
X0260760Y0200148D02*
X0267570Y0200148D01*
X0267570Y0200619D02*
X0260760Y0200619D01*
X0260760Y0201090D02*
X0267570Y0201090D01*
X0267570Y0201561D02*
X0260760Y0201561D01*
X0260760Y0202177D02*
X0260760Y0204067D01*
X0267570Y0204067D01*
X0267570Y0202177D01*
X0260760Y0202177D01*
X0260760Y0202648D02*
X0267570Y0202648D01*
X0267570Y0203119D02*
X0260760Y0203119D01*
X0260760Y0203590D02*
X0267570Y0203590D01*
X0267570Y0204061D02*
X0260760Y0204061D01*
X0260760Y0204677D02*
X0260760Y0206567D01*
X0267570Y0206567D01*
X0267570Y0204677D01*
X0260760Y0204677D01*
X0260760Y0205148D02*
X0267570Y0205148D01*
X0267570Y0205619D02*
X0260760Y0205619D01*
X0260760Y0206090D02*
X0267570Y0206090D01*
X0267570Y0206561D02*
X0260760Y0206561D01*
X0260760Y0207177D02*
X0260760Y0209067D01*
X0267570Y0209067D01*
X0267570Y0207177D01*
X0260760Y0207177D01*
X0260760Y0207648D02*
X0267570Y0207648D01*
X0267570Y0208119D02*
X0260760Y0208119D01*
X0260760Y0208590D02*
X0267570Y0208590D01*
X0267570Y0209061D02*
X0260760Y0209061D01*
X0193653Y0208171D02*
X0193653Y0210061D01*
X0193653Y0208171D02*
X0186055Y0208171D01*
X0186055Y0210061D01*
X0193653Y0210061D01*
X0193653Y0208642D02*
X0186055Y0208642D01*
X0186055Y0209113D02*
X0193653Y0209113D01*
X0193653Y0209584D02*
X0186055Y0209584D01*
X0186055Y0210055D02*
X0193653Y0210055D01*
X0193653Y0210730D02*
X0193653Y0212620D01*
X0193653Y0210730D02*
X0186055Y0210730D01*
X0186055Y0212620D01*
X0193653Y0212620D01*
X0193653Y0211201D02*
X0186055Y0211201D01*
X0186055Y0211672D02*
X0193653Y0211672D01*
X0193653Y0212143D02*
X0186055Y0212143D01*
X0186055Y0212614D02*
X0193653Y0212614D01*
X0193653Y0213289D02*
X0193653Y0215179D01*
X0193653Y0213289D02*
X0186055Y0213289D01*
X0186055Y0215179D01*
X0193653Y0215179D01*
X0193653Y0213760D02*
X0186055Y0213760D01*
X0186055Y0214231D02*
X0193653Y0214231D01*
X0193653Y0214702D02*
X0186055Y0214702D01*
X0186055Y0215173D02*
X0193653Y0215173D01*
X0193653Y0215848D02*
X0193653Y0217738D01*
X0193653Y0215848D02*
X0186055Y0215848D01*
X0186055Y0217738D01*
X0193653Y0217738D01*
X0193653Y0216319D02*
X0186055Y0216319D01*
X0186055Y0216790D02*
X0193653Y0216790D01*
X0193653Y0217261D02*
X0186055Y0217261D01*
X0186055Y0217732D02*
X0193653Y0217732D01*
X0193653Y0218407D02*
X0193653Y0220297D01*
X0193653Y0218407D02*
X0186055Y0218407D01*
X0186055Y0220297D01*
X0193653Y0220297D01*
X0193653Y0218878D02*
X0186055Y0218878D01*
X0186055Y0219349D02*
X0193653Y0219349D01*
X0193653Y0219820D02*
X0186055Y0219820D01*
X0186055Y0220291D02*
X0193653Y0220291D01*
X0193653Y0220966D02*
X0193653Y0222856D01*
X0193653Y0220966D02*
X0186055Y0220966D01*
X0186055Y0222856D01*
X0193653Y0222856D01*
X0193653Y0221437D02*
X0186055Y0221437D01*
X0186055Y0221908D02*
X0193653Y0221908D01*
X0193653Y0222379D02*
X0186055Y0222379D01*
X0186055Y0222850D02*
X0193653Y0222850D01*
X0193653Y0207502D02*
X0193653Y0205612D01*
X0186055Y0205612D01*
X0186055Y0207502D01*
X0193653Y0207502D01*
X0193653Y0206083D02*
X0186055Y0206083D01*
X0186055Y0206554D02*
X0193653Y0206554D01*
X0193653Y0207025D02*
X0186055Y0207025D01*
X0186055Y0207496D02*
X0193653Y0207496D01*
X0193653Y0204943D02*
X0193653Y0203053D01*
X0186055Y0203053D01*
X0186055Y0204943D01*
X0193653Y0204943D01*
X0193653Y0203524D02*
X0186055Y0203524D01*
X0186055Y0203995D02*
X0193653Y0203995D01*
X0193653Y0204466D02*
X0186055Y0204466D01*
X0186055Y0204937D02*
X0193653Y0204937D01*
X0193653Y0202384D02*
X0193653Y0200494D01*
X0186055Y0200494D01*
X0186055Y0202384D01*
X0193653Y0202384D01*
X0193653Y0200965D02*
X0186055Y0200965D01*
X0186055Y0201436D02*
X0193653Y0201436D01*
X0193653Y0201907D02*
X0186055Y0201907D01*
X0186055Y0202378D02*
X0193653Y0202378D01*
X0193653Y0199825D02*
X0193653Y0197935D01*
X0186055Y0197935D01*
X0186055Y0199825D01*
X0193653Y0199825D01*
X0193653Y0198406D02*
X0186055Y0198406D01*
X0186055Y0198877D02*
X0193653Y0198877D01*
X0193653Y0199348D02*
X0186055Y0199348D01*
X0186055Y0199819D02*
X0193653Y0199819D01*
X0165897Y0199825D02*
X0165897Y0197935D01*
X0158299Y0197935D01*
X0158299Y0199825D01*
X0165897Y0199825D01*
X0165897Y0198406D02*
X0158299Y0198406D01*
X0158299Y0198877D02*
X0165897Y0198877D01*
X0165897Y0199348D02*
X0158299Y0199348D01*
X0158299Y0199819D02*
X0165897Y0199819D01*
X0165897Y0200494D02*
X0165897Y0202384D01*
X0165897Y0200494D02*
X0158299Y0200494D01*
X0158299Y0202384D01*
X0165897Y0202384D01*
X0165897Y0200965D02*
X0158299Y0200965D01*
X0158299Y0201436D02*
X0165897Y0201436D01*
X0165897Y0201907D02*
X0158299Y0201907D01*
X0158299Y0202378D02*
X0165897Y0202378D01*
X0165897Y0203053D02*
X0165897Y0204943D01*
X0165897Y0203053D02*
X0158299Y0203053D01*
X0158299Y0204943D01*
X0165897Y0204943D01*
X0165897Y0203524D02*
X0158299Y0203524D01*
X0158299Y0203995D02*
X0165897Y0203995D01*
X0165897Y0204466D02*
X0158299Y0204466D01*
X0158299Y0204937D02*
X0165897Y0204937D01*
X0165897Y0205612D02*
X0165897Y0207502D01*
X0165897Y0205612D02*
X0158299Y0205612D01*
X0158299Y0207502D01*
X0165897Y0207502D01*
X0165897Y0206083D02*
X0158299Y0206083D01*
X0158299Y0206554D02*
X0165897Y0206554D01*
X0165897Y0207025D02*
X0158299Y0207025D01*
X0158299Y0207496D02*
X0165897Y0207496D01*
X0165897Y0208171D02*
X0165897Y0210061D01*
X0165897Y0208171D02*
X0158299Y0208171D01*
X0158299Y0210061D01*
X0165897Y0210061D01*
X0165897Y0208642D02*
X0158299Y0208642D01*
X0158299Y0209113D02*
X0165897Y0209113D01*
X0165897Y0209584D02*
X0158299Y0209584D01*
X0158299Y0210055D02*
X0165897Y0210055D01*
X0165897Y0210730D02*
X0165897Y0212620D01*
X0165897Y0210730D02*
X0158299Y0210730D01*
X0158299Y0212620D01*
X0165897Y0212620D01*
X0165897Y0211201D02*
X0158299Y0211201D01*
X0158299Y0211672D02*
X0165897Y0211672D01*
X0165897Y0212143D02*
X0158299Y0212143D01*
X0158299Y0212614D02*
X0165897Y0212614D01*
X0165897Y0213289D02*
X0165897Y0215179D01*
X0165897Y0213289D02*
X0158299Y0213289D01*
X0158299Y0215179D01*
X0165897Y0215179D01*
X0165897Y0213760D02*
X0158299Y0213760D01*
X0158299Y0214231D02*
X0165897Y0214231D01*
X0165897Y0214702D02*
X0158299Y0214702D01*
X0158299Y0215173D02*
X0165897Y0215173D01*
X0165897Y0215848D02*
X0165897Y0217738D01*
X0165897Y0215848D02*
X0158299Y0215848D01*
X0158299Y0217738D01*
X0165897Y0217738D01*
X0165897Y0216319D02*
X0158299Y0216319D01*
X0158299Y0216790D02*
X0165897Y0216790D01*
X0165897Y0217261D02*
X0158299Y0217261D01*
X0158299Y0217732D02*
X0165897Y0217732D01*
X0165897Y0218407D02*
X0165897Y0220297D01*
X0165897Y0218407D02*
X0158299Y0218407D01*
X0158299Y0220297D01*
X0165897Y0220297D01*
X0165897Y0218878D02*
X0158299Y0218878D01*
X0158299Y0219349D02*
X0165897Y0219349D01*
X0165897Y0219820D02*
X0158299Y0219820D01*
X0158299Y0220291D02*
X0165897Y0220291D01*
X0165897Y0220966D02*
X0165897Y0222856D01*
X0165897Y0220966D02*
X0158299Y0220966D01*
X0158299Y0222856D01*
X0165897Y0222856D01*
X0165897Y0221437D02*
X0158299Y0221437D01*
X0158299Y0221908D02*
X0165897Y0221908D01*
X0165897Y0222379D02*
X0158299Y0222379D01*
X0158299Y0222850D02*
X0165897Y0222850D01*
D13*
X0243693Y0229195D02*
X0262591Y0229195D01*
X0262591Y0194549D01*
X0243693Y0194549D01*
X0243693Y0229195D01*
X0243693Y0199272D02*
X0262591Y0199272D01*
X0262591Y0203995D02*
X0243693Y0203995D01*
X0243693Y0208718D02*
X0262591Y0208718D01*
X0262591Y0213441D02*
X0243693Y0213441D01*
X0243693Y0218164D02*
X0262591Y0218164D01*
X0262591Y0222887D02*
X0243693Y0222887D01*
X0243693Y0227610D02*
X0262591Y0227610D01*
D14*
X0225819Y0277778D03*
X0225819Y0287778D03*
X0208102Y0287778D03*
X0208102Y0277778D03*
X0190386Y0277778D03*
X0190386Y0287778D03*
X0172669Y0287778D03*
X0172669Y0277778D03*
X0091173Y0182266D03*
X0091173Y0172266D03*
X0352079Y0179411D03*
X0352079Y0189411D03*
X0365681Y0199352D03*
X0365681Y0179352D03*
X0365681Y0126774D03*
X0352394Y0116813D03*
X0352394Y0106813D03*
X0365681Y0106774D03*
X0365091Y0056163D03*
X0352394Y0046104D03*
X0352394Y0036104D03*
X0365091Y0036163D03*
X0365287Y0251341D03*
X0352079Y0251301D03*
X0352079Y0261301D03*
X0365287Y0271341D03*
D15*
X0209913Y0152777D02*
X0209913Y0145219D01*
X0199993Y0145219D01*
X0199993Y0152777D01*
X0209913Y0152777D01*
X0209913Y0147108D02*
X0199993Y0147108D01*
X0199993Y0148997D02*
X0209913Y0148997D01*
X0209913Y0150886D02*
X0199993Y0150886D01*
X0199993Y0152775D02*
X0209913Y0152775D01*
X0209913Y0142777D02*
X0209913Y0135219D01*
X0199993Y0135219D01*
X0199993Y0142777D01*
X0209913Y0142777D01*
X0209913Y0137108D02*
X0199993Y0137108D01*
X0199993Y0138997D02*
X0209913Y0138997D01*
X0209913Y0140886D02*
X0199993Y0140886D01*
X0199993Y0142775D02*
X0209913Y0142775D01*
X0209913Y0132777D02*
X0209913Y0125219D01*
X0199993Y0125219D01*
X0199993Y0132777D01*
X0209913Y0132777D01*
X0209913Y0127108D02*
X0199993Y0127108D01*
X0199993Y0128997D02*
X0209913Y0128997D01*
X0209913Y0130886D02*
X0199993Y0130886D01*
X0199993Y0132775D02*
X0209913Y0132775D01*
X0209913Y0122777D02*
X0209913Y0115219D01*
X0199993Y0115219D01*
X0199993Y0122777D01*
X0209913Y0122777D01*
X0209913Y0117108D02*
X0199993Y0117108D01*
X0199993Y0118997D02*
X0209913Y0118997D01*
X0209913Y0120886D02*
X0199993Y0120886D01*
X0199993Y0122775D02*
X0209913Y0122775D01*
X0159993Y0122777D02*
X0159993Y0115219D01*
X0159993Y0122777D02*
X0169913Y0122777D01*
X0169913Y0115219D01*
X0159993Y0115219D01*
X0159993Y0117108D02*
X0169913Y0117108D01*
X0169913Y0118997D02*
X0159993Y0118997D01*
X0159993Y0120886D02*
X0169913Y0120886D01*
X0169913Y0122775D02*
X0159993Y0122775D01*
X0159993Y0125219D02*
X0159993Y0132777D01*
X0169913Y0132777D01*
X0169913Y0125219D01*
X0159993Y0125219D01*
X0159993Y0127108D02*
X0169913Y0127108D01*
X0169913Y0128997D02*
X0159993Y0128997D01*
X0159993Y0130886D02*
X0169913Y0130886D01*
X0169913Y0132775D02*
X0159993Y0132775D01*
X0159993Y0135219D02*
X0159993Y0142777D01*
X0169913Y0142777D01*
X0169913Y0135219D01*
X0159993Y0135219D01*
X0159993Y0137108D02*
X0169913Y0137108D01*
X0169913Y0138997D02*
X0159993Y0138997D01*
X0159993Y0140886D02*
X0169913Y0140886D01*
X0169913Y0142775D02*
X0159993Y0142775D01*
X0159993Y0145219D02*
X0159993Y0152777D01*
X0169913Y0152777D01*
X0169913Y0145219D01*
X0159993Y0145219D01*
X0159993Y0147108D02*
X0169913Y0147108D01*
X0169913Y0148997D02*
X0159993Y0148997D01*
X0159993Y0150886D02*
X0169913Y0150886D01*
X0169913Y0152775D02*
X0159993Y0152775D01*
D16*
X0129362Y0109706D02*
X0129362Y0104668D01*
X0129362Y0109706D02*
X0136370Y0109706D01*
X0136370Y0104668D01*
X0129362Y0104668D01*
X0129362Y0105927D02*
X0136370Y0105927D01*
X0136370Y0107186D02*
X0129362Y0107186D01*
X0129362Y0108445D02*
X0136370Y0108445D01*
X0136370Y0109704D02*
X0129362Y0109704D01*
X0129362Y0104706D02*
X0129362Y0099668D01*
X0129362Y0104706D02*
X0136370Y0104706D01*
X0136370Y0099668D01*
X0129362Y0099668D01*
X0129362Y0100927D02*
X0136370Y0100927D01*
X0136370Y0102186D02*
X0129362Y0102186D01*
X0129362Y0103445D02*
X0136370Y0103445D01*
X0136370Y0104704D02*
X0129362Y0104704D01*
X0129362Y0099706D02*
X0129362Y0094668D01*
X0129362Y0099706D02*
X0136370Y0099706D01*
X0136370Y0094668D01*
X0129362Y0094668D01*
X0129362Y0095927D02*
X0136370Y0095927D01*
X0136370Y0097186D02*
X0129362Y0097186D01*
X0129362Y0098445D02*
X0136370Y0098445D01*
X0136370Y0099704D02*
X0129362Y0099704D01*
X0095898Y0099668D02*
X0095898Y0104706D01*
X0102906Y0104706D01*
X0102906Y0099668D01*
X0095898Y0099668D01*
X0095898Y0100927D02*
X0102906Y0100927D01*
X0102906Y0102186D02*
X0095898Y0102186D01*
X0095898Y0103445D02*
X0102906Y0103445D01*
X0102906Y0104704D02*
X0095898Y0104704D01*
X0095898Y0104668D02*
X0095898Y0109706D01*
X0102906Y0109706D01*
X0102906Y0104668D01*
X0095898Y0104668D01*
X0095898Y0105927D02*
X0102906Y0105927D01*
X0102906Y0107186D02*
X0095898Y0107186D01*
X0095898Y0108445D02*
X0102906Y0108445D01*
X0102906Y0109704D02*
X0095898Y0109704D01*
X0095898Y0099706D02*
X0095898Y0094668D01*
X0095898Y0099706D02*
X0102906Y0099706D01*
X0102906Y0094668D01*
X0095898Y0094668D01*
X0095898Y0095927D02*
X0102906Y0095927D01*
X0102906Y0097186D02*
X0095898Y0097186D01*
X0095898Y0098445D02*
X0102906Y0098445D01*
X0102906Y0099704D02*
X0095898Y0099704D01*
D17*
X0112669Y0090042D02*
X0112669Y0083742D01*
X0104795Y0083742D01*
X0104795Y0090042D01*
X0112669Y0090042D01*
X0112669Y0085316D02*
X0104795Y0085316D01*
X0104795Y0086890D02*
X0112669Y0086890D01*
X0112669Y0088464D02*
X0104795Y0088464D01*
X0104795Y0090038D02*
X0112669Y0090038D01*
X0104008Y0086302D02*
X0104008Y0080002D01*
X0096134Y0080002D01*
X0096134Y0086302D01*
X0104008Y0086302D01*
X0104008Y0081576D02*
X0096134Y0081576D01*
X0096134Y0083150D02*
X0104008Y0083150D01*
X0104008Y0084724D02*
X0096134Y0084724D01*
X0096134Y0086298D02*
X0104008Y0086298D01*
X0112669Y0082561D02*
X0112669Y0076261D01*
X0104795Y0076261D01*
X0104795Y0082561D01*
X0112669Y0082561D01*
X0112669Y0077835D02*
X0104795Y0077835D01*
X0104795Y0079409D02*
X0112669Y0079409D01*
X0112669Y0080983D02*
X0104795Y0080983D01*
X0104795Y0082557D02*
X0112669Y0082557D01*
D18*
X0365091Y0046163D03*
X0365681Y0116774D03*
X0365681Y0189352D03*
X0365287Y0261341D03*
D19*
X0385287Y0281341D03*
X0385287Y0241341D03*
X0385681Y0209352D03*
X0385681Y0169352D03*
X0385681Y0136774D03*
X0385681Y0096774D03*
X0385091Y0066163D03*
X0385091Y0026163D03*
D20*
X0067059Y0062699D03*
X0067059Y0082384D03*
X0067059Y0102384D03*
X0067059Y0122384D03*
X0067059Y0142384D03*
X0067059Y0162384D03*
X0067059Y0182384D03*
X0067059Y0202384D03*
X0067059Y0222384D03*
X0067059Y0242069D03*
D21*
X0057217Y0042384D03*
X0057217Y0262384D03*
D22*
X0101000Y0246557D03*
X0111000Y0246557D03*
X0121000Y0246557D03*
X0131000Y0246557D03*
X0141000Y0246557D03*
X0151000Y0246557D03*
X0161000Y0246557D03*
X0171000Y0246557D03*
X0181000Y0246557D03*
X0191000Y0246557D03*
X0207000Y0246557D03*
X0217000Y0246557D03*
X0227000Y0246557D03*
X0237000Y0246557D03*
X0247000Y0246557D03*
X0257000Y0246557D03*
X0267000Y0246557D03*
X0277000Y0246557D03*
X0277000Y0056557D03*
X0267000Y0056557D03*
X0257000Y0056557D03*
X0247000Y0056557D03*
X0237000Y0056557D03*
X0227000Y0056557D03*
X0207000Y0056557D03*
X0197000Y0056557D03*
X0187000Y0056557D03*
X0177000Y0056557D03*
X0167000Y0056557D03*
X0157000Y0056557D03*
X0147000Y0056557D03*
X0137000Y0056557D03*
D23*
X0082000Y0056557D03*
X0287000Y0076557D03*
X0287000Y0186557D03*
X0087000Y0246557D03*
D24*
X0077394Y0259549D03*
X0079362Y0266242D03*
X0130937Y0233565D03*
X0141173Y0236321D03*
X0141173Y0229628D03*
X0152591Y0231203D03*
X0167945Y0219392D03*
X0185661Y0231596D03*
X0181724Y0239864D03*
X0177787Y0236321D03*
X0201409Y0236321D03*
X0206921Y0227659D03*
X0206134Y0223329D03*
X0223457Y0223302D03*
X0231331Y0220573D03*
X0237033Y0218184D03*
X0233299Y0215848D03*
X0236449Y0202069D03*
X0233693Y0194195D03*
X0238811Y0187502D03*
X0257709Y0174904D03*
X0215189Y0197344D03*
X0204559Y0206400D03*
X0199047Y0251281D03*
X0227000Y0254037D03*
X0236843Y0254037D03*
X0247079Y0254037D03*
X0272276Y0223329D03*
X0277787Y0220573D03*
X0293929Y0248919D03*
X0301803Y0252069D03*
X0328969Y0252069D03*
X0328969Y0260337D03*
X0308890Y0192620D03*
X0319520Y0180415D03*
X0328969Y0180415D03*
X0328969Y0188289D03*
X0320701Y0161911D03*
X0307315Y0128841D03*
X0328575Y0115848D03*
X0328575Y0108762D03*
X0320701Y0108762D03*
X0293929Y0086715D03*
X0328575Y0045770D03*
X0328575Y0037108D03*
X0319913Y0037108D03*
X0215583Y0076085D03*
X0190780Y0076478D03*
X0138417Y0096951D03*
X0114402Y0079628D03*
X0097866Y0091439D03*
X0105346Y0097344D03*
X0086449Y0106006D03*
X0136449Y0197738D03*
X0110071Y0213880D03*
X0077000Y0225691D03*
X0215189Y0118998D03*
D25*
X0130543Y0084746D03*
X0084480Y0122541D03*
X0084480Y0142226D03*
M02*
