G75*
%MOIN*%
%OFA0B0*%
%FSLAX25Y25*%
%IPPOS*%
%LPD*%
%AMOC8*
5,1,8,0,0,1.08239X$1,22.5*
%
%ADD10C,0.00700*%
%ADD11C,0.00000*%
D10*
X0083517Y0086622D02*
X0083517Y0091526D01*
X0084614Y0093145D02*
X0085432Y0093145D01*
X0084614Y0093145D02*
X0083797Y0093962D01*
X0083797Y0098049D01*
X0087066Y0098049D02*
X0087066Y0095597D01*
X0086249Y0094780D01*
X0083797Y0094780D01*
X0086787Y0091526D02*
X0083517Y0086622D01*
X0086787Y0086622D02*
X0086787Y0091526D01*
X0088590Y0091526D02*
X0090224Y0091526D01*
X0089407Y0091526D02*
X0089407Y0086622D01*
X0090224Y0086622D02*
X0088590Y0086622D01*
X0097268Y0086622D02*
X0100537Y0086622D01*
X0100537Y0091526D01*
X0097268Y0091526D01*
X0098902Y0089074D02*
X0100537Y0089074D01*
X0102424Y0087439D02*
X0102424Y0090709D01*
X0103241Y0091526D01*
X0105694Y0091526D01*
X0105694Y0086622D01*
X0103241Y0086622D01*
X0102424Y0087439D01*
X0107581Y0086622D02*
X0107581Y0089891D01*
X0109215Y0091526D01*
X0110850Y0089891D01*
X0110850Y0086622D01*
X0112737Y0086622D02*
X0112737Y0091526D01*
X0114372Y0089891D01*
X0116006Y0091526D01*
X0116006Y0086622D01*
X0110850Y0089074D02*
X0107581Y0089074D01*
X0106875Y0094780D02*
X0107692Y0095597D01*
X0107692Y0097232D01*
X0106875Y0098049D01*
X0105240Y0098049D01*
X0104422Y0097232D01*
X0104422Y0096414D01*
X0107692Y0096414D01*
X0109059Y0096622D02*
X0110694Y0096622D01*
X0109876Y0096622D02*
X0109876Y0101526D01*
X0109059Y0101526D02*
X0110694Y0101526D01*
X0107256Y0101526D02*
X0103986Y0101526D01*
X0105621Y0101526D02*
X0105621Y0096622D01*
X0105240Y0094780D02*
X0106875Y0094780D01*
X0109579Y0094780D02*
X0109579Y0097232D01*
X0110396Y0098049D01*
X0112848Y0098049D01*
X0112848Y0094780D01*
X0114735Y0094780D02*
X0117187Y0094780D01*
X0118005Y0095597D01*
X0118005Y0097232D01*
X0117187Y0098049D01*
X0114735Y0098049D01*
X0114735Y0093962D01*
X0115553Y0093145D01*
X0116370Y0093145D01*
X0119808Y0094780D02*
X0121442Y0094780D01*
X0120625Y0094780D02*
X0120625Y0098049D01*
X0121442Y0098049D01*
X0120625Y0099684D02*
X0120625Y0100501D01*
X0123329Y0098049D02*
X0125781Y0098049D01*
X0126599Y0097232D01*
X0125781Y0096414D01*
X0124147Y0096414D01*
X0123329Y0095597D01*
X0124147Y0094780D01*
X0126599Y0094780D01*
X0128486Y0096414D02*
X0131755Y0096414D01*
X0131755Y0095597D02*
X0131755Y0097232D01*
X0130938Y0098049D01*
X0129303Y0098049D01*
X0128486Y0097232D01*
X0128486Y0096414D01*
X0129303Y0094780D02*
X0130938Y0094780D01*
X0131755Y0095597D01*
X0133642Y0094780D02*
X0136094Y0094780D01*
X0136912Y0095597D01*
X0136912Y0097232D01*
X0136094Y0098049D01*
X0133642Y0098049D01*
X0133642Y0099684D02*
X0133642Y0094780D01*
X0113627Y0114939D02*
X0112809Y0114122D01*
X0113627Y0114939D02*
X0113627Y0118209D01*
X0114444Y0117391D02*
X0112809Y0117391D01*
X0111006Y0117391D02*
X0110189Y0117391D01*
X0110189Y0114122D01*
X0111006Y0114122D02*
X0109372Y0114122D01*
X0107569Y0114122D02*
X0107569Y0117391D01*
X0105117Y0117391D01*
X0104299Y0116574D01*
X0104299Y0114122D01*
X0102412Y0114122D02*
X0102412Y0119026D01*
X0099960Y0117391D02*
X0102412Y0115757D01*
X0099960Y0114122D01*
X0098115Y0114939D02*
X0098115Y0116574D01*
X0097298Y0117391D01*
X0095663Y0117391D01*
X0094846Y0116574D01*
X0094846Y0115757D01*
X0098115Y0115757D01*
X0098115Y0114939D02*
X0097298Y0114122D01*
X0095663Y0114122D01*
X0092959Y0114122D02*
X0092959Y0117391D01*
X0092959Y0115757D02*
X0091324Y0117391D01*
X0090507Y0117391D01*
X0083506Y0117391D02*
X0082688Y0117391D01*
X0082688Y0114122D01*
X0081871Y0114122D02*
X0083506Y0114122D01*
X0079251Y0114939D02*
X0079251Y0118209D01*
X0080068Y0117391D02*
X0078433Y0117391D01*
X0079251Y0114939D02*
X0078433Y0114122D01*
X0082688Y0119026D02*
X0082688Y0119844D01*
X0088517Y0101526D02*
X0088517Y0100709D01*
X0090152Y0099074D01*
X0090152Y0096622D01*
X0088953Y0097232D02*
X0088953Y0095597D01*
X0089771Y0094780D01*
X0092223Y0094780D01*
X0092223Y0099684D01*
X0091787Y0100709D02*
X0090152Y0099074D01*
X0089771Y0098049D02*
X0092223Y0098049D01*
X0093674Y0096622D02*
X0096943Y0096622D01*
X0096943Y0101526D01*
X0098830Y0099891D02*
X0098830Y0096622D01*
X0099266Y0098049D02*
X0101718Y0098049D01*
X0102536Y0097232D01*
X0102536Y0095597D01*
X0101718Y0094780D01*
X0099266Y0094780D01*
X0099266Y0099684D01*
X0098830Y0099891D02*
X0100465Y0101526D01*
X0102100Y0099891D01*
X0102100Y0096622D01*
X0102100Y0099074D02*
X0098830Y0099074D01*
X0091787Y0100709D02*
X0091787Y0101526D01*
X0089771Y0098049D02*
X0088953Y0097232D01*
X0110189Y0119026D02*
X0110189Y0119844D01*
D11*
X0020000Y0096557D02*
X0020000Y0061557D01*
X0075000Y0061557D01*
X0075000Y0096557D01*
X0020000Y0096557D01*
X0001000Y0171557D02*
X0063000Y0171557D01*
X0063000Y0221557D01*
X0001000Y0221557D01*
X0001000Y0171557D01*
M02*
