G75*
%MOIN*%
%OFA0B0*%
%FSLAX25Y25*%
%IPPOS*%
%LPD*%
%AMOC8*
5,1,8,0,0,1.08239X$1,22.5*
%
%ADD10C,0.06600*%
%ADD11R,0.06600X0.06600*%
%ADD12C,0.08268*%
%ADD13C,0.13843*%
%ADD14OC8,0.06600*%
%ADD15C,0.02578*%
%ADD16C,0.01000*%
%ADD17C,0.03839*%
%ADD18C,0.01600*%
D10*
X0091173Y0172266D03*
X0091173Y0182266D03*
X0172669Y0277778D03*
X0172669Y0287778D03*
X0190386Y0287778D03*
X0190386Y0277778D03*
X0208102Y0277778D03*
X0208102Y0287778D03*
X0225819Y0287778D03*
X0225819Y0277778D03*
X0352079Y0261301D03*
X0352079Y0251301D03*
X0365287Y0251341D03*
X0365287Y0271341D03*
X0365681Y0199352D03*
X0352079Y0189411D03*
X0352079Y0179411D03*
X0365681Y0179352D03*
X0365681Y0126774D03*
X0352394Y0116813D03*
X0352394Y0106813D03*
X0365681Y0106774D03*
X0365091Y0056163D03*
X0352394Y0046104D03*
X0352394Y0036104D03*
X0365091Y0036163D03*
D11*
X0365091Y0046163D03*
X0365681Y0116774D03*
X0365681Y0189352D03*
X0365287Y0261341D03*
D12*
X0067059Y0242069D03*
X0067059Y0222384D03*
X0067059Y0202384D03*
X0067059Y0182384D03*
X0067059Y0162384D03*
X0067059Y0142384D03*
X0067059Y0122384D03*
X0067059Y0102384D03*
X0067059Y0082384D03*
X0067059Y0062699D03*
D13*
X0057217Y0042384D03*
X0057217Y0262384D03*
D14*
X0101000Y0246557D03*
X0111000Y0246557D03*
X0121000Y0246557D03*
X0131000Y0246557D03*
X0141000Y0246557D03*
X0151000Y0246557D03*
X0161000Y0246557D03*
X0171000Y0246557D03*
X0181000Y0246557D03*
X0191000Y0246557D03*
X0207000Y0246557D03*
X0217000Y0246557D03*
X0227000Y0246557D03*
X0237000Y0246557D03*
X0247000Y0246557D03*
X0257000Y0246557D03*
X0267000Y0246557D03*
X0277000Y0246557D03*
X0277000Y0056557D03*
X0267000Y0056557D03*
X0257000Y0056557D03*
X0247000Y0056557D03*
X0237000Y0056557D03*
X0227000Y0056557D03*
X0207000Y0056557D03*
X0197000Y0056557D03*
X0187000Y0056557D03*
X0177000Y0056557D03*
X0167000Y0056557D03*
X0157000Y0056557D03*
X0147000Y0056557D03*
X0137000Y0056557D03*
D15*
X0114402Y0079628D03*
X0097866Y0091439D03*
X0105346Y0097344D03*
X0086449Y0106006D03*
X0138417Y0096951D03*
X0190780Y0076478D03*
X0215583Y0076085D03*
X0215189Y0118998D03*
X0257709Y0174904D03*
X0238811Y0187502D03*
X0233693Y0194195D03*
X0236449Y0202069D03*
X0233299Y0215848D03*
X0237033Y0218184D03*
X0231331Y0220573D03*
X0223457Y0223302D03*
X0206921Y0227659D03*
X0206134Y0223329D03*
X0201409Y0236321D03*
X0185661Y0231596D03*
X0181724Y0239864D03*
X0177787Y0236321D03*
X0167945Y0219392D03*
X0152591Y0231203D03*
X0141173Y0229628D03*
X0141173Y0236321D03*
X0130937Y0233565D03*
X0110071Y0213880D03*
X0136449Y0197738D03*
X0077000Y0225691D03*
X0077394Y0259549D03*
X0079362Y0266242D03*
X0199047Y0251281D03*
X0227000Y0254037D03*
X0236843Y0254037D03*
X0247079Y0254037D03*
X0272276Y0223329D03*
X0277787Y0220573D03*
X0293929Y0248919D03*
X0301803Y0252069D03*
X0328969Y0252069D03*
X0328969Y0260337D03*
X0308890Y0192620D03*
X0319520Y0180415D03*
X0328969Y0180415D03*
X0328969Y0188289D03*
X0320701Y0161911D03*
X0307315Y0128841D03*
X0328575Y0115848D03*
X0328575Y0108762D03*
X0320701Y0108762D03*
X0293929Y0086715D03*
X0328575Y0045770D03*
X0328575Y0037108D03*
X0319913Y0037108D03*
X0215189Y0197344D03*
X0204559Y0206400D03*
D16*
X0215976Y0206400D01*
X0234087Y0188289D01*
X0238024Y0188289D01*
X0238811Y0187502D01*
X0241276Y0189972D02*
X0279553Y0189972D01*
X0279967Y0190970D02*
X0239555Y0190970D01*
X0239505Y0190991D02*
X0238117Y0190991D01*
X0238113Y0190989D01*
X0235205Y0190989D01*
X0235166Y0191029D01*
X0235669Y0191237D01*
X0236651Y0192219D01*
X0237182Y0193501D01*
X0237182Y0194889D01*
X0236651Y0196171D01*
X0236393Y0196429D01*
X0236393Y0198195D01*
X0236778Y0198580D01*
X0237143Y0198580D01*
X0238425Y0199111D01*
X0239407Y0200093D01*
X0239938Y0201375D01*
X0239938Y0202763D01*
X0239407Y0204045D01*
X0239149Y0204303D01*
X0239149Y0214178D01*
X0239180Y0214618D01*
X0239149Y0214712D01*
X0239149Y0214811D01*
X0238980Y0215218D01*
X0238840Y0215637D01*
X0238776Y0215712D01*
X0238738Y0215803D01*
X0238426Y0216115D01*
X0238137Y0216448D01*
X0238048Y0216493D01*
X0237978Y0216563D01*
X0237571Y0216731D01*
X0236485Y0217274D01*
X0236257Y0217825D01*
X0236209Y0217873D01*
X0275553Y0217873D01*
X0275811Y0217615D01*
X0277093Y0217084D01*
X0278481Y0217084D01*
X0279764Y0217615D01*
X0280745Y0218596D01*
X0281276Y0219879D01*
X0281276Y0221267D01*
X0280745Y0222549D01*
X0279764Y0223531D01*
X0278481Y0224062D01*
X0277093Y0224062D01*
X0275811Y0223531D01*
X0275765Y0223484D01*
X0275765Y0224023D01*
X0275233Y0225305D01*
X0274252Y0226287D01*
X0272970Y0226818D01*
X0271582Y0226818D01*
X0270299Y0226287D01*
X0270015Y0226002D01*
X0225691Y0226002D01*
X0225433Y0226260D01*
X0224151Y0226791D01*
X0222763Y0226791D01*
X0221480Y0226260D01*
X0220499Y0225278D01*
X0219968Y0223996D01*
X0219968Y0222608D01*
X0220137Y0222199D01*
X0212388Y0229948D01*
X0211395Y0230359D01*
X0209155Y0230359D01*
X0208898Y0230617D01*
X0207615Y0231148D01*
X0206227Y0231148D01*
X0204945Y0230617D01*
X0203963Y0229636D01*
X0203432Y0228353D01*
X0203432Y0226965D01*
X0203844Y0225973D01*
X0203176Y0225305D01*
X0202645Y0224023D01*
X0202645Y0222635D01*
X0203176Y0221352D01*
X0203434Y0221095D01*
X0203434Y0209710D01*
X0202583Y0209357D01*
X0201601Y0208376D01*
X0201070Y0207094D01*
X0201070Y0205706D01*
X0201601Y0204423D01*
X0202583Y0203442D01*
X0203865Y0202911D01*
X0205253Y0202911D01*
X0206535Y0203442D01*
X0206793Y0203700D01*
X0214858Y0203700D01*
X0231798Y0186760D01*
X0232557Y0186000D01*
X0233550Y0185589D01*
X0235827Y0185589D01*
X0235853Y0185526D01*
X0236835Y0184544D01*
X0238117Y0184013D01*
X0239505Y0184013D01*
X0240787Y0184544D01*
X0241769Y0185526D01*
X0242300Y0186808D01*
X0242300Y0188196D01*
X0241769Y0189478D01*
X0240787Y0190460D01*
X0239505Y0190991D01*
X0241978Y0188973D02*
X0279140Y0188973D01*
X0278813Y0188186D02*
X0278813Y0184929D01*
X0280060Y0181920D01*
X0282363Y0179617D01*
X0285372Y0178370D01*
X0288628Y0178370D01*
X0291637Y0179617D01*
X0293940Y0181920D01*
X0295187Y0184929D01*
X0295187Y0188186D01*
X0293940Y0191194D01*
X0291637Y0193497D01*
X0288628Y0194744D01*
X0285372Y0194744D01*
X0282363Y0193497D01*
X0280060Y0191194D01*
X0278813Y0188186D01*
X0278813Y0187975D02*
X0242300Y0187975D01*
X0242300Y0186976D02*
X0278813Y0186976D01*
X0278813Y0185978D02*
X0241956Y0185978D01*
X0241222Y0184979D02*
X0278813Y0184979D01*
X0279206Y0183981D02*
X0096416Y0183981D01*
X0096673Y0183360D02*
X0095836Y0185381D01*
X0094289Y0186928D01*
X0092267Y0187766D01*
X0090079Y0187766D01*
X0088058Y0186928D01*
X0086511Y0185381D01*
X0085673Y0183360D01*
X0085673Y0181172D01*
X0086511Y0179150D01*
X0088058Y0177603D01*
X0088872Y0177266D01*
X0088058Y0176928D01*
X0086511Y0175381D01*
X0085673Y0173360D01*
X0085673Y0171172D01*
X0086511Y0169150D01*
X0088058Y0167603D01*
X0090079Y0166766D01*
X0092267Y0166766D01*
X0094289Y0167603D01*
X0095836Y0169150D01*
X0096673Y0171172D01*
X0096673Y0173360D01*
X0095836Y0175381D01*
X0094289Y0176928D01*
X0093474Y0177266D01*
X0094289Y0177603D01*
X0095836Y0179150D01*
X0096673Y0181172D01*
X0096673Y0183360D01*
X0096673Y0182982D02*
X0279620Y0182982D01*
X0280033Y0181984D02*
X0096673Y0181984D01*
X0096596Y0180985D02*
X0280994Y0180985D01*
X0281993Y0179987D02*
X0096182Y0179987D01*
X0095674Y0178988D02*
X0283881Y0178988D01*
X0290119Y0178988D02*
X0316334Y0178988D01*
X0316562Y0178439D02*
X0317543Y0177458D01*
X0318826Y0176926D01*
X0320214Y0176926D01*
X0321496Y0177458D01*
X0321754Y0177715D01*
X0326734Y0177715D01*
X0326992Y0177458D01*
X0328274Y0176926D01*
X0329663Y0176926D01*
X0330945Y0177458D01*
X0331926Y0178439D01*
X0332457Y0179721D01*
X0332457Y0181109D01*
X0331926Y0182392D01*
X0330945Y0183373D01*
X0329663Y0183904D01*
X0328274Y0183904D01*
X0326992Y0183373D01*
X0326734Y0183115D01*
X0321754Y0183115D01*
X0321496Y0183373D01*
X0320214Y0183904D01*
X0318826Y0183904D01*
X0317543Y0183373D01*
X0316562Y0182392D01*
X0316031Y0181109D01*
X0316031Y0179721D01*
X0316562Y0178439D01*
X0317011Y0177989D02*
X0259376Y0177989D01*
X0259685Y0177861D02*
X0258403Y0178393D01*
X0257015Y0178393D01*
X0255732Y0177861D01*
X0254751Y0176880D01*
X0254220Y0175598D01*
X0254220Y0174210D01*
X0254751Y0172927D01*
X0255732Y0171946D01*
X0257015Y0171415D01*
X0257379Y0171415D01*
X0268412Y0160382D01*
X0269171Y0159622D01*
X0270164Y0159211D01*
X0318467Y0159211D01*
X0318724Y0158954D01*
X0320007Y0158422D01*
X0321395Y0158422D01*
X0322677Y0158954D01*
X0323659Y0159935D01*
X0324190Y0161217D01*
X0324190Y0162605D01*
X0323659Y0163888D01*
X0322677Y0164869D01*
X0321395Y0165400D01*
X0320007Y0165400D01*
X0318724Y0164869D01*
X0318467Y0164611D01*
X0271819Y0164611D01*
X0261198Y0175233D01*
X0261198Y0175598D01*
X0260666Y0176880D01*
X0259685Y0177861D01*
X0260555Y0176991D02*
X0318670Y0176991D01*
X0320370Y0176991D02*
X0328119Y0176991D01*
X0329818Y0176991D02*
X0347128Y0176991D01*
X0347416Y0176296D02*
X0346579Y0178317D01*
X0346579Y0180505D01*
X0347416Y0182527D01*
X0348963Y0184074D01*
X0349778Y0184411D01*
X0348963Y0184749D01*
X0347416Y0186296D01*
X0346579Y0188317D01*
X0346579Y0190505D01*
X0347416Y0192527D01*
X0348963Y0194074D01*
X0350985Y0194911D01*
X0353173Y0194911D01*
X0355194Y0194074D01*
X0356741Y0192527D01*
X0357579Y0190505D01*
X0357579Y0188317D01*
X0356741Y0186296D01*
X0355194Y0184749D01*
X0354380Y0184411D01*
X0355194Y0184074D01*
X0356741Y0182527D01*
X0357579Y0180505D01*
X0357579Y0178317D01*
X0356741Y0176296D01*
X0355194Y0174749D01*
X0353173Y0173911D01*
X0350985Y0173911D01*
X0348963Y0174749D01*
X0347416Y0176296D01*
X0347720Y0175992D02*
X0261034Y0175992D01*
X0261437Y0174994D02*
X0348718Y0174994D01*
X0350782Y0173995D02*
X0262435Y0173995D01*
X0263434Y0172997D02*
X0382174Y0172997D01*
X0382817Y0173639D02*
X0381394Y0172217D01*
X0380624Y0170358D01*
X0380624Y0168347D01*
X0381394Y0166488D01*
X0382817Y0165066D01*
X0384675Y0164296D01*
X0386687Y0164296D01*
X0388545Y0165066D01*
X0389968Y0166488D01*
X0390738Y0168347D01*
X0390738Y0170358D01*
X0389968Y0172217D01*
X0388545Y0173639D01*
X0386687Y0174409D01*
X0384675Y0174409D01*
X0382817Y0173639D01*
X0383677Y0173995D02*
X0367121Y0173995D01*
X0366775Y0173852D02*
X0368797Y0174690D01*
X0370344Y0176237D01*
X0371181Y0178258D01*
X0371181Y0180446D01*
X0370344Y0182468D01*
X0368959Y0183852D01*
X0369892Y0183852D01*
X0371181Y0185141D01*
X0371181Y0193564D01*
X0369892Y0194852D01*
X0368959Y0194852D01*
X0370344Y0196237D01*
X0371181Y0198258D01*
X0371181Y0200446D01*
X0370344Y0202468D01*
X0368797Y0204015D01*
X0366775Y0204852D01*
X0364587Y0204852D01*
X0362566Y0204015D01*
X0361018Y0202468D01*
X0360181Y0200446D01*
X0360181Y0198258D01*
X0361018Y0196237D01*
X0362403Y0194852D01*
X0361470Y0194852D01*
X0360181Y0193564D01*
X0360181Y0185141D01*
X0361470Y0183852D01*
X0362403Y0183852D01*
X0361018Y0182468D01*
X0360181Y0180446D01*
X0360181Y0178258D01*
X0361018Y0176237D01*
X0362566Y0174690D01*
X0364587Y0173852D01*
X0366775Y0173852D01*
X0364242Y0173995D02*
X0353376Y0173995D01*
X0355439Y0174994D02*
X0362261Y0174994D01*
X0361263Y0175992D02*
X0356438Y0175992D01*
X0357029Y0176991D02*
X0360706Y0176991D01*
X0360292Y0177989D02*
X0357443Y0177989D01*
X0357579Y0178988D02*
X0360181Y0178988D01*
X0360181Y0179987D02*
X0357579Y0179987D01*
X0357380Y0180985D02*
X0360404Y0180985D01*
X0360818Y0181984D02*
X0356966Y0181984D01*
X0356286Y0182982D02*
X0361533Y0182982D01*
X0361342Y0183981D02*
X0355288Y0183981D01*
X0355425Y0184979D02*
X0360343Y0184979D01*
X0360181Y0185978D02*
X0356423Y0185978D01*
X0357023Y0186976D02*
X0360181Y0186976D01*
X0360181Y0187975D02*
X0357437Y0187975D01*
X0357579Y0188973D02*
X0360181Y0188973D01*
X0360181Y0189972D02*
X0357579Y0189972D01*
X0357386Y0190970D02*
X0360181Y0190970D01*
X0360181Y0191969D02*
X0356973Y0191969D01*
X0356301Y0192967D02*
X0360181Y0192967D01*
X0360583Y0193966D02*
X0355303Y0193966D01*
X0360718Y0196961D02*
X0236393Y0196961D01*
X0236393Y0197960D02*
X0360305Y0197960D01*
X0360181Y0198958D02*
X0238056Y0198958D01*
X0239271Y0199957D02*
X0360181Y0199957D01*
X0360392Y0200955D02*
X0239764Y0200955D01*
X0239938Y0201954D02*
X0360805Y0201954D01*
X0361503Y0202952D02*
X0239859Y0202952D01*
X0239446Y0203951D02*
X0362501Y0203951D01*
X0368861Y0203951D02*
X0412220Y0203951D01*
X0412224Y0204949D02*
X0388265Y0204949D01*
X0388545Y0205066D02*
X0386687Y0204296D01*
X0384675Y0204296D01*
X0382817Y0205066D01*
X0381394Y0206488D01*
X0380624Y0208347D01*
X0380624Y0210358D01*
X0381394Y0212217D01*
X0382817Y0213639D01*
X0384675Y0214409D01*
X0386687Y0214409D01*
X0388545Y0213639D01*
X0389968Y0212217D01*
X0390738Y0210358D01*
X0390738Y0208347D01*
X0389968Y0206488D01*
X0388545Y0205066D01*
X0389428Y0205948D02*
X0412227Y0205948D01*
X0412231Y0206946D02*
X0390158Y0206946D01*
X0390571Y0207945D02*
X0412234Y0207945D01*
X0412238Y0208943D02*
X0390738Y0208943D01*
X0390738Y0209942D02*
X0412241Y0209942D01*
X0412245Y0210940D02*
X0390497Y0210940D01*
X0390083Y0211939D02*
X0412248Y0211939D01*
X0412252Y0212937D02*
X0389247Y0212937D01*
X0387829Y0213936D02*
X0412255Y0213936D01*
X0412259Y0214934D02*
X0239098Y0214934D01*
X0239149Y0213936D02*
X0383533Y0213936D01*
X0382115Y0212937D02*
X0239149Y0212937D01*
X0239149Y0211939D02*
X0381279Y0211939D01*
X0380866Y0210940D02*
X0239149Y0210940D01*
X0239149Y0209942D02*
X0380624Y0209942D01*
X0380624Y0208943D02*
X0239149Y0208943D01*
X0239149Y0207945D02*
X0380791Y0207945D01*
X0381204Y0206946D02*
X0239149Y0206946D01*
X0239149Y0205948D02*
X0381934Y0205948D01*
X0383097Y0204949D02*
X0239149Y0204949D01*
X0236449Y0202069D02*
X0236449Y0214274D01*
X0233299Y0215848D01*
X0222669Y0215848D01*
X0210858Y0227659D01*
X0206921Y0227659D01*
X0203664Y0228914D02*
X0196246Y0228914D01*
X0197244Y0229912D02*
X0204240Y0229912D01*
X0205653Y0230911D02*
X0198243Y0230911D01*
X0199241Y0231909D02*
X0412318Y0231909D01*
X0412315Y0230911D02*
X0208189Y0230911D01*
X0212424Y0229912D02*
X0412311Y0229912D01*
X0412308Y0228914D02*
X0213423Y0228914D01*
X0214421Y0227915D02*
X0412304Y0227915D01*
X0412301Y0226917D02*
X0215420Y0226917D01*
X0216418Y0225918D02*
X0221139Y0225918D01*
X0220350Y0224920D02*
X0217417Y0224920D01*
X0218415Y0223921D02*
X0219968Y0223921D01*
X0219968Y0222922D02*
X0219414Y0222922D01*
X0223457Y0223302D02*
X0272249Y0223302D01*
X0272276Y0223329D01*
X0274620Y0225918D02*
X0412297Y0225918D01*
X0412294Y0224920D02*
X0275393Y0224920D01*
X0275765Y0223921D02*
X0276753Y0223921D01*
X0278821Y0223921D02*
X0412290Y0223921D01*
X0412287Y0222922D02*
X0280372Y0222922D01*
X0281004Y0221924D02*
X0412283Y0221924D01*
X0412280Y0220925D02*
X0281276Y0220925D01*
X0281276Y0219927D02*
X0412276Y0219927D01*
X0412273Y0218928D02*
X0280883Y0218928D01*
X0280079Y0217930D02*
X0412269Y0217930D01*
X0412266Y0216931D02*
X0237171Y0216931D01*
X0237033Y0218184D02*
X0238444Y0218184D01*
X0241961Y0214667D01*
X0238608Y0215933D02*
X0412262Y0215933D01*
X0412217Y0202952D02*
X0369859Y0202952D01*
X0370557Y0201954D02*
X0412213Y0201954D01*
X0412210Y0200955D02*
X0370970Y0200955D01*
X0371181Y0199957D02*
X0412206Y0199957D01*
X0412203Y0198958D02*
X0371181Y0198958D01*
X0371057Y0197960D02*
X0412199Y0197960D01*
X0412196Y0196961D02*
X0370644Y0196961D01*
X0370070Y0195963D02*
X0412192Y0195963D01*
X0412189Y0194964D02*
X0369071Y0194964D01*
X0370779Y0193966D02*
X0412185Y0193966D01*
X0412181Y0192967D02*
X0371181Y0192967D01*
X0371181Y0191969D02*
X0412178Y0191969D01*
X0412174Y0190970D02*
X0371181Y0190970D01*
X0371181Y0189972D02*
X0412171Y0189972D01*
X0412167Y0188973D02*
X0371181Y0188973D01*
X0371181Y0187975D02*
X0412164Y0187975D01*
X0412160Y0186976D02*
X0371181Y0186976D01*
X0371181Y0185978D02*
X0412157Y0185978D01*
X0412153Y0184979D02*
X0371019Y0184979D01*
X0370021Y0183981D02*
X0412150Y0183981D01*
X0412146Y0182982D02*
X0369830Y0182982D01*
X0370544Y0181984D02*
X0412143Y0181984D01*
X0412139Y0180985D02*
X0370958Y0180985D01*
X0371181Y0179987D02*
X0412136Y0179987D01*
X0412132Y0178988D02*
X0371181Y0178988D01*
X0371070Y0177989D02*
X0412129Y0177989D01*
X0412125Y0176991D02*
X0370656Y0176991D01*
X0370099Y0175992D02*
X0412122Y0175992D01*
X0412118Y0174994D02*
X0369101Y0174994D01*
X0380890Y0171000D02*
X0265431Y0171000D01*
X0266429Y0170001D02*
X0380624Y0170001D01*
X0380624Y0169003D02*
X0267428Y0169003D01*
X0268426Y0168004D02*
X0380766Y0168004D01*
X0381180Y0167006D02*
X0269425Y0167006D01*
X0270423Y0166007D02*
X0381875Y0166007D01*
X0382954Y0165009D02*
X0322340Y0165009D01*
X0323536Y0164010D02*
X0412080Y0164010D01*
X0412076Y0163012D02*
X0324021Y0163012D01*
X0324190Y0162013D02*
X0412073Y0162013D01*
X0412069Y0161015D02*
X0324106Y0161015D01*
X0323692Y0160016D02*
X0412066Y0160016D01*
X0412062Y0159018D02*
X0322741Y0159018D01*
X0320701Y0161911D02*
X0270701Y0161911D01*
X0257709Y0174904D01*
X0254220Y0174994D02*
X0095996Y0174994D01*
X0096410Y0173995D02*
X0254308Y0173995D01*
X0254722Y0172997D02*
X0096673Y0172997D01*
X0096673Y0171998D02*
X0255680Y0171998D01*
X0257794Y0171000D02*
X0096602Y0171000D01*
X0096188Y0170001D02*
X0258792Y0170001D01*
X0259791Y0169003D02*
X0095689Y0169003D01*
X0094690Y0168004D02*
X0260789Y0168004D01*
X0261788Y0167006D02*
X0092847Y0167006D01*
X0089500Y0167006D02*
X0077956Y0167006D01*
X0077955Y0168004D02*
X0087656Y0168004D01*
X0086658Y0169003D02*
X0077953Y0169003D01*
X0077951Y0170001D02*
X0086158Y0170001D01*
X0085744Y0171000D02*
X0077949Y0171000D01*
X0077948Y0171998D02*
X0085673Y0171998D01*
X0085673Y0172997D02*
X0077946Y0172997D01*
X0077944Y0173995D02*
X0085937Y0173995D01*
X0086350Y0174994D02*
X0077942Y0174994D01*
X0077941Y0175992D02*
X0087122Y0175992D01*
X0088209Y0176991D02*
X0077939Y0176991D01*
X0077937Y0177989D02*
X0087671Y0177989D01*
X0086673Y0178988D02*
X0077935Y0178988D01*
X0077934Y0179987D02*
X0086164Y0179987D01*
X0085751Y0180985D02*
X0077932Y0180985D01*
X0077930Y0181984D02*
X0085673Y0181984D01*
X0085673Y0182982D02*
X0077928Y0182982D01*
X0077927Y0183981D02*
X0085930Y0183981D01*
X0086344Y0184979D02*
X0077925Y0184979D01*
X0077923Y0185978D02*
X0087107Y0185978D01*
X0088173Y0186976D02*
X0077921Y0186976D01*
X0077920Y0187975D02*
X0230583Y0187975D01*
X0229584Y0188973D02*
X0077918Y0188973D01*
X0077916Y0189972D02*
X0228586Y0189972D01*
X0227587Y0190970D02*
X0077914Y0190970D01*
X0077913Y0191969D02*
X0226589Y0191969D01*
X0225590Y0192967D02*
X0077911Y0192967D01*
X0077909Y0193966D02*
X0224592Y0193966D01*
X0223593Y0194964D02*
X0138609Y0194964D01*
X0138425Y0194780D02*
X0139407Y0195762D01*
X0139938Y0197044D01*
X0139938Y0197409D01*
X0150559Y0208030D01*
X0174781Y0208030D01*
X0175774Y0208441D01*
X0176533Y0209201D01*
X0200326Y0232993D01*
X0200715Y0232832D01*
X0202103Y0232832D01*
X0203386Y0233363D01*
X0204367Y0234345D01*
X0204898Y0235627D01*
X0204898Y0237015D01*
X0204367Y0238297D01*
X0203386Y0239279D01*
X0202103Y0239810D01*
X0200715Y0239810D01*
X0199433Y0239279D01*
X0199089Y0238934D01*
X0198305Y0238610D01*
X0197546Y0237850D01*
X0188339Y0228644D01*
X0188361Y0228697D01*
X0188361Y0229362D01*
X0188619Y0229620D01*
X0189150Y0230902D01*
X0189150Y0232290D01*
X0188619Y0233573D01*
X0187638Y0234554D01*
X0186355Y0235085D01*
X0184967Y0235085D01*
X0183685Y0234554D01*
X0182704Y0233573D01*
X0182172Y0232290D01*
X0182172Y0230902D01*
X0182565Y0229956D01*
X0169189Y0216580D01*
X0112305Y0216580D01*
X0112047Y0216838D01*
X0110765Y0217369D01*
X0109377Y0217369D01*
X0108095Y0216838D01*
X0107113Y0215856D01*
X0106582Y0214574D01*
X0106582Y0213186D01*
X0107113Y0211904D01*
X0108095Y0210922D01*
X0109377Y0210391D01*
X0110765Y0210391D01*
X0112047Y0210922D01*
X0112305Y0211180D01*
X0146072Y0211180D01*
X0136119Y0201227D01*
X0135755Y0201227D01*
X0134472Y0200696D01*
X0133491Y0199715D01*
X0132960Y0198432D01*
X0132960Y0197044D01*
X0133491Y0195762D01*
X0134472Y0194780D01*
X0135755Y0194249D01*
X0137143Y0194249D01*
X0138425Y0194780D01*
X0139490Y0195963D02*
X0222595Y0195963D01*
X0221596Y0196961D02*
X0139903Y0196961D01*
X0140489Y0197960D02*
X0220598Y0197960D01*
X0219599Y0198958D02*
X0141487Y0198958D01*
X0142486Y0199957D02*
X0218601Y0199957D01*
X0217602Y0200955D02*
X0143484Y0200955D01*
X0144483Y0201954D02*
X0216604Y0201954D01*
X0215605Y0202952D02*
X0205354Y0202952D01*
X0203765Y0202952D02*
X0145481Y0202952D01*
X0146480Y0203951D02*
X0202074Y0203951D01*
X0201383Y0204949D02*
X0147478Y0204949D01*
X0148477Y0205948D02*
X0201070Y0205948D01*
X0201070Y0206946D02*
X0149475Y0206946D01*
X0150474Y0207945D02*
X0201423Y0207945D01*
X0202169Y0208943D02*
X0176275Y0208943D01*
X0177274Y0209942D02*
X0203434Y0209942D01*
X0203434Y0210940D02*
X0178272Y0210940D01*
X0179271Y0211939D02*
X0203434Y0211939D01*
X0203434Y0212937D02*
X0180270Y0212937D01*
X0181268Y0213936D02*
X0203434Y0213936D01*
X0203434Y0214934D02*
X0182267Y0214934D01*
X0183265Y0215933D02*
X0203434Y0215933D01*
X0203434Y0216931D02*
X0184264Y0216931D01*
X0185262Y0217930D02*
X0203434Y0217930D01*
X0203434Y0218928D02*
X0186261Y0218928D01*
X0187259Y0219927D02*
X0203434Y0219927D01*
X0203434Y0220925D02*
X0188258Y0220925D01*
X0189256Y0221924D02*
X0202939Y0221924D01*
X0202645Y0222922D02*
X0190255Y0222922D01*
X0191253Y0223921D02*
X0202645Y0223921D01*
X0203016Y0224920D02*
X0192252Y0224920D01*
X0193250Y0225918D02*
X0203789Y0225918D01*
X0203453Y0226917D02*
X0194249Y0226917D01*
X0195247Y0227915D02*
X0203432Y0227915D01*
X0202286Y0232908D02*
X0412322Y0232908D01*
X0412325Y0233906D02*
X0203929Y0233906D01*
X0204599Y0234905D02*
X0412329Y0234905D01*
X0412332Y0235903D02*
X0204898Y0235903D01*
X0204898Y0236902D02*
X0382790Y0236902D01*
X0382423Y0237054D02*
X0384282Y0236284D01*
X0386293Y0236284D01*
X0388152Y0237054D01*
X0389574Y0238476D01*
X0390344Y0240335D01*
X0390344Y0242346D01*
X0389574Y0244205D01*
X0388152Y0245627D01*
X0386293Y0246397D01*
X0384282Y0246397D01*
X0382423Y0245627D01*
X0381001Y0244205D01*
X0380231Y0242346D01*
X0380231Y0240335D01*
X0381001Y0238476D01*
X0382423Y0237054D01*
X0381577Y0237900D02*
X0204532Y0237900D01*
X0203766Y0238899D02*
X0380826Y0238899D01*
X0380412Y0239897D02*
X0198568Y0239897D01*
X0199003Y0238899D02*
X0197569Y0238899D01*
X0197596Y0237900D02*
X0196571Y0237900D01*
X0196246Y0237575D02*
X0200577Y0241906D01*
X0201336Y0242665D01*
X0201747Y0243658D01*
X0201747Y0244032D01*
X0204722Y0241057D01*
X0209278Y0241057D01*
X0212000Y0243779D01*
X0214722Y0241057D01*
X0219278Y0241057D01*
X0222000Y0243779D01*
X0224722Y0241057D01*
X0229278Y0241057D01*
X0232000Y0243779D01*
X0234722Y0241057D01*
X0239278Y0241057D01*
X0242000Y0243779D01*
X0244722Y0241057D01*
X0249278Y0241057D01*
X0252000Y0243779D01*
X0254722Y0241057D01*
X0259278Y0241057D01*
X0262000Y0243779D01*
X0264722Y0241057D01*
X0269278Y0241057D01*
X0272000Y0243779D01*
X0274722Y0241057D01*
X0279278Y0241057D01*
X0282500Y0244279D01*
X0282500Y0248835D01*
X0279278Y0252057D01*
X0274722Y0252057D01*
X0272000Y0249335D01*
X0269278Y0252057D01*
X0264722Y0252057D01*
X0262000Y0249335D01*
X0259278Y0252057D01*
X0254722Y0252057D01*
X0252000Y0249335D01*
X0249655Y0251680D01*
X0250037Y0252061D01*
X0250568Y0253343D01*
X0250568Y0254731D01*
X0250037Y0256014D01*
X0249055Y0256995D01*
X0247822Y0257506D01*
X0237557Y0267772D01*
X0236797Y0268531D01*
X0235805Y0268942D01*
X0081596Y0268942D01*
X0081493Y0269045D01*
X0084874Y0274116D01*
X0168656Y0274013D01*
X0169554Y0273115D01*
X0171575Y0272278D01*
X0173763Y0272278D01*
X0175785Y0273115D01*
X0176673Y0274003D01*
X0186395Y0273991D01*
X0187270Y0273115D01*
X0189292Y0272278D01*
X0191480Y0272278D01*
X0193501Y0273115D01*
X0194367Y0273981D01*
X0204133Y0273969D01*
X0204987Y0273115D01*
X0207008Y0272278D01*
X0209196Y0272278D01*
X0211218Y0273115D01*
X0212062Y0273959D01*
X0221871Y0273947D01*
X0222703Y0273115D01*
X0224725Y0272278D01*
X0226913Y0272278D01*
X0228934Y0273115D01*
X0229757Y0273937D01*
X0360343Y0273776D01*
X0359787Y0272435D01*
X0359787Y0270247D01*
X0360625Y0268225D01*
X0362009Y0266841D01*
X0361076Y0266841D01*
X0359787Y0265552D01*
X0359787Y0257129D01*
X0361076Y0255841D01*
X0362009Y0255841D01*
X0360625Y0254456D01*
X0359787Y0252435D01*
X0359787Y0250247D01*
X0360625Y0248225D01*
X0362172Y0246678D01*
X0364193Y0245841D01*
X0366381Y0245841D01*
X0368403Y0246678D01*
X0369950Y0248225D01*
X0370787Y0250247D01*
X0370787Y0252435D01*
X0369950Y0254456D01*
X0368566Y0255841D01*
X0369499Y0255841D01*
X0370787Y0257129D01*
X0370787Y0265552D01*
X0369499Y0266841D01*
X0368566Y0266841D01*
X0369950Y0268225D01*
X0370787Y0270247D01*
X0370787Y0272435D01*
X0370237Y0273763D01*
X0403378Y0273722D01*
X0412433Y0264667D01*
X0411646Y0040258D01*
X0402984Y0030809D01*
X0386993Y0030849D01*
X0386096Y0031220D01*
X0384085Y0031220D01*
X0383211Y0030858D01*
X0366753Y0030899D01*
X0368206Y0031501D01*
X0369753Y0033048D01*
X0370591Y0035069D01*
X0370591Y0037257D01*
X0369753Y0039279D01*
X0368369Y0040663D01*
X0369302Y0040663D01*
X0370591Y0041952D01*
X0370591Y0050375D01*
X0369302Y0051663D01*
X0368369Y0051663D01*
X0369753Y0053048D01*
X0370591Y0055069D01*
X0370591Y0057257D01*
X0369753Y0059279D01*
X0368206Y0060826D01*
X0366185Y0061663D01*
X0363997Y0061663D01*
X0361975Y0060826D01*
X0360428Y0059279D01*
X0359591Y0057257D01*
X0359591Y0055069D01*
X0360428Y0053048D01*
X0361812Y0051663D01*
X0360879Y0051663D01*
X0359591Y0050375D01*
X0359591Y0041952D01*
X0360879Y0040663D01*
X0361812Y0040663D01*
X0360428Y0039279D01*
X0359591Y0037257D01*
X0359591Y0035069D01*
X0360428Y0033048D01*
X0361975Y0031501D01*
X0363408Y0030907D01*
X0354273Y0030930D01*
X0355509Y0031442D01*
X0357056Y0032989D01*
X0357894Y0035010D01*
X0357894Y0037198D01*
X0357056Y0039220D01*
X0355509Y0040767D01*
X0354695Y0041104D01*
X0355509Y0041442D01*
X0357056Y0042989D01*
X0357894Y0045010D01*
X0357894Y0047198D01*
X0357056Y0049220D01*
X0355509Y0050767D01*
X0353488Y0051604D01*
X0351300Y0051604D01*
X0349278Y0050767D01*
X0347731Y0049220D01*
X0346894Y0047198D01*
X0346894Y0045010D01*
X0347731Y0042989D01*
X0349278Y0041442D01*
X0350093Y0041104D01*
X0349278Y0040767D01*
X0347731Y0039220D01*
X0346894Y0037198D01*
X0346894Y0035010D01*
X0347731Y0032989D01*
X0349278Y0031442D01*
X0350491Y0030939D01*
X0085268Y0031596D01*
X0078181Y0038683D01*
X0078163Y0049285D01*
X0080372Y0048370D01*
X0083628Y0048370D01*
X0086637Y0049617D01*
X0088940Y0051920D01*
X0090187Y0054929D01*
X0090187Y0058186D01*
X0088940Y0061194D01*
X0086637Y0063497D01*
X0083628Y0064744D01*
X0080372Y0064744D01*
X0078137Y0063818D01*
X0077860Y0222271D01*
X0078976Y0222733D01*
X0079958Y0223715D01*
X0080489Y0224997D01*
X0080489Y0226385D01*
X0079958Y0227667D01*
X0078976Y0228649D01*
X0077848Y0229116D01*
X0077817Y0246312D01*
X0078813Y0247308D01*
X0078813Y0244929D01*
X0080060Y0241920D01*
X0082363Y0239617D01*
X0085372Y0238370D01*
X0088628Y0238370D01*
X0091637Y0239617D01*
X0093940Y0241920D01*
X0095187Y0244929D01*
X0095187Y0248186D01*
X0093940Y0251194D01*
X0091637Y0253497D01*
X0088628Y0254744D01*
X0085372Y0254744D01*
X0082363Y0253497D01*
X0080487Y0251622D01*
X0080487Y0253313D01*
X0083630Y0256456D01*
X0220764Y0256456D01*
X0223511Y0253708D01*
X0223511Y0253343D01*
X0224042Y0252061D01*
X0224384Y0251719D01*
X0222000Y0249335D01*
X0219278Y0252057D01*
X0214722Y0252057D01*
X0212000Y0249335D01*
X0209278Y0252057D01*
X0204722Y0252057D01*
X0202030Y0249365D01*
X0202536Y0250587D01*
X0202536Y0251975D01*
X0202005Y0253258D01*
X0201024Y0254239D01*
X0199741Y0254770D01*
X0198353Y0254770D01*
X0197071Y0254239D01*
X0196089Y0253258D01*
X0195558Y0251975D01*
X0195558Y0250587D01*
X0196089Y0249305D01*
X0196347Y0249047D01*
X0196347Y0248988D01*
X0193278Y0252057D01*
X0188722Y0252057D01*
X0186000Y0249335D01*
X0183278Y0252057D01*
X0178722Y0252057D01*
X0176000Y0249335D01*
X0173278Y0252057D01*
X0168722Y0252057D01*
X0166000Y0249335D01*
X0163278Y0252057D01*
X0158722Y0252057D01*
X0156000Y0249335D01*
X0153278Y0252057D01*
X0148722Y0252057D01*
X0146000Y0249335D01*
X0143278Y0252057D01*
X0138722Y0252057D01*
X0135505Y0248840D01*
X0132988Y0251357D01*
X0131484Y0251357D01*
X0131484Y0247041D01*
X0130516Y0247041D01*
X0130516Y0251357D01*
X0129012Y0251357D01*
X0126495Y0248840D01*
X0123278Y0252057D01*
X0118722Y0252057D01*
X0116000Y0249335D01*
X0113278Y0252057D01*
X0108722Y0252057D01*
X0106000Y0249335D01*
X0103278Y0252057D01*
X0098722Y0252057D01*
X0095500Y0248835D01*
X0095500Y0244279D01*
X0098722Y0241057D01*
X0103278Y0241057D01*
X0106000Y0243779D01*
X0108722Y0241057D01*
X0113278Y0241057D01*
X0116000Y0243779D01*
X0118722Y0241057D01*
X0123278Y0241057D01*
X0126495Y0244274D01*
X0129012Y0241757D01*
X0130516Y0241757D01*
X0130516Y0246073D01*
X0131484Y0246073D01*
X0131484Y0241757D01*
X0132988Y0241757D01*
X0135505Y0244274D01*
X0138722Y0241057D01*
X0143278Y0241057D01*
X0146000Y0243779D01*
X0148722Y0241057D01*
X0153278Y0241057D01*
X0156000Y0243779D01*
X0158722Y0241057D01*
X0163278Y0241057D01*
X0166000Y0243779D01*
X0168722Y0241057D01*
X0173278Y0241057D01*
X0176000Y0243779D01*
X0178524Y0241255D01*
X0178235Y0240558D01*
X0178235Y0239810D01*
X0177093Y0239810D01*
X0175811Y0239279D01*
X0175553Y0239021D01*
X0143407Y0239021D01*
X0143150Y0239279D01*
X0141867Y0239810D01*
X0140479Y0239810D01*
X0139197Y0239279D01*
X0138215Y0238297D01*
X0137684Y0237015D01*
X0137684Y0235627D01*
X0138215Y0234345D01*
X0139197Y0233363D01*
X0140135Y0232974D01*
X0139197Y0232586D01*
X0138215Y0231604D01*
X0137684Y0230322D01*
X0137684Y0228934D01*
X0138215Y0227652D01*
X0139197Y0226670D01*
X0140479Y0226139D01*
X0141867Y0226139D01*
X0143150Y0226670D01*
X0144131Y0227652D01*
X0144484Y0228503D01*
X0150356Y0228503D01*
X0150614Y0228245D01*
X0151897Y0227714D01*
X0153285Y0227714D01*
X0154567Y0228245D01*
X0155548Y0229226D01*
X0156080Y0230509D01*
X0156080Y0231897D01*
X0155548Y0233179D01*
X0155107Y0233621D01*
X0175553Y0233621D01*
X0175811Y0233363D01*
X0177093Y0232832D01*
X0178481Y0232832D01*
X0179764Y0233363D01*
X0180745Y0234345D01*
X0181276Y0235627D01*
X0181276Y0236375D01*
X0182418Y0236375D01*
X0183701Y0236906D01*
X0183959Y0237164D01*
X0195254Y0237164D01*
X0196246Y0237575D01*
X0196597Y0236902D02*
X0183689Y0236902D01*
X0184531Y0234905D02*
X0180977Y0234905D01*
X0181276Y0235903D02*
X0195599Y0235903D01*
X0194600Y0234905D02*
X0186792Y0234905D01*
X0188286Y0233906D02*
X0193602Y0233906D01*
X0192603Y0232908D02*
X0188895Y0232908D01*
X0189150Y0231909D02*
X0191605Y0231909D01*
X0190606Y0230911D02*
X0189150Y0230911D01*
X0188740Y0229912D02*
X0189607Y0229912D01*
X0188609Y0228914D02*
X0188361Y0228914D01*
X0185661Y0229234D02*
X0170307Y0213880D01*
X0110071Y0213880D01*
X0106582Y0213936D02*
X0077874Y0213936D01*
X0077872Y0214934D02*
X0106731Y0214934D01*
X0107190Y0215933D02*
X0077871Y0215933D01*
X0077869Y0216931D02*
X0108321Y0216931D01*
X0111821Y0216931D02*
X0169540Y0216931D01*
X0170539Y0217930D02*
X0077867Y0217930D01*
X0077865Y0218928D02*
X0171537Y0218928D01*
X0172536Y0219927D02*
X0077864Y0219927D01*
X0077862Y0220925D02*
X0173534Y0220925D01*
X0174533Y0221924D02*
X0077860Y0221924D01*
X0079166Y0222922D02*
X0175531Y0222922D01*
X0176530Y0223921D02*
X0080043Y0223921D01*
X0080457Y0224920D02*
X0177528Y0224920D01*
X0178527Y0225918D02*
X0080489Y0225918D01*
X0080269Y0226917D02*
X0138950Y0226917D01*
X0138106Y0227915D02*
X0079710Y0227915D01*
X0078337Y0228914D02*
X0137693Y0228914D01*
X0137684Y0229912D02*
X0077846Y0229912D01*
X0077844Y0230911D02*
X0137928Y0230911D01*
X0138520Y0231909D02*
X0077843Y0231909D01*
X0077841Y0232908D02*
X0139974Y0232908D01*
X0138654Y0233906D02*
X0077839Y0233906D01*
X0077837Y0234905D02*
X0137983Y0234905D01*
X0137684Y0235903D02*
X0077836Y0235903D01*
X0077834Y0236902D02*
X0137684Y0236902D01*
X0138051Y0237900D02*
X0077832Y0237900D01*
X0077830Y0238899D02*
X0084096Y0238899D01*
X0082082Y0239897D02*
X0077829Y0239897D01*
X0077827Y0240896D02*
X0081084Y0240896D01*
X0080085Y0241894D02*
X0077825Y0241894D01*
X0077823Y0242893D02*
X0079657Y0242893D01*
X0079243Y0243891D02*
X0077822Y0243891D01*
X0077820Y0244890D02*
X0078830Y0244890D01*
X0078813Y0245888D02*
X0077818Y0245888D01*
X0078392Y0246887D02*
X0078813Y0246887D01*
X0077787Y0250100D02*
X0069520Y0241833D01*
X0067295Y0241833D01*
X0067059Y0242069D01*
X0077787Y0250100D02*
X0077787Y0254431D01*
X0082512Y0259156D01*
X0221882Y0259156D01*
X0227000Y0254037D01*
X0223704Y0252878D02*
X0202162Y0252878D01*
X0202536Y0251879D02*
X0204544Y0251879D01*
X0203546Y0250881D02*
X0202536Y0250881D01*
X0202547Y0249882D02*
X0202244Y0249882D01*
X0199047Y0251281D02*
X0199047Y0244195D01*
X0194717Y0239864D01*
X0181724Y0239864D01*
X0178235Y0239897D02*
X0091918Y0239897D01*
X0092916Y0240896D02*
X0178375Y0240896D01*
X0177885Y0241894D02*
X0174115Y0241894D01*
X0175114Y0242893D02*
X0176886Y0242893D01*
X0177787Y0236321D02*
X0141173Y0236321D01*
X0138817Y0238899D02*
X0089904Y0238899D01*
X0093915Y0241894D02*
X0097885Y0241894D01*
X0096886Y0242893D02*
X0094343Y0242893D01*
X0094757Y0243891D02*
X0095888Y0243891D01*
X0095500Y0244890D02*
X0095170Y0244890D01*
X0095187Y0245888D02*
X0095500Y0245888D01*
X0095500Y0246887D02*
X0095187Y0246887D01*
X0095187Y0247885D02*
X0095500Y0247885D01*
X0095549Y0248884D02*
X0094897Y0248884D01*
X0094484Y0249882D02*
X0096547Y0249882D01*
X0097546Y0250881D02*
X0094070Y0250881D01*
X0093255Y0251879D02*
X0098544Y0251879D01*
X0103456Y0251879D02*
X0108544Y0251879D01*
X0107546Y0250881D02*
X0104454Y0250881D01*
X0105453Y0249882D02*
X0106547Y0249882D01*
X0106886Y0242893D02*
X0105114Y0242893D01*
X0104115Y0241894D02*
X0107885Y0241894D01*
X0114115Y0241894D02*
X0117885Y0241894D01*
X0116886Y0242893D02*
X0115114Y0242893D01*
X0115453Y0249882D02*
X0116547Y0249882D01*
X0117546Y0250881D02*
X0114454Y0250881D01*
X0113456Y0251879D02*
X0118544Y0251879D01*
X0123456Y0251879D02*
X0138544Y0251879D01*
X0137546Y0250881D02*
X0133464Y0250881D01*
X0134463Y0249882D02*
X0136547Y0249882D01*
X0135549Y0248884D02*
X0135462Y0248884D01*
X0131484Y0248884D02*
X0130516Y0248884D01*
X0130516Y0249882D02*
X0131484Y0249882D01*
X0131484Y0250881D02*
X0130516Y0250881D01*
X0128536Y0250881D02*
X0124454Y0250881D01*
X0125453Y0249882D02*
X0127537Y0249882D01*
X0126538Y0248884D02*
X0126451Y0248884D01*
X0130516Y0247885D02*
X0131484Y0247885D01*
X0131484Y0245888D02*
X0130516Y0245888D01*
X0130516Y0244890D02*
X0131484Y0244890D01*
X0131484Y0243891D02*
X0130516Y0243891D01*
X0130516Y0242893D02*
X0131484Y0242893D01*
X0131484Y0241894D02*
X0130516Y0241894D01*
X0128875Y0241894D02*
X0124115Y0241894D01*
X0125114Y0242893D02*
X0127876Y0242893D01*
X0126878Y0243891D02*
X0126112Y0243891D01*
X0133125Y0241894D02*
X0137885Y0241894D01*
X0136886Y0242893D02*
X0134124Y0242893D01*
X0135122Y0243891D02*
X0135888Y0243891D01*
X0144115Y0241894D02*
X0147885Y0241894D01*
X0146886Y0242893D02*
X0145114Y0242893D01*
X0145453Y0249882D02*
X0146547Y0249882D01*
X0147546Y0250881D02*
X0144454Y0250881D01*
X0143456Y0251879D02*
X0148544Y0251879D01*
X0153456Y0251879D02*
X0158544Y0251879D01*
X0157546Y0250881D02*
X0154454Y0250881D01*
X0155453Y0249882D02*
X0156547Y0249882D01*
X0156886Y0242893D02*
X0155114Y0242893D01*
X0154115Y0241894D02*
X0157885Y0241894D01*
X0164115Y0241894D02*
X0167885Y0241894D01*
X0166886Y0242893D02*
X0165114Y0242893D01*
X0165453Y0249882D02*
X0166547Y0249882D01*
X0167546Y0250881D02*
X0164454Y0250881D01*
X0163456Y0251879D02*
X0168544Y0251879D01*
X0173456Y0251879D02*
X0178544Y0251879D01*
X0177546Y0250881D02*
X0174454Y0250881D01*
X0175453Y0249882D02*
X0176547Y0249882D01*
X0183456Y0251879D02*
X0188544Y0251879D01*
X0187546Y0250881D02*
X0184454Y0250881D01*
X0185453Y0249882D02*
X0186547Y0249882D01*
X0193456Y0251879D02*
X0195558Y0251879D01*
X0195558Y0250881D02*
X0194454Y0250881D01*
X0195453Y0249882D02*
X0195850Y0249882D01*
X0195932Y0252878D02*
X0092257Y0252878D01*
X0090722Y0253876D02*
X0196708Y0253876D01*
X0201387Y0253876D02*
X0223343Y0253876D01*
X0222344Y0254875D02*
X0082050Y0254875D01*
X0083048Y0255873D02*
X0221346Y0255873D01*
X0219456Y0251879D02*
X0224224Y0251879D01*
X0223546Y0250881D02*
X0220454Y0250881D01*
X0221453Y0249882D02*
X0222547Y0249882D01*
X0222886Y0242893D02*
X0221114Y0242893D01*
X0220115Y0241894D02*
X0223885Y0241894D01*
X0230115Y0241894D02*
X0233885Y0241894D01*
X0232886Y0242893D02*
X0231114Y0242893D01*
X0240115Y0241894D02*
X0243885Y0241894D01*
X0242886Y0242893D02*
X0241114Y0242893D01*
X0250115Y0241894D02*
X0253885Y0241894D01*
X0252886Y0242893D02*
X0251114Y0242893D01*
X0251453Y0249882D02*
X0252547Y0249882D01*
X0253546Y0250881D02*
X0250454Y0250881D01*
X0249855Y0251879D02*
X0254544Y0251879D01*
X0250375Y0252878D02*
X0293623Y0252878D01*
X0293250Y0252408D02*
X0293235Y0252408D01*
X0291953Y0251877D01*
X0290971Y0250896D01*
X0290440Y0249613D01*
X0290440Y0248225D01*
X0290971Y0246943D01*
X0291953Y0245961D01*
X0293235Y0245430D01*
X0294623Y0245430D01*
X0295905Y0245961D01*
X0296887Y0246943D01*
X0297418Y0248225D01*
X0297418Y0248973D01*
X0298660Y0250540D01*
X0298845Y0250093D01*
X0299827Y0249111D01*
X0301109Y0248580D01*
X0302497Y0248580D01*
X0303779Y0249111D01*
X0304037Y0249369D01*
X0326734Y0249369D01*
X0326992Y0249111D01*
X0328274Y0248580D01*
X0329663Y0248580D01*
X0330945Y0249111D01*
X0331926Y0250093D01*
X0332457Y0251375D01*
X0332457Y0252763D01*
X0331926Y0254045D01*
X0330945Y0255027D01*
X0329663Y0255558D01*
X0328274Y0255558D01*
X0326992Y0255027D01*
X0326734Y0254769D01*
X0304037Y0254769D01*
X0303779Y0255027D01*
X0302605Y0255513D01*
X0304289Y0257637D01*
X0326734Y0257637D01*
X0326992Y0257379D01*
X0328274Y0256848D01*
X0329663Y0256848D01*
X0330945Y0257379D01*
X0331926Y0258360D01*
X0332457Y0259643D01*
X0332457Y0261031D01*
X0331926Y0262313D01*
X0330945Y0263294D01*
X0329663Y0263826D01*
X0328274Y0263826D01*
X0326992Y0263294D01*
X0326734Y0263037D01*
X0303362Y0263037D01*
X0303208Y0263080D01*
X0302829Y0263037D01*
X0302447Y0263037D01*
X0302300Y0262976D01*
X0302141Y0262957D01*
X0301808Y0262772D01*
X0301455Y0262626D01*
X0301342Y0262513D01*
X0301203Y0262435D01*
X0300965Y0262136D01*
X0300695Y0261866D01*
X0300634Y0261719D01*
X0293250Y0252408D01*
X0291958Y0251879D02*
X0279456Y0251879D01*
X0280454Y0250881D02*
X0290965Y0250881D01*
X0290552Y0249882D02*
X0281453Y0249882D01*
X0282451Y0248884D02*
X0290440Y0248884D01*
X0290581Y0247885D02*
X0282500Y0247885D01*
X0282500Y0246887D02*
X0291027Y0246887D01*
X0292130Y0245888D02*
X0282500Y0245888D01*
X0282500Y0244890D02*
X0381685Y0244890D01*
X0380871Y0243891D02*
X0282112Y0243891D01*
X0281114Y0242893D02*
X0380457Y0242893D01*
X0380231Y0241894D02*
X0280115Y0241894D01*
X0273885Y0241894D02*
X0270115Y0241894D01*
X0271114Y0242893D02*
X0272886Y0242893D01*
X0272547Y0249882D02*
X0271453Y0249882D01*
X0270454Y0250881D02*
X0273546Y0250881D01*
X0274544Y0251879D02*
X0269456Y0251879D01*
X0264544Y0251879D02*
X0259456Y0251879D01*
X0260454Y0250881D02*
X0263546Y0250881D01*
X0262547Y0249882D02*
X0261453Y0249882D01*
X0261114Y0242893D02*
X0262886Y0242893D01*
X0263885Y0241894D02*
X0260115Y0241894D01*
X0250568Y0253876D02*
X0294415Y0253876D01*
X0295206Y0254875D02*
X0250508Y0254875D01*
X0250095Y0255873D02*
X0295998Y0255873D01*
X0296790Y0256872D02*
X0249178Y0256872D01*
X0247458Y0257870D02*
X0297582Y0257870D01*
X0298374Y0258869D02*
X0246459Y0258869D01*
X0245461Y0259867D02*
X0299166Y0259867D01*
X0299958Y0260866D02*
X0244462Y0260866D01*
X0243464Y0261864D02*
X0300695Y0261864D01*
X0301972Y0262863D02*
X0242465Y0262863D01*
X0241467Y0263861D02*
X0347186Y0263861D01*
X0347416Y0264417D02*
X0346579Y0262395D01*
X0346579Y0260207D01*
X0347416Y0258186D01*
X0348963Y0256639D01*
X0349778Y0256301D01*
X0348963Y0255964D01*
X0347416Y0254417D01*
X0346579Y0252395D01*
X0346579Y0250207D01*
X0347416Y0248186D01*
X0348963Y0246639D01*
X0350985Y0245801D01*
X0353173Y0245801D01*
X0355194Y0246639D01*
X0356741Y0248186D01*
X0357579Y0250207D01*
X0357579Y0252395D01*
X0356741Y0254417D01*
X0355194Y0255964D01*
X0354380Y0256301D01*
X0355194Y0256639D01*
X0356741Y0258186D01*
X0357579Y0260207D01*
X0357579Y0262395D01*
X0356741Y0264417D01*
X0355194Y0265964D01*
X0353173Y0266801D01*
X0350985Y0266801D01*
X0348963Y0265964D01*
X0347416Y0264417D01*
X0347859Y0264860D02*
X0240468Y0264860D01*
X0239470Y0265858D02*
X0348858Y0265858D01*
X0346772Y0262863D02*
X0331376Y0262863D01*
X0332112Y0261864D02*
X0346579Y0261864D01*
X0346579Y0260866D02*
X0332457Y0260866D01*
X0332457Y0259867D02*
X0346719Y0259867D01*
X0347133Y0258869D02*
X0332137Y0258869D01*
X0331436Y0257870D02*
X0347731Y0257870D01*
X0348730Y0256872D02*
X0329721Y0256872D01*
X0328216Y0256872D02*
X0303682Y0256872D01*
X0302891Y0255873D02*
X0348873Y0255873D01*
X0347874Y0254875D02*
X0331097Y0254875D01*
X0331996Y0253876D02*
X0347192Y0253876D01*
X0346779Y0252878D02*
X0332410Y0252878D01*
X0332457Y0251879D02*
X0346579Y0251879D01*
X0346579Y0250881D02*
X0332253Y0250881D01*
X0331716Y0249882D02*
X0346713Y0249882D01*
X0347127Y0248884D02*
X0330396Y0248884D01*
X0327541Y0248884D02*
X0303231Y0248884D01*
X0300376Y0248884D02*
X0297418Y0248884D01*
X0297277Y0247885D02*
X0347716Y0247885D01*
X0348715Y0246887D02*
X0296831Y0246887D01*
X0295729Y0245888D02*
X0350774Y0245888D01*
X0353383Y0245888D02*
X0364078Y0245888D01*
X0361963Y0246887D02*
X0355442Y0246887D01*
X0356441Y0247885D02*
X0360965Y0247885D01*
X0360352Y0248884D02*
X0357031Y0248884D01*
X0357444Y0249882D02*
X0359938Y0249882D01*
X0359787Y0250881D02*
X0357579Y0250881D01*
X0357579Y0251879D02*
X0359787Y0251879D01*
X0359971Y0252878D02*
X0357379Y0252878D01*
X0356965Y0253876D02*
X0360385Y0253876D01*
X0361044Y0254875D02*
X0356283Y0254875D01*
X0355285Y0255873D02*
X0361043Y0255873D01*
X0360045Y0256872D02*
X0355428Y0256872D01*
X0356426Y0257870D02*
X0359787Y0257870D01*
X0359787Y0258869D02*
X0357024Y0258869D01*
X0357438Y0259867D02*
X0359787Y0259867D01*
X0359787Y0260866D02*
X0357579Y0260866D01*
X0357579Y0261864D02*
X0359787Y0261864D01*
X0359787Y0262863D02*
X0357385Y0262863D01*
X0356971Y0263861D02*
X0359787Y0263861D01*
X0359787Y0264860D02*
X0356298Y0264860D01*
X0355300Y0265858D02*
X0360094Y0265858D01*
X0361993Y0266857D02*
X0238471Y0266857D01*
X0237473Y0267855D02*
X0360994Y0267855D01*
X0360364Y0268854D02*
X0236017Y0268854D01*
X0235268Y0266242D02*
X0079362Y0266242D01*
X0079362Y0263093D02*
X0077394Y0261124D01*
X0077394Y0259549D01*
X0079362Y0263093D02*
X0227787Y0263093D01*
X0236843Y0254037D01*
X0247079Y0254037D02*
X0247079Y0254431D01*
X0235268Y0266242D01*
X0228290Y0272848D02*
X0359959Y0272848D01*
X0359787Y0271850D02*
X0083363Y0271850D01*
X0084029Y0272848D02*
X0170198Y0272848D01*
X0168822Y0273847D02*
X0084694Y0273847D01*
X0082697Y0270851D02*
X0359787Y0270851D01*
X0359951Y0269853D02*
X0082032Y0269853D01*
X0081051Y0253876D02*
X0083278Y0253876D01*
X0081743Y0252878D02*
X0080487Y0252878D01*
X0080487Y0251879D02*
X0080745Y0251879D01*
X0077000Y0225691D02*
X0073693Y0222384D01*
X0067059Y0222384D01*
X0077876Y0212937D02*
X0106685Y0212937D01*
X0107098Y0211939D02*
X0077878Y0211939D01*
X0077879Y0210940D02*
X0108076Y0210940D01*
X0112065Y0210940D02*
X0145833Y0210940D01*
X0144834Y0209942D02*
X0077881Y0209942D01*
X0077883Y0208943D02*
X0143836Y0208943D01*
X0142837Y0207945D02*
X0077885Y0207945D01*
X0077886Y0206946D02*
X0141839Y0206946D01*
X0140840Y0205948D02*
X0077888Y0205948D01*
X0077890Y0204949D02*
X0139842Y0204949D01*
X0138843Y0203951D02*
X0077892Y0203951D01*
X0077893Y0202952D02*
X0137845Y0202952D01*
X0136846Y0201954D02*
X0077895Y0201954D01*
X0077897Y0200955D02*
X0135098Y0200955D01*
X0133733Y0199957D02*
X0077899Y0199957D01*
X0077900Y0198958D02*
X0133178Y0198958D01*
X0132960Y0197960D02*
X0077902Y0197960D01*
X0077904Y0196961D02*
X0132994Y0196961D01*
X0133408Y0195963D02*
X0077906Y0195963D01*
X0077907Y0194964D02*
X0134289Y0194964D01*
X0136449Y0197738D02*
X0149441Y0210730D01*
X0174244Y0210730D01*
X0199835Y0236321D01*
X0201409Y0236321D01*
X0200533Y0232908D02*
X0200240Y0232908D01*
X0197546Y0237850D02*
X0197546Y0237850D01*
X0199566Y0240896D02*
X0380231Y0240896D01*
X0383053Y0245888D02*
X0366497Y0245888D01*
X0368612Y0246887D02*
X0412371Y0246887D01*
X0412374Y0247885D02*
X0369610Y0247885D01*
X0370223Y0248884D02*
X0412378Y0248884D01*
X0412381Y0249882D02*
X0370637Y0249882D01*
X0370787Y0250881D02*
X0412385Y0250881D01*
X0412388Y0251879D02*
X0370787Y0251879D01*
X0370604Y0252878D02*
X0412392Y0252878D01*
X0412395Y0253876D02*
X0370190Y0253876D01*
X0369531Y0254875D02*
X0412399Y0254875D01*
X0412402Y0255873D02*
X0369531Y0255873D01*
X0370530Y0256872D02*
X0412406Y0256872D01*
X0412409Y0257870D02*
X0370787Y0257870D01*
X0370787Y0258869D02*
X0412413Y0258869D01*
X0412416Y0259867D02*
X0370787Y0259867D01*
X0370787Y0260866D02*
X0412420Y0260866D01*
X0412423Y0261864D02*
X0370787Y0261864D01*
X0370787Y0262863D02*
X0412427Y0262863D01*
X0412430Y0263861D02*
X0370787Y0263861D01*
X0370787Y0264860D02*
X0412240Y0264860D01*
X0411242Y0265858D02*
X0370481Y0265858D01*
X0368582Y0266857D02*
X0410243Y0266857D01*
X0409245Y0267855D02*
X0369580Y0267855D01*
X0370211Y0268854D02*
X0408246Y0268854D01*
X0407248Y0269853D02*
X0370624Y0269853D01*
X0370787Y0270851D02*
X0406249Y0270851D01*
X0405251Y0271850D02*
X0370787Y0271850D01*
X0370616Y0272848D02*
X0404252Y0272848D01*
X0412367Y0245888D02*
X0387522Y0245888D01*
X0388889Y0244890D02*
X0412364Y0244890D01*
X0412360Y0243891D02*
X0389704Y0243891D01*
X0390118Y0242893D02*
X0412357Y0242893D01*
X0412353Y0241894D02*
X0390344Y0241894D01*
X0390344Y0240896D02*
X0412350Y0240896D01*
X0412346Y0239897D02*
X0390163Y0239897D01*
X0389749Y0238899D02*
X0412343Y0238899D01*
X0412339Y0237900D02*
X0388998Y0237900D01*
X0387785Y0236902D02*
X0412336Y0236902D01*
X0362291Y0194964D02*
X0311480Y0194964D01*
X0311848Y0194596D02*
X0310866Y0195578D01*
X0309584Y0196109D01*
X0308196Y0196109D01*
X0306913Y0195578D01*
X0305932Y0194596D01*
X0305401Y0193314D01*
X0305401Y0191926D01*
X0305932Y0190644D01*
X0306913Y0189662D01*
X0308196Y0189131D01*
X0308256Y0189131D01*
X0310091Y0186888D01*
X0310144Y0186760D01*
X0310429Y0186475D01*
X0310683Y0186164D01*
X0310806Y0186098D01*
X0310904Y0186000D01*
X0311275Y0185846D01*
X0311630Y0185656D01*
X0311768Y0185642D01*
X0311896Y0185589D01*
X0312298Y0185589D01*
X0312699Y0185549D01*
X0312831Y0185589D01*
X0326734Y0185589D01*
X0326992Y0185332D01*
X0328274Y0184800D01*
X0329663Y0184800D01*
X0330945Y0185332D01*
X0331926Y0186313D01*
X0332457Y0187595D01*
X0332457Y0188983D01*
X0331926Y0190266D01*
X0330945Y0191247D01*
X0329663Y0191778D01*
X0328274Y0191778D01*
X0326992Y0191247D01*
X0326734Y0190989D01*
X0313713Y0190989D01*
X0312379Y0192620D01*
X0312379Y0193314D01*
X0311848Y0194596D01*
X0312109Y0193966D02*
X0348855Y0193966D01*
X0347856Y0192967D02*
X0312379Y0192967D01*
X0312911Y0191969D02*
X0347185Y0191969D01*
X0346771Y0190970D02*
X0331222Y0190970D01*
X0332048Y0189972D02*
X0346579Y0189972D01*
X0346579Y0188973D02*
X0332457Y0188973D01*
X0332457Y0187975D02*
X0346721Y0187975D01*
X0347134Y0186976D02*
X0332201Y0186976D01*
X0331591Y0185978D02*
X0347734Y0185978D01*
X0348733Y0184979D02*
X0330094Y0184979D01*
X0327843Y0184979D02*
X0295187Y0184979D01*
X0295187Y0185978D02*
X0310959Y0185978D01*
X0310019Y0186976D02*
X0295187Y0186976D01*
X0295187Y0187975D02*
X0309202Y0187975D01*
X0308385Y0188973D02*
X0294860Y0188973D01*
X0294447Y0189972D02*
X0306604Y0189972D01*
X0305797Y0190970D02*
X0294033Y0190970D01*
X0293166Y0191969D02*
X0305401Y0191969D01*
X0305401Y0192967D02*
X0292168Y0192967D01*
X0290507Y0193966D02*
X0305671Y0193966D01*
X0306300Y0194964D02*
X0237151Y0194964D01*
X0237182Y0193966D02*
X0283493Y0193966D01*
X0281832Y0192967D02*
X0236961Y0192967D01*
X0236401Y0191969D02*
X0280834Y0191969D01*
X0294794Y0183981D02*
X0348870Y0183981D01*
X0347871Y0182982D02*
X0331336Y0182982D01*
X0332095Y0181984D02*
X0347191Y0181984D01*
X0346777Y0180985D02*
X0332457Y0180985D01*
X0332457Y0179987D02*
X0346579Y0179987D01*
X0346579Y0178988D02*
X0332154Y0178988D01*
X0331477Y0177989D02*
X0346715Y0177989D01*
X0328969Y0180415D02*
X0319520Y0180415D01*
X0317152Y0182982D02*
X0294380Y0182982D01*
X0293967Y0181984D02*
X0316393Y0181984D01*
X0316031Y0180985D02*
X0293006Y0180985D01*
X0292007Y0179987D02*
X0316031Y0179987D01*
X0312433Y0188289D02*
X0328969Y0188289D01*
X0312433Y0188289D02*
X0308890Y0192620D01*
X0309937Y0195963D02*
X0361293Y0195963D01*
X0387685Y0173995D02*
X0412115Y0173995D01*
X0412111Y0172997D02*
X0389188Y0172997D01*
X0390058Y0171998D02*
X0412108Y0171998D01*
X0412104Y0171000D02*
X0390472Y0171000D01*
X0390738Y0170001D02*
X0412101Y0170001D01*
X0412097Y0169003D02*
X0390738Y0169003D01*
X0390596Y0168004D02*
X0412094Y0168004D01*
X0412090Y0167006D02*
X0390182Y0167006D01*
X0389487Y0166007D02*
X0412087Y0166007D01*
X0412083Y0165009D02*
X0388409Y0165009D01*
X0381304Y0171998D02*
X0264432Y0171998D01*
X0262786Y0166007D02*
X0077958Y0166007D01*
X0077960Y0165009D02*
X0263785Y0165009D01*
X0264784Y0164010D02*
X0077962Y0164010D01*
X0077963Y0163012D02*
X0265782Y0163012D01*
X0266781Y0162013D02*
X0077965Y0162013D01*
X0077967Y0161015D02*
X0267779Y0161015D01*
X0268778Y0160016D02*
X0077969Y0160016D01*
X0077970Y0159018D02*
X0318660Y0159018D01*
X0319062Y0165009D02*
X0271422Y0165009D01*
X0256042Y0177989D02*
X0094675Y0177989D01*
X0094138Y0176991D02*
X0254862Y0176991D01*
X0254383Y0175992D02*
X0095225Y0175992D01*
X0096002Y0184979D02*
X0236400Y0184979D01*
X0232612Y0185978D02*
X0095240Y0185978D01*
X0094174Y0186976D02*
X0231582Y0186976D01*
X0233693Y0194195D02*
X0233693Y0199313D01*
X0236449Y0202069D01*
X0236737Y0195963D02*
X0307842Y0195963D01*
X0277787Y0220573D02*
X0231331Y0220573D01*
X0206134Y0223329D02*
X0206134Y0207974D01*
X0204559Y0206400D01*
X0185661Y0229234D02*
X0185661Y0231596D01*
X0182428Y0232908D02*
X0178664Y0232908D01*
X0176911Y0232908D02*
X0155661Y0232908D01*
X0156074Y0231909D02*
X0182172Y0231909D01*
X0182172Y0230911D02*
X0156080Y0230911D01*
X0155832Y0229912D02*
X0182521Y0229912D01*
X0181522Y0228914D02*
X0155236Y0228914D01*
X0153770Y0227915D02*
X0180524Y0227915D01*
X0179525Y0226917D02*
X0143396Y0226917D01*
X0144240Y0227915D02*
X0151411Y0227915D01*
X0152591Y0231203D02*
X0142748Y0231203D01*
X0141173Y0229628D01*
X0145110Y0219392D02*
X0130937Y0233565D01*
X0145110Y0219392D02*
X0167945Y0219392D01*
X0180307Y0233906D02*
X0183037Y0233906D01*
X0200565Y0241894D02*
X0203885Y0241894D01*
X0202886Y0242893D02*
X0201430Y0242893D01*
X0201747Y0243891D02*
X0201888Y0243891D01*
X0210115Y0241894D02*
X0213885Y0241894D01*
X0212886Y0242893D02*
X0211114Y0242893D01*
X0211453Y0249882D02*
X0212547Y0249882D01*
X0213546Y0250881D02*
X0210454Y0250881D01*
X0209456Y0251879D02*
X0214544Y0251879D01*
X0210574Y0272848D02*
X0223348Y0272848D01*
X0221972Y0273847D02*
X0211950Y0273847D01*
X0205631Y0272848D02*
X0192857Y0272848D01*
X0194233Y0273847D02*
X0204255Y0273847D01*
X0187914Y0272848D02*
X0175141Y0272848D01*
X0176516Y0273847D02*
X0186539Y0273847D01*
X0229666Y0273847D02*
X0302953Y0273847D01*
X0302984Y0260337D02*
X0293929Y0248919D01*
X0298139Y0249882D02*
X0299056Y0249882D01*
X0301803Y0252069D02*
X0328969Y0252069D01*
X0326840Y0254875D02*
X0303931Y0254875D01*
X0302984Y0260337D02*
X0328969Y0260337D01*
X0412059Y0158019D02*
X0077972Y0158019D01*
X0077974Y0157021D02*
X0412055Y0157021D01*
X0412052Y0156022D02*
X0077976Y0156022D01*
X0077977Y0155024D02*
X0412048Y0155024D01*
X0412045Y0154025D02*
X0077979Y0154025D01*
X0077981Y0153027D02*
X0412041Y0153027D01*
X0412038Y0152028D02*
X0077983Y0152028D01*
X0077984Y0151030D02*
X0412034Y0151030D01*
X0412031Y0150031D02*
X0077986Y0150031D01*
X0077988Y0149033D02*
X0412027Y0149033D01*
X0412024Y0148034D02*
X0077990Y0148034D01*
X0077991Y0147036D02*
X0412020Y0147036D01*
X0412017Y0146037D02*
X0086045Y0146037D01*
X0085300Y0146346D02*
X0086814Y0145719D01*
X0087306Y0145226D01*
X0094526Y0145226D01*
X0095628Y0144770D01*
X0096472Y0143926D01*
X0096472Y0143926D01*
X0119701Y0120697D01*
X0120157Y0119595D01*
X0120157Y0098981D01*
X0130273Y0088865D01*
X0131363Y0088865D01*
X0132877Y0088238D01*
X0134035Y0087079D01*
X0134663Y0085565D01*
X0134663Y0083927D01*
X0134035Y0082413D01*
X0132877Y0081254D01*
X0131363Y0080627D01*
X0129724Y0080627D01*
X0128210Y0081254D01*
X0127051Y0082413D01*
X0126424Y0083927D01*
X0126424Y0084229D01*
X0114614Y0096039D01*
X0114157Y0097141D01*
X0114157Y0117755D01*
X0092686Y0139226D01*
X0087306Y0139226D01*
X0086814Y0138734D01*
X0085300Y0138107D01*
X0083661Y0138107D01*
X0082147Y0138734D01*
X0080988Y0139893D01*
X0080361Y0141407D01*
X0080361Y0143046D01*
X0080988Y0144560D01*
X0082147Y0145719D01*
X0083661Y0146346D01*
X0085300Y0146346D01*
X0082916Y0146037D02*
X0077993Y0146037D01*
X0077995Y0145039D02*
X0081467Y0145039D01*
X0080773Y0144040D02*
X0077997Y0144040D01*
X0077998Y0143042D02*
X0080361Y0143042D01*
X0080361Y0142043D02*
X0078000Y0142043D01*
X0078002Y0141045D02*
X0080511Y0141045D01*
X0080925Y0140046D02*
X0078004Y0140046D01*
X0078005Y0139048D02*
X0081834Y0139048D01*
X0078007Y0138049D02*
X0093864Y0138049D01*
X0094862Y0137051D02*
X0078009Y0137051D01*
X0078011Y0136052D02*
X0095861Y0136052D01*
X0096859Y0135053D02*
X0078012Y0135053D01*
X0078014Y0134055D02*
X0097858Y0134055D01*
X0098856Y0133056D02*
X0078016Y0133056D01*
X0078018Y0132058D02*
X0099855Y0132058D01*
X0100853Y0131059D02*
X0078019Y0131059D01*
X0078021Y0130061D02*
X0101852Y0130061D01*
X0102850Y0129062D02*
X0078023Y0129062D01*
X0078025Y0128064D02*
X0103849Y0128064D01*
X0104847Y0127065D02*
X0078026Y0127065D01*
X0078028Y0126067D02*
X0105846Y0126067D01*
X0106844Y0125068D02*
X0078030Y0125068D01*
X0078032Y0124070D02*
X0107843Y0124070D01*
X0108841Y0123071D02*
X0078033Y0123071D01*
X0078035Y0122073D02*
X0109840Y0122073D01*
X0110839Y0121074D02*
X0078037Y0121074D01*
X0078039Y0120076D02*
X0111837Y0120076D01*
X0112836Y0119077D02*
X0078040Y0119077D01*
X0078042Y0118079D02*
X0113834Y0118079D01*
X0114157Y0117080D02*
X0078044Y0117080D01*
X0078046Y0116082D02*
X0114157Y0116082D01*
X0114157Y0115083D02*
X0078047Y0115083D01*
X0078049Y0114085D02*
X0114157Y0114085D01*
X0114157Y0113086D02*
X0078051Y0113086D01*
X0078053Y0112088D02*
X0114157Y0112088D01*
X0114157Y0111089D02*
X0078054Y0111089D01*
X0078056Y0110091D02*
X0114157Y0110091D01*
X0114157Y0109092D02*
X0088115Y0109092D01*
X0088425Y0108964D02*
X0087143Y0109495D01*
X0085755Y0109495D01*
X0084472Y0108964D01*
X0083491Y0107982D01*
X0082960Y0106700D01*
X0082960Y0105312D01*
X0083491Y0104030D01*
X0084472Y0103048D01*
X0085755Y0102517D01*
X0087143Y0102517D01*
X0088425Y0103048D01*
X0088683Y0103306D01*
X0089267Y0103306D01*
X0097518Y0095056D01*
X0097826Y0094928D01*
X0097172Y0094928D01*
X0095890Y0094397D01*
X0094908Y0093415D01*
X0094377Y0092133D01*
X0094377Y0090745D01*
X0094908Y0089463D01*
X0095890Y0088481D01*
X0097172Y0087950D01*
X0097537Y0087950D01*
X0108148Y0077339D01*
X0109140Y0076928D01*
X0112167Y0076928D01*
X0112425Y0076670D01*
X0113708Y0076139D01*
X0115096Y0076139D01*
X0116378Y0076670D01*
X0117359Y0077652D01*
X0117891Y0078934D01*
X0117891Y0080322D01*
X0117359Y0081604D01*
X0116378Y0082586D01*
X0115096Y0083117D01*
X0113708Y0083117D01*
X0112425Y0082586D01*
X0112167Y0082328D01*
X0110796Y0082328D01*
X0101355Y0091768D01*
X0101355Y0092133D01*
X0100824Y0093415D01*
X0099842Y0094397D01*
X0099244Y0094644D01*
X0103112Y0094644D01*
X0103370Y0094387D01*
X0104652Y0093856D01*
X0106040Y0093856D01*
X0107323Y0094387D01*
X0108304Y0095368D01*
X0108835Y0096650D01*
X0108835Y0098038D01*
X0108304Y0099321D01*
X0107323Y0100302D01*
X0106040Y0100833D01*
X0104652Y0100833D01*
X0103370Y0100302D01*
X0103112Y0100044D01*
X0100166Y0100044D01*
X0092675Y0107535D01*
X0091915Y0108295D01*
X0090923Y0108706D01*
X0088683Y0108706D01*
X0088425Y0108964D01*
X0090386Y0106006D02*
X0086449Y0106006D01*
X0082960Y0106097D02*
X0078063Y0106097D01*
X0078061Y0107095D02*
X0083124Y0107095D01*
X0083602Y0108094D02*
X0078060Y0108094D01*
X0078058Y0109092D02*
X0084783Y0109092D01*
X0083048Y0105098D02*
X0078065Y0105098D01*
X0078067Y0104100D02*
X0083462Y0104100D01*
X0084419Y0103101D02*
X0078068Y0103101D01*
X0078070Y0102103D02*
X0090471Y0102103D01*
X0089472Y0103101D02*
X0088478Y0103101D01*
X0090386Y0106006D02*
X0099047Y0097344D01*
X0105346Y0097344D01*
X0104027Y0094115D02*
X0100125Y0094115D01*
X0100948Y0093116D02*
X0117537Y0093116D01*
X0118536Y0092118D02*
X0101355Y0092118D01*
X0102004Y0091119D02*
X0119534Y0091119D01*
X0120533Y0090120D02*
X0103003Y0090120D01*
X0104002Y0089122D02*
X0121531Y0089122D01*
X0122530Y0088123D02*
X0105000Y0088123D01*
X0105999Y0087125D02*
X0123528Y0087125D01*
X0124527Y0086126D02*
X0106997Y0086126D01*
X0107996Y0085128D02*
X0125525Y0085128D01*
X0126424Y0084129D02*
X0108994Y0084129D01*
X0109993Y0083131D02*
X0126754Y0083131D01*
X0127331Y0082132D02*
X0116831Y0082132D01*
X0117554Y0081134D02*
X0128500Y0081134D01*
X0132587Y0081134D02*
X0280035Y0081134D01*
X0280060Y0081194D02*
X0278813Y0078186D01*
X0278813Y0074929D01*
X0280060Y0071920D01*
X0282363Y0069617D01*
X0285372Y0068370D01*
X0288628Y0068370D01*
X0291637Y0069617D01*
X0293940Y0071920D01*
X0295187Y0074929D01*
X0295187Y0075340D01*
X0325086Y0045440D01*
X0325086Y0045076D01*
X0325617Y0043793D01*
X0326598Y0042812D01*
X0327881Y0042281D01*
X0329269Y0042281D01*
X0330551Y0042812D01*
X0331533Y0043793D01*
X0332064Y0045076D01*
X0332064Y0046464D01*
X0331533Y0047746D01*
X0330551Y0048727D01*
X0329269Y0049259D01*
X0328904Y0049259D01*
X0296629Y0081534D01*
X0296629Y0084480D01*
X0296887Y0084738D01*
X0297418Y0086021D01*
X0297418Y0087409D01*
X0296887Y0088691D01*
X0295905Y0089672D01*
X0294623Y0090204D01*
X0293235Y0090204D01*
X0291953Y0089672D01*
X0290971Y0088691D01*
X0290440Y0087409D01*
X0290440Y0086021D01*
X0290971Y0084738D01*
X0291229Y0084480D01*
X0291229Y0083666D01*
X0288628Y0084744D01*
X0285372Y0084744D01*
X0282363Y0083497D01*
X0280060Y0081194D01*
X0279621Y0080135D02*
X0117891Y0080135D01*
X0117891Y0079137D02*
X0279207Y0079137D01*
X0278813Y0078138D02*
X0117561Y0078138D01*
X0116848Y0077140D02*
X0278813Y0077140D01*
X0278813Y0076141D02*
X0115101Y0076141D01*
X0113702Y0076141D02*
X0078116Y0076141D01*
X0078117Y0075143D02*
X0278813Y0075143D01*
X0279138Y0074144D02*
X0078119Y0074144D01*
X0078121Y0073146D02*
X0279552Y0073146D01*
X0279965Y0072147D02*
X0078123Y0072147D01*
X0078124Y0071149D02*
X0280831Y0071149D01*
X0281829Y0070150D02*
X0078126Y0070150D01*
X0078128Y0069152D02*
X0283485Y0069152D01*
X0290515Y0069152D02*
X0301374Y0069152D01*
X0300376Y0070150D02*
X0292171Y0070150D01*
X0293169Y0071149D02*
X0299377Y0071149D01*
X0298379Y0072147D02*
X0294035Y0072147D01*
X0294448Y0073146D02*
X0297380Y0073146D01*
X0296382Y0074144D02*
X0294862Y0074144D01*
X0295187Y0075143D02*
X0295383Y0075143D01*
X0299026Y0079137D02*
X0411782Y0079137D01*
X0411786Y0080135D02*
X0298027Y0080135D01*
X0297029Y0081134D02*
X0411789Y0081134D01*
X0411793Y0082132D02*
X0296629Y0082132D01*
X0296629Y0083131D02*
X0411796Y0083131D01*
X0411800Y0084129D02*
X0296629Y0084129D01*
X0297048Y0085128D02*
X0411803Y0085128D01*
X0411807Y0086126D02*
X0297418Y0086126D01*
X0297418Y0087125D02*
X0411810Y0087125D01*
X0411814Y0088123D02*
X0297122Y0088123D01*
X0296456Y0089122D02*
X0411817Y0089122D01*
X0411821Y0090120D02*
X0294824Y0090120D01*
X0293035Y0090120D02*
X0129018Y0090120D01*
X0130016Y0089122D02*
X0291402Y0089122D01*
X0290736Y0088123D02*
X0132991Y0088123D01*
X0133990Y0087125D02*
X0290440Y0087125D01*
X0290440Y0086126D02*
X0134430Y0086126D01*
X0134663Y0085128D02*
X0290810Y0085128D01*
X0291229Y0084129D02*
X0290111Y0084129D01*
X0293929Y0086715D02*
X0293929Y0080415D01*
X0328575Y0045770D01*
X0331096Y0048183D02*
X0347302Y0048183D01*
X0346894Y0047184D02*
X0331765Y0047184D01*
X0332064Y0046186D02*
X0346894Y0046186D01*
X0346894Y0045187D02*
X0332064Y0045187D01*
X0331696Y0044189D02*
X0347234Y0044189D01*
X0347648Y0043190D02*
X0330930Y0043190D01*
X0330240Y0040195D02*
X0348706Y0040195D01*
X0347721Y0039196D02*
X0331421Y0039196D01*
X0331533Y0039085D02*
X0330551Y0040066D01*
X0329269Y0040597D01*
X0327881Y0040597D01*
X0326598Y0040066D01*
X0326341Y0039808D01*
X0322148Y0039808D01*
X0321890Y0040066D01*
X0320607Y0040597D01*
X0319219Y0040597D01*
X0317937Y0040066D01*
X0316956Y0039085D01*
X0316424Y0037802D01*
X0316424Y0036414D01*
X0316956Y0035132D01*
X0317937Y0034150D01*
X0319219Y0033619D01*
X0320607Y0033619D01*
X0321890Y0034150D01*
X0322148Y0034408D01*
X0326341Y0034408D01*
X0326598Y0034150D01*
X0327881Y0033619D01*
X0329269Y0033619D01*
X0330551Y0034150D01*
X0331533Y0035132D01*
X0332064Y0036414D01*
X0332064Y0037802D01*
X0331533Y0039085D01*
X0331900Y0038198D02*
X0347308Y0038198D01*
X0346894Y0037199D02*
X0332064Y0037199D01*
X0331975Y0036201D02*
X0346894Y0036201D01*
X0346894Y0035202D02*
X0331562Y0035202D01*
X0330605Y0034204D02*
X0347228Y0034204D01*
X0347641Y0033205D02*
X0083659Y0033205D01*
X0084657Y0032207D02*
X0348513Y0032207D01*
X0349842Y0031208D02*
X0241882Y0031208D01*
X0239278Y0051057D02*
X0234722Y0051057D01*
X0232000Y0053779D01*
X0229278Y0051057D01*
X0224722Y0051057D01*
X0221500Y0054279D01*
X0221500Y0058835D01*
X0224722Y0062057D01*
X0229278Y0062057D01*
X0232000Y0059335D01*
X0234722Y0062057D01*
X0239278Y0062057D01*
X0242000Y0059335D01*
X0244722Y0062057D01*
X0249278Y0062057D01*
X0252000Y0059335D01*
X0254722Y0062057D01*
X0259278Y0062057D01*
X0262000Y0059335D01*
X0264722Y0062057D01*
X0269278Y0062057D01*
X0272000Y0059335D01*
X0274722Y0062057D01*
X0279278Y0062057D01*
X0282500Y0058835D01*
X0282500Y0054279D01*
X0279278Y0051057D01*
X0274722Y0051057D01*
X0272000Y0053779D01*
X0269278Y0051057D01*
X0264722Y0051057D01*
X0262000Y0053779D01*
X0259278Y0051057D01*
X0254722Y0051057D01*
X0252000Y0053779D01*
X0249278Y0051057D01*
X0244722Y0051057D01*
X0242000Y0053779D01*
X0239278Y0051057D01*
X0239400Y0051179D02*
X0244600Y0051179D01*
X0243602Y0052177D02*
X0240398Y0052177D01*
X0241397Y0053176D02*
X0242603Y0053176D01*
X0249400Y0051179D02*
X0254600Y0051179D01*
X0253602Y0052177D02*
X0250398Y0052177D01*
X0251397Y0053176D02*
X0252603Y0053176D01*
X0259400Y0051179D02*
X0264600Y0051179D01*
X0263602Y0052177D02*
X0260398Y0052177D01*
X0261397Y0053176D02*
X0262603Y0053176D01*
X0269400Y0051179D02*
X0274600Y0051179D01*
X0273602Y0052177D02*
X0270398Y0052177D01*
X0271397Y0053176D02*
X0272603Y0053176D01*
X0279400Y0051179D02*
X0319348Y0051179D01*
X0318349Y0052177D02*
X0280398Y0052177D01*
X0281397Y0053176D02*
X0317351Y0053176D01*
X0316352Y0054174D02*
X0282395Y0054174D01*
X0282500Y0055173D02*
X0315354Y0055173D01*
X0314355Y0056171D02*
X0282500Y0056171D01*
X0282500Y0057170D02*
X0313356Y0057170D01*
X0312358Y0058168D02*
X0282500Y0058168D01*
X0282169Y0059167D02*
X0311359Y0059167D01*
X0310361Y0060165D02*
X0281170Y0060165D01*
X0280172Y0061164D02*
X0309362Y0061164D01*
X0308364Y0062162D02*
X0087973Y0062162D01*
X0088953Y0061164D02*
X0133828Y0061164D01*
X0134722Y0062057D02*
X0131500Y0058835D01*
X0131500Y0054279D01*
X0134722Y0051057D01*
X0139278Y0051057D01*
X0142000Y0053779D01*
X0144722Y0051057D01*
X0149278Y0051057D01*
X0152000Y0053779D01*
X0154722Y0051057D01*
X0159278Y0051057D01*
X0162000Y0053779D01*
X0164722Y0051057D01*
X0169278Y0051057D01*
X0172000Y0053779D01*
X0174722Y0051057D01*
X0179278Y0051057D01*
X0182495Y0054274D01*
X0185012Y0051757D01*
X0186516Y0051757D01*
X0186516Y0056073D01*
X0187484Y0056073D01*
X0187484Y0051757D01*
X0188988Y0051757D01*
X0191505Y0054274D01*
X0194722Y0051057D01*
X0199278Y0051057D01*
X0202000Y0053779D01*
X0204722Y0051057D01*
X0209278Y0051057D01*
X0212500Y0054279D01*
X0212500Y0058835D01*
X0209278Y0062057D01*
X0204722Y0062057D01*
X0202000Y0059335D01*
X0199278Y0062057D01*
X0194722Y0062057D01*
X0191505Y0058840D01*
X0188988Y0061357D01*
X0187484Y0061357D01*
X0187484Y0057041D01*
X0186516Y0057041D01*
X0186516Y0061357D01*
X0185012Y0061357D01*
X0182495Y0058840D01*
X0179278Y0062057D01*
X0174722Y0062057D01*
X0172000Y0059335D01*
X0169278Y0062057D01*
X0164722Y0062057D01*
X0162000Y0059335D01*
X0159278Y0062057D01*
X0154722Y0062057D01*
X0152000Y0059335D01*
X0149278Y0062057D01*
X0144722Y0062057D01*
X0142000Y0059335D01*
X0139278Y0062057D01*
X0134722Y0062057D01*
X0132830Y0060165D02*
X0089367Y0060165D01*
X0089780Y0059167D02*
X0131831Y0059167D01*
X0131500Y0058168D02*
X0090187Y0058168D01*
X0090187Y0057170D02*
X0131500Y0057170D01*
X0131500Y0056171D02*
X0090187Y0056171D01*
X0090187Y0055173D02*
X0131500Y0055173D01*
X0131605Y0054174D02*
X0089874Y0054174D01*
X0089460Y0053176D02*
X0132603Y0053176D01*
X0133602Y0052177D02*
X0089047Y0052177D01*
X0088199Y0051179D02*
X0134600Y0051179D01*
X0139400Y0051179D02*
X0144600Y0051179D01*
X0143602Y0052177D02*
X0140398Y0052177D01*
X0141397Y0053176D02*
X0142603Y0053176D01*
X0149400Y0051179D02*
X0154600Y0051179D01*
X0153602Y0052177D02*
X0150398Y0052177D01*
X0151397Y0053176D02*
X0152603Y0053176D01*
X0159400Y0051179D02*
X0164600Y0051179D01*
X0163602Y0052177D02*
X0160398Y0052177D01*
X0161397Y0053176D02*
X0162603Y0053176D01*
X0169400Y0051179D02*
X0174600Y0051179D01*
X0173602Y0052177D02*
X0170398Y0052177D01*
X0171397Y0053176D02*
X0172603Y0053176D01*
X0179400Y0051179D02*
X0194600Y0051179D01*
X0193602Y0052177D02*
X0189408Y0052177D01*
X0190407Y0053176D02*
X0192603Y0053176D01*
X0191605Y0054174D02*
X0191405Y0054174D01*
X0187484Y0054174D02*
X0186516Y0054174D01*
X0186516Y0053176D02*
X0187484Y0053176D01*
X0187484Y0052177D02*
X0186516Y0052177D01*
X0184592Y0052177D02*
X0180398Y0052177D01*
X0181397Y0053176D02*
X0183593Y0053176D01*
X0182595Y0054174D02*
X0182395Y0054174D01*
X0186516Y0055173D02*
X0187484Y0055173D01*
X0187484Y0057170D02*
X0186516Y0057170D01*
X0186516Y0058168D02*
X0187484Y0058168D01*
X0187484Y0059167D02*
X0186516Y0059167D01*
X0186516Y0060165D02*
X0187484Y0060165D01*
X0187484Y0061164D02*
X0186516Y0061164D01*
X0184818Y0061164D02*
X0180172Y0061164D01*
X0181170Y0060165D02*
X0183820Y0060165D01*
X0182821Y0059167D02*
X0182169Y0059167D01*
X0189182Y0061164D02*
X0193828Y0061164D01*
X0192830Y0060165D02*
X0190180Y0060165D01*
X0191179Y0059167D02*
X0191831Y0059167D01*
X0200172Y0061164D02*
X0203828Y0061164D01*
X0202830Y0060165D02*
X0201170Y0060165D01*
X0210172Y0061164D02*
X0223828Y0061164D01*
X0222830Y0060165D02*
X0211170Y0060165D01*
X0212169Y0059167D02*
X0221831Y0059167D01*
X0221500Y0058168D02*
X0212500Y0058168D01*
X0212500Y0057170D02*
X0221500Y0057170D01*
X0221500Y0056171D02*
X0212500Y0056171D01*
X0212500Y0055173D02*
X0221500Y0055173D01*
X0221605Y0054174D02*
X0212395Y0054174D01*
X0211397Y0053176D02*
X0222603Y0053176D01*
X0223602Y0052177D02*
X0210398Y0052177D01*
X0209400Y0051179D02*
X0224600Y0051179D01*
X0229400Y0051179D02*
X0234600Y0051179D01*
X0233602Y0052177D02*
X0230398Y0052177D01*
X0231397Y0053176D02*
X0232603Y0053176D01*
X0232830Y0060165D02*
X0231170Y0060165D01*
X0230172Y0061164D02*
X0233828Y0061164D01*
X0240172Y0061164D02*
X0243828Y0061164D01*
X0242830Y0060165D02*
X0241170Y0060165D01*
X0250172Y0061164D02*
X0253828Y0061164D01*
X0252830Y0060165D02*
X0251170Y0060165D01*
X0260172Y0061164D02*
X0263828Y0061164D01*
X0262830Y0060165D02*
X0261170Y0060165D01*
X0270172Y0061164D02*
X0273828Y0061164D01*
X0272830Y0060165D02*
X0271170Y0060165D01*
X0280998Y0082132D02*
X0133755Y0082132D01*
X0134333Y0083131D02*
X0281996Y0083131D01*
X0283889Y0084129D02*
X0134663Y0084129D01*
X0128019Y0091119D02*
X0411824Y0091119D01*
X0411828Y0092118D02*
X0387654Y0092118D01*
X0388545Y0092487D02*
X0386687Y0091717D01*
X0384675Y0091717D01*
X0382817Y0092487D01*
X0381394Y0093909D01*
X0380624Y0095768D01*
X0380624Y0097779D01*
X0381394Y0099638D01*
X0382817Y0101060D01*
X0384675Y0101830D01*
X0386687Y0101830D01*
X0388545Y0101060D01*
X0389968Y0099638D01*
X0390738Y0097779D01*
X0390738Y0095768D01*
X0389968Y0093909D01*
X0388545Y0092487D01*
X0389175Y0093116D02*
X0411831Y0093116D01*
X0411835Y0094115D02*
X0390053Y0094115D01*
X0390467Y0095113D02*
X0411838Y0095113D01*
X0411842Y0096112D02*
X0390738Y0096112D01*
X0390738Y0097110D02*
X0411845Y0097110D01*
X0411849Y0098109D02*
X0390601Y0098109D01*
X0390188Y0099107D02*
X0411852Y0099107D01*
X0411856Y0100106D02*
X0389500Y0100106D01*
X0388440Y0101104D02*
X0411859Y0101104D01*
X0411863Y0102103D02*
X0368776Y0102103D01*
X0368797Y0102111D02*
X0370344Y0103658D01*
X0371181Y0105680D01*
X0371181Y0107868D01*
X0370344Y0109889D01*
X0368959Y0111274D01*
X0369892Y0111274D01*
X0371181Y0112562D01*
X0371181Y0120985D01*
X0369892Y0122274D01*
X0368959Y0122274D01*
X0370344Y0123658D01*
X0371181Y0125680D01*
X0371181Y0127868D01*
X0370344Y0129889D01*
X0368797Y0131436D01*
X0366775Y0132274D01*
X0364587Y0132274D01*
X0362566Y0131436D01*
X0361018Y0129889D01*
X0360181Y0127868D01*
X0360181Y0125680D01*
X0361018Y0123658D01*
X0362403Y0122274D01*
X0361470Y0122274D01*
X0360181Y0120985D01*
X0360181Y0112562D01*
X0361470Y0111274D01*
X0362403Y0111274D01*
X0361018Y0109889D01*
X0360181Y0107868D01*
X0360181Y0105680D01*
X0361018Y0103658D01*
X0362566Y0102111D01*
X0364587Y0101274D01*
X0366775Y0101274D01*
X0368797Y0102111D01*
X0369787Y0103101D02*
X0411866Y0103101D01*
X0411870Y0104100D02*
X0370527Y0104100D01*
X0370940Y0105098D02*
X0411873Y0105098D01*
X0411877Y0106097D02*
X0371181Y0106097D01*
X0371181Y0107095D02*
X0411880Y0107095D01*
X0411884Y0108094D02*
X0371087Y0108094D01*
X0370674Y0109092D02*
X0411887Y0109092D01*
X0411891Y0110091D02*
X0370142Y0110091D01*
X0369144Y0111089D02*
X0411894Y0111089D01*
X0411898Y0112088D02*
X0370706Y0112088D01*
X0371181Y0113086D02*
X0411901Y0113086D01*
X0411905Y0114085D02*
X0371181Y0114085D01*
X0371181Y0115083D02*
X0411908Y0115083D01*
X0411912Y0116082D02*
X0371181Y0116082D01*
X0371181Y0117080D02*
X0411915Y0117080D01*
X0411919Y0118079D02*
X0371181Y0118079D01*
X0371181Y0119077D02*
X0411922Y0119077D01*
X0411926Y0120076D02*
X0371181Y0120076D01*
X0371092Y0121074D02*
X0411929Y0121074D01*
X0411933Y0122073D02*
X0370093Y0122073D01*
X0369757Y0123071D02*
X0411936Y0123071D01*
X0411940Y0124070D02*
X0370514Y0124070D01*
X0370928Y0125068D02*
X0411943Y0125068D01*
X0411947Y0126067D02*
X0371181Y0126067D01*
X0371181Y0127065D02*
X0411950Y0127065D01*
X0411954Y0128064D02*
X0371100Y0128064D01*
X0370686Y0129062D02*
X0411957Y0129062D01*
X0411961Y0130061D02*
X0370172Y0130061D01*
X0369173Y0131059D02*
X0411964Y0131059D01*
X0411968Y0132058D02*
X0387510Y0132058D01*
X0386687Y0131717D02*
X0388545Y0132487D01*
X0389968Y0133909D01*
X0390738Y0135768D01*
X0390738Y0137779D01*
X0389968Y0139638D01*
X0388545Y0141060D01*
X0386687Y0141830D01*
X0384675Y0141830D01*
X0382817Y0141060D01*
X0381394Y0139638D01*
X0380624Y0137779D01*
X0380624Y0135768D01*
X0381394Y0133909D01*
X0382817Y0132487D01*
X0384675Y0131717D01*
X0386687Y0131717D01*
X0389115Y0133056D02*
X0411971Y0133056D01*
X0411975Y0134055D02*
X0390028Y0134055D01*
X0390442Y0135053D02*
X0411978Y0135053D01*
X0411982Y0136052D02*
X0390738Y0136052D01*
X0390738Y0137051D02*
X0411985Y0137051D01*
X0411989Y0138049D02*
X0390626Y0138049D01*
X0390213Y0139048D02*
X0411992Y0139048D01*
X0411996Y0140046D02*
X0389560Y0140046D01*
X0388561Y0141045D02*
X0411999Y0141045D01*
X0412003Y0142043D02*
X0098355Y0142043D01*
X0097357Y0143042D02*
X0412006Y0143042D01*
X0412010Y0144040D02*
X0096358Y0144040D01*
X0094979Y0145039D02*
X0412013Y0145039D01*
X0382801Y0141045D02*
X0099354Y0141045D01*
X0100352Y0140046D02*
X0381802Y0140046D01*
X0381150Y0139048D02*
X0101351Y0139048D01*
X0102349Y0138049D02*
X0380736Y0138049D01*
X0380624Y0137051D02*
X0103348Y0137051D01*
X0104346Y0136052D02*
X0380624Y0136052D01*
X0380920Y0135053D02*
X0105345Y0135053D01*
X0106343Y0134055D02*
X0381334Y0134055D01*
X0382247Y0133056D02*
X0107342Y0133056D01*
X0108340Y0132058D02*
X0305965Y0132058D01*
X0305339Y0131798D02*
X0304357Y0130817D01*
X0303826Y0129535D01*
X0303826Y0128147D01*
X0304357Y0126864D01*
X0305339Y0125883D01*
X0306621Y0125352D01*
X0306919Y0125352D01*
X0314070Y0117890D01*
X0314081Y0117862D01*
X0314440Y0117503D01*
X0314792Y0117136D01*
X0314820Y0117124D01*
X0318384Y0113559D01*
X0319376Y0113148D01*
X0326341Y0113148D01*
X0326598Y0112891D01*
X0327881Y0112359D01*
X0329269Y0112359D01*
X0330551Y0112891D01*
X0331533Y0113872D01*
X0332064Y0115154D01*
X0332064Y0116542D01*
X0331533Y0117825D01*
X0330551Y0118806D01*
X0329269Y0119337D01*
X0327881Y0119337D01*
X0326598Y0118806D01*
X0326341Y0118548D01*
X0321032Y0118548D01*
X0318300Y0121280D01*
X0310804Y0129102D01*
X0310804Y0129535D01*
X0310273Y0130817D01*
X0309291Y0131798D01*
X0308009Y0132330D01*
X0306621Y0132330D01*
X0305339Y0131798D01*
X0304600Y0131059D02*
X0109339Y0131059D01*
X0110337Y0130061D02*
X0304044Y0130061D01*
X0303826Y0129062D02*
X0111336Y0129062D01*
X0112334Y0128064D02*
X0303860Y0128064D01*
X0304274Y0127065D02*
X0113333Y0127065D01*
X0114331Y0126067D02*
X0305154Y0126067D01*
X0307190Y0125068D02*
X0115330Y0125068D01*
X0116328Y0124070D02*
X0308147Y0124070D01*
X0309104Y0123071D02*
X0117327Y0123071D01*
X0118325Y0122073D02*
X0310061Y0122073D01*
X0311018Y0121074D02*
X0119324Y0121074D01*
X0119958Y0120076D02*
X0311975Y0120076D01*
X0312932Y0119077D02*
X0120157Y0119077D01*
X0120157Y0118079D02*
X0313889Y0118079D01*
X0314863Y0117080D02*
X0120157Y0117080D01*
X0120157Y0116082D02*
X0315862Y0116082D01*
X0316860Y0115083D02*
X0120157Y0115083D01*
X0120157Y0114085D02*
X0317859Y0114085D01*
X0318724Y0111720D02*
X0317743Y0110738D01*
X0317212Y0109456D01*
X0317212Y0108068D01*
X0317743Y0106785D01*
X0318724Y0105804D01*
X0320007Y0105273D01*
X0321395Y0105273D01*
X0322677Y0105804D01*
X0322935Y0106062D01*
X0326341Y0106062D01*
X0326598Y0105804D01*
X0327881Y0105273D01*
X0329269Y0105273D01*
X0330551Y0105804D01*
X0331533Y0106785D01*
X0332064Y0108068D01*
X0332064Y0109456D01*
X0331533Y0110738D01*
X0330551Y0111720D01*
X0329269Y0112251D01*
X0327881Y0112251D01*
X0326598Y0111720D01*
X0326341Y0111462D01*
X0322935Y0111462D01*
X0322677Y0111720D01*
X0321395Y0112251D01*
X0320007Y0112251D01*
X0318724Y0111720D01*
X0318094Y0111089D02*
X0120157Y0111089D01*
X0120157Y0110091D02*
X0317475Y0110091D01*
X0317212Y0109092D02*
X0120157Y0109092D01*
X0120157Y0108094D02*
X0317212Y0108094D01*
X0317615Y0107095D02*
X0120157Y0107095D01*
X0120157Y0106097D02*
X0318432Y0106097D01*
X0320701Y0108762D02*
X0328575Y0108762D01*
X0331801Y0110091D02*
X0347893Y0110091D01*
X0347731Y0109928D02*
X0349278Y0111476D01*
X0350093Y0111813D01*
X0349278Y0112150D01*
X0347731Y0113697D01*
X0346894Y0115719D01*
X0346894Y0117907D01*
X0347731Y0119928D01*
X0349278Y0121476D01*
X0351300Y0122313D01*
X0353488Y0122313D01*
X0355509Y0121476D01*
X0357056Y0119928D01*
X0357894Y0117907D01*
X0357894Y0115719D01*
X0357056Y0113697D01*
X0355509Y0112150D01*
X0354695Y0111813D01*
X0355509Y0111476D01*
X0357056Y0109928D01*
X0357894Y0107907D01*
X0357894Y0105719D01*
X0357056Y0103697D01*
X0355509Y0102150D01*
X0353488Y0101313D01*
X0351300Y0101313D01*
X0349278Y0102150D01*
X0347731Y0103697D01*
X0346894Y0105719D01*
X0346894Y0107907D01*
X0347731Y0109928D01*
X0347385Y0109092D02*
X0332064Y0109092D01*
X0332064Y0108094D02*
X0346971Y0108094D01*
X0346894Y0107095D02*
X0331661Y0107095D01*
X0330844Y0106097D02*
X0346894Y0106097D01*
X0347151Y0105098D02*
X0120157Y0105098D01*
X0120157Y0104100D02*
X0347564Y0104100D01*
X0348327Y0103101D02*
X0120157Y0103101D01*
X0120157Y0102103D02*
X0349393Y0102103D01*
X0355394Y0102103D02*
X0362586Y0102103D01*
X0361575Y0103101D02*
X0356460Y0103101D01*
X0357223Y0104100D02*
X0360836Y0104100D01*
X0360422Y0105098D02*
X0357637Y0105098D01*
X0357894Y0106097D02*
X0360181Y0106097D01*
X0360181Y0107095D02*
X0357894Y0107095D01*
X0357816Y0108094D02*
X0360275Y0108094D01*
X0360688Y0109092D02*
X0357403Y0109092D01*
X0356894Y0110091D02*
X0361220Y0110091D01*
X0362219Y0111089D02*
X0355896Y0111089D01*
X0355358Y0112088D02*
X0360656Y0112088D01*
X0360181Y0113086D02*
X0356445Y0113086D01*
X0357217Y0114085D02*
X0360181Y0114085D01*
X0360181Y0115083D02*
X0357630Y0115083D01*
X0357894Y0116082D02*
X0360181Y0116082D01*
X0360181Y0117080D02*
X0357894Y0117080D01*
X0357823Y0118079D02*
X0360181Y0118079D01*
X0360181Y0119077D02*
X0357409Y0119077D01*
X0356909Y0120076D02*
X0360181Y0120076D01*
X0360271Y0121074D02*
X0355911Y0121074D01*
X0354067Y0122073D02*
X0361269Y0122073D01*
X0361605Y0123071D02*
X0316583Y0123071D01*
X0315627Y0124070D02*
X0360848Y0124070D01*
X0360434Y0125068D02*
X0314670Y0125068D01*
X0313713Y0126067D02*
X0360181Y0126067D01*
X0360181Y0127065D02*
X0312756Y0127065D01*
X0311799Y0128064D02*
X0360262Y0128064D01*
X0360676Y0129062D02*
X0310842Y0129062D01*
X0310586Y0130061D02*
X0361190Y0130061D01*
X0362189Y0131059D02*
X0310030Y0131059D01*
X0308665Y0132058D02*
X0364066Y0132058D01*
X0367296Y0132058D02*
X0383852Y0132058D01*
X0350720Y0122073D02*
X0317540Y0122073D01*
X0318506Y0121074D02*
X0348877Y0121074D01*
X0347878Y0120076D02*
X0319504Y0120076D01*
X0320503Y0119077D02*
X0327253Y0119077D01*
X0329897Y0119077D02*
X0347378Y0119077D01*
X0346965Y0118079D02*
X0331279Y0118079D01*
X0331841Y0117080D02*
X0346894Y0117080D01*
X0346894Y0116082D02*
X0332064Y0116082D01*
X0332034Y0115083D02*
X0347157Y0115083D01*
X0347571Y0114085D02*
X0331621Y0114085D01*
X0330747Y0113086D02*
X0348342Y0113086D01*
X0349429Y0112088D02*
X0329662Y0112088D01*
X0331182Y0111089D02*
X0348892Y0111089D01*
X0328575Y0115848D02*
X0319913Y0115848D01*
X0316370Y0119392D01*
X0307315Y0128841D01*
X0319613Y0112088D02*
X0120157Y0112088D01*
X0120157Y0113086D02*
X0326403Y0113086D01*
X0327487Y0112088D02*
X0321788Y0112088D01*
X0300024Y0078138D02*
X0411779Y0078138D01*
X0411775Y0077140D02*
X0301023Y0077140D01*
X0302022Y0076141D02*
X0411772Y0076141D01*
X0411768Y0075143D02*
X0303020Y0075143D01*
X0304019Y0074144D02*
X0411765Y0074144D01*
X0411761Y0073146D02*
X0305017Y0073146D01*
X0306016Y0072147D02*
X0411758Y0072147D01*
X0411754Y0071149D02*
X0386269Y0071149D01*
X0386096Y0071220D02*
X0384085Y0071220D01*
X0382226Y0070450D01*
X0380804Y0069028D01*
X0380034Y0067169D01*
X0380034Y0065158D01*
X0313005Y0065158D01*
X0312007Y0066156D02*
X0380034Y0066156D01*
X0380034Y0065158D02*
X0380804Y0063299D01*
X0382226Y0061877D01*
X0384085Y0061107D01*
X0386096Y0061107D01*
X0387955Y0061877D01*
X0389377Y0063299D01*
X0390147Y0065158D01*
X0411733Y0065158D01*
X0411737Y0066156D02*
X0390147Y0066156D01*
X0390147Y0065158D02*
X0390147Y0067169D01*
X0389377Y0069028D01*
X0387955Y0070450D01*
X0386096Y0071220D01*
X0383913Y0071149D02*
X0307014Y0071149D01*
X0308013Y0070150D02*
X0381926Y0070150D01*
X0380928Y0069152D02*
X0309011Y0069152D01*
X0310010Y0068153D02*
X0380441Y0068153D01*
X0380034Y0067155D02*
X0311008Y0067155D01*
X0314004Y0064159D02*
X0380447Y0064159D01*
X0380942Y0063161D02*
X0315002Y0063161D01*
X0316001Y0062162D02*
X0381941Y0062162D01*
X0383947Y0061164D02*
X0367391Y0061164D01*
X0368867Y0060165D02*
X0411716Y0060165D01*
X0411712Y0059167D02*
X0369800Y0059167D01*
X0370213Y0058168D02*
X0411709Y0058168D01*
X0411705Y0057170D02*
X0370591Y0057170D01*
X0370591Y0056171D02*
X0411702Y0056171D01*
X0411698Y0055173D02*
X0370591Y0055173D01*
X0370220Y0054174D02*
X0411695Y0054174D01*
X0411691Y0053176D02*
X0369806Y0053176D01*
X0368882Y0052177D02*
X0411687Y0052177D01*
X0411684Y0051179D02*
X0369787Y0051179D01*
X0370591Y0050180D02*
X0411680Y0050180D01*
X0411677Y0049182D02*
X0370591Y0049182D01*
X0370591Y0048183D02*
X0411673Y0048183D01*
X0411670Y0047184D02*
X0370591Y0047184D01*
X0370591Y0046186D02*
X0411666Y0046186D01*
X0411663Y0045187D02*
X0370591Y0045187D01*
X0370591Y0044189D02*
X0411659Y0044189D01*
X0411656Y0043190D02*
X0370591Y0043190D01*
X0370591Y0042192D02*
X0411652Y0042192D01*
X0411649Y0041193D02*
X0369832Y0041193D01*
X0368837Y0040195D02*
X0411588Y0040195D01*
X0410673Y0039196D02*
X0369787Y0039196D01*
X0370201Y0038198D02*
X0409757Y0038198D01*
X0408842Y0037199D02*
X0370591Y0037199D01*
X0370591Y0036201D02*
X0407927Y0036201D01*
X0407011Y0035202D02*
X0370591Y0035202D01*
X0370232Y0034204D02*
X0406096Y0034204D01*
X0405181Y0033205D02*
X0369818Y0033205D01*
X0368912Y0032207D02*
X0404266Y0032207D01*
X0403350Y0031208D02*
X0386125Y0031208D01*
X0384056Y0031208D02*
X0367500Y0031208D01*
X0362681Y0031208D02*
X0354946Y0031208D01*
X0356274Y0032207D02*
X0361269Y0032207D01*
X0360363Y0033205D02*
X0357146Y0033205D01*
X0357560Y0034204D02*
X0359949Y0034204D01*
X0359591Y0035202D02*
X0357894Y0035202D01*
X0357894Y0036201D02*
X0359591Y0036201D01*
X0359591Y0037199D02*
X0357893Y0037199D01*
X0357480Y0038198D02*
X0359980Y0038198D01*
X0360394Y0039196D02*
X0357066Y0039196D01*
X0356081Y0040195D02*
X0361344Y0040195D01*
X0360349Y0041193D02*
X0354910Y0041193D01*
X0356259Y0042192D02*
X0359591Y0042192D01*
X0359591Y0043190D02*
X0357140Y0043190D01*
X0357553Y0044189D02*
X0359591Y0044189D01*
X0359591Y0045187D02*
X0357894Y0045187D01*
X0357894Y0046186D02*
X0359591Y0046186D01*
X0359591Y0047184D02*
X0357894Y0047184D01*
X0357486Y0048183D02*
X0359591Y0048183D01*
X0359591Y0049182D02*
X0357072Y0049182D01*
X0356096Y0050180D02*
X0359591Y0050180D01*
X0360394Y0051179D02*
X0354516Y0051179D01*
X0350272Y0051179D02*
X0326984Y0051179D01*
X0325986Y0052177D02*
X0361299Y0052177D01*
X0360375Y0053176D02*
X0324987Y0053176D01*
X0323989Y0054174D02*
X0359961Y0054174D01*
X0359591Y0055173D02*
X0322990Y0055173D01*
X0321992Y0056171D02*
X0359591Y0056171D01*
X0359591Y0057170D02*
X0320993Y0057170D01*
X0319995Y0058168D02*
X0359968Y0058168D01*
X0360381Y0059167D02*
X0318996Y0059167D01*
X0317998Y0060165D02*
X0361314Y0060165D01*
X0362790Y0061164D02*
X0316999Y0061164D01*
X0307365Y0063161D02*
X0086974Y0063161D01*
X0085040Y0064159D02*
X0306367Y0064159D01*
X0305368Y0065158D02*
X0078135Y0065158D01*
X0078133Y0066156D02*
X0304370Y0066156D01*
X0303371Y0067155D02*
X0078131Y0067155D01*
X0078129Y0068153D02*
X0302373Y0068153D01*
X0320346Y0050180D02*
X0087201Y0050180D01*
X0085586Y0049182D02*
X0321345Y0049182D01*
X0322343Y0048183D02*
X0078164Y0048183D01*
X0078166Y0047184D02*
X0323342Y0047184D01*
X0324340Y0046186D02*
X0078168Y0046186D01*
X0078170Y0045187D02*
X0325086Y0045187D01*
X0325453Y0044189D02*
X0078171Y0044189D01*
X0078173Y0043190D02*
X0326220Y0043190D01*
X0326910Y0040195D02*
X0321579Y0040195D01*
X0318248Y0040195D02*
X0078178Y0040195D01*
X0078177Y0041193D02*
X0349877Y0041193D01*
X0348528Y0042192D02*
X0078175Y0042192D01*
X0078180Y0039196D02*
X0317067Y0039196D01*
X0316588Y0038198D02*
X0078666Y0038198D01*
X0079665Y0037199D02*
X0316424Y0037199D01*
X0316513Y0036201D02*
X0080663Y0036201D01*
X0081662Y0035202D02*
X0316926Y0035202D01*
X0317884Y0034204D02*
X0082660Y0034204D01*
X0078414Y0049182D02*
X0078163Y0049182D01*
X0078136Y0064159D02*
X0078960Y0064159D01*
X0078114Y0077140D02*
X0108629Y0077140D01*
X0107348Y0078138D02*
X0078112Y0078138D01*
X0078110Y0079137D02*
X0106350Y0079137D01*
X0105351Y0080135D02*
X0078109Y0080135D01*
X0078107Y0081134D02*
X0104353Y0081134D01*
X0103354Y0082132D02*
X0078105Y0082132D01*
X0078103Y0083131D02*
X0102356Y0083131D01*
X0101357Y0084129D02*
X0078102Y0084129D01*
X0078100Y0085128D02*
X0100359Y0085128D01*
X0099360Y0086126D02*
X0078098Y0086126D01*
X0078096Y0087125D02*
X0098362Y0087125D01*
X0096753Y0088123D02*
X0078095Y0088123D01*
X0078093Y0089122D02*
X0095249Y0089122D01*
X0094636Y0090120D02*
X0078091Y0090120D01*
X0078089Y0091119D02*
X0094377Y0091119D01*
X0094377Y0092118D02*
X0078088Y0092118D01*
X0078086Y0093116D02*
X0094784Y0093116D01*
X0095608Y0094115D02*
X0078084Y0094115D01*
X0078082Y0095113D02*
X0097460Y0095113D01*
X0096462Y0096112D02*
X0078081Y0096112D01*
X0078079Y0097110D02*
X0095463Y0097110D01*
X0094465Y0098109D02*
X0078077Y0098109D01*
X0078075Y0099107D02*
X0093466Y0099107D01*
X0092468Y0100106D02*
X0078074Y0100106D01*
X0078072Y0101104D02*
X0091469Y0101104D01*
X0095112Y0105098D02*
X0114157Y0105098D01*
X0114157Y0104100D02*
X0096110Y0104100D01*
X0097109Y0103101D02*
X0114157Y0103101D01*
X0114157Y0102103D02*
X0098107Y0102103D01*
X0099106Y0101104D02*
X0114157Y0101104D01*
X0114157Y0100106D02*
X0107519Y0100106D01*
X0108393Y0099107D02*
X0114157Y0099107D01*
X0114157Y0098109D02*
X0108806Y0098109D01*
X0108835Y0097110D02*
X0114170Y0097110D01*
X0114584Y0096112D02*
X0108612Y0096112D01*
X0108049Y0095113D02*
X0115540Y0095113D01*
X0116538Y0094115D02*
X0106666Y0094115D01*
X0103173Y0100106D02*
X0100104Y0100106D01*
X0094113Y0106097D02*
X0114157Y0106097D01*
X0114157Y0107095D02*
X0093115Y0107095D01*
X0092116Y0108094D02*
X0114157Y0108094D01*
X0120157Y0101104D02*
X0382922Y0101104D01*
X0381862Y0100106D02*
X0120157Y0100106D01*
X0120157Y0099107D02*
X0381174Y0099107D01*
X0380761Y0098109D02*
X0121030Y0098109D01*
X0122028Y0097110D02*
X0380624Y0097110D01*
X0380624Y0096112D02*
X0123027Y0096112D01*
X0124025Y0095113D02*
X0380896Y0095113D01*
X0381309Y0094115D02*
X0125024Y0094115D01*
X0126022Y0093116D02*
X0382187Y0093116D01*
X0383708Y0092118D02*
X0127021Y0092118D01*
X0138417Y0096951D02*
X0195504Y0096951D01*
X0173828Y0061164D02*
X0170172Y0061164D01*
X0171170Y0060165D02*
X0172830Y0060165D01*
X0163828Y0061164D02*
X0160172Y0061164D01*
X0161170Y0060165D02*
X0162830Y0060165D01*
X0153828Y0061164D02*
X0150172Y0061164D01*
X0151170Y0060165D02*
X0152830Y0060165D01*
X0143828Y0061164D02*
X0140172Y0061164D01*
X0141170Y0060165D02*
X0142830Y0060165D01*
X0114402Y0079628D02*
X0109677Y0079628D01*
X0097866Y0091439D01*
X0092865Y0139048D02*
X0087127Y0139048D01*
X0199400Y0051179D02*
X0204600Y0051179D01*
X0203602Y0052177D02*
X0200398Y0052177D01*
X0201397Y0053176D02*
X0202603Y0053176D01*
X0319913Y0037108D02*
X0328575Y0037108D01*
X0326545Y0034204D02*
X0321943Y0034204D01*
X0329455Y0049182D02*
X0347715Y0049182D01*
X0348691Y0050180D02*
X0327983Y0050180D01*
X0386234Y0061164D02*
X0411719Y0061164D01*
X0411723Y0062162D02*
X0388241Y0062162D01*
X0389239Y0063161D02*
X0411726Y0063161D01*
X0411730Y0064159D02*
X0389734Y0064159D01*
X0390147Y0067155D02*
X0411740Y0067155D01*
X0411744Y0068153D02*
X0389740Y0068153D01*
X0389253Y0069152D02*
X0411747Y0069152D01*
X0411751Y0070150D02*
X0388255Y0070150D01*
D17*
X0130543Y0084746D03*
X0084480Y0122541D03*
X0084480Y0142226D03*
D18*
X0093929Y0142226D01*
X0117157Y0118998D01*
X0117157Y0097738D01*
X0130150Y0084746D01*
X0130543Y0084746D01*
M02*
