G75*
%MOIN*%
%OFA0B0*%
%FSLAX25Y25*%
%IPPOS*%
%LPD*%
%AMOC8*
5,1,8,0,0,1.08239X$1,22.5*
%
%ADD10C,0.13200*%
%ADD11R,0.13200X0.13200*%
%ADD12C,0.15827*%
%ADD13C,0.16535*%
%ADD14C,0.27685*%
%ADD15OC8,0.13200*%
%ADD16C,0.28346*%
%ADD17C,0.05156*%
%ADD18C,0.07677*%
D10*
X0091173Y0172266D03*
X0091173Y0182266D03*
X0172669Y0277778D03*
X0172669Y0287778D03*
X0190386Y0287778D03*
X0190386Y0277778D03*
X0208102Y0277778D03*
X0208102Y0287778D03*
X0225819Y0287778D03*
X0225819Y0277778D03*
X0352079Y0261301D03*
X0352079Y0251301D03*
X0365287Y0251341D03*
X0365287Y0271341D03*
X0365681Y0199352D03*
X0352079Y0189411D03*
X0352079Y0179411D03*
X0365681Y0179352D03*
X0365681Y0126774D03*
X0352394Y0116813D03*
X0352394Y0106813D03*
X0365681Y0106774D03*
X0365091Y0056163D03*
X0352394Y0046104D03*
X0352394Y0036104D03*
X0365091Y0036163D03*
D11*
X0365091Y0046163D03*
X0365681Y0116774D03*
X0365681Y0189352D03*
X0365287Y0261341D03*
D12*
X0385287Y0281341D03*
X0385287Y0241341D03*
X0385681Y0209352D03*
X0385681Y0169352D03*
X0385681Y0136774D03*
X0385681Y0096774D03*
X0385091Y0066163D03*
X0385091Y0026163D03*
D13*
X0067059Y0062699D03*
X0067059Y0082384D03*
X0067059Y0102384D03*
X0067059Y0122384D03*
X0067059Y0142384D03*
X0067059Y0162384D03*
X0067059Y0182384D03*
X0067059Y0202384D03*
X0067059Y0222384D03*
X0067059Y0242069D03*
D14*
X0057217Y0042384D03*
X0057217Y0262384D03*
D15*
X0101000Y0246557D03*
X0111000Y0246557D03*
X0121000Y0246557D03*
X0131000Y0246557D03*
X0141000Y0246557D03*
X0151000Y0246557D03*
X0161000Y0246557D03*
X0171000Y0246557D03*
X0181000Y0246557D03*
X0191000Y0246557D03*
X0207000Y0246557D03*
X0217000Y0246557D03*
X0227000Y0246557D03*
X0237000Y0246557D03*
X0247000Y0246557D03*
X0257000Y0246557D03*
X0267000Y0246557D03*
X0277000Y0246557D03*
X0277000Y0056557D03*
X0267000Y0056557D03*
X0257000Y0056557D03*
X0247000Y0056557D03*
X0237000Y0056557D03*
X0227000Y0056557D03*
X0207000Y0056557D03*
X0197000Y0056557D03*
X0187000Y0056557D03*
X0177000Y0056557D03*
X0167000Y0056557D03*
X0157000Y0056557D03*
X0147000Y0056557D03*
X0137000Y0056557D03*
D16*
X0082000Y0056557D03*
X0287000Y0076557D03*
X0287000Y0186557D03*
X0087000Y0246557D03*
D17*
X0077394Y0259549D03*
X0079362Y0266242D03*
X0130937Y0233565D03*
X0141173Y0236321D03*
X0141173Y0229628D03*
X0152591Y0231203D03*
X0167945Y0219392D03*
X0185661Y0231596D03*
X0181724Y0239864D03*
X0177787Y0236321D03*
X0201409Y0236321D03*
X0206921Y0227659D03*
X0206134Y0223329D03*
X0223457Y0223302D03*
X0231331Y0220573D03*
X0237033Y0218184D03*
X0233299Y0215848D03*
X0236449Y0202069D03*
X0233693Y0194195D03*
X0238811Y0187502D03*
X0257709Y0174904D03*
X0215189Y0197344D03*
X0204559Y0206400D03*
X0199047Y0251281D03*
X0227000Y0254037D03*
X0236843Y0254037D03*
X0247079Y0254037D03*
X0272276Y0223329D03*
X0277787Y0220573D03*
X0293929Y0248919D03*
X0301803Y0252069D03*
X0328969Y0252069D03*
X0328969Y0260337D03*
X0308890Y0192620D03*
X0319520Y0180415D03*
X0328969Y0180415D03*
X0328969Y0188289D03*
X0320701Y0161911D03*
X0307315Y0128841D03*
X0328575Y0115848D03*
X0328575Y0108762D03*
X0320701Y0108762D03*
X0293929Y0086715D03*
X0328575Y0045770D03*
X0328575Y0037108D03*
X0319913Y0037108D03*
X0215583Y0076085D03*
X0190780Y0076478D03*
X0138417Y0096951D03*
X0114402Y0079628D03*
X0097866Y0091439D03*
X0105346Y0097344D03*
X0086449Y0106006D03*
X0136449Y0197738D03*
X0110071Y0213880D03*
X0077000Y0225691D03*
X0215189Y0118998D03*
D18*
X0130543Y0084746D03*
X0084480Y0122541D03*
X0084480Y0142226D03*
M02*
