G75*
%MOIN*%
%OFA0B0*%
%FSLAX25Y25*%
%IPPOS*%
%LPD*%
%AMOC8*
5,1,8,0,0,1.08239X$1,22.5*
%
%ADD10C,0.01024*%
%ADD11C,0.00236*%
%ADD12C,0.02362*%
%ADD13C,0.06600*%
%ADD14C,0.00945*%
%ADD15C,0.00630*%
%ADD16C,0.00787*%
%ADD17R,0.06600X0.06600*%
%ADD18C,0.08268*%
%ADD19C,0.13843*%
%ADD20OC8,0.06600*%
%ADD21C,0.01000*%
%ADD22C,0.02578*%
%ADD23C,0.01600*%
%ADD24C,0.03839*%
D10*
X0081429Y0080770D02*
X0085523Y0080770D01*
X0081429Y0080770D02*
X0081429Y0085652D01*
X0085523Y0085652D01*
X0085523Y0080770D01*
X0085523Y0081793D02*
X0081429Y0081793D01*
X0081429Y0082816D02*
X0085523Y0082816D01*
X0085523Y0083839D02*
X0081429Y0083839D01*
X0081429Y0084862D02*
X0085523Y0084862D01*
X0088910Y0080770D02*
X0093004Y0080770D01*
X0088910Y0080770D02*
X0088910Y0085652D01*
X0093004Y0085652D01*
X0093004Y0080770D01*
X0093004Y0081793D02*
X0088910Y0081793D01*
X0088910Y0082816D02*
X0093004Y0082816D01*
X0093004Y0083839D02*
X0088910Y0083839D01*
X0088910Y0084862D02*
X0093004Y0084862D01*
X0093004Y0089155D02*
X0088910Y0089155D01*
X0088910Y0094037D01*
X0093004Y0094037D01*
X0093004Y0089155D01*
X0093004Y0090178D02*
X0088910Y0090178D01*
X0088910Y0091201D02*
X0093004Y0091201D01*
X0093004Y0092224D02*
X0088910Y0092224D01*
X0088910Y0093247D02*
X0093004Y0093247D01*
X0093043Y0102443D02*
X0088949Y0102443D01*
X0093043Y0102443D02*
X0093043Y0097561D01*
X0088949Y0097561D01*
X0088949Y0102443D01*
X0088949Y0098584D02*
X0093043Y0098584D01*
X0093043Y0099607D02*
X0088949Y0099607D01*
X0088949Y0100630D02*
X0093043Y0100630D01*
X0093043Y0101653D02*
X0088949Y0101653D01*
X0085563Y0102443D02*
X0081469Y0102443D01*
X0085563Y0102443D02*
X0085563Y0097561D01*
X0081469Y0097561D01*
X0081469Y0102443D01*
X0081469Y0098584D02*
X0085563Y0098584D01*
X0085563Y0099607D02*
X0081469Y0099607D01*
X0081469Y0100630D02*
X0085563Y0100630D01*
X0085563Y0101653D02*
X0081469Y0101653D01*
X0081429Y0089155D02*
X0085523Y0089155D01*
X0081429Y0089155D02*
X0081429Y0094037D01*
X0085523Y0094037D01*
X0085523Y0089155D01*
X0085523Y0090178D02*
X0081429Y0090178D01*
X0081429Y0091201D02*
X0085523Y0091201D01*
X0085523Y0092224D02*
X0081429Y0092224D01*
X0081429Y0093247D02*
X0085523Y0093247D01*
X0143457Y0096282D02*
X0143457Y0100376D01*
X0148339Y0100376D01*
X0148339Y0096282D01*
X0143457Y0096282D01*
X0143457Y0097305D02*
X0148339Y0097305D01*
X0148339Y0098328D02*
X0143457Y0098328D01*
X0143457Y0099351D02*
X0148339Y0099351D01*
X0148339Y0100374D02*
X0143457Y0100374D01*
X0143457Y0103762D02*
X0143457Y0107856D01*
X0148339Y0107856D01*
X0148339Y0103762D01*
X0143457Y0103762D01*
X0143457Y0104785D02*
X0148339Y0104785D01*
X0148339Y0105808D02*
X0143457Y0105808D01*
X0143457Y0106831D02*
X0148339Y0106831D01*
X0148339Y0107854D02*
X0143457Y0107854D01*
X0176547Y0084510D02*
X0180641Y0084510D01*
X0176547Y0084510D02*
X0176547Y0089392D01*
X0180641Y0089392D01*
X0180641Y0084510D01*
X0180641Y0085533D02*
X0176547Y0085533D01*
X0176547Y0086556D02*
X0180641Y0086556D01*
X0180641Y0087579D02*
X0176547Y0087579D01*
X0176547Y0088602D02*
X0180641Y0088602D01*
X0184028Y0084510D02*
X0188122Y0084510D01*
X0184028Y0084510D02*
X0184028Y0089392D01*
X0188122Y0089392D01*
X0188122Y0084510D01*
X0188122Y0085533D02*
X0184028Y0085533D01*
X0184028Y0086556D02*
X0188122Y0086556D01*
X0188122Y0087579D02*
X0184028Y0087579D01*
X0184028Y0088602D02*
X0188122Y0088602D01*
X0188141Y0074254D02*
X0184047Y0074254D01*
X0184047Y0079136D01*
X0188141Y0079136D01*
X0188141Y0074254D01*
X0188141Y0075277D02*
X0184047Y0075277D01*
X0184047Y0076300D02*
X0188141Y0076300D01*
X0188141Y0077323D02*
X0184047Y0077323D01*
X0184047Y0078346D02*
X0188141Y0078346D01*
X0180661Y0074254D02*
X0176567Y0074254D01*
X0176567Y0079136D01*
X0180661Y0079136D01*
X0180661Y0074254D01*
X0180661Y0075277D02*
X0176567Y0075277D01*
X0176567Y0076300D02*
X0180661Y0076300D01*
X0180661Y0077323D02*
X0176567Y0077323D01*
X0176567Y0078346D02*
X0180661Y0078346D01*
X0200740Y0074037D02*
X0204834Y0074037D01*
X0200740Y0074037D02*
X0200740Y0078919D01*
X0204834Y0078919D01*
X0204834Y0074037D01*
X0204834Y0075060D02*
X0200740Y0075060D01*
X0200740Y0076083D02*
X0204834Y0076083D01*
X0204834Y0077106D02*
X0200740Y0077106D01*
X0200740Y0078129D02*
X0204834Y0078129D01*
X0208221Y0074037D02*
X0212315Y0074037D01*
X0208221Y0074037D02*
X0208221Y0078919D01*
X0212315Y0078919D01*
X0212315Y0074037D01*
X0212315Y0075060D02*
X0208221Y0075060D01*
X0208221Y0076083D02*
X0212315Y0076083D01*
X0212315Y0077106D02*
X0208221Y0077106D01*
X0208221Y0078129D02*
X0212315Y0078129D01*
X0336528Y0098644D02*
X0336528Y0102738D01*
X0336528Y0098644D02*
X0331646Y0098644D01*
X0331646Y0102738D01*
X0336528Y0102738D01*
X0336528Y0099667D02*
X0331646Y0099667D01*
X0331646Y0100690D02*
X0336528Y0100690D01*
X0336528Y0101713D02*
X0331646Y0101713D01*
X0331646Y0102736D02*
X0336528Y0102736D01*
X0340150Y0102738D02*
X0340150Y0098644D01*
X0340150Y0102738D02*
X0345032Y0102738D01*
X0345032Y0098644D01*
X0340150Y0098644D01*
X0340150Y0099667D02*
X0345032Y0099667D01*
X0345032Y0100690D02*
X0340150Y0100690D01*
X0340150Y0101713D02*
X0345032Y0101713D01*
X0345032Y0102736D02*
X0340150Y0102736D01*
X0340150Y0106124D02*
X0340150Y0110218D01*
X0345032Y0110218D01*
X0345032Y0106124D01*
X0340150Y0106124D01*
X0340150Y0107147D02*
X0345032Y0107147D01*
X0345032Y0108170D02*
X0340150Y0108170D01*
X0340150Y0109193D02*
X0345032Y0109193D01*
X0345032Y0110216D02*
X0340150Y0110216D01*
X0344953Y0114077D02*
X0344953Y0118171D01*
X0344953Y0114077D02*
X0340071Y0114077D01*
X0340071Y0118171D01*
X0344953Y0118171D01*
X0344953Y0115100D02*
X0340071Y0115100D01*
X0340071Y0116123D02*
X0344953Y0116123D01*
X0344953Y0117146D02*
X0340071Y0117146D01*
X0340071Y0118169D02*
X0344953Y0118169D01*
X0344953Y0121557D02*
X0344953Y0125651D01*
X0344953Y0121557D02*
X0340071Y0121557D01*
X0340071Y0125651D01*
X0344953Y0125651D01*
X0344953Y0122580D02*
X0340071Y0122580D01*
X0340071Y0123603D02*
X0344953Y0123603D01*
X0344953Y0124626D02*
X0340071Y0124626D01*
X0340071Y0125649D02*
X0344953Y0125649D01*
X0336134Y0125573D02*
X0336134Y0121479D01*
X0331252Y0121479D01*
X0331252Y0125573D01*
X0336134Y0125573D01*
X0336134Y0122502D02*
X0331252Y0122502D01*
X0331252Y0123525D02*
X0336134Y0123525D01*
X0336134Y0124548D02*
X0331252Y0124548D01*
X0331252Y0125571D02*
X0336134Y0125571D01*
X0336134Y0118092D02*
X0336134Y0113998D01*
X0331252Y0113998D01*
X0331252Y0118092D01*
X0336134Y0118092D01*
X0336134Y0115021D02*
X0331252Y0115021D01*
X0331252Y0116044D02*
X0336134Y0116044D01*
X0336134Y0117067D02*
X0331252Y0117067D01*
X0331252Y0118090D02*
X0336134Y0118090D01*
X0336528Y0110218D02*
X0336528Y0106124D01*
X0331646Y0106124D01*
X0331646Y0110218D01*
X0336528Y0110218D01*
X0336528Y0107147D02*
X0331646Y0107147D01*
X0331646Y0108170D02*
X0336528Y0108170D01*
X0336528Y0109193D02*
X0331646Y0109193D01*
X0331646Y0110216D02*
X0336528Y0110216D01*
X0336528Y0055100D02*
X0336528Y0051006D01*
X0331646Y0051006D01*
X0331646Y0055100D01*
X0336528Y0055100D01*
X0336528Y0052029D02*
X0331646Y0052029D01*
X0331646Y0053052D02*
X0336528Y0053052D01*
X0336528Y0054075D02*
X0331646Y0054075D01*
X0331646Y0055098D02*
X0336528Y0055098D01*
X0344953Y0055100D02*
X0344953Y0051006D01*
X0340071Y0051006D01*
X0340071Y0055100D01*
X0344953Y0055100D01*
X0344953Y0052029D02*
X0340071Y0052029D01*
X0340071Y0053052D02*
X0344953Y0053052D01*
X0344953Y0054075D02*
X0340071Y0054075D01*
X0340071Y0055098D02*
X0344953Y0055098D01*
X0344953Y0047620D02*
X0344953Y0043526D01*
X0340071Y0043526D01*
X0340071Y0047620D01*
X0344953Y0047620D01*
X0344953Y0044549D02*
X0340071Y0044549D01*
X0340071Y0045572D02*
X0344953Y0045572D01*
X0344953Y0046595D02*
X0340071Y0046595D01*
X0340071Y0047618D02*
X0344953Y0047618D01*
X0340150Y0039293D02*
X0340150Y0035199D01*
X0340150Y0039293D02*
X0345032Y0039293D01*
X0345032Y0035199D01*
X0340150Y0035199D01*
X0340150Y0036222D02*
X0345032Y0036222D01*
X0345032Y0037245D02*
X0340150Y0037245D01*
X0340150Y0038268D02*
X0345032Y0038268D01*
X0345032Y0039291D02*
X0340150Y0039291D01*
X0336528Y0038958D02*
X0336528Y0034864D01*
X0331646Y0034864D01*
X0331646Y0038958D01*
X0336528Y0038958D01*
X0336528Y0035887D02*
X0331646Y0035887D01*
X0331646Y0036910D02*
X0336528Y0036910D01*
X0336528Y0037933D02*
X0331646Y0037933D01*
X0331646Y0038956D02*
X0336528Y0038956D01*
X0336528Y0043526D02*
X0336528Y0047620D01*
X0336528Y0043526D02*
X0331646Y0043526D01*
X0331646Y0047620D01*
X0336528Y0047620D01*
X0336528Y0044549D02*
X0331646Y0044549D01*
X0331646Y0045572D02*
X0336528Y0045572D01*
X0336528Y0046595D02*
X0331646Y0046595D01*
X0331646Y0047618D02*
X0336528Y0047618D01*
X0336528Y0031478D02*
X0336528Y0027384D01*
X0331646Y0027384D01*
X0331646Y0031478D01*
X0336528Y0031478D01*
X0336528Y0028407D02*
X0331646Y0028407D01*
X0331646Y0029430D02*
X0336528Y0029430D01*
X0336528Y0030453D02*
X0331646Y0030453D01*
X0331646Y0031476D02*
X0336528Y0031476D01*
X0340150Y0031813D02*
X0340150Y0027719D01*
X0340150Y0031813D02*
X0345032Y0031813D01*
X0345032Y0027719D01*
X0340150Y0027719D01*
X0340150Y0028742D02*
X0345032Y0028742D01*
X0345032Y0029765D02*
X0340150Y0029765D01*
X0340150Y0030788D02*
X0345032Y0030788D01*
X0345032Y0031811D02*
X0340150Y0031811D01*
X0340346Y0170711D02*
X0340346Y0174805D01*
X0345228Y0174805D01*
X0345228Y0170711D01*
X0340346Y0170711D01*
X0340346Y0171734D02*
X0345228Y0171734D01*
X0345228Y0172757D02*
X0340346Y0172757D01*
X0340346Y0173780D02*
X0345228Y0173780D01*
X0345228Y0174803D02*
X0340346Y0174803D01*
X0336921Y0174785D02*
X0336921Y0170691D01*
X0332039Y0170691D01*
X0332039Y0174785D01*
X0336921Y0174785D01*
X0336921Y0171714D02*
X0332039Y0171714D01*
X0332039Y0172737D02*
X0336921Y0172737D01*
X0336921Y0173760D02*
X0332039Y0173760D01*
X0332039Y0174783D02*
X0336921Y0174783D01*
X0336921Y0178172D02*
X0336921Y0182266D01*
X0336921Y0178172D02*
X0332039Y0178172D01*
X0332039Y0182266D01*
X0336921Y0182266D01*
X0336921Y0179195D02*
X0332039Y0179195D01*
X0332039Y0180218D02*
X0336921Y0180218D01*
X0336921Y0181241D02*
X0332039Y0181241D01*
X0332039Y0182264D02*
X0336921Y0182264D01*
X0340346Y0182285D02*
X0340346Y0178191D01*
X0340346Y0182285D02*
X0345228Y0182285D01*
X0345228Y0178191D01*
X0340346Y0178191D01*
X0340346Y0179214D02*
X0345228Y0179214D01*
X0345228Y0180237D02*
X0340346Y0180237D01*
X0340346Y0181260D02*
X0345228Y0181260D01*
X0345228Y0182283D02*
X0340346Y0182283D01*
X0344953Y0186754D02*
X0344953Y0190848D01*
X0344953Y0186754D02*
X0340071Y0186754D01*
X0340071Y0190848D01*
X0344953Y0190848D01*
X0344953Y0187777D02*
X0340071Y0187777D01*
X0340071Y0188800D02*
X0344953Y0188800D01*
X0344953Y0189823D02*
X0340071Y0189823D01*
X0340071Y0190846D02*
X0344953Y0190846D01*
X0344953Y0194234D02*
X0344953Y0198328D01*
X0344953Y0194234D02*
X0340071Y0194234D01*
X0340071Y0198328D01*
X0344953Y0198328D01*
X0344953Y0195257D02*
X0340071Y0195257D01*
X0340071Y0196280D02*
X0344953Y0196280D01*
X0344953Y0197303D02*
X0340071Y0197303D01*
X0340071Y0198326D02*
X0344953Y0198326D01*
X0336921Y0198014D02*
X0336921Y0193920D01*
X0332039Y0193920D01*
X0332039Y0198014D01*
X0336921Y0198014D01*
X0336921Y0194943D02*
X0332039Y0194943D01*
X0332039Y0195966D02*
X0336921Y0195966D01*
X0336921Y0196989D02*
X0332039Y0196989D01*
X0332039Y0198012D02*
X0336921Y0198012D01*
X0336921Y0190533D02*
X0336921Y0186439D01*
X0332039Y0186439D01*
X0332039Y0190533D01*
X0336921Y0190533D01*
X0336921Y0187462D02*
X0332039Y0187462D01*
X0332039Y0188485D02*
X0336921Y0188485D01*
X0336921Y0189508D02*
X0332039Y0189508D01*
X0332039Y0190531D02*
X0336921Y0190531D01*
X0336921Y0242345D02*
X0336921Y0246439D01*
X0336921Y0242345D02*
X0332039Y0242345D01*
X0332039Y0246439D01*
X0336921Y0246439D01*
X0336921Y0243368D02*
X0332039Y0243368D01*
X0332039Y0244391D02*
X0336921Y0244391D01*
X0336921Y0245414D02*
X0332039Y0245414D01*
X0332039Y0246437D02*
X0336921Y0246437D01*
X0340543Y0246655D02*
X0340543Y0242561D01*
X0340543Y0246655D02*
X0345425Y0246655D01*
X0345425Y0242561D01*
X0340543Y0242561D01*
X0340543Y0243584D02*
X0345425Y0243584D01*
X0345425Y0244607D02*
X0340543Y0244607D01*
X0340543Y0245630D02*
X0345425Y0245630D01*
X0345425Y0246653D02*
X0340543Y0246653D01*
X0340543Y0250042D02*
X0340543Y0254136D01*
X0345425Y0254136D01*
X0345425Y0250042D01*
X0340543Y0250042D01*
X0340543Y0251065D02*
X0345425Y0251065D01*
X0345425Y0252088D02*
X0340543Y0252088D01*
X0340543Y0253111D02*
X0345425Y0253111D01*
X0345425Y0254134D02*
X0340543Y0254134D01*
X0336921Y0253919D02*
X0336921Y0249825D01*
X0332039Y0249825D01*
X0332039Y0253919D01*
X0336921Y0253919D01*
X0336921Y0250848D02*
X0332039Y0250848D01*
X0332039Y0251871D02*
X0336921Y0251871D01*
X0336921Y0252894D02*
X0332039Y0252894D01*
X0332039Y0253917D02*
X0336921Y0253917D01*
X0336921Y0258093D02*
X0336921Y0262187D01*
X0336921Y0258093D02*
X0332039Y0258093D01*
X0332039Y0262187D01*
X0336921Y0262187D01*
X0336921Y0259116D02*
X0332039Y0259116D01*
X0332039Y0260139D02*
X0336921Y0260139D01*
X0336921Y0261162D02*
X0332039Y0261162D01*
X0332039Y0262185D02*
X0336921Y0262185D01*
X0345347Y0262305D02*
X0345347Y0258211D01*
X0340465Y0258211D01*
X0340465Y0262305D01*
X0345347Y0262305D01*
X0345347Y0259234D02*
X0340465Y0259234D01*
X0340465Y0260257D02*
X0345347Y0260257D01*
X0345347Y0261280D02*
X0340465Y0261280D01*
X0340465Y0262303D02*
X0345347Y0262303D01*
X0345347Y0265691D02*
X0345347Y0269785D01*
X0345347Y0265691D02*
X0340465Y0265691D01*
X0340465Y0269785D01*
X0345347Y0269785D01*
X0345347Y0266714D02*
X0340465Y0266714D01*
X0340465Y0267737D02*
X0345347Y0267737D01*
X0345347Y0268760D02*
X0340465Y0268760D01*
X0340465Y0269783D02*
X0345347Y0269783D01*
X0336921Y0269667D02*
X0336921Y0265573D01*
X0332039Y0265573D01*
X0332039Y0269667D01*
X0336921Y0269667D01*
X0336921Y0266596D02*
X0332039Y0266596D01*
X0332039Y0267619D02*
X0336921Y0267619D01*
X0336921Y0268642D02*
X0332039Y0268642D01*
X0332039Y0269665D02*
X0336921Y0269665D01*
X0259933Y0194391D02*
X0259933Y0190297D01*
X0255051Y0190297D01*
X0255051Y0194391D01*
X0259933Y0194391D01*
X0259933Y0191320D02*
X0255051Y0191320D01*
X0255051Y0192343D02*
X0259933Y0192343D01*
X0259933Y0193366D02*
X0255051Y0193366D01*
X0255051Y0194389D02*
X0259933Y0194389D01*
X0259933Y0186911D02*
X0259933Y0182817D01*
X0255051Y0182817D01*
X0255051Y0186911D01*
X0259933Y0186911D01*
X0259933Y0183840D02*
X0255051Y0183840D01*
X0255051Y0184863D02*
X0259933Y0184863D01*
X0259933Y0185886D02*
X0255051Y0185886D01*
X0255051Y0186909D02*
X0259933Y0186909D01*
X0225957Y0186360D02*
X0225957Y0182266D01*
X0225957Y0186360D02*
X0230839Y0186360D01*
X0230839Y0182266D01*
X0225957Y0182266D01*
X0225957Y0183289D02*
X0230839Y0183289D01*
X0230839Y0184312D02*
X0225957Y0184312D01*
X0225957Y0185335D02*
X0230839Y0185335D01*
X0230839Y0186358D02*
X0225957Y0186358D01*
X0225957Y0189746D02*
X0225957Y0193840D01*
X0230839Y0193840D01*
X0230839Y0189746D01*
X0225957Y0189746D01*
X0225957Y0190769D02*
X0230839Y0190769D01*
X0230839Y0191792D02*
X0225957Y0191792D01*
X0225957Y0192815D02*
X0230839Y0192815D01*
X0230839Y0193838D02*
X0225957Y0193838D01*
X0230799Y0196360D02*
X0230799Y0200454D01*
X0230799Y0196360D02*
X0225917Y0196360D01*
X0225917Y0200454D01*
X0230799Y0200454D01*
X0230799Y0197383D02*
X0225917Y0197383D01*
X0225917Y0198406D02*
X0230799Y0198406D01*
X0230799Y0199429D02*
X0225917Y0199429D01*
X0225917Y0200452D02*
X0230799Y0200452D01*
X0230799Y0203841D02*
X0230799Y0207935D01*
X0230799Y0203841D02*
X0225917Y0203841D01*
X0225917Y0207935D01*
X0230799Y0207935D01*
X0230799Y0204864D02*
X0225917Y0204864D01*
X0225917Y0205887D02*
X0230799Y0205887D01*
X0230799Y0206910D02*
X0225917Y0206910D01*
X0225917Y0207933D02*
X0230799Y0207933D01*
X0222925Y0208644D02*
X0222925Y0212738D01*
X0222925Y0208644D02*
X0218043Y0208644D01*
X0218043Y0212738D01*
X0222925Y0212738D01*
X0222925Y0209667D02*
X0218043Y0209667D01*
X0218043Y0210690D02*
X0222925Y0210690D01*
X0222925Y0211713D02*
X0218043Y0211713D01*
X0218043Y0212736D02*
X0222925Y0212736D01*
X0222925Y0205258D02*
X0222925Y0201164D01*
X0218043Y0201164D01*
X0218043Y0205258D01*
X0222925Y0205258D01*
X0222925Y0202187D02*
X0218043Y0202187D01*
X0218043Y0203210D02*
X0222925Y0203210D01*
X0222925Y0204233D02*
X0218043Y0204233D01*
X0218043Y0205256D02*
X0222925Y0205256D01*
X0222925Y0198407D02*
X0222925Y0194313D01*
X0218043Y0194313D01*
X0218043Y0198407D01*
X0222925Y0198407D01*
X0222925Y0195336D02*
X0218043Y0195336D01*
X0218043Y0196359D02*
X0222925Y0196359D01*
X0222925Y0197382D02*
X0218043Y0197382D01*
X0218043Y0198405D02*
X0222925Y0198405D01*
X0222925Y0190927D02*
X0222925Y0186833D01*
X0218043Y0186833D01*
X0218043Y0190927D01*
X0222925Y0190927D01*
X0222925Y0187856D02*
X0218043Y0187856D01*
X0218043Y0188879D02*
X0222925Y0188879D01*
X0222925Y0189902D02*
X0218043Y0189902D01*
X0218043Y0190925D02*
X0222925Y0190925D01*
X0197236Y0219766D02*
X0197236Y0223860D01*
X0202118Y0223860D01*
X0202118Y0219766D01*
X0197236Y0219766D01*
X0197236Y0220789D02*
X0202118Y0220789D01*
X0202118Y0221812D02*
X0197236Y0221812D01*
X0197236Y0222835D02*
X0202118Y0222835D01*
X0202118Y0223858D02*
X0197236Y0223858D01*
X0197236Y0227246D02*
X0197236Y0231340D01*
X0202118Y0231340D01*
X0202118Y0227246D01*
X0197236Y0227246D01*
X0197236Y0228269D02*
X0202118Y0228269D01*
X0202118Y0229292D02*
X0197236Y0229292D01*
X0197236Y0230315D02*
X0202118Y0230315D01*
X0202118Y0231338D02*
X0197236Y0231338D01*
X0155189Y0228781D02*
X0155189Y0224687D01*
X0150307Y0224687D01*
X0150307Y0228781D01*
X0155189Y0228781D01*
X0155189Y0225710D02*
X0150307Y0225710D01*
X0150307Y0226733D02*
X0155189Y0226733D01*
X0155189Y0227756D02*
X0150307Y0227756D01*
X0150307Y0228779D02*
X0155189Y0228779D01*
X0155189Y0221301D02*
X0155189Y0217207D01*
X0150307Y0217207D01*
X0150307Y0221301D01*
X0155189Y0221301D01*
X0155189Y0218230D02*
X0150307Y0218230D01*
X0150307Y0219253D02*
X0155189Y0219253D01*
X0155189Y0220276D02*
X0150307Y0220276D01*
X0150307Y0221299D02*
X0155189Y0221299D01*
X0127275Y0212620D02*
X0123181Y0212620D01*
X0123181Y0217502D01*
X0127275Y0217502D01*
X0127275Y0212620D01*
X0127275Y0213643D02*
X0123181Y0213643D01*
X0123181Y0214666D02*
X0127275Y0214666D01*
X0127275Y0215689D02*
X0123181Y0215689D01*
X0123181Y0216712D02*
X0127275Y0216712D01*
X0119795Y0212620D02*
X0115701Y0212620D01*
X0115701Y0217502D01*
X0119795Y0217502D01*
X0119795Y0212620D01*
X0119795Y0213643D02*
X0115701Y0213643D01*
X0115701Y0214666D02*
X0119795Y0214666D01*
X0119795Y0215689D02*
X0115701Y0215689D01*
X0115701Y0216712D02*
X0119795Y0216712D01*
X0119795Y0200022D02*
X0115701Y0200022D01*
X0115701Y0204904D01*
X0119795Y0204904D01*
X0119795Y0200022D01*
X0119795Y0201045D02*
X0115701Y0201045D01*
X0115701Y0202068D02*
X0119795Y0202068D01*
X0119795Y0203091D02*
X0115701Y0203091D01*
X0115701Y0204114D02*
X0119795Y0204114D01*
X0123181Y0200022D02*
X0127275Y0200022D01*
X0123181Y0200022D02*
X0123181Y0204904D01*
X0127275Y0204904D01*
X0127275Y0200022D01*
X0127275Y0201045D02*
X0123181Y0201045D01*
X0123181Y0202068D02*
X0127275Y0202068D01*
X0127275Y0203091D02*
X0123181Y0203091D01*
X0123181Y0204114D02*
X0127275Y0204114D01*
D11*
X0165425Y0204470D02*
X0165425Y0203526D01*
X0158771Y0203526D01*
X0158771Y0204470D01*
X0165425Y0204470D01*
X0165425Y0203761D02*
X0158771Y0203761D01*
X0158771Y0203996D02*
X0165425Y0203996D01*
X0165425Y0204231D02*
X0158771Y0204231D01*
X0158771Y0204466D02*
X0165425Y0204466D01*
X0165425Y0206085D02*
X0165425Y0207029D01*
X0165425Y0206085D02*
X0158771Y0206085D01*
X0158771Y0207029D01*
X0165425Y0207029D01*
X0165425Y0206320D02*
X0158771Y0206320D01*
X0158771Y0206555D02*
X0165425Y0206555D01*
X0165425Y0206790D02*
X0158771Y0206790D01*
X0158771Y0207025D02*
X0165425Y0207025D01*
X0165425Y0208644D02*
X0165425Y0209588D01*
X0165425Y0208644D02*
X0158771Y0208644D01*
X0158771Y0209588D01*
X0165425Y0209588D01*
X0165425Y0208879D02*
X0158771Y0208879D01*
X0158771Y0209114D02*
X0165425Y0209114D01*
X0165425Y0209349D02*
X0158771Y0209349D01*
X0158771Y0209584D02*
X0165425Y0209584D01*
X0165425Y0211203D02*
X0165425Y0212147D01*
X0165425Y0211203D02*
X0158771Y0211203D01*
X0158771Y0212147D01*
X0165425Y0212147D01*
X0165425Y0211438D02*
X0158771Y0211438D01*
X0158771Y0211673D02*
X0165425Y0211673D01*
X0165425Y0211908D02*
X0158771Y0211908D01*
X0158771Y0212143D02*
X0165425Y0212143D01*
X0165425Y0213762D02*
X0165425Y0214706D01*
X0165425Y0213762D02*
X0158771Y0213762D01*
X0158771Y0214706D01*
X0165425Y0214706D01*
X0165425Y0213997D02*
X0158771Y0213997D01*
X0158771Y0214232D02*
X0165425Y0214232D01*
X0165425Y0214467D02*
X0158771Y0214467D01*
X0158771Y0214702D02*
X0165425Y0214702D01*
X0165425Y0216321D02*
X0165425Y0217265D01*
X0165425Y0216321D02*
X0158771Y0216321D01*
X0158771Y0217265D01*
X0165425Y0217265D01*
X0165425Y0216556D02*
X0158771Y0216556D01*
X0158771Y0216791D02*
X0165425Y0216791D01*
X0165425Y0217026D02*
X0158771Y0217026D01*
X0158771Y0217261D02*
X0165425Y0217261D01*
X0165425Y0218880D02*
X0165425Y0219824D01*
X0165425Y0218880D02*
X0158771Y0218880D01*
X0158771Y0219824D01*
X0165425Y0219824D01*
X0165425Y0219115D02*
X0158771Y0219115D01*
X0158771Y0219350D02*
X0165425Y0219350D01*
X0165425Y0219585D02*
X0158771Y0219585D01*
X0158771Y0219820D02*
X0165425Y0219820D01*
X0165425Y0221439D02*
X0165425Y0222383D01*
X0165425Y0221439D02*
X0158771Y0221439D01*
X0158771Y0222383D01*
X0165425Y0222383D01*
X0165425Y0221674D02*
X0158771Y0221674D01*
X0158771Y0221909D02*
X0165425Y0221909D01*
X0165425Y0222144D02*
X0158771Y0222144D01*
X0158771Y0222379D02*
X0165425Y0222379D01*
X0165425Y0201911D02*
X0165425Y0200967D01*
X0158771Y0200967D01*
X0158771Y0201911D01*
X0165425Y0201911D01*
X0165425Y0201202D02*
X0158771Y0201202D01*
X0158771Y0201437D02*
X0165425Y0201437D01*
X0165425Y0201672D02*
X0158771Y0201672D01*
X0158771Y0201907D02*
X0165425Y0201907D01*
X0165425Y0199352D02*
X0165425Y0198408D01*
X0158771Y0198408D01*
X0158771Y0199352D01*
X0165425Y0199352D01*
X0165425Y0198643D02*
X0158771Y0198643D01*
X0158771Y0198878D02*
X0165425Y0198878D01*
X0165425Y0199113D02*
X0158771Y0199113D01*
X0158771Y0199348D02*
X0165425Y0199348D01*
X0193181Y0199352D02*
X0193181Y0198408D01*
X0186527Y0198408D01*
X0186527Y0199352D01*
X0193181Y0199352D01*
X0193181Y0198643D02*
X0186527Y0198643D01*
X0186527Y0198878D02*
X0193181Y0198878D01*
X0193181Y0199113D02*
X0186527Y0199113D01*
X0186527Y0199348D02*
X0193181Y0199348D01*
X0193181Y0200967D02*
X0193181Y0201911D01*
X0193181Y0200967D02*
X0186527Y0200967D01*
X0186527Y0201911D01*
X0193181Y0201911D01*
X0193181Y0201202D02*
X0186527Y0201202D01*
X0186527Y0201437D02*
X0193181Y0201437D01*
X0193181Y0201672D02*
X0186527Y0201672D01*
X0186527Y0201907D02*
X0193181Y0201907D01*
X0193181Y0203526D02*
X0193181Y0204470D01*
X0193181Y0203526D02*
X0186527Y0203526D01*
X0186527Y0204470D01*
X0193181Y0204470D01*
X0193181Y0203761D02*
X0186527Y0203761D01*
X0186527Y0203996D02*
X0193181Y0203996D01*
X0193181Y0204231D02*
X0186527Y0204231D01*
X0186527Y0204466D02*
X0193181Y0204466D01*
X0193181Y0206085D02*
X0193181Y0207029D01*
X0193181Y0206085D02*
X0186527Y0206085D01*
X0186527Y0207029D01*
X0193181Y0207029D01*
X0193181Y0206320D02*
X0186527Y0206320D01*
X0186527Y0206555D02*
X0193181Y0206555D01*
X0193181Y0206790D02*
X0186527Y0206790D01*
X0186527Y0207025D02*
X0193181Y0207025D01*
X0193181Y0208644D02*
X0193181Y0209588D01*
X0193181Y0208644D02*
X0186527Y0208644D01*
X0186527Y0209588D01*
X0193181Y0209588D01*
X0193181Y0208879D02*
X0186527Y0208879D01*
X0186527Y0209114D02*
X0193181Y0209114D01*
X0193181Y0209349D02*
X0186527Y0209349D01*
X0186527Y0209584D02*
X0193181Y0209584D01*
X0193181Y0211203D02*
X0193181Y0212147D01*
X0193181Y0211203D02*
X0186527Y0211203D01*
X0186527Y0212147D01*
X0193181Y0212147D01*
X0193181Y0211438D02*
X0186527Y0211438D01*
X0186527Y0211673D02*
X0193181Y0211673D01*
X0193181Y0211908D02*
X0186527Y0211908D01*
X0186527Y0212143D02*
X0193181Y0212143D01*
X0193181Y0213762D02*
X0193181Y0214706D01*
X0193181Y0213762D02*
X0186527Y0213762D01*
X0186527Y0214706D01*
X0193181Y0214706D01*
X0193181Y0213997D02*
X0186527Y0213997D01*
X0186527Y0214232D02*
X0193181Y0214232D01*
X0193181Y0214467D02*
X0186527Y0214467D01*
X0186527Y0214702D02*
X0193181Y0214702D01*
X0193181Y0216321D02*
X0193181Y0217265D01*
X0193181Y0216321D02*
X0186527Y0216321D01*
X0186527Y0217265D01*
X0193181Y0217265D01*
X0193181Y0216556D02*
X0186527Y0216556D01*
X0186527Y0216791D02*
X0193181Y0216791D01*
X0193181Y0217026D02*
X0186527Y0217026D01*
X0186527Y0217261D02*
X0193181Y0217261D01*
X0193181Y0218880D02*
X0193181Y0219824D01*
X0193181Y0218880D02*
X0186527Y0218880D01*
X0186527Y0219824D01*
X0193181Y0219824D01*
X0193181Y0219115D02*
X0186527Y0219115D01*
X0186527Y0219350D02*
X0193181Y0219350D01*
X0193181Y0219585D02*
X0186527Y0219585D01*
X0186527Y0219820D02*
X0193181Y0219820D01*
X0193181Y0221439D02*
X0193181Y0222383D01*
X0193181Y0221439D02*
X0186527Y0221439D01*
X0186527Y0222383D01*
X0193181Y0222383D01*
X0193181Y0221674D02*
X0186527Y0221674D01*
X0186527Y0221909D02*
X0193181Y0221909D01*
X0193181Y0222144D02*
X0186527Y0222144D01*
X0186527Y0222379D02*
X0193181Y0222379D01*
X0239185Y0222650D02*
X0239185Y0223594D01*
X0245051Y0223594D01*
X0245051Y0222650D01*
X0239185Y0222650D01*
X0239185Y0222885D02*
X0245051Y0222885D01*
X0245051Y0223120D02*
X0239185Y0223120D01*
X0239185Y0223355D02*
X0245051Y0223355D01*
X0245051Y0223590D02*
X0239185Y0223590D01*
X0239185Y0225150D02*
X0239185Y0226094D01*
X0245051Y0226094D01*
X0245051Y0225150D01*
X0239185Y0225150D01*
X0239185Y0225385D02*
X0245051Y0225385D01*
X0245051Y0225620D02*
X0239185Y0225620D01*
X0239185Y0225855D02*
X0245051Y0225855D01*
X0245051Y0226090D02*
X0239185Y0226090D01*
X0239185Y0221094D02*
X0239185Y0220150D01*
X0239185Y0221094D02*
X0245051Y0221094D01*
X0245051Y0220150D01*
X0239185Y0220150D01*
X0239185Y0220385D02*
X0245051Y0220385D01*
X0245051Y0220620D02*
X0239185Y0220620D01*
X0239185Y0220855D02*
X0245051Y0220855D01*
X0245051Y0221090D02*
X0239185Y0221090D01*
X0239185Y0218594D02*
X0239185Y0217650D01*
X0239185Y0218594D02*
X0245051Y0218594D01*
X0245051Y0217650D01*
X0239185Y0217650D01*
X0239185Y0217885D02*
X0245051Y0217885D01*
X0245051Y0218120D02*
X0239185Y0218120D01*
X0239185Y0218355D02*
X0245051Y0218355D01*
X0245051Y0218590D02*
X0239185Y0218590D01*
X0239185Y0216094D02*
X0239185Y0215150D01*
X0239185Y0216094D02*
X0245051Y0216094D01*
X0245051Y0215150D01*
X0239185Y0215150D01*
X0239185Y0215385D02*
X0245051Y0215385D01*
X0245051Y0215620D02*
X0239185Y0215620D01*
X0239185Y0215855D02*
X0245051Y0215855D01*
X0245051Y0216090D02*
X0239185Y0216090D01*
X0239185Y0213594D02*
X0239185Y0212650D01*
X0239185Y0213594D02*
X0245051Y0213594D01*
X0245051Y0212650D01*
X0239185Y0212650D01*
X0239185Y0212885D02*
X0245051Y0212885D01*
X0245051Y0213120D02*
X0239185Y0213120D01*
X0239185Y0213355D02*
X0245051Y0213355D01*
X0245051Y0213590D02*
X0239185Y0213590D01*
X0239185Y0211094D02*
X0239185Y0210150D01*
X0239185Y0211094D02*
X0245051Y0211094D01*
X0245051Y0210150D01*
X0239185Y0210150D01*
X0239185Y0210385D02*
X0245051Y0210385D01*
X0245051Y0210620D02*
X0239185Y0210620D01*
X0239185Y0210855D02*
X0245051Y0210855D01*
X0245051Y0211090D02*
X0239185Y0211090D01*
X0239185Y0208594D02*
X0239185Y0207650D01*
X0239185Y0208594D02*
X0245051Y0208594D01*
X0245051Y0207650D01*
X0239185Y0207650D01*
X0239185Y0207885D02*
X0245051Y0207885D01*
X0245051Y0208120D02*
X0239185Y0208120D01*
X0239185Y0208355D02*
X0245051Y0208355D01*
X0245051Y0208590D02*
X0239185Y0208590D01*
X0239185Y0206094D02*
X0239185Y0205150D01*
X0239185Y0206094D02*
X0245051Y0206094D01*
X0245051Y0205150D01*
X0239185Y0205150D01*
X0239185Y0205385D02*
X0245051Y0205385D01*
X0245051Y0205620D02*
X0239185Y0205620D01*
X0239185Y0205855D02*
X0245051Y0205855D01*
X0245051Y0206090D02*
X0239185Y0206090D01*
X0239185Y0203594D02*
X0239185Y0202650D01*
X0239185Y0203594D02*
X0245051Y0203594D01*
X0245051Y0202650D01*
X0239185Y0202650D01*
X0239185Y0202885D02*
X0245051Y0202885D01*
X0245051Y0203120D02*
X0239185Y0203120D01*
X0239185Y0203355D02*
X0245051Y0203355D01*
X0245051Y0203590D02*
X0239185Y0203590D01*
X0239185Y0201094D02*
X0239185Y0200150D01*
X0239185Y0201094D02*
X0245051Y0201094D01*
X0245051Y0200150D01*
X0239185Y0200150D01*
X0239185Y0200385D02*
X0245051Y0200385D01*
X0245051Y0200620D02*
X0239185Y0200620D01*
X0239185Y0200855D02*
X0245051Y0200855D01*
X0245051Y0201090D02*
X0239185Y0201090D01*
X0239185Y0198594D02*
X0239185Y0197650D01*
X0239185Y0198594D02*
X0245051Y0198594D01*
X0245051Y0197650D01*
X0239185Y0197650D01*
X0239185Y0197885D02*
X0245051Y0197885D01*
X0245051Y0198120D02*
X0239185Y0198120D01*
X0239185Y0198355D02*
X0245051Y0198355D01*
X0245051Y0198590D02*
X0239185Y0198590D01*
X0261232Y0198594D02*
X0261232Y0197650D01*
X0261232Y0198594D02*
X0267098Y0198594D01*
X0267098Y0197650D01*
X0261232Y0197650D01*
X0261232Y0197885D02*
X0267098Y0197885D01*
X0267098Y0198120D02*
X0261232Y0198120D01*
X0261232Y0198355D02*
X0267098Y0198355D01*
X0267098Y0198590D02*
X0261232Y0198590D01*
X0261232Y0200150D02*
X0261232Y0201094D01*
X0267098Y0201094D01*
X0267098Y0200150D01*
X0261232Y0200150D01*
X0261232Y0200385D02*
X0267098Y0200385D01*
X0267098Y0200620D02*
X0261232Y0200620D01*
X0261232Y0200855D02*
X0267098Y0200855D01*
X0267098Y0201090D02*
X0261232Y0201090D01*
X0261232Y0202650D02*
X0261232Y0203594D01*
X0267098Y0203594D01*
X0267098Y0202650D01*
X0261232Y0202650D01*
X0261232Y0202885D02*
X0267098Y0202885D01*
X0267098Y0203120D02*
X0261232Y0203120D01*
X0261232Y0203355D02*
X0267098Y0203355D01*
X0267098Y0203590D02*
X0261232Y0203590D01*
X0261232Y0205150D02*
X0261232Y0206094D01*
X0267098Y0206094D01*
X0267098Y0205150D01*
X0261232Y0205150D01*
X0261232Y0205385D02*
X0267098Y0205385D01*
X0267098Y0205620D02*
X0261232Y0205620D01*
X0261232Y0205855D02*
X0267098Y0205855D01*
X0267098Y0206090D02*
X0261232Y0206090D01*
X0261232Y0207650D02*
X0261232Y0208594D01*
X0267098Y0208594D01*
X0267098Y0207650D01*
X0261232Y0207650D01*
X0261232Y0207885D02*
X0267098Y0207885D01*
X0267098Y0208120D02*
X0261232Y0208120D01*
X0261232Y0208355D02*
X0267098Y0208355D01*
X0267098Y0208590D02*
X0261232Y0208590D01*
X0261232Y0210150D02*
X0261232Y0211094D01*
X0267098Y0211094D01*
X0267098Y0210150D01*
X0261232Y0210150D01*
X0261232Y0210385D02*
X0267098Y0210385D01*
X0267098Y0210620D02*
X0261232Y0210620D01*
X0261232Y0210855D02*
X0267098Y0210855D01*
X0267098Y0211090D02*
X0261232Y0211090D01*
X0261232Y0212650D02*
X0261232Y0213594D01*
X0267098Y0213594D01*
X0267098Y0212650D01*
X0261232Y0212650D01*
X0261232Y0212885D02*
X0267098Y0212885D01*
X0267098Y0213120D02*
X0261232Y0213120D01*
X0261232Y0213355D02*
X0267098Y0213355D01*
X0267098Y0213590D02*
X0261232Y0213590D01*
X0261232Y0215150D02*
X0261232Y0216094D01*
X0267098Y0216094D01*
X0267098Y0215150D01*
X0261232Y0215150D01*
X0261232Y0215385D02*
X0267098Y0215385D01*
X0267098Y0215620D02*
X0261232Y0215620D01*
X0261232Y0215855D02*
X0267098Y0215855D01*
X0267098Y0216090D02*
X0261232Y0216090D01*
X0261232Y0217650D02*
X0261232Y0218594D01*
X0267098Y0218594D01*
X0267098Y0217650D01*
X0261232Y0217650D01*
X0261232Y0217885D02*
X0267098Y0217885D01*
X0267098Y0218120D02*
X0261232Y0218120D01*
X0261232Y0218355D02*
X0267098Y0218355D01*
X0267098Y0218590D02*
X0261232Y0218590D01*
X0261232Y0220150D02*
X0261232Y0221094D01*
X0267098Y0221094D01*
X0267098Y0220150D01*
X0261232Y0220150D01*
X0261232Y0220385D02*
X0267098Y0220385D01*
X0267098Y0220620D02*
X0261232Y0220620D01*
X0261232Y0220855D02*
X0267098Y0220855D01*
X0267098Y0221090D02*
X0261232Y0221090D01*
X0261232Y0222650D02*
X0261232Y0223594D01*
X0267098Y0223594D01*
X0267098Y0222650D01*
X0261232Y0222650D01*
X0261232Y0222885D02*
X0267098Y0222885D01*
X0267098Y0223120D02*
X0261232Y0223120D01*
X0261232Y0223355D02*
X0267098Y0223355D01*
X0267098Y0223590D02*
X0261232Y0223590D01*
X0261232Y0225150D02*
X0261232Y0226094D01*
X0267098Y0226094D01*
X0267098Y0225150D01*
X0261232Y0225150D01*
X0261232Y0225385D02*
X0267098Y0225385D01*
X0267098Y0225620D02*
X0261232Y0225620D01*
X0261232Y0225855D02*
X0267098Y0225855D01*
X0267098Y0226090D02*
X0261232Y0226090D01*
D12*
X0257866Y0224470D02*
X0248418Y0224470D01*
X0257866Y0224470D02*
X0257866Y0199274D01*
X0248418Y0199274D01*
X0248418Y0224470D01*
X0248418Y0201635D02*
X0257866Y0201635D01*
X0257866Y0203996D02*
X0248418Y0203996D01*
X0248418Y0206357D02*
X0257866Y0206357D01*
X0257866Y0208718D02*
X0248418Y0208718D01*
X0248418Y0211079D02*
X0257866Y0211079D01*
X0257866Y0213440D02*
X0248418Y0213440D01*
X0248418Y0215801D02*
X0257866Y0215801D01*
X0257866Y0218162D02*
X0248418Y0218162D01*
X0248418Y0220523D02*
X0257866Y0220523D01*
X0257866Y0222884D02*
X0248418Y0222884D01*
D13*
X0225819Y0277778D03*
X0225819Y0287778D03*
X0208102Y0287778D03*
X0208102Y0277778D03*
X0190386Y0277778D03*
X0190386Y0287778D03*
X0172669Y0287778D03*
X0172669Y0277778D03*
X0091173Y0182266D03*
X0091173Y0172266D03*
X0352079Y0179411D03*
X0352079Y0189411D03*
X0365681Y0199352D03*
X0365681Y0179352D03*
X0365681Y0126774D03*
X0352394Y0116813D03*
X0352394Y0106813D03*
X0365681Y0106774D03*
X0365091Y0056163D03*
X0352394Y0046104D03*
X0352394Y0036104D03*
X0365091Y0036163D03*
X0365287Y0251341D03*
X0352079Y0251301D03*
X0352079Y0261301D03*
X0365287Y0271341D03*
D14*
X0208024Y0150888D02*
X0208024Y0147108D01*
X0201882Y0147108D01*
X0201882Y0150888D01*
X0208024Y0150888D01*
X0208024Y0148052D02*
X0201882Y0148052D01*
X0201882Y0148996D02*
X0208024Y0148996D01*
X0208024Y0149940D02*
X0201882Y0149940D01*
X0201882Y0150884D02*
X0208024Y0150884D01*
X0208024Y0140888D02*
X0208024Y0137108D01*
X0201882Y0137108D01*
X0201882Y0140888D01*
X0208024Y0140888D01*
X0208024Y0138052D02*
X0201882Y0138052D01*
X0201882Y0138996D02*
X0208024Y0138996D01*
X0208024Y0139940D02*
X0201882Y0139940D01*
X0201882Y0140884D02*
X0208024Y0140884D01*
X0208024Y0130888D02*
X0208024Y0127108D01*
X0201882Y0127108D01*
X0201882Y0130888D01*
X0208024Y0130888D01*
X0208024Y0128052D02*
X0201882Y0128052D01*
X0201882Y0128996D02*
X0208024Y0128996D01*
X0208024Y0129940D02*
X0201882Y0129940D01*
X0201882Y0130884D02*
X0208024Y0130884D01*
X0208024Y0120888D02*
X0208024Y0117108D01*
X0201882Y0117108D01*
X0201882Y0120888D01*
X0208024Y0120888D01*
X0208024Y0118052D02*
X0201882Y0118052D01*
X0201882Y0118996D02*
X0208024Y0118996D01*
X0208024Y0119940D02*
X0201882Y0119940D01*
X0201882Y0120884D02*
X0208024Y0120884D01*
X0161882Y0120888D02*
X0161882Y0117108D01*
X0161882Y0120888D02*
X0168024Y0120888D01*
X0168024Y0117108D01*
X0161882Y0117108D01*
X0161882Y0118052D02*
X0168024Y0118052D01*
X0168024Y0118996D02*
X0161882Y0118996D01*
X0161882Y0119940D02*
X0168024Y0119940D01*
X0168024Y0120884D02*
X0161882Y0120884D01*
X0161882Y0127108D02*
X0161882Y0130888D01*
X0168024Y0130888D01*
X0168024Y0127108D01*
X0161882Y0127108D01*
X0161882Y0128052D02*
X0168024Y0128052D01*
X0168024Y0128996D02*
X0161882Y0128996D01*
X0161882Y0129940D02*
X0168024Y0129940D01*
X0168024Y0130884D02*
X0161882Y0130884D01*
X0161882Y0137108D02*
X0161882Y0140888D01*
X0168024Y0140888D01*
X0168024Y0137108D01*
X0161882Y0137108D01*
X0161882Y0138052D02*
X0168024Y0138052D01*
X0168024Y0138996D02*
X0161882Y0138996D01*
X0161882Y0139940D02*
X0168024Y0139940D01*
X0168024Y0140884D02*
X0161882Y0140884D01*
X0161882Y0147108D02*
X0161882Y0150888D01*
X0168024Y0150888D01*
X0168024Y0147108D01*
X0161882Y0147108D01*
X0161882Y0148052D02*
X0168024Y0148052D01*
X0168024Y0148996D02*
X0161882Y0148996D01*
X0161882Y0149940D02*
X0168024Y0149940D01*
X0168024Y0150884D02*
X0161882Y0150884D01*
D15*
X0130622Y0108447D02*
X0130622Y0105927D01*
X0130622Y0108447D02*
X0135110Y0108447D01*
X0135110Y0105927D01*
X0130622Y0105927D01*
X0130622Y0106556D02*
X0135110Y0106556D01*
X0135110Y0107185D02*
X0130622Y0107185D01*
X0130622Y0107814D02*
X0135110Y0107814D01*
X0135110Y0108443D02*
X0130622Y0108443D01*
X0130622Y0103447D02*
X0130622Y0100927D01*
X0130622Y0103447D02*
X0135110Y0103447D01*
X0135110Y0100927D01*
X0130622Y0100927D01*
X0130622Y0101556D02*
X0135110Y0101556D01*
X0135110Y0102185D02*
X0130622Y0102185D01*
X0130622Y0102814D02*
X0135110Y0102814D01*
X0135110Y0103443D02*
X0130622Y0103443D01*
X0130622Y0098447D02*
X0130622Y0095927D01*
X0130622Y0098447D02*
X0135110Y0098447D01*
X0135110Y0095927D01*
X0130622Y0095927D01*
X0130622Y0096556D02*
X0135110Y0096556D01*
X0135110Y0097185D02*
X0130622Y0097185D01*
X0130622Y0097814D02*
X0135110Y0097814D01*
X0135110Y0098443D02*
X0130622Y0098443D01*
X0097158Y0098447D02*
X0097158Y0095927D01*
X0097158Y0098447D02*
X0101646Y0098447D01*
X0101646Y0095927D01*
X0097158Y0095927D01*
X0097158Y0096556D02*
X0101646Y0096556D01*
X0101646Y0097185D02*
X0097158Y0097185D01*
X0097158Y0097814D02*
X0101646Y0097814D01*
X0101646Y0098443D02*
X0097158Y0098443D01*
X0097158Y0100927D02*
X0097158Y0103447D01*
X0101646Y0103447D01*
X0101646Y0100927D01*
X0097158Y0100927D01*
X0097158Y0101556D02*
X0101646Y0101556D01*
X0101646Y0102185D02*
X0097158Y0102185D01*
X0097158Y0102814D02*
X0101646Y0102814D01*
X0101646Y0103443D02*
X0097158Y0103443D01*
X0097158Y0105927D02*
X0097158Y0108447D01*
X0101646Y0108447D01*
X0101646Y0105927D01*
X0097158Y0105927D01*
X0097158Y0106556D02*
X0101646Y0106556D01*
X0101646Y0107185D02*
X0097158Y0107185D01*
X0097158Y0107814D02*
X0101646Y0107814D01*
X0101646Y0108443D02*
X0097158Y0108443D01*
D16*
X0111095Y0088467D02*
X0111095Y0085317D01*
X0106369Y0085317D01*
X0106369Y0088467D01*
X0111095Y0088467D01*
X0111095Y0086103D02*
X0106369Y0086103D01*
X0106369Y0086889D02*
X0111095Y0086889D01*
X0111095Y0087675D02*
X0106369Y0087675D01*
X0106369Y0088461D02*
X0111095Y0088461D01*
X0102434Y0084727D02*
X0102434Y0081577D01*
X0097708Y0081577D01*
X0097708Y0084727D01*
X0102434Y0084727D01*
X0102434Y0082363D02*
X0097708Y0082363D01*
X0097708Y0083149D02*
X0102434Y0083149D01*
X0102434Y0083935D02*
X0097708Y0083935D01*
X0097708Y0084721D02*
X0102434Y0084721D01*
X0111095Y0080986D02*
X0111095Y0077836D01*
X0106369Y0077836D01*
X0106369Y0080986D01*
X0111095Y0080986D01*
X0111095Y0078622D02*
X0106369Y0078622D01*
X0106369Y0079408D02*
X0111095Y0079408D01*
X0111095Y0080194D02*
X0106369Y0080194D01*
X0106369Y0080980D02*
X0111095Y0080980D01*
D17*
X0365091Y0046163D03*
X0365681Y0116774D03*
X0365681Y0189352D03*
X0365287Y0261341D03*
D18*
X0067059Y0242069D03*
X0067059Y0222384D03*
X0067059Y0202384D03*
X0067059Y0182384D03*
X0067059Y0162384D03*
X0067059Y0142384D03*
X0067059Y0122384D03*
X0067059Y0102384D03*
X0067059Y0082384D03*
X0067059Y0062699D03*
D19*
X0057217Y0042384D03*
X0057217Y0262384D03*
D20*
X0101000Y0246557D03*
X0111000Y0246557D03*
X0121000Y0246557D03*
X0131000Y0246557D03*
X0141000Y0246557D03*
X0151000Y0246557D03*
X0161000Y0246557D03*
X0171000Y0246557D03*
X0181000Y0246557D03*
X0191000Y0246557D03*
X0207000Y0246557D03*
X0217000Y0246557D03*
X0227000Y0246557D03*
X0237000Y0246557D03*
X0247000Y0246557D03*
X0257000Y0246557D03*
X0267000Y0246557D03*
X0277000Y0246557D03*
X0277000Y0056557D03*
X0267000Y0056557D03*
X0257000Y0056557D03*
X0247000Y0056557D03*
X0237000Y0056557D03*
X0227000Y0056557D03*
X0207000Y0056557D03*
X0197000Y0056557D03*
X0187000Y0056557D03*
X0177000Y0056557D03*
X0167000Y0056557D03*
X0157000Y0056557D03*
X0147000Y0056557D03*
X0137000Y0056557D03*
D21*
X0114185Y0079411D02*
X0108732Y0079411D01*
X0114185Y0079411D02*
X0114402Y0079628D01*
X0108732Y0086892D02*
X0108732Y0102620D01*
X0104165Y0107187D01*
X0099402Y0107187D01*
X0099402Y0097187D02*
X0105189Y0097187D01*
X0105346Y0097344D01*
X0097866Y0091439D02*
X0091114Y0091439D01*
X0090957Y0091596D01*
X0090957Y0099963D01*
X0090996Y0100002D01*
X0083516Y0100002D02*
X0083417Y0100100D01*
X0076606Y0100100D01*
X0074323Y0102384D01*
X0067059Y0102384D01*
X0076213Y0091439D02*
X0076606Y0091439D01*
X0067551Y0082384D01*
X0067059Y0082384D01*
X0076606Y0091439D02*
X0083319Y0091439D01*
X0083476Y0091596D01*
X0083516Y0100002D02*
X0083299Y0100219D01*
X0083299Y0106006D01*
X0086449Y0106006D01*
X0083476Y0083211D02*
X0083476Y0079116D01*
X0067059Y0062699D01*
X0090957Y0083211D02*
X0091016Y0083152D01*
X0100071Y0083152D01*
X0125031Y0105612D02*
X0128575Y0102069D01*
X0132748Y0102069D01*
X0132866Y0102187D01*
X0132866Y0097187D02*
X0133102Y0096951D01*
X0138417Y0096951D01*
X0144520Y0096951D01*
X0145898Y0098329D01*
X0145898Y0105809D02*
X0150356Y0105809D01*
X0168732Y0087433D01*
X0178112Y0087433D01*
X0177891Y0087654D01*
X0177891Y0107163D01*
X0177807Y0109569D01*
X0196685Y0128447D01*
X0204402Y0128447D01*
X0204953Y0128998D01*
X0204953Y0118998D02*
X0215189Y0118998D01*
X0204953Y0148998D02*
X0240543Y0184589D01*
X0240543Y0185770D01*
X0238811Y0187502D01*
X0240819Y0184864D02*
X0256921Y0184864D01*
X0257709Y0184077D01*
X0257709Y0174904D01*
X0257492Y0184864D02*
X0256921Y0184864D01*
X0257610Y0192226D02*
X0257492Y0192344D01*
X0236449Y0192344D01*
X0233693Y0194195D01*
X0236173Y0192344D02*
X0234087Y0190258D01*
X0234087Y0186321D01*
X0232079Y0184313D01*
X0228398Y0184313D01*
X0225051Y0184313D01*
X0220484Y0188880D01*
X0204835Y0188880D01*
X0164953Y0148998D01*
X0136449Y0122148D02*
X0136449Y0197738D01*
X0125228Y0202463D02*
X0125228Y0215061D01*
X0117748Y0215061D02*
X0111252Y0215061D01*
X0110071Y0213880D01*
X0104953Y0209156D02*
X0104953Y0220278D01*
X0109972Y0225297D01*
X0123850Y0225297D01*
X0130937Y0232384D01*
X0130937Y0233565D01*
X0131000Y0233628D01*
X0131000Y0246557D01*
X0141000Y0246557D02*
X0141173Y0246384D01*
X0141173Y0236321D01*
X0144323Y0231203D02*
X0151016Y0237896D01*
X0151016Y0246541D01*
X0151000Y0246557D01*
X0160858Y0246415D02*
X0161000Y0246557D01*
X0160858Y0246415D02*
X0160858Y0235927D01*
X0171488Y0225297D01*
X0171488Y0217423D01*
X0168299Y0214234D01*
X0162098Y0214234D01*
X0162098Y0211675D02*
X0150071Y0211675D01*
X0144323Y0217423D01*
X0144323Y0231203D01*
X0141173Y0229628D02*
X0141173Y0115494D01*
X0132866Y0107187D01*
X0144520Y0107187D01*
X0145898Y0105809D01*
X0136449Y0122148D02*
X0125031Y0110730D01*
X0125031Y0105612D01*
X0178112Y0087433D02*
X0178594Y0086951D01*
X0178594Y0076715D01*
X0178614Y0076695D01*
X0177807Y0077502D01*
X0178614Y0076695D02*
X0178614Y0058171D01*
X0177000Y0056557D01*
X0187000Y0056557D02*
X0187000Y0075789D01*
X0186094Y0076695D01*
X0186311Y0076478D01*
X0190780Y0076478D01*
X0186409Y0076380D02*
X0186094Y0076695D01*
X0188181Y0086951D02*
X0198654Y0076478D01*
X0202787Y0076478D01*
X0210268Y0076478D02*
X0210661Y0076085D01*
X0215583Y0076085D01*
X0188181Y0086951D02*
X0186075Y0086951D01*
X0272669Y0144589D02*
X0272669Y0194982D01*
X0267030Y0200622D01*
X0264165Y0200622D01*
X0264165Y0198122D02*
X0264165Y0194352D01*
X0262039Y0192226D01*
X0257610Y0192226D01*
X0264165Y0203122D02*
X0264293Y0203250D01*
X0268732Y0203250D01*
X0276213Y0195770D01*
X0276213Y0148132D01*
X0301409Y0122935D01*
X0301409Y0055612D01*
X0319913Y0037108D01*
X0325425Y0031596D02*
X0327394Y0029628D01*
X0333890Y0029628D01*
X0334087Y0029431D01*
X0325425Y0031596D02*
X0325425Y0051281D01*
X0327000Y0052856D01*
X0327787Y0052856D01*
X0333890Y0052856D01*
X0334087Y0053053D01*
X0327787Y0052856D02*
X0325425Y0055219D01*
X0325425Y0098526D01*
X0327591Y0100691D01*
X0325425Y0102856D01*
X0325425Y0121754D01*
X0327197Y0123526D01*
X0325425Y0125297D01*
X0325425Y0164667D01*
X0322669Y0161911D01*
X0320701Y0161911D01*
X0325425Y0164667D02*
X0325425Y0171360D01*
X0327000Y0172935D01*
X0334283Y0172935D01*
X0334480Y0172738D01*
X0342787Y0172758D02*
X0349657Y0172758D01*
X0352197Y0175297D01*
X0352197Y0179293D01*
X0352079Y0179411D01*
X0365622Y0179411D01*
X0365681Y0179352D01*
X0371606Y0179352D01*
X0375425Y0183171D01*
X0375425Y0195376D01*
X0371449Y0199352D01*
X0365681Y0199352D01*
X0365622Y0189411D02*
X0352197Y0189411D01*
X0352197Y0192620D01*
X0348535Y0196281D01*
X0342512Y0196281D01*
X0334480Y0195967D02*
X0327984Y0195967D01*
X0327197Y0195967D01*
X0325425Y0194195D01*
X0325425Y0174510D01*
X0327000Y0172935D01*
X0329165Y0180219D02*
X0334480Y0180219D01*
X0334500Y0180238D01*
X0342787Y0180238D01*
X0342512Y0188801D02*
X0334795Y0188801D01*
X0334480Y0188486D01*
X0329165Y0188486D01*
X0328969Y0188289D01*
X0327984Y0195967D02*
X0325425Y0198526D01*
X0325425Y0241833D01*
X0327984Y0244392D01*
X0325425Y0246951D01*
X0325425Y0265061D01*
X0327984Y0267620D01*
X0334480Y0267620D01*
X0342906Y0267738D02*
X0349913Y0267738D01*
X0352197Y0265455D01*
X0352197Y0261419D01*
X0352079Y0261301D01*
X0352079Y0261341D01*
X0365287Y0261341D01*
X0365287Y0271341D02*
X0365307Y0271360D01*
X0372276Y0271360D01*
X0375031Y0268604D01*
X0375031Y0254431D01*
X0371941Y0251341D01*
X0365287Y0251341D01*
X0365248Y0251301D01*
X0352079Y0251301D01*
X0352197Y0251183D01*
X0352197Y0246557D01*
X0350248Y0244608D01*
X0342984Y0244608D01*
X0334480Y0244392D02*
X0327984Y0244392D01*
X0329165Y0251872D02*
X0328969Y0252069D01*
X0329165Y0251872D02*
X0334480Y0251872D01*
X0334697Y0252089D01*
X0342984Y0252089D01*
X0352079Y0251341D02*
X0352079Y0251301D01*
X0342906Y0260258D02*
X0334598Y0260258D01*
X0334480Y0260140D01*
X0334283Y0260337D01*
X0328969Y0260337D01*
X0301803Y0252069D02*
X0289992Y0252069D01*
X0288417Y0250494D01*
X0288417Y0222935D01*
X0283604Y0218122D01*
X0264165Y0218122D01*
X0264215Y0220573D02*
X0264165Y0220622D01*
X0264215Y0220573D02*
X0277787Y0220573D01*
X0272276Y0223329D02*
X0264372Y0223329D01*
X0264165Y0223122D01*
X0264165Y0215622D02*
X0285829Y0215622D01*
X0291173Y0220967D01*
X0291173Y0246163D01*
X0293929Y0248919D01*
X0257000Y0246557D02*
X0257000Y0237581D01*
X0252984Y0233565D01*
X0206134Y0233565D01*
X0203378Y0236321D01*
X0201409Y0236321D01*
X0199677Y0229293D02*
X0197236Y0229293D01*
X0189854Y0221911D01*
X0189854Y0219352D02*
X0197217Y0219352D01*
X0199677Y0221813D01*
X0201193Y0223329D01*
X0206134Y0223329D01*
X0204323Y0216793D02*
X0213220Y0225691D01*
X0242049Y0225691D01*
X0242118Y0225622D01*
X0241911Y0223329D02*
X0242118Y0223122D01*
X0241911Y0223329D02*
X0229756Y0223329D01*
X0225819Y0219392D01*
X0215976Y0219392D01*
X0208260Y0211675D01*
X0189854Y0211675D01*
X0189854Y0209116D02*
X0210031Y0209116D01*
X0217157Y0216242D01*
X0227000Y0216242D01*
X0231331Y0220573D01*
X0237033Y0218184D02*
X0237095Y0218122D01*
X0242118Y0218122D01*
X0242118Y0220622D01*
X0242118Y0215622D02*
X0235100Y0215622D01*
X0233299Y0215848D01*
X0230445Y0207974D02*
X0241970Y0207974D01*
X0242118Y0208122D01*
X0242118Y0205622D02*
X0234884Y0205622D01*
X0233693Y0204431D01*
X0233693Y0200484D01*
X0231331Y0198122D01*
X0228644Y0198122D01*
X0228358Y0198407D01*
X0226902Y0196951D01*
X0220484Y0196951D01*
X0220484Y0196360D01*
X0219500Y0197344D01*
X0215189Y0197344D01*
X0220484Y0196951D02*
X0220484Y0203211D01*
X0228358Y0205888D02*
X0230445Y0207974D01*
X0236449Y0202069D02*
X0237502Y0203122D01*
X0242118Y0203122D01*
X0242118Y0200622D02*
X0242118Y0198122D01*
X0231331Y0198122D01*
X0228358Y0198407D02*
X0228358Y0191833D01*
X0228398Y0191793D01*
X0236173Y0192344D02*
X0236449Y0192344D01*
X0240819Y0184864D02*
X0240543Y0184589D01*
X0264165Y0205622D02*
X0286439Y0205622D01*
X0302197Y0189864D01*
X0302197Y0133959D01*
X0307315Y0128841D01*
X0313614Y0133959D02*
X0313614Y0115848D01*
X0320701Y0108762D01*
X0328575Y0108762D02*
X0333496Y0108762D01*
X0334087Y0108171D01*
X0342591Y0108171D01*
X0342591Y0100691D02*
X0350425Y0100691D01*
X0352591Y0102856D01*
X0352591Y0106006D01*
X0352394Y0106203D01*
X0352394Y0106813D01*
X0352591Y0106616D02*
X0352748Y0106774D01*
X0365681Y0106774D01*
X0365701Y0106793D01*
X0371488Y0106793D01*
X0375425Y0110730D01*
X0375425Y0122935D01*
X0371882Y0126478D01*
X0365976Y0126478D01*
X0365681Y0126774D01*
X0352591Y0120573D02*
X0352591Y0117010D01*
X0352827Y0116774D01*
X0365681Y0116774D01*
X0352591Y0117010D02*
X0352394Y0116813D01*
X0352591Y0120573D02*
X0349559Y0123604D01*
X0342512Y0123604D01*
X0333693Y0123526D02*
X0327197Y0123526D01*
X0328575Y0115848D02*
X0333496Y0115848D01*
X0333693Y0116045D01*
X0333772Y0116124D01*
X0342512Y0116124D01*
X0352591Y0106616D02*
X0352591Y0106006D01*
X0334087Y0100691D02*
X0327591Y0100691D01*
X0293929Y0086715D02*
X0293929Y0123329D01*
X0272669Y0144589D01*
X0305346Y0142226D02*
X0313614Y0133959D01*
X0305346Y0142226D02*
X0305346Y0191045D01*
X0288270Y0208122D01*
X0264165Y0208122D01*
X0264165Y0210622D02*
X0291675Y0210622D01*
X0308890Y0192620D01*
X0314795Y0193801D02*
X0295504Y0213093D01*
X0264195Y0213093D01*
X0264165Y0213122D01*
X0242118Y0213122D02*
X0242118Y0215622D01*
X0242049Y0210691D02*
X0220484Y0210691D01*
X0223457Y0223302D02*
X0223430Y0223329D01*
X0215189Y0223329D01*
X0206094Y0214234D01*
X0189854Y0214234D01*
X0189854Y0216793D02*
X0186892Y0216793D01*
X0185309Y0218375D01*
X0185309Y0218563D01*
X0180150Y0223722D01*
X0180150Y0234352D01*
X0177787Y0236321D01*
X0175425Y0239864D02*
X0181724Y0239864D01*
X0185661Y0241896D02*
X0185661Y0231596D01*
X0185661Y0241896D02*
X0181000Y0246557D01*
X0175425Y0239864D02*
X0173850Y0238289D01*
X0173850Y0214274D01*
X0168693Y0209116D01*
X0162098Y0209116D01*
X0162098Y0219352D02*
X0152846Y0219352D01*
X0152748Y0219254D01*
X0152748Y0226734D02*
X0152591Y0226892D01*
X0152591Y0231203D01*
X0152748Y0226734D02*
X0157276Y0226734D01*
X0162098Y0221911D01*
X0162098Y0219352D02*
X0167906Y0219352D01*
X0167945Y0219392D01*
X0189854Y0216793D02*
X0204323Y0216793D01*
X0206921Y0227659D02*
X0205287Y0229293D01*
X0199677Y0229293D01*
X0206862Y0227719D02*
X0206921Y0227659D01*
X0207000Y0246557D02*
X0208102Y0247659D01*
X0208102Y0277778D01*
X0199047Y0284746D02*
X0202079Y0287778D01*
X0208102Y0287778D01*
X0225819Y0287778D01*
X0225819Y0277778D02*
X0217000Y0268959D01*
X0217000Y0246557D01*
X0227000Y0246557D02*
X0227000Y0254037D01*
X0236843Y0254037D02*
X0236843Y0246715D01*
X0237000Y0246557D01*
X0247000Y0246557D02*
X0247079Y0254037D01*
X0199047Y0251281D02*
X0199047Y0284746D01*
X0195898Y0287896D01*
X0195780Y0287778D01*
X0190386Y0287778D01*
X0172669Y0287778D01*
X0172669Y0277778D02*
X0171000Y0276108D01*
X0171000Y0246557D01*
X0190386Y0247171D02*
X0191000Y0246557D01*
X0190386Y0247171D02*
X0190386Y0277778D01*
X0242049Y0210691D02*
X0242118Y0210622D01*
X0204559Y0206400D02*
X0197039Y0198880D01*
X0189854Y0198880D01*
X0117748Y0202463D02*
X0111646Y0202463D01*
X0104953Y0209156D01*
X0077000Y0225691D02*
X0077000Y0259156D01*
X0077394Y0259549D01*
X0074244Y0261124D02*
X0074244Y0205612D01*
X0071016Y0202384D01*
X0067059Y0202384D01*
X0067059Y0182384D02*
X0091055Y0182384D01*
X0091173Y0182266D01*
X0091173Y0172266D02*
X0081291Y0162384D01*
X0067059Y0162384D01*
X0074244Y0261124D02*
X0079362Y0266242D01*
X0314795Y0193801D02*
X0314795Y0185140D01*
X0319520Y0180415D01*
X0328969Y0180415D02*
X0329165Y0180219D01*
X0352079Y0189411D02*
X0352197Y0189411D01*
X0365622Y0189411D02*
X0365681Y0189352D01*
X0365327Y0056400D02*
X0365091Y0056163D01*
X0365327Y0056400D02*
X0371488Y0056400D01*
X0375031Y0052856D01*
X0375031Y0039470D01*
X0371724Y0036163D01*
X0365091Y0036163D01*
X0365031Y0036104D01*
X0352394Y0036104D01*
X0352591Y0035907D01*
X0352591Y0032384D01*
X0349972Y0029766D01*
X0342591Y0029766D01*
X0342256Y0036911D02*
X0334087Y0036911D01*
X0328772Y0036911D01*
X0328575Y0037108D01*
X0328575Y0045770D02*
X0333890Y0045770D01*
X0334087Y0045573D01*
X0342512Y0045573D01*
X0342512Y0053053D02*
X0349244Y0053053D01*
X0352984Y0049313D01*
X0352984Y0046104D01*
X0352394Y0046104D01*
X0352984Y0046104D02*
X0365031Y0046104D01*
X0365091Y0046163D01*
X0342591Y0037246D02*
X0342256Y0036911D01*
D22*
X0328575Y0037108D03*
X0319913Y0037108D03*
X0328575Y0045770D03*
X0293929Y0086715D03*
X0320701Y0108762D03*
X0328575Y0108762D03*
X0328575Y0115848D03*
X0307315Y0128841D03*
X0320701Y0161911D03*
X0319520Y0180415D03*
X0328969Y0180415D03*
X0328969Y0188289D03*
X0308890Y0192620D03*
X0277787Y0220573D03*
X0272276Y0223329D03*
X0293929Y0248919D03*
X0301803Y0252069D03*
X0328969Y0252069D03*
X0328969Y0260337D03*
X0247079Y0254037D03*
X0236843Y0254037D03*
X0227000Y0254037D03*
X0199047Y0251281D03*
X0181724Y0239864D03*
X0177787Y0236321D03*
X0185661Y0231596D03*
X0201409Y0236321D03*
X0206921Y0227659D03*
X0206134Y0223329D03*
X0223457Y0223302D03*
X0231331Y0220573D03*
X0237033Y0218184D03*
X0233299Y0215848D03*
X0236449Y0202069D03*
X0233693Y0194195D03*
X0238811Y0187502D03*
X0257709Y0174904D03*
X0215189Y0197344D03*
X0204559Y0206400D03*
X0167945Y0219392D03*
X0152591Y0231203D03*
X0141173Y0229628D03*
X0141173Y0236321D03*
X0130937Y0233565D03*
X0110071Y0213880D03*
X0136449Y0197738D03*
X0077000Y0225691D03*
X0077394Y0259549D03*
X0079362Y0266242D03*
X0215189Y0118998D03*
X0215583Y0076085D03*
X0190780Y0076478D03*
X0138417Y0096951D03*
X0114402Y0079628D03*
X0097866Y0091439D03*
X0105346Y0097344D03*
X0086449Y0106006D03*
D23*
X0084323Y0122384D02*
X0067059Y0122384D01*
X0084323Y0122384D02*
X0084480Y0122541D01*
X0084480Y0142226D02*
X0067217Y0142226D01*
X0067059Y0142384D01*
X0130543Y0084746D02*
X0138594Y0076695D01*
X0178614Y0076695D01*
D24*
X0130543Y0084746D03*
X0084480Y0122541D03*
X0084480Y0142226D03*
M02*
